G04 EAGLE Gerber RS-274X export*
G75*
%MOMM*%
%FSLAX34Y34*%
%LPD*%
%IN*%
%IPPOS*%
%AMOC8*
5,1,8,0,0,1.08239X$1,22.5*%
G01*
%ADD10C,0.254000*%


D10*
X0Y0D02*
X381000Y0D01*
X381000Y990600D01*
X0Y990600D01*
X0Y0D01*
X54100Y951976D02*
X54032Y950931D01*
X53895Y949892D01*
X53690Y948865D01*
X53419Y947853D01*
X53083Y946861D01*
X52682Y945893D01*
X52218Y944954D01*
X51695Y944046D01*
X51113Y943175D01*
X50475Y942344D01*
X49784Y941557D01*
X49043Y940816D01*
X48256Y940125D01*
X47425Y939488D01*
X46554Y938906D01*
X45646Y938382D01*
X44707Y937918D01*
X43739Y937517D01*
X42747Y937181D01*
X41735Y936910D01*
X40708Y936705D01*
X39669Y936569D01*
X38624Y936500D01*
X37576Y936500D01*
X36531Y936569D01*
X35492Y936705D01*
X34465Y936910D01*
X33453Y937181D01*
X32461Y937517D01*
X31493Y937918D01*
X30554Y938382D01*
X29646Y938906D01*
X28775Y939488D01*
X27944Y940125D01*
X27157Y940816D01*
X26416Y941557D01*
X25725Y942344D01*
X25088Y943175D01*
X24506Y944046D01*
X23982Y944954D01*
X23518Y945893D01*
X23117Y946861D01*
X22781Y947853D01*
X22510Y948865D01*
X22305Y949892D01*
X22169Y950931D01*
X22100Y951976D01*
X22100Y953024D01*
X22169Y954069D01*
X22305Y955108D01*
X22510Y956135D01*
X22781Y957147D01*
X23117Y958139D01*
X23518Y959107D01*
X23982Y960046D01*
X24506Y960954D01*
X25088Y961825D01*
X25725Y962656D01*
X26416Y963443D01*
X27157Y964184D01*
X27944Y964875D01*
X28775Y965513D01*
X29646Y966095D01*
X30554Y966618D01*
X31493Y967082D01*
X32461Y967483D01*
X33453Y967819D01*
X34465Y968090D01*
X35492Y968295D01*
X36531Y968432D01*
X37576Y968500D01*
X38624Y968500D01*
X39669Y968432D01*
X40708Y968295D01*
X41735Y968090D01*
X42747Y967819D01*
X43739Y967483D01*
X44707Y967082D01*
X45646Y966618D01*
X46554Y966095D01*
X47425Y965513D01*
X48256Y964875D01*
X49043Y964184D01*
X49784Y963443D01*
X50475Y962656D01*
X51113Y961825D01*
X51695Y960954D01*
X52218Y960046D01*
X52682Y959107D01*
X53083Y958139D01*
X53419Y957147D01*
X53690Y956135D01*
X53895Y955108D01*
X54032Y954069D01*
X54100Y953024D01*
X54100Y951976D01*
M02*
