G04 EAGLE Gerber RS-274X export*
G75*
%MOMM*%
%FSLAX34Y34*%
%LPD*%
%INBoard Outline*%
%IPPOS*%
%AMOC8*
5,1,8,0,0,1.08239X$1,22.5*%
G01*
%ADD10C,0.000000*%
%ADD11C,0.254000*%


D10*
X0Y0D02*
X0Y990600D01*
X0Y0D02*
X381000Y0D01*
X381000Y990600D02*
X0Y990600D01*
X381000Y990600D02*
X381000Y0D01*
X22100Y952500D02*
X22105Y952893D01*
X22119Y953285D01*
X22143Y953677D01*
X22177Y954068D01*
X22220Y954459D01*
X22273Y954848D01*
X22336Y955235D01*
X22407Y955621D01*
X22489Y956006D01*
X22579Y956388D01*
X22680Y956767D01*
X22789Y957145D01*
X22908Y957519D01*
X23035Y957890D01*
X23172Y958258D01*
X23318Y958623D01*
X23473Y958984D01*
X23636Y959341D01*
X23808Y959694D01*
X23989Y960042D01*
X24179Y960386D01*
X24376Y960726D01*
X24582Y961060D01*
X24796Y961389D01*
X25019Y961713D01*
X25249Y962031D01*
X25486Y962344D01*
X25732Y962650D01*
X25985Y962951D01*
X26245Y963245D01*
X26512Y963533D01*
X26786Y963814D01*
X27067Y964088D01*
X27355Y964355D01*
X27649Y964615D01*
X27950Y964868D01*
X28256Y965114D01*
X28569Y965351D01*
X28887Y965581D01*
X29211Y965804D01*
X29540Y966018D01*
X29874Y966224D01*
X30214Y966421D01*
X30558Y966611D01*
X30906Y966792D01*
X31259Y966964D01*
X31616Y967127D01*
X31977Y967282D01*
X32342Y967428D01*
X32710Y967565D01*
X33081Y967692D01*
X33455Y967811D01*
X33833Y967920D01*
X34212Y968021D01*
X34594Y968111D01*
X34979Y968193D01*
X35365Y968264D01*
X35752Y968327D01*
X36141Y968380D01*
X36532Y968423D01*
X36923Y968457D01*
X37315Y968481D01*
X37707Y968495D01*
X38100Y968500D01*
X38493Y968495D01*
X38885Y968481D01*
X39277Y968457D01*
X39668Y968423D01*
X40059Y968380D01*
X40448Y968327D01*
X40835Y968264D01*
X41221Y968193D01*
X41606Y968111D01*
X41988Y968021D01*
X42367Y967920D01*
X42745Y967811D01*
X43119Y967692D01*
X43490Y967565D01*
X43858Y967428D01*
X44223Y967282D01*
X44584Y967127D01*
X44941Y966964D01*
X45294Y966792D01*
X45642Y966611D01*
X45986Y966421D01*
X46326Y966224D01*
X46660Y966018D01*
X46989Y965804D01*
X47313Y965581D01*
X47631Y965351D01*
X47944Y965114D01*
X48250Y964868D01*
X48551Y964615D01*
X48845Y964355D01*
X49133Y964088D01*
X49414Y963814D01*
X49688Y963533D01*
X49955Y963245D01*
X50215Y962951D01*
X50468Y962650D01*
X50714Y962344D01*
X50951Y962031D01*
X51181Y961713D01*
X51404Y961389D01*
X51618Y961060D01*
X51824Y960726D01*
X52021Y960386D01*
X52211Y960042D01*
X52392Y959694D01*
X52564Y959341D01*
X52727Y958984D01*
X52882Y958623D01*
X53028Y958258D01*
X53165Y957890D01*
X53292Y957519D01*
X53411Y957145D01*
X53520Y956767D01*
X53621Y956388D01*
X53711Y956006D01*
X53793Y955621D01*
X53864Y955235D01*
X53927Y954848D01*
X53980Y954459D01*
X54023Y954068D01*
X54057Y953677D01*
X54081Y953285D01*
X54095Y952893D01*
X54100Y952500D01*
X54095Y952107D01*
X54081Y951715D01*
X54057Y951323D01*
X54023Y950932D01*
X53980Y950541D01*
X53927Y950152D01*
X53864Y949765D01*
X53793Y949379D01*
X53711Y948994D01*
X53621Y948612D01*
X53520Y948233D01*
X53411Y947855D01*
X53292Y947481D01*
X53165Y947110D01*
X53028Y946742D01*
X52882Y946377D01*
X52727Y946016D01*
X52564Y945659D01*
X52392Y945306D01*
X52211Y944958D01*
X52021Y944614D01*
X51824Y944274D01*
X51618Y943940D01*
X51404Y943611D01*
X51181Y943287D01*
X50951Y942969D01*
X50714Y942656D01*
X50468Y942350D01*
X50215Y942049D01*
X49955Y941755D01*
X49688Y941467D01*
X49414Y941186D01*
X49133Y940912D01*
X48845Y940645D01*
X48551Y940385D01*
X48250Y940132D01*
X47944Y939886D01*
X47631Y939649D01*
X47313Y939419D01*
X46989Y939196D01*
X46660Y938982D01*
X46326Y938776D01*
X45986Y938579D01*
X45642Y938389D01*
X45294Y938208D01*
X44941Y938036D01*
X44584Y937873D01*
X44223Y937718D01*
X43858Y937572D01*
X43490Y937435D01*
X43119Y937308D01*
X42745Y937189D01*
X42367Y937080D01*
X41988Y936979D01*
X41606Y936889D01*
X41221Y936807D01*
X40835Y936736D01*
X40448Y936673D01*
X40059Y936620D01*
X39668Y936577D01*
X39277Y936543D01*
X38885Y936519D01*
X38493Y936505D01*
X38100Y936500D01*
X37707Y936505D01*
X37315Y936519D01*
X36923Y936543D01*
X36532Y936577D01*
X36141Y936620D01*
X35752Y936673D01*
X35365Y936736D01*
X34979Y936807D01*
X34594Y936889D01*
X34212Y936979D01*
X33833Y937080D01*
X33455Y937189D01*
X33081Y937308D01*
X32710Y937435D01*
X32342Y937572D01*
X31977Y937718D01*
X31616Y937873D01*
X31259Y938036D01*
X30906Y938208D01*
X30558Y938389D01*
X30214Y938579D01*
X29874Y938776D01*
X29540Y938982D01*
X29211Y939196D01*
X28887Y939419D01*
X28569Y939649D01*
X28256Y939886D01*
X27950Y940132D01*
X27649Y940385D01*
X27355Y940645D01*
X27067Y940912D01*
X26786Y941186D01*
X26512Y941467D01*
X26245Y941755D01*
X25985Y942049D01*
X25732Y942350D01*
X25486Y942656D01*
X25249Y942969D01*
X25019Y943287D01*
X24796Y943611D01*
X24582Y943940D01*
X24376Y944274D01*
X24179Y944614D01*
X23989Y944958D01*
X23808Y945306D01*
X23636Y945659D01*
X23473Y946016D01*
X23318Y946377D01*
X23172Y946742D01*
X23035Y947110D01*
X22908Y947481D01*
X22789Y947855D01*
X22680Y948233D01*
X22579Y948612D01*
X22489Y948994D01*
X22407Y949379D01*
X22336Y949765D01*
X22273Y950152D01*
X22220Y950541D01*
X22177Y950932D01*
X22143Y951323D01*
X22119Y951715D01*
X22105Y952107D01*
X22100Y952500D01*
D11*
X0Y0D02*
X381000Y0D01*
X381000Y990600D01*
X0Y990600D01*
X0Y0D01*
X54100Y951976D02*
X54032Y950931D01*
X53895Y949892D01*
X53690Y948865D01*
X53419Y947853D01*
X53083Y946861D01*
X52682Y945893D01*
X52218Y944954D01*
X51695Y944046D01*
X51113Y943175D01*
X50475Y942344D01*
X49784Y941557D01*
X49043Y940816D01*
X48256Y940125D01*
X47425Y939488D01*
X46554Y938906D01*
X45646Y938382D01*
X44707Y937918D01*
X43739Y937517D01*
X42747Y937181D01*
X41735Y936910D01*
X40708Y936705D01*
X39669Y936569D01*
X38624Y936500D01*
X37576Y936500D01*
X36531Y936569D01*
X35492Y936705D01*
X34465Y936910D01*
X33453Y937181D01*
X32461Y937517D01*
X31493Y937918D01*
X30554Y938382D01*
X29646Y938906D01*
X28775Y939488D01*
X27944Y940125D01*
X27157Y940816D01*
X26416Y941557D01*
X25725Y942344D01*
X25088Y943175D01*
X24506Y944046D01*
X23982Y944954D01*
X23518Y945893D01*
X23117Y946861D01*
X22781Y947853D01*
X22510Y948865D01*
X22305Y949892D01*
X22169Y950931D01*
X22100Y951976D01*
X22100Y953024D01*
X22169Y954069D01*
X22305Y955108D01*
X22510Y956135D01*
X22781Y957147D01*
X23117Y958139D01*
X23518Y959107D01*
X23982Y960046D01*
X24506Y960954D01*
X25088Y961825D01*
X25725Y962656D01*
X26416Y963443D01*
X27157Y964184D01*
X27944Y964875D01*
X28775Y965513D01*
X29646Y966095D01*
X30554Y966618D01*
X31493Y967082D01*
X32461Y967483D01*
X33453Y967819D01*
X34465Y968090D01*
X35492Y968295D01*
X36531Y968432D01*
X37576Y968500D01*
X38624Y968500D01*
X39669Y968432D01*
X40708Y968295D01*
X41735Y968090D01*
X42747Y967819D01*
X43739Y967483D01*
X44707Y967082D01*
X45646Y966618D01*
X46554Y966095D01*
X47425Y965513D01*
X48256Y964875D01*
X49043Y964184D01*
X49784Y963443D01*
X50475Y962656D01*
X51113Y961825D01*
X51695Y960954D01*
X52218Y960046D01*
X52682Y959107D01*
X53083Y958139D01*
X53419Y957147D01*
X53690Y956135D01*
X53895Y955108D01*
X54032Y954069D01*
X54100Y953024D01*
X54100Y951976D01*
M02*
