M48
;GenerationSoftware,Autodesk,EAGLE,9.6.2*%
;CreationDate,2022-05-04T14:28:19Z*%
FMAT,2
ICI,OFF
METRIC,TZ,000.000
T9C0.350
T8C0.600
T7C0.610
T6C0.813
T5C1.000
T4C1.016
T3C1.100
T2C2.100
T1C3.200
%
G90
M71
T1
X3810Y95250
T2
X14550Y97155
X23550Y97155
X24710Y76200
X21010Y8255
X12010Y8255
X33710Y76200
X21010Y66040
X12010Y66040
X21010Y50800
X12010Y50800
T3
X26710Y69200
X19010Y43800
X16510Y43800
X14010Y43800
X29210Y69200
X31710Y69200
X19010Y59040
X16510Y59040
X14010Y59040
X16550Y90155
X19050Y90155
X19010Y1255
X16510Y1255
X14010Y1255
X33020Y1755
X33020Y4755
X33020Y13255
X5080Y74780
X5080Y77780
X5080Y86280
X5080Y44300
X5080Y47300
X5080Y55800
X5080Y59540
X21550Y90155
X5080Y62540
X5080Y71040
X5080Y1755
X5080Y4755
X5080Y13255
T4
X2540Y30480
X2540Y27940
X2540Y25400
X2540Y22860
X2540Y20320
X2540Y17780
X29210Y60325
X24130Y60325
X35560Y17780
X35560Y20320
X35560Y22860
X35560Y25400
X35560Y27940
X35560Y30480
X34290Y60325
T5
X7025Y37425
X12025Y37425
X12025Y32425
X7025Y32425
T6
X14605Y17780
X19685Y40005
X24130Y57150
X24130Y52070
X34925Y57150
X34925Y54610
X34925Y52070
X34925Y49530
X34925Y46990
X34925Y44450
X34925Y41910
X34925Y39370
X27305Y46990
X27305Y44450
X27305Y49530
X27305Y52070
X27305Y39370
X27305Y41910
X27305Y54610
X27305Y57150
X27940Y92710
X27940Y87630
X15875Y83185
X15875Y75565
X20955Y83185
X20955Y75565
X13335Y83185
X13335Y75565
X16510Y87630
X24130Y87630
X18415Y83185
X18415Y75565
X19685Y25400
X17145Y25400
X14605Y25400
X12065Y25400
X12065Y17780
X26035Y22225
X17145Y17780
X19685Y17780
X21590Y36195
X29210Y36195
X21590Y33020
X29210Y33020
X21590Y29845
X29210Y29845
X24130Y20955
X17145Y40005
X19685Y34925
X17145Y34925
X19685Y29845
X17145Y29845
X8890Y24130
X8890Y19050
X26035Y19685
X1905Y41910
X1905Y34290
T7
X9525Y44450
X12700Y62865
X8255Y46355
X24130Y69850
X10795Y47625
X14605Y54610
X31750Y36195
X31750Y22225
X32385Y52070
X24130Y24130
X15875Y53340
X22860Y26670
X12065Y46355
X24130Y45720
X30480Y25400
X21590Y25400
X19685Y27940
X27305Y27940
X34290Y36195
X12700Y60960
X14605Y41910
T8
X23495Y2540
X1905Y59055
X14605Y85725
X8890Y93345
X31115Y94615
X6350Y34925
X5715Y24130
X11430Y30480
X29210Y2540
X29210Y27940
X24765Y8890
X34290Y33655
X11430Y86360
T9
X13335Y20320
M30