G04 EAGLE Gerber RS-274X export*
G75*
%MOMM*%
%FSLAX34Y34*%
%LPD*%
%INTop Copper*%
%IPPOS*%
%AMOC8*
5,1,8,0,0,1.08239X$1,22.5*%
G01*
%ADD10C,1.524000*%
%ADD11C,1.650000*%
%ADD12R,1.676400X1.676400*%
%ADD13P,1.814519X8X292.500000*%
%ADD14R,3.116000X3.116000*%
%ADD15P,1.429621X8X292.500000*%
%ADD16P,1.429621X8X22.500000*%
%ADD17C,1.320800*%
%ADD18P,1.429621X8X202.500000*%
%ADD19C,1.508000*%
%ADD20P,1.429621X8X112.500000*%
%ADD21P,2.336880X8X112.500000*%
%ADD22C,0.406400*%
%ADD23C,1.016000*%
%ADD24R,1.006400X1.006400*%
%ADD25C,0.756400*%

G36*
X196886Y222492D02*
X196886Y222492D01*
X196903Y222490D01*
X197085Y222513D01*
X197268Y222533D01*
X197285Y222539D01*
X197303Y222541D01*
X197476Y222599D01*
X197652Y222655D01*
X197668Y222663D01*
X197684Y222669D01*
X197844Y222761D01*
X198004Y222850D01*
X198018Y222861D01*
X198033Y222870D01*
X198286Y223085D01*
X218518Y243317D01*
X218621Y243419D01*
X218627Y243427D01*
X218634Y243432D01*
X218754Y243581D01*
X218876Y243731D01*
X218881Y243739D01*
X218886Y243746D01*
X218974Y243915D01*
X219065Y244087D01*
X219068Y244095D01*
X219072Y244103D01*
X219125Y244287D01*
X219180Y244473D01*
X219181Y244482D01*
X219183Y244490D01*
X219199Y244682D01*
X219216Y244873D01*
X219215Y244883D01*
X219216Y244892D01*
X219194Y245081D01*
X219173Y245274D01*
X219170Y245283D01*
X219169Y245291D01*
X219109Y245474D01*
X219051Y245658D01*
X219047Y245665D01*
X219044Y245674D01*
X218949Y245843D01*
X218857Y246010D01*
X218851Y246017D01*
X218846Y246025D01*
X218721Y246170D01*
X218596Y246317D01*
X218589Y246323D01*
X218583Y246330D01*
X218432Y246447D01*
X218280Y246567D01*
X218272Y246571D01*
X218265Y246576D01*
X218093Y246662D01*
X217921Y246749D01*
X217913Y246751D01*
X217905Y246756D01*
X217718Y246806D01*
X217534Y246857D01*
X217525Y246858D01*
X217516Y246860D01*
X217185Y246887D01*
X214485Y246887D01*
X211871Y247970D01*
X209870Y249971D01*
X209395Y251119D01*
X209393Y251123D01*
X209391Y251127D01*
X209298Y251300D01*
X209204Y251474D01*
X209202Y251477D01*
X209199Y251481D01*
X209075Y251630D01*
X208948Y251784D01*
X208945Y251787D01*
X208942Y251790D01*
X208789Y251913D01*
X208635Y252038D01*
X208631Y252040D01*
X208628Y252043D01*
X208455Y252133D01*
X208279Y252225D01*
X208275Y252226D01*
X208271Y252228D01*
X208083Y252282D01*
X207892Y252338D01*
X207888Y252338D01*
X207884Y252340D01*
X207686Y252356D01*
X207491Y252373D01*
X207487Y252372D01*
X207482Y252373D01*
X207288Y252350D01*
X207091Y252328D01*
X207087Y252326D01*
X207083Y252326D01*
X206897Y252265D01*
X206708Y252204D01*
X206704Y252202D01*
X206700Y252201D01*
X206528Y252104D01*
X206356Y252008D01*
X206353Y252005D01*
X206349Y252003D01*
X206201Y251875D01*
X206051Y251746D01*
X206048Y251743D01*
X206044Y251740D01*
X205924Y251585D01*
X205802Y251429D01*
X205800Y251425D01*
X205798Y251422D01*
X205709Y251244D01*
X205622Y251069D01*
X205620Y251065D01*
X205618Y251061D01*
X205567Y250869D01*
X205515Y250681D01*
X205515Y250677D01*
X205514Y250672D01*
X205487Y250342D01*
X205487Y245678D01*
X204172Y242504D01*
X201742Y240074D01*
X200438Y239534D01*
X198568Y238759D01*
X195132Y238759D01*
X191958Y240074D01*
X189528Y242504D01*
X188213Y245678D01*
X188213Y262322D01*
X189528Y265496D01*
X191958Y267926D01*
X194431Y268950D01*
X194438Y268954D01*
X194447Y268957D01*
X194617Y269050D01*
X194785Y269140D01*
X194792Y269146D01*
X194800Y269150D01*
X194949Y269275D01*
X195096Y269397D01*
X195101Y269404D01*
X195108Y269409D01*
X195228Y269560D01*
X195349Y269709D01*
X195354Y269717D01*
X195359Y269724D01*
X195446Y269894D01*
X195537Y270066D01*
X195539Y270075D01*
X195543Y270082D01*
X195595Y270264D01*
X195650Y270452D01*
X195650Y270461D01*
X195653Y270470D01*
X195668Y270661D01*
X195684Y270853D01*
X195683Y270862D01*
X195684Y270871D01*
X195661Y271060D01*
X195639Y271254D01*
X195636Y271262D01*
X195635Y271271D01*
X195575Y271452D01*
X195516Y271637D01*
X195512Y271645D01*
X195509Y271653D01*
X195413Y271820D01*
X195320Y271988D01*
X195314Y271995D01*
X195309Y272003D01*
X195182Y272149D01*
X195058Y272294D01*
X195051Y272300D01*
X195045Y272306D01*
X194893Y272423D01*
X194741Y272542D01*
X194733Y272546D01*
X194726Y272552D01*
X194431Y272703D01*
X192821Y273370D01*
X190820Y275371D01*
X189737Y277985D01*
X189737Y280685D01*
X189736Y280694D01*
X189737Y280703D01*
X189716Y280895D01*
X189697Y281086D01*
X189695Y281094D01*
X189694Y281103D01*
X189635Y281288D01*
X189579Y281471D01*
X189575Y281478D01*
X189572Y281487D01*
X189478Y281657D01*
X189387Y281825D01*
X189382Y281831D01*
X189377Y281840D01*
X189252Y281987D01*
X189130Y282134D01*
X189123Y282140D01*
X189117Y282146D01*
X188966Y282266D01*
X188816Y282386D01*
X188808Y282390D01*
X188801Y282396D01*
X188629Y282483D01*
X188459Y282572D01*
X188450Y282574D01*
X188442Y282578D01*
X188257Y282630D01*
X188072Y282683D01*
X188063Y282684D01*
X188054Y282686D01*
X187864Y282700D01*
X187670Y282716D01*
X187661Y282715D01*
X187652Y282716D01*
X187463Y282692D01*
X187271Y282669D01*
X187262Y282666D01*
X187253Y282665D01*
X187072Y282604D01*
X186888Y282544D01*
X186880Y282540D01*
X186871Y282537D01*
X186705Y282441D01*
X186537Y282346D01*
X186530Y282340D01*
X186522Y282336D01*
X186269Y282121D01*
X186167Y282018D01*
X176110Y271961D01*
X176093Y271941D01*
X176072Y271923D01*
X175965Y271785D01*
X175855Y271650D01*
X175842Y271626D01*
X175826Y271605D01*
X175748Y271448D01*
X175666Y271294D01*
X175658Y271269D01*
X175646Y271244D01*
X175601Y271075D01*
X175551Y270908D01*
X175549Y270882D01*
X175542Y270856D01*
X175515Y270525D01*
X175515Y269595D01*
X175517Y269568D01*
X175515Y269542D01*
X175537Y269368D01*
X175555Y269194D01*
X175562Y269169D01*
X175566Y269142D01*
X175621Y268976D01*
X175673Y268809D01*
X175686Y268786D01*
X175694Y268760D01*
X175781Y268609D01*
X175865Y268455D01*
X175882Y268435D01*
X175895Y268412D01*
X176110Y268159D01*
X178772Y265496D01*
X180087Y262322D01*
X180087Y245678D01*
X178772Y242504D01*
X176342Y240074D01*
X175038Y239534D01*
X173168Y238759D01*
X169732Y238759D01*
X166558Y240074D01*
X164128Y242504D01*
X162813Y245678D01*
X162813Y262322D01*
X164128Y265496D01*
X166790Y268159D01*
X166807Y268179D01*
X166828Y268197D01*
X166935Y268335D01*
X167045Y268470D01*
X167058Y268494D01*
X167074Y268515D01*
X167152Y268672D01*
X167234Y268826D01*
X167242Y268851D01*
X167254Y268875D01*
X167299Y269045D01*
X167349Y269212D01*
X167351Y269238D01*
X167358Y269264D01*
X167385Y269595D01*
X167385Y273859D01*
X168004Y275352D01*
X179490Y286839D01*
X179507Y286859D01*
X179528Y286877D01*
X179635Y287015D01*
X179745Y287150D01*
X179758Y287174D01*
X179774Y287195D01*
X179852Y287352D01*
X179934Y287506D01*
X179942Y287531D01*
X179954Y287556D01*
X179999Y287724D01*
X180049Y287892D01*
X180051Y287918D01*
X180058Y287944D01*
X180085Y288275D01*
X180085Y289249D01*
X180084Y289258D01*
X180085Y289267D01*
X180064Y289458D01*
X180045Y289649D01*
X180043Y289658D01*
X180042Y289667D01*
X179984Y289849D01*
X179927Y290034D01*
X179923Y290042D01*
X179920Y290051D01*
X179827Y290219D01*
X179735Y290388D01*
X179730Y290395D01*
X179725Y290403D01*
X179600Y290551D01*
X179478Y290698D01*
X179471Y290703D01*
X179465Y290710D01*
X179313Y290830D01*
X179164Y290950D01*
X179156Y290954D01*
X179149Y290960D01*
X178977Y291047D01*
X178807Y291135D01*
X178798Y291138D01*
X178790Y291142D01*
X178604Y291194D01*
X178420Y291247D01*
X178411Y291248D01*
X178402Y291250D01*
X178210Y291264D01*
X178018Y291280D01*
X178010Y291279D01*
X178001Y291279D01*
X177808Y291255D01*
X177619Y291233D01*
X177610Y291230D01*
X177601Y291229D01*
X177418Y291168D01*
X177236Y291108D01*
X177228Y291104D01*
X177220Y291101D01*
X177054Y291005D01*
X176885Y290910D01*
X176878Y290904D01*
X176871Y290900D01*
X176618Y290685D01*
X175238Y289305D01*
X173481Y289305D01*
X173481Y298450D01*
X173481Y307595D01*
X175238Y307595D01*
X177098Y305735D01*
X177108Y305726D01*
X177117Y305716D01*
X177263Y305599D01*
X177409Y305480D01*
X177421Y305474D01*
X177431Y305465D01*
X177599Y305379D01*
X177765Y305291D01*
X177778Y305287D01*
X177790Y305281D01*
X177970Y305230D01*
X178151Y305176D01*
X178164Y305175D01*
X178177Y305172D01*
X178363Y305157D01*
X178552Y305140D01*
X178565Y305142D01*
X178578Y305140D01*
X178763Y305163D01*
X178952Y305183D01*
X178965Y305188D01*
X178978Y305189D01*
X179156Y305248D01*
X179336Y305305D01*
X179348Y305311D01*
X179360Y305316D01*
X179524Y305409D01*
X179688Y305500D01*
X179698Y305508D01*
X179710Y305515D01*
X179852Y305639D01*
X179995Y305760D01*
X180003Y305771D01*
X180014Y305780D01*
X180128Y305928D01*
X180245Y306076D01*
X180251Y306088D01*
X180259Y306099D01*
X180411Y306394D01*
X180704Y307102D01*
X188198Y314596D01*
X189691Y315215D01*
X251475Y315215D01*
X251502Y315217D01*
X251528Y315215D01*
X251702Y315237D01*
X251876Y315255D01*
X251901Y315262D01*
X251928Y315266D01*
X252093Y315321D01*
X252260Y315373D01*
X252284Y315386D01*
X252309Y315394D01*
X252461Y315481D01*
X252615Y315565D01*
X252635Y315582D01*
X252658Y315595D01*
X252911Y315810D01*
X262040Y324939D01*
X262057Y324959D01*
X262078Y324977D01*
X262185Y325115D01*
X262295Y325250D01*
X262308Y325274D01*
X262324Y325295D01*
X262402Y325451D01*
X262484Y325606D01*
X262492Y325631D01*
X262504Y325656D01*
X262549Y325825D01*
X262599Y325992D01*
X262601Y326018D01*
X262608Y326044D01*
X262635Y326375D01*
X262635Y362759D01*
X263254Y364252D01*
X275668Y376667D01*
X275669Y376667D01*
X277098Y378096D01*
X278591Y378715D01*
X308625Y378715D01*
X308652Y378717D01*
X308678Y378715D01*
X308852Y378737D01*
X309026Y378755D01*
X309051Y378762D01*
X309078Y378766D01*
X309243Y378821D01*
X309410Y378873D01*
X309434Y378886D01*
X309459Y378894D01*
X309611Y378981D01*
X309765Y379065D01*
X309785Y379082D01*
X309808Y379095D01*
X310061Y379310D01*
X327898Y397146D01*
X329391Y397765D01*
X333655Y397765D01*
X333682Y397767D01*
X333709Y397765D01*
X333882Y397787D01*
X334056Y397805D01*
X334081Y397812D01*
X334108Y397816D01*
X334274Y397872D01*
X334441Y397923D01*
X334464Y397936D01*
X334490Y397944D01*
X334641Y398031D01*
X334795Y398115D01*
X334815Y398132D01*
X334839Y398145D01*
X335092Y398360D01*
X337754Y401022D01*
X340928Y402337D01*
X357572Y402337D01*
X360746Y401022D01*
X363176Y398592D01*
X364491Y395418D01*
X364491Y391982D01*
X363176Y388808D01*
X360746Y386378D01*
X357572Y385063D01*
X340928Y385063D01*
X337754Y386378D01*
X335092Y389040D01*
X335071Y389057D01*
X335053Y389078D01*
X334915Y389185D01*
X334780Y389295D01*
X334756Y389308D01*
X334735Y389324D01*
X334579Y389402D01*
X334424Y389484D01*
X334399Y389492D01*
X334375Y389504D01*
X334206Y389549D01*
X334038Y389599D01*
X334012Y389601D01*
X333986Y389608D01*
X333655Y389635D01*
X332725Y389635D01*
X332698Y389633D01*
X332672Y389635D01*
X332498Y389613D01*
X332324Y389595D01*
X332299Y389588D01*
X332272Y389584D01*
X332107Y389529D01*
X331940Y389477D01*
X331916Y389464D01*
X331891Y389456D01*
X331739Y389369D01*
X331585Y389285D01*
X331565Y389268D01*
X331542Y389255D01*
X331289Y389040D01*
X314779Y372530D01*
X314773Y372523D01*
X314766Y372518D01*
X314646Y372368D01*
X314524Y372219D01*
X314519Y372211D01*
X314514Y372204D01*
X314425Y372034D01*
X314335Y371863D01*
X314332Y371854D01*
X314328Y371847D01*
X314275Y371662D01*
X314220Y371477D01*
X314219Y371468D01*
X314217Y371460D01*
X314201Y371268D01*
X314184Y371076D01*
X314185Y371067D01*
X314184Y371058D01*
X314206Y370869D01*
X314227Y370676D01*
X314230Y370667D01*
X314231Y370659D01*
X314290Y370477D01*
X314349Y370292D01*
X314353Y370284D01*
X314356Y370276D01*
X314451Y370107D01*
X314544Y369940D01*
X314549Y369933D01*
X314554Y369925D01*
X314680Y369779D01*
X314804Y369633D01*
X314811Y369627D01*
X314817Y369620D01*
X314968Y369503D01*
X315120Y369383D01*
X315128Y369379D01*
X315135Y369374D01*
X315307Y369288D01*
X315479Y369201D01*
X315487Y369198D01*
X315495Y369194D01*
X315682Y369144D01*
X315867Y369093D01*
X315876Y369092D01*
X315884Y369090D01*
X316215Y369063D01*
X318915Y369063D01*
X321529Y367980D01*
X322899Y366610D01*
X322920Y366593D01*
X322937Y366572D01*
X323075Y366465D01*
X323211Y366355D01*
X323234Y366342D01*
X323256Y366326D01*
X323412Y366248D01*
X323566Y366166D01*
X323592Y366158D01*
X323616Y366146D01*
X323785Y366101D01*
X323952Y366051D01*
X323979Y366049D01*
X324005Y366042D01*
X324336Y366015D01*
X336064Y366015D01*
X336091Y366017D01*
X336118Y366015D01*
X336292Y366037D01*
X336465Y366055D01*
X336491Y366062D01*
X336517Y366066D01*
X336683Y366121D01*
X336850Y366173D01*
X336874Y366186D01*
X336899Y366194D01*
X337051Y366281D01*
X337204Y366365D01*
X337224Y366382D01*
X337248Y366395D01*
X337501Y366610D01*
X338871Y367980D01*
X341485Y369063D01*
X344315Y369063D01*
X346929Y367980D01*
X348930Y365979D01*
X350013Y363365D01*
X350013Y360535D01*
X348930Y357921D01*
X346929Y355920D01*
X345469Y355315D01*
X344315Y354837D01*
X341485Y354837D01*
X338871Y355920D01*
X337501Y357290D01*
X337480Y357307D01*
X337463Y357328D01*
X337325Y357435D01*
X337189Y357545D01*
X337166Y357558D01*
X337144Y357574D01*
X336988Y357652D01*
X336834Y357734D01*
X336808Y357742D01*
X336784Y357754D01*
X336615Y357799D01*
X336448Y357849D01*
X336421Y357851D01*
X336395Y357858D01*
X336064Y357885D01*
X324336Y357885D01*
X324309Y357883D01*
X324282Y357885D01*
X324108Y357863D01*
X323935Y357845D01*
X323909Y357838D01*
X323883Y357834D01*
X323717Y357778D01*
X323550Y357727D01*
X323526Y357714D01*
X323501Y357706D01*
X323350Y357619D01*
X323196Y357535D01*
X323175Y357518D01*
X323152Y357505D01*
X322899Y357290D01*
X321529Y355920D01*
X320069Y355315D01*
X318915Y354837D01*
X316085Y354837D01*
X313471Y355920D01*
X311470Y357921D01*
X310387Y360535D01*
X310387Y363365D01*
X311470Y365979D01*
X312609Y367118D01*
X312614Y367125D01*
X312621Y367130D01*
X312742Y367281D01*
X312864Y367429D01*
X312868Y367437D01*
X312874Y367444D01*
X312962Y367614D01*
X313052Y367785D01*
X313055Y367794D01*
X313059Y367801D01*
X313112Y367986D01*
X313167Y368171D01*
X313168Y368180D01*
X313171Y368188D01*
X313186Y368379D01*
X313204Y368572D01*
X313203Y368581D01*
X313203Y368590D01*
X313181Y368779D01*
X313160Y368972D01*
X313158Y368981D01*
X313157Y368989D01*
X313097Y369171D01*
X313039Y369356D01*
X313034Y369364D01*
X313032Y369372D01*
X312937Y369539D01*
X312844Y369708D01*
X312838Y369715D01*
X312834Y369723D01*
X312709Y369868D01*
X312583Y370015D01*
X312576Y370021D01*
X312571Y370028D01*
X312420Y370144D01*
X312268Y370265D01*
X312259Y370269D01*
X312253Y370274D01*
X312082Y370359D01*
X311909Y370447D01*
X311900Y370450D01*
X311892Y370454D01*
X311706Y370503D01*
X311521Y370555D01*
X311512Y370556D01*
X311503Y370558D01*
X311172Y370585D01*
X300583Y370585D01*
X300574Y370584D01*
X300565Y370585D01*
X300373Y370564D01*
X300182Y370545D01*
X300174Y370543D01*
X300165Y370542D01*
X299982Y370484D01*
X299797Y370427D01*
X299789Y370423D01*
X299781Y370420D01*
X299612Y370327D01*
X299443Y370235D01*
X299436Y370230D01*
X299429Y370225D01*
X299281Y370100D01*
X299134Y369978D01*
X299128Y369971D01*
X299122Y369965D01*
X299002Y369813D01*
X298882Y369664D01*
X298878Y369656D01*
X298872Y369649D01*
X298785Y369477D01*
X298696Y369307D01*
X298694Y369298D01*
X298690Y369290D01*
X298638Y369104D01*
X298585Y368920D01*
X298584Y368911D01*
X298582Y368902D01*
X298567Y368710D01*
X298552Y368518D01*
X298553Y368510D01*
X298552Y368501D01*
X298577Y368308D01*
X298599Y368119D01*
X298601Y368110D01*
X298603Y368101D01*
X298664Y367918D01*
X298724Y367736D01*
X298728Y367728D01*
X298731Y367720D01*
X298827Y367552D01*
X298921Y367385D01*
X298927Y367378D01*
X298932Y367371D01*
X299146Y367118D01*
X300737Y365527D01*
X300737Y358373D01*
X295677Y353313D01*
X288523Y353313D01*
X283463Y358373D01*
X283463Y365527D01*
X285054Y367118D01*
X285059Y367125D01*
X285066Y367130D01*
X285186Y367280D01*
X285309Y367429D01*
X285313Y367437D01*
X285318Y367444D01*
X285407Y367614D01*
X285497Y367785D01*
X285500Y367794D01*
X285504Y367801D01*
X285557Y367986D01*
X285612Y368171D01*
X285613Y368180D01*
X285615Y368188D01*
X285631Y368379D01*
X285648Y368572D01*
X285647Y368581D01*
X285648Y368590D01*
X285626Y368779D01*
X285605Y368972D01*
X285602Y368981D01*
X285601Y368989D01*
X285542Y369171D01*
X285484Y369356D01*
X285479Y369364D01*
X285476Y369372D01*
X285381Y369541D01*
X285289Y369708D01*
X285283Y369715D01*
X285279Y369723D01*
X285153Y369869D01*
X285028Y370015D01*
X285021Y370021D01*
X285015Y370028D01*
X284864Y370145D01*
X284712Y370265D01*
X284704Y370269D01*
X284697Y370274D01*
X284525Y370360D01*
X284353Y370447D01*
X284345Y370450D01*
X284337Y370454D01*
X284151Y370504D01*
X283965Y370555D01*
X283957Y370556D01*
X283948Y370558D01*
X283617Y370585D01*
X281925Y370585D01*
X281898Y370583D01*
X281872Y370585D01*
X281698Y370563D01*
X281524Y370545D01*
X281499Y370538D01*
X281472Y370534D01*
X281306Y370478D01*
X281139Y370427D01*
X281116Y370414D01*
X281091Y370406D01*
X280939Y370319D01*
X280785Y370235D01*
X280765Y370218D01*
X280742Y370205D01*
X280489Y369990D01*
X271360Y360861D01*
X271343Y360841D01*
X271322Y360823D01*
X271215Y360685D01*
X271105Y360550D01*
X271092Y360526D01*
X271076Y360505D01*
X270998Y360348D01*
X270916Y360194D01*
X270908Y360169D01*
X270896Y360144D01*
X270851Y359975D01*
X270801Y359808D01*
X270799Y359782D01*
X270792Y359756D01*
X270765Y359425D01*
X270765Y326375D01*
X270767Y326348D01*
X270765Y326322D01*
X270787Y326148D01*
X270805Y325974D01*
X270812Y325949D01*
X270816Y325922D01*
X270871Y325757D01*
X270923Y325590D01*
X270936Y325566D01*
X270944Y325541D01*
X271031Y325389D01*
X271115Y325235D01*
X271132Y325215D01*
X271145Y325192D01*
X271360Y324939D01*
X288617Y307682D01*
X288637Y307665D01*
X288655Y307644D01*
X288793Y307537D01*
X288928Y307427D01*
X288952Y307414D01*
X288973Y307398D01*
X289130Y307320D01*
X289284Y307238D01*
X289309Y307230D01*
X289334Y307218D01*
X289503Y307173D01*
X289670Y307123D01*
X289696Y307121D01*
X289722Y307114D01*
X290053Y307087D01*
X295677Y307087D01*
X300737Y302027D01*
X300737Y294873D01*
X295677Y289813D01*
X288523Y289813D01*
X283463Y294873D01*
X283463Y300497D01*
X283461Y300524D01*
X283463Y300550D01*
X283441Y300724D01*
X283423Y300898D01*
X283416Y300923D01*
X283412Y300950D01*
X283357Y301115D01*
X283305Y301282D01*
X283292Y301306D01*
X283284Y301331D01*
X283197Y301483D01*
X283113Y301637D01*
X283096Y301657D01*
X283083Y301680D01*
X282868Y301933D01*
X268136Y316665D01*
X268122Y316677D01*
X268111Y316690D01*
X267967Y316804D01*
X267825Y316920D01*
X267809Y316929D01*
X267795Y316940D01*
X267631Y317023D01*
X267469Y317109D01*
X267452Y317114D01*
X267436Y317122D01*
X267259Y317172D01*
X267083Y317224D01*
X267065Y317225D01*
X267048Y317230D01*
X266865Y317244D01*
X266682Y317260D01*
X266664Y317258D01*
X266647Y317260D01*
X266465Y317237D01*
X266282Y317217D01*
X266265Y317211D01*
X266247Y317209D01*
X266073Y317151D01*
X265898Y317095D01*
X265882Y317087D01*
X265866Y317081D01*
X265706Y316989D01*
X265546Y316900D01*
X265532Y316889D01*
X265517Y316880D01*
X265264Y316665D01*
X256302Y307704D01*
X254809Y307085D01*
X224383Y307085D01*
X224374Y307084D01*
X224365Y307085D01*
X224173Y307064D01*
X223982Y307045D01*
X223974Y307043D01*
X223965Y307042D01*
X223782Y306984D01*
X223597Y306927D01*
X223589Y306923D01*
X223581Y306920D01*
X223412Y306827D01*
X223243Y306735D01*
X223236Y306730D01*
X223229Y306725D01*
X223081Y306600D01*
X222934Y306478D01*
X222928Y306471D01*
X222922Y306465D01*
X222802Y306313D01*
X222682Y306164D01*
X222678Y306156D01*
X222672Y306149D01*
X222585Y305977D01*
X222496Y305807D01*
X222494Y305798D01*
X222490Y305790D01*
X222438Y305604D01*
X222385Y305420D01*
X222384Y305411D01*
X222382Y305402D01*
X222367Y305210D01*
X222352Y305018D01*
X222353Y305010D01*
X222352Y305001D01*
X222377Y304808D01*
X222399Y304619D01*
X222401Y304610D01*
X222403Y304601D01*
X222464Y304418D01*
X222524Y304236D01*
X222528Y304228D01*
X222531Y304220D01*
X222627Y304052D01*
X222721Y303885D01*
X222727Y303878D01*
X222732Y303871D01*
X222946Y303618D01*
X224537Y302027D01*
X224537Y294873D01*
X219477Y289813D01*
X212323Y289813D01*
X207811Y294325D01*
X207798Y294336D01*
X207786Y294349D01*
X207642Y294463D01*
X207500Y294580D01*
X207484Y294588D01*
X207470Y294599D01*
X207306Y294682D01*
X207144Y294768D01*
X207127Y294773D01*
X207111Y294781D01*
X206934Y294831D01*
X206758Y294883D01*
X206740Y294885D01*
X206723Y294889D01*
X206540Y294903D01*
X206357Y294919D01*
X206339Y294917D01*
X206322Y294919D01*
X206140Y294896D01*
X205957Y294876D01*
X205940Y294871D01*
X205922Y294868D01*
X205749Y294810D01*
X205573Y294754D01*
X205557Y294746D01*
X205541Y294740D01*
X205381Y294648D01*
X205221Y294560D01*
X205207Y294548D01*
X205192Y294539D01*
X204939Y294325D01*
X200419Y289805D01*
X200305Y289793D01*
X200108Y289773D01*
X200103Y289772D01*
X200099Y289772D01*
X199910Y289713D01*
X199723Y289655D01*
X199719Y289653D01*
X199715Y289652D01*
X199540Y289556D01*
X199369Y289463D01*
X199365Y289461D01*
X199361Y289458D01*
X199209Y289330D01*
X199060Y289206D01*
X199057Y289202D01*
X199053Y289199D01*
X198928Y289043D01*
X198807Y288892D01*
X198805Y288888D01*
X198802Y288885D01*
X198710Y288704D01*
X198622Y288535D01*
X198621Y288530D01*
X198618Y288526D01*
X198564Y288336D01*
X198510Y288148D01*
X198510Y288143D01*
X198509Y288139D01*
X198494Y287944D01*
X198477Y287746D01*
X198478Y287742D01*
X198478Y287738D01*
X198501Y287544D01*
X198524Y287347D01*
X198526Y287342D01*
X198526Y287338D01*
X198588Y287150D01*
X198649Y286964D01*
X198651Y286960D01*
X198653Y286956D01*
X198749Y286787D01*
X198847Y286613D01*
X198850Y286610D01*
X198852Y286606D01*
X198983Y286456D01*
X199110Y286309D01*
X199114Y286306D01*
X199117Y286302D01*
X199274Y286182D01*
X199428Y286062D01*
X199432Y286060D01*
X199436Y286057D01*
X199731Y285905D01*
X200879Y285430D01*
X202249Y284060D01*
X202270Y284043D01*
X202287Y284022D01*
X202425Y283915D01*
X202561Y283805D01*
X202584Y283792D01*
X202606Y283776D01*
X202762Y283698D01*
X202916Y283616D01*
X202942Y283608D01*
X202966Y283596D01*
X203135Y283551D01*
X203302Y283501D01*
X203329Y283499D01*
X203355Y283492D01*
X203686Y283465D01*
X266214Y283465D01*
X266241Y283467D01*
X266268Y283465D01*
X266442Y283487D01*
X266615Y283505D01*
X266641Y283512D01*
X266667Y283516D01*
X266833Y283571D01*
X267000Y283623D01*
X267024Y283636D01*
X267049Y283644D01*
X267201Y283731D01*
X267354Y283815D01*
X267374Y283832D01*
X267398Y283845D01*
X267651Y284060D01*
X269021Y285430D01*
X271635Y286513D01*
X274465Y286513D01*
X277079Y285430D01*
X279080Y283429D01*
X280163Y280815D01*
X280163Y277985D01*
X279080Y275371D01*
X277941Y274232D01*
X277936Y274225D01*
X277929Y274220D01*
X277808Y274069D01*
X277686Y273921D01*
X277682Y273913D01*
X277676Y273906D01*
X277588Y273736D01*
X277498Y273565D01*
X277495Y273556D01*
X277491Y273549D01*
X277438Y273364D01*
X277383Y273179D01*
X277382Y273170D01*
X277379Y273162D01*
X277364Y272971D01*
X277346Y272778D01*
X277347Y272769D01*
X277347Y272760D01*
X277369Y272571D01*
X277390Y272378D01*
X277392Y272369D01*
X277393Y272361D01*
X277453Y272179D01*
X277511Y271994D01*
X277516Y271986D01*
X277518Y271978D01*
X277613Y271811D01*
X277706Y271642D01*
X277712Y271635D01*
X277716Y271627D01*
X277841Y271482D01*
X277967Y271335D01*
X277974Y271329D01*
X277979Y271322D01*
X278130Y271206D01*
X278282Y271085D01*
X278291Y271081D01*
X278297Y271076D01*
X278468Y270991D01*
X278641Y270903D01*
X278650Y270900D01*
X278658Y270896D01*
X278844Y270847D01*
X279029Y270795D01*
X279038Y270794D01*
X279047Y270792D01*
X279378Y270765D01*
X321325Y270765D01*
X321352Y270767D01*
X321378Y270765D01*
X321552Y270787D01*
X321726Y270805D01*
X321751Y270812D01*
X321778Y270816D01*
X321943Y270871D01*
X322110Y270923D01*
X322134Y270936D01*
X322159Y270944D01*
X322311Y271031D01*
X322465Y271115D01*
X322485Y271132D01*
X322508Y271145D01*
X322761Y271360D01*
X334248Y282846D01*
X335741Y283465D01*
X337858Y283465D01*
X337881Y283467D01*
X337903Y283465D01*
X338080Y283487D01*
X338259Y283505D01*
X338280Y283511D01*
X338303Y283514D01*
X338472Y283570D01*
X338644Y283623D01*
X338664Y283633D01*
X338685Y283640D01*
X338840Y283729D01*
X338998Y283815D01*
X339015Y283829D01*
X339034Y283840D01*
X339169Y283957D01*
X339307Y284072D01*
X339321Y284090D01*
X339338Y284104D01*
X339447Y284246D01*
X339560Y284386D01*
X339570Y284406D01*
X339583Y284424D01*
X339735Y284719D01*
X339797Y284868D01*
X342512Y287583D01*
X346060Y289053D01*
X365140Y289053D01*
X368031Y287855D01*
X368044Y287851D01*
X368055Y287845D01*
X368235Y287794D01*
X368416Y287739D01*
X368429Y287738D01*
X368442Y287734D01*
X368630Y287719D01*
X368817Y287701D01*
X368830Y287702D01*
X368844Y287701D01*
X369030Y287723D01*
X369217Y287742D01*
X369230Y287746D01*
X369243Y287748D01*
X369422Y287806D01*
X369602Y287862D01*
X369613Y287869D01*
X369626Y287873D01*
X369791Y287966D01*
X369955Y288056D01*
X369965Y288064D01*
X369977Y288071D01*
X370119Y288194D01*
X370263Y288315D01*
X370271Y288325D01*
X370282Y288334D01*
X370397Y288482D01*
X370514Y288630D01*
X370520Y288641D01*
X370528Y288652D01*
X370612Y288821D01*
X370698Y288988D01*
X370702Y289000D01*
X370708Y289013D01*
X370757Y289195D01*
X370808Y289375D01*
X370809Y289388D01*
X370812Y289401D01*
X370839Y289732D01*
X370839Y293964D01*
X370830Y294057D01*
X370831Y294150D01*
X370810Y294257D01*
X370799Y294364D01*
X370772Y294454D01*
X370754Y294545D01*
X370713Y294646D01*
X370681Y294749D01*
X370637Y294831D01*
X370601Y294918D01*
X370541Y295008D01*
X370489Y295103D01*
X370430Y295175D01*
X370378Y295253D01*
X370301Y295329D01*
X370232Y295413D01*
X370159Y295471D01*
X370093Y295537D01*
X370002Y295597D01*
X369918Y295665D01*
X369835Y295708D01*
X369758Y295760D01*
X369657Y295801D01*
X369561Y295851D01*
X369471Y295876D01*
X369385Y295912D01*
X369278Y295932D01*
X369174Y295962D01*
X369081Y295970D01*
X368989Y295987D01*
X368881Y295986D01*
X368772Y295995D01*
X368680Y295984D01*
X368587Y295983D01*
X368480Y295961D01*
X368373Y295948D01*
X368284Y295919D01*
X368193Y295900D01*
X368069Y295849D01*
X367990Y295823D01*
X367947Y295799D01*
X367886Y295774D01*
X367120Y295384D01*
X365599Y294889D01*
X364020Y294639D01*
X358139Y294639D01*
X358139Y304292D01*
X358137Y304310D01*
X358139Y304327D01*
X358118Y304510D01*
X358099Y304692D01*
X358094Y304709D01*
X358092Y304727D01*
X358067Y304805D01*
X358106Y304942D01*
X358108Y304960D01*
X358112Y304977D01*
X358139Y305308D01*
X358139Y314961D01*
X364020Y314961D01*
X365599Y314711D01*
X367120Y314216D01*
X367886Y313826D01*
X367973Y313792D01*
X368055Y313749D01*
X368160Y313719D01*
X368261Y313680D01*
X368353Y313664D01*
X368442Y313638D01*
X368551Y313629D01*
X368657Y313610D01*
X368751Y313613D01*
X368844Y313605D01*
X368951Y313618D01*
X369060Y313621D01*
X369151Y313641D01*
X369243Y313652D01*
X369347Y313686D01*
X369452Y313710D01*
X369538Y313748D01*
X369626Y313777D01*
X369721Y313830D01*
X369820Y313875D01*
X369896Y313929D01*
X369977Y313975D01*
X370059Y314046D01*
X370147Y314109D01*
X370211Y314177D01*
X370282Y314238D01*
X370348Y314324D01*
X370422Y314403D01*
X370471Y314482D01*
X370528Y314556D01*
X370577Y314653D01*
X370634Y314746D01*
X370666Y314833D01*
X370708Y314917D01*
X370736Y315021D01*
X370773Y315123D01*
X370788Y315215D01*
X370812Y315305D01*
X370823Y315439D01*
X370836Y315521D01*
X370834Y315570D01*
X370839Y315636D01*
X370839Y978408D01*
X370837Y978426D01*
X370839Y978444D01*
X370818Y978626D01*
X370799Y978809D01*
X370794Y978826D01*
X370792Y978843D01*
X370735Y979018D01*
X370681Y979194D01*
X370673Y979209D01*
X370667Y979226D01*
X370577Y979386D01*
X370489Y979548D01*
X370478Y979561D01*
X370469Y979577D01*
X370349Y979716D01*
X370232Y979857D01*
X370218Y979868D01*
X370206Y979882D01*
X370061Y979994D01*
X369918Y980109D01*
X369902Y980117D01*
X369888Y980128D01*
X369723Y980210D01*
X369561Y980295D01*
X369544Y980300D01*
X369528Y980308D01*
X369349Y980355D01*
X369174Y980406D01*
X369156Y980408D01*
X369139Y980412D01*
X368808Y980439D01*
X255144Y980439D01*
X255126Y980437D01*
X255108Y980439D01*
X254926Y980418D01*
X254743Y980399D01*
X254726Y980394D01*
X254709Y980392D01*
X254534Y980335D01*
X254358Y980281D01*
X254343Y980273D01*
X254326Y980267D01*
X254166Y980177D01*
X254004Y980089D01*
X253991Y980078D01*
X253975Y980069D01*
X253836Y979949D01*
X253695Y979832D01*
X253684Y979818D01*
X253670Y979806D01*
X253558Y979661D01*
X253443Y979518D01*
X253435Y979502D01*
X253424Y979488D01*
X253342Y979323D01*
X253257Y979161D01*
X253252Y979144D01*
X253244Y979128D01*
X253197Y978949D01*
X253146Y978774D01*
X253144Y978756D01*
X253140Y978739D01*
X253113Y978408D01*
X253113Y955128D01*
X251922Y953937D01*
X219078Y953937D01*
X217887Y955128D01*
X217887Y978408D01*
X217885Y978426D01*
X217887Y978444D01*
X217866Y978626D01*
X217847Y978809D01*
X217842Y978826D01*
X217840Y978843D01*
X217783Y979018D01*
X217729Y979194D01*
X217721Y979209D01*
X217715Y979226D01*
X217625Y979386D01*
X217537Y979548D01*
X217526Y979561D01*
X217517Y979577D01*
X217397Y979716D01*
X217280Y979857D01*
X217266Y979868D01*
X217254Y979882D01*
X217109Y979994D01*
X216966Y980109D01*
X216950Y980117D01*
X216936Y980128D01*
X216771Y980210D01*
X216609Y980295D01*
X216592Y980300D01*
X216576Y980308D01*
X216397Y980355D01*
X216222Y980406D01*
X216204Y980408D01*
X216187Y980412D01*
X215856Y980439D01*
X165144Y980439D01*
X165126Y980437D01*
X165108Y980439D01*
X164926Y980418D01*
X164743Y980399D01*
X164726Y980394D01*
X164709Y980392D01*
X164534Y980335D01*
X164358Y980281D01*
X164343Y980273D01*
X164326Y980267D01*
X164166Y980177D01*
X164004Y980089D01*
X163991Y980078D01*
X163975Y980069D01*
X163836Y979949D01*
X163695Y979832D01*
X163684Y979818D01*
X163670Y979806D01*
X163558Y979661D01*
X163443Y979518D01*
X163435Y979502D01*
X163424Y979488D01*
X163342Y979323D01*
X163257Y979161D01*
X163252Y979144D01*
X163244Y979128D01*
X163197Y978949D01*
X163146Y978774D01*
X163144Y978756D01*
X163140Y978739D01*
X163113Y978408D01*
X163113Y955128D01*
X161922Y953937D01*
X129078Y953937D01*
X127887Y955128D01*
X127887Y978408D01*
X127885Y978426D01*
X127887Y978444D01*
X127866Y978626D01*
X127847Y978809D01*
X127842Y978826D01*
X127840Y978843D01*
X127783Y979018D01*
X127729Y979194D01*
X127721Y979209D01*
X127715Y979226D01*
X127625Y979386D01*
X127537Y979548D01*
X127526Y979561D01*
X127517Y979577D01*
X127397Y979716D01*
X127280Y979857D01*
X127266Y979868D01*
X127254Y979882D01*
X127109Y979994D01*
X126966Y980109D01*
X126950Y980117D01*
X126936Y980128D01*
X126771Y980210D01*
X126609Y980295D01*
X126592Y980300D01*
X126576Y980308D01*
X126397Y980355D01*
X126222Y980406D01*
X126204Y980408D01*
X126187Y980412D01*
X125856Y980439D01*
X49610Y980439D01*
X49537Y980432D01*
X49464Y980434D01*
X49337Y980412D01*
X49209Y980399D01*
X49139Y980378D01*
X49067Y980365D01*
X48947Y980319D01*
X48824Y980281D01*
X48760Y980246D01*
X48692Y980220D01*
X48583Y980151D01*
X48470Y980089D01*
X48414Y980043D01*
X48352Y980003D01*
X48260Y979914D01*
X48161Y979832D01*
X48115Y979775D01*
X48062Y979724D01*
X47989Y979618D01*
X47909Y979518D01*
X47875Y979453D01*
X47833Y979393D01*
X47782Y979275D01*
X47723Y979161D01*
X47703Y979090D01*
X47674Y979023D01*
X47647Y978897D01*
X47612Y978774D01*
X47606Y978701D01*
X47591Y978629D01*
X47589Y978501D01*
X47579Y978372D01*
X47587Y978300D01*
X47587Y978226D01*
X47611Y978100D01*
X47626Y977973D01*
X47649Y977903D01*
X47662Y977831D01*
X47711Y977712D01*
X47751Y977590D01*
X47787Y977526D01*
X47814Y977458D01*
X47885Y977351D01*
X47949Y977239D01*
X47997Y977184D01*
X48037Y977123D01*
X48128Y977032D01*
X48212Y976935D01*
X48270Y976890D01*
X48321Y976838D01*
X48461Y976741D01*
X48530Y976688D01*
X48559Y976673D01*
X48594Y976649D01*
X54163Y973434D01*
X59034Y968563D01*
X62478Y962598D01*
X64261Y955944D01*
X64261Y949056D01*
X62478Y942402D01*
X59034Y936437D01*
X54163Y931566D01*
X48198Y928122D01*
X41544Y926339D01*
X34656Y926339D01*
X28002Y928122D01*
X22037Y931566D01*
X17166Y936437D01*
X13951Y942006D01*
X13908Y942065D01*
X13873Y942130D01*
X13791Y942228D01*
X13716Y942333D01*
X13663Y942383D01*
X13616Y942439D01*
X13516Y942519D01*
X13421Y942607D01*
X13359Y942645D01*
X13302Y942691D01*
X13188Y942750D01*
X13078Y942818D01*
X13010Y942843D01*
X12945Y942877D01*
X12821Y942912D01*
X12701Y942957D01*
X12628Y942968D01*
X12558Y942988D01*
X12429Y942999D01*
X12303Y943018D01*
X12230Y943015D01*
X12156Y943021D01*
X12029Y943006D01*
X11900Y943000D01*
X11829Y942983D01*
X11757Y942974D01*
X11634Y942934D01*
X11510Y942903D01*
X11444Y942872D01*
X11374Y942849D01*
X11262Y942786D01*
X11146Y942731D01*
X11087Y942687D01*
X11023Y942651D01*
X10926Y942568D01*
X10823Y942491D01*
X10774Y942436D01*
X10718Y942388D01*
X10640Y942287D01*
X10554Y942191D01*
X10517Y942128D01*
X10472Y942070D01*
X10414Y941955D01*
X10349Y941844D01*
X10325Y941775D01*
X10292Y941710D01*
X10259Y941585D01*
X10217Y941464D01*
X10207Y941392D01*
X10188Y941321D01*
X10174Y941151D01*
X10162Y941065D01*
X10164Y941032D01*
X10161Y940990D01*
X10161Y427329D01*
X10162Y427320D01*
X10161Y427311D01*
X10182Y427119D01*
X10201Y426928D01*
X10203Y426920D01*
X10204Y426911D01*
X10263Y426727D01*
X10319Y426543D01*
X10323Y426535D01*
X10326Y426527D01*
X10419Y426358D01*
X10511Y426189D01*
X10516Y426182D01*
X10521Y426175D01*
X10646Y426027D01*
X10768Y425880D01*
X10775Y425874D01*
X10781Y425868D01*
X10933Y425748D01*
X11082Y425628D01*
X11090Y425624D01*
X11097Y425618D01*
X11270Y425530D01*
X11439Y425442D01*
X11448Y425440D01*
X11456Y425436D01*
X11642Y425384D01*
X11826Y425331D01*
X11835Y425330D01*
X11844Y425328D01*
X12036Y425313D01*
X12228Y425298D01*
X12236Y425299D01*
X12245Y425298D01*
X12438Y425323D01*
X12627Y425345D01*
X12636Y425347D01*
X12645Y425349D01*
X12828Y425410D01*
X13010Y425470D01*
X13018Y425474D01*
X13026Y425477D01*
X13192Y425572D01*
X13361Y425667D01*
X13368Y425673D01*
X13375Y425678D01*
X13628Y425892D01*
X15473Y427737D01*
X22627Y427737D01*
X27687Y422677D01*
X27687Y415523D01*
X22627Y410463D01*
X15473Y410463D01*
X13628Y412308D01*
X13621Y412313D01*
X13616Y412320D01*
X13466Y412440D01*
X13317Y412563D01*
X13309Y412567D01*
X13302Y412572D01*
X13132Y412661D01*
X12961Y412751D01*
X12952Y412754D01*
X12945Y412758D01*
X12760Y412811D01*
X12575Y412866D01*
X12566Y412867D01*
X12558Y412869D01*
X12367Y412885D01*
X12174Y412902D01*
X12165Y412901D01*
X12156Y412902D01*
X11967Y412880D01*
X11774Y412859D01*
X11765Y412856D01*
X11757Y412855D01*
X11575Y412796D01*
X11390Y412738D01*
X11382Y412733D01*
X11374Y412730D01*
X11205Y412635D01*
X11038Y412543D01*
X11031Y412537D01*
X11023Y412533D01*
X10877Y412407D01*
X10731Y412282D01*
X10725Y412275D01*
X10718Y412269D01*
X10600Y412117D01*
X10481Y411966D01*
X10477Y411958D01*
X10472Y411951D01*
X10386Y411779D01*
X10299Y411607D01*
X10296Y411599D01*
X10292Y411591D01*
X10242Y411405D01*
X10191Y411219D01*
X10190Y411211D01*
X10188Y411202D01*
X10161Y410871D01*
X10161Y351847D01*
X10162Y351838D01*
X10161Y351829D01*
X10182Y351637D01*
X10201Y351447D01*
X10203Y351438D01*
X10204Y351429D01*
X10262Y351246D01*
X10319Y351062D01*
X10323Y351054D01*
X10326Y351045D01*
X10419Y350877D01*
X10511Y350708D01*
X10516Y350701D01*
X10521Y350693D01*
X10646Y350545D01*
X10768Y350398D01*
X10775Y350393D01*
X10781Y350386D01*
X10933Y350266D01*
X11082Y350146D01*
X11090Y350142D01*
X11097Y350136D01*
X11269Y350049D01*
X11439Y349961D01*
X11448Y349958D01*
X11456Y349954D01*
X11642Y349902D01*
X11826Y349849D01*
X11835Y349848D01*
X11844Y349846D01*
X12036Y349832D01*
X12228Y349816D01*
X12236Y349817D01*
X12245Y349817D01*
X12438Y349841D01*
X12627Y349863D01*
X12636Y349866D01*
X12645Y349867D01*
X12828Y349928D01*
X13010Y349988D01*
X13018Y349992D01*
X13026Y349995D01*
X13192Y350091D01*
X13361Y350186D01*
X13368Y350192D01*
X13375Y350196D01*
X13628Y350411D01*
X15262Y352045D01*
X17019Y352045D01*
X17019Y342900D01*
X17019Y333755D01*
X15262Y333755D01*
X13628Y335389D01*
X13621Y335395D01*
X13616Y335402D01*
X13466Y335522D01*
X13317Y335644D01*
X13309Y335648D01*
X13302Y335654D01*
X13132Y335742D01*
X12961Y335833D01*
X12952Y335835D01*
X12945Y335839D01*
X12760Y335893D01*
X12575Y335948D01*
X12566Y335948D01*
X12558Y335951D01*
X12367Y335967D01*
X12174Y335984D01*
X12165Y335983D01*
X12156Y335984D01*
X11967Y335962D01*
X11774Y335941D01*
X11765Y335938D01*
X11757Y335937D01*
X11575Y335877D01*
X11390Y335819D01*
X11382Y335815D01*
X11374Y335812D01*
X11205Y335717D01*
X11038Y335624D01*
X11031Y335619D01*
X11023Y335614D01*
X10877Y335488D01*
X10731Y335364D01*
X10725Y335357D01*
X10718Y335351D01*
X10601Y335200D01*
X10481Y335048D01*
X10477Y335040D01*
X10472Y335033D01*
X10386Y334861D01*
X10299Y334689D01*
X10296Y334680D01*
X10292Y334672D01*
X10242Y334486D01*
X10191Y334301D01*
X10190Y334292D01*
X10188Y334284D01*
X10161Y333953D01*
X10161Y315132D01*
X10162Y315119D01*
X10161Y315105D01*
X10182Y314919D01*
X10201Y314731D01*
X10205Y314719D01*
X10206Y314705D01*
X10264Y314526D01*
X10319Y314346D01*
X10325Y314335D01*
X10329Y314322D01*
X10421Y314157D01*
X10511Y313992D01*
X10519Y313982D01*
X10526Y313970D01*
X10648Y313828D01*
X10768Y313683D01*
X10779Y313675D01*
X10787Y313665D01*
X10935Y313549D01*
X11082Y313431D01*
X11094Y313425D01*
X11104Y313416D01*
X11273Y313332D01*
X11439Y313245D01*
X11452Y313242D01*
X11464Y313236D01*
X11645Y313186D01*
X11826Y313134D01*
X11840Y313133D01*
X11853Y313129D01*
X12041Y313116D01*
X12228Y313101D01*
X12241Y313103D01*
X12254Y313102D01*
X12442Y313126D01*
X12627Y313148D01*
X12640Y313152D01*
X12653Y313154D01*
X12969Y313255D01*
X15860Y314453D01*
X19304Y314453D01*
X19322Y314455D01*
X19340Y314453D01*
X19522Y314474D01*
X19705Y314493D01*
X19722Y314498D01*
X19739Y314500D01*
X19914Y314557D01*
X20090Y314611D01*
X20105Y314619D01*
X20122Y314625D01*
X20282Y314715D01*
X20444Y314803D01*
X20457Y314814D01*
X20473Y314823D01*
X20612Y314943D01*
X20753Y315060D01*
X20764Y315074D01*
X20778Y315086D01*
X20890Y315231D01*
X21005Y315374D01*
X21013Y315390D01*
X21024Y315404D01*
X21106Y315569D01*
X21191Y315731D01*
X21196Y315748D01*
X21204Y315764D01*
X21251Y315943D01*
X21302Y316118D01*
X21304Y316136D01*
X21308Y316153D01*
X21335Y316484D01*
X21335Y324659D01*
X21954Y326152D01*
X33440Y337639D01*
X33457Y337659D01*
X33478Y337677D01*
X33585Y337815D01*
X33695Y337950D01*
X33708Y337974D01*
X33724Y337995D01*
X33802Y338152D01*
X33884Y338306D01*
X33892Y338331D01*
X33904Y338356D01*
X33949Y338525D01*
X33999Y338692D01*
X34001Y338718D01*
X34008Y338744D01*
X34035Y339075D01*
X34035Y407209D01*
X34654Y408702D01*
X54966Y429014D01*
X55072Y429144D01*
X55183Y429271D01*
X55200Y429300D01*
X55221Y429326D01*
X55300Y429474D01*
X55383Y429620D01*
X55394Y429652D01*
X55409Y429681D01*
X55457Y429842D01*
X55511Y430002D01*
X55515Y430035D01*
X55524Y430067D01*
X55540Y430235D01*
X55560Y430402D01*
X55558Y430435D01*
X55561Y430468D01*
X55542Y430636D01*
X55530Y430803D01*
X55521Y430835D01*
X55517Y430869D01*
X55466Y431029D01*
X55421Y431191D01*
X55406Y431221D01*
X55396Y431252D01*
X55314Y431399D01*
X55238Y431549D01*
X55217Y431576D01*
X55201Y431605D01*
X55092Y431733D01*
X54987Y431865D01*
X54962Y431886D01*
X54940Y431912D01*
X54809Y432016D01*
X54680Y432125D01*
X54651Y432141D01*
X54625Y432161D01*
X54475Y432237D01*
X54327Y432319D01*
X54295Y432329D01*
X54266Y432344D01*
X54103Y432389D01*
X53943Y432439D01*
X53910Y432443D01*
X53878Y432452D01*
X53710Y432464D01*
X53549Y432481D01*
X53549Y440251D01*
X61319Y440251D01*
X61322Y440219D01*
X61320Y440186D01*
X61344Y440020D01*
X61362Y439852D01*
X61372Y439821D01*
X61376Y439788D01*
X61432Y439629D01*
X61483Y439469D01*
X61499Y439439D01*
X61510Y439408D01*
X61597Y439263D01*
X61678Y439116D01*
X61700Y439091D01*
X61717Y439062D01*
X61830Y438937D01*
X61939Y438809D01*
X61965Y438789D01*
X61987Y438764D01*
X62123Y438664D01*
X62254Y438560D01*
X62284Y438545D01*
X62311Y438525D01*
X62464Y438453D01*
X62613Y438377D01*
X62646Y438368D01*
X62676Y438354D01*
X62839Y438314D01*
X63001Y438269D01*
X63035Y438267D01*
X63067Y438259D01*
X63235Y438252D01*
X63403Y438240D01*
X63436Y438244D01*
X63469Y438243D01*
X63635Y438269D01*
X63802Y438290D01*
X63834Y438301D01*
X63867Y438306D01*
X64024Y438365D01*
X64184Y438419D01*
X64213Y438435D01*
X64244Y438447D01*
X64387Y438535D01*
X64533Y438620D01*
X64561Y438644D01*
X64586Y438659D01*
X64649Y438718D01*
X64786Y438834D01*
X77890Y451939D01*
X77907Y451959D01*
X77928Y451977D01*
X78035Y452115D01*
X78145Y452250D01*
X78158Y452274D01*
X78174Y452295D01*
X78252Y452452D01*
X78334Y452606D01*
X78342Y452631D01*
X78354Y452656D01*
X78399Y452825D01*
X78449Y452992D01*
X78451Y453018D01*
X78458Y453044D01*
X78485Y453375D01*
X78485Y456714D01*
X78483Y456741D01*
X78485Y456768D01*
X78463Y456942D01*
X78445Y457115D01*
X78438Y457141D01*
X78434Y457167D01*
X78379Y457332D01*
X78327Y457500D01*
X78314Y457524D01*
X78306Y457549D01*
X78219Y457701D01*
X78135Y457854D01*
X78118Y457874D01*
X78105Y457898D01*
X77890Y458151D01*
X76520Y459521D01*
X75437Y462135D01*
X75437Y464965D01*
X76520Y467579D01*
X78521Y469580D01*
X81135Y470663D01*
X83965Y470663D01*
X86579Y469580D01*
X88580Y467579D01*
X89663Y464965D01*
X89663Y462135D01*
X88580Y459521D01*
X87210Y458151D01*
X87193Y458130D01*
X87172Y458113D01*
X87065Y457975D01*
X86955Y457839D01*
X86942Y457816D01*
X86926Y457794D01*
X86848Y457638D01*
X86766Y457484D01*
X86758Y457458D01*
X86746Y457434D01*
X86701Y457265D01*
X86651Y457098D01*
X86649Y457071D01*
X86642Y457045D01*
X86615Y456714D01*
X86615Y450828D01*
X86616Y450819D01*
X86615Y450810D01*
X86636Y450618D01*
X86655Y450427D01*
X86657Y450418D01*
X86658Y450409D01*
X86716Y450227D01*
X86773Y450042D01*
X86777Y450034D01*
X86780Y450026D01*
X86873Y449857D01*
X86965Y449688D01*
X86970Y449681D01*
X86975Y449673D01*
X87100Y449525D01*
X87222Y449379D01*
X87229Y449373D01*
X87235Y449366D01*
X87386Y449247D01*
X87536Y449126D01*
X87544Y449122D01*
X87551Y449117D01*
X87722Y449030D01*
X87893Y448941D01*
X87902Y448938D01*
X87910Y448934D01*
X88096Y448883D01*
X88280Y448829D01*
X88289Y448829D01*
X88298Y448826D01*
X88490Y448812D01*
X88682Y448797D01*
X88690Y448798D01*
X88699Y448797D01*
X88892Y448821D01*
X89081Y448843D01*
X89090Y448846D01*
X89099Y448847D01*
X89282Y448909D01*
X89464Y448968D01*
X89472Y448973D01*
X89480Y448976D01*
X89646Y449071D01*
X89815Y449166D01*
X89822Y449172D01*
X89829Y449177D01*
X90082Y449391D01*
X91221Y450530D01*
X92597Y451100D01*
X93835Y451613D01*
X96665Y451613D01*
X99279Y450530D01*
X100418Y449391D01*
X100425Y449386D01*
X100430Y449379D01*
X100581Y449258D01*
X100729Y449136D01*
X100737Y449132D01*
X100744Y449126D01*
X100914Y449038D01*
X101085Y448948D01*
X101094Y448945D01*
X101101Y448941D01*
X101286Y448888D01*
X101471Y448833D01*
X101480Y448832D01*
X101488Y448829D01*
X101679Y448814D01*
X101872Y448796D01*
X101881Y448797D01*
X101890Y448797D01*
X102079Y448819D01*
X102272Y448840D01*
X102281Y448842D01*
X102289Y448843D01*
X102471Y448903D01*
X102656Y448961D01*
X102664Y448966D01*
X102672Y448968D01*
X102839Y449063D01*
X103008Y449156D01*
X103015Y449162D01*
X103023Y449166D01*
X103168Y449291D01*
X103315Y449417D01*
X103321Y449424D01*
X103328Y449429D01*
X103444Y449580D01*
X103565Y449732D01*
X103569Y449741D01*
X103574Y449747D01*
X103658Y449917D01*
X103747Y450091D01*
X103750Y450100D01*
X103754Y450108D01*
X103803Y450294D01*
X103855Y450479D01*
X103856Y450488D01*
X103858Y450497D01*
X103885Y450828D01*
X103885Y469414D01*
X103883Y469441D01*
X103885Y469468D01*
X103863Y469642D01*
X103845Y469815D01*
X103838Y469841D01*
X103834Y469867D01*
X103779Y470033D01*
X103727Y470200D01*
X103714Y470224D01*
X103706Y470249D01*
X103619Y470401D01*
X103535Y470554D01*
X103518Y470574D01*
X103505Y470598D01*
X103290Y470851D01*
X101920Y472221D01*
X100837Y474835D01*
X100837Y477665D01*
X101920Y480279D01*
X103921Y482280D01*
X106535Y483363D01*
X109365Y483363D01*
X111979Y482280D01*
X113980Y480279D01*
X115063Y477665D01*
X115063Y474835D01*
X113989Y472243D01*
X113986Y472234D01*
X113982Y472226D01*
X113928Y472042D01*
X113873Y471858D01*
X113872Y471849D01*
X113869Y471840D01*
X113853Y471649D01*
X113834Y471457D01*
X113835Y471448D01*
X113835Y471439D01*
X113856Y471248D01*
X113876Y471056D01*
X113879Y471048D01*
X113880Y471039D01*
X113939Y470854D01*
X113996Y470672D01*
X114000Y470664D01*
X114003Y470656D01*
X114097Y470486D01*
X114189Y470319D01*
X114195Y470312D01*
X114199Y470304D01*
X114324Y470159D01*
X114448Y470011D01*
X114455Y470005D01*
X114461Y469998D01*
X114612Y469880D01*
X114763Y469760D01*
X114771Y469756D01*
X114778Y469750D01*
X114950Y469664D01*
X115121Y469576D01*
X115130Y469573D01*
X115138Y469569D01*
X115323Y469518D01*
X115509Y469466D01*
X115517Y469465D01*
X115526Y469463D01*
X115721Y469450D01*
X115910Y469435D01*
X115919Y469436D01*
X115928Y469435D01*
X116120Y469460D01*
X116310Y469483D01*
X116318Y469486D01*
X116327Y469487D01*
X116643Y469589D01*
X119235Y470663D01*
X122065Y470663D01*
X124679Y469580D01*
X126680Y467579D01*
X127763Y464965D01*
X127763Y462135D01*
X126680Y459521D01*
X125310Y458151D01*
X125293Y458130D01*
X125272Y458113D01*
X125165Y457975D01*
X125055Y457839D01*
X125042Y457816D01*
X125026Y457794D01*
X124948Y457638D01*
X124866Y457484D01*
X124858Y457458D01*
X124846Y457434D01*
X124801Y457265D01*
X124751Y457098D01*
X124749Y457071D01*
X124742Y457045D01*
X124715Y456714D01*
X124715Y430991D01*
X124096Y429498D01*
X106260Y411661D01*
X106243Y411641D01*
X106222Y411623D01*
X106115Y411485D01*
X106005Y411350D01*
X105992Y411326D01*
X105976Y411305D01*
X105898Y411148D01*
X105816Y410994D01*
X105808Y410969D01*
X105796Y410944D01*
X105751Y410774D01*
X105701Y410608D01*
X105699Y410582D01*
X105692Y410556D01*
X105665Y410225D01*
X105665Y303991D01*
X105046Y302498D01*
X80860Y278311D01*
X80843Y278291D01*
X80822Y278273D01*
X80715Y278135D01*
X80605Y278000D01*
X80592Y277976D01*
X80576Y277955D01*
X80498Y277798D01*
X80416Y277644D01*
X80408Y277619D01*
X80396Y277594D01*
X80351Y277425D01*
X80301Y277258D01*
X80299Y277232D01*
X80292Y277206D01*
X80265Y276875D01*
X80265Y249783D01*
X80266Y249774D01*
X80265Y249765D01*
X80286Y249573D01*
X80305Y249382D01*
X80307Y249374D01*
X80308Y249365D01*
X80366Y249182D01*
X80423Y248997D01*
X80427Y248989D01*
X80430Y248981D01*
X80523Y248811D01*
X80615Y248643D01*
X80620Y248636D01*
X80625Y248629D01*
X80750Y248481D01*
X80872Y248334D01*
X80879Y248328D01*
X80885Y248322D01*
X81037Y248202D01*
X81186Y248082D01*
X81194Y248078D01*
X81201Y248072D01*
X81373Y247985D01*
X81543Y247896D01*
X81552Y247894D01*
X81560Y247890D01*
X81746Y247838D01*
X81930Y247785D01*
X81939Y247784D01*
X81948Y247782D01*
X82140Y247767D01*
X82332Y247752D01*
X82340Y247753D01*
X82349Y247752D01*
X82542Y247777D01*
X82731Y247799D01*
X82740Y247801D01*
X82749Y247803D01*
X82932Y247864D01*
X83114Y247924D01*
X83122Y247928D01*
X83130Y247931D01*
X83296Y248026D01*
X83465Y248121D01*
X83472Y248127D01*
X83479Y248132D01*
X83732Y248346D01*
X85323Y249937D01*
X92477Y249937D01*
X97537Y244877D01*
X97537Y239253D01*
X97539Y239226D01*
X97537Y239200D01*
X97559Y239026D01*
X97577Y238852D01*
X97584Y238827D01*
X97588Y238800D01*
X97644Y238634D01*
X97695Y238467D01*
X97708Y238444D01*
X97716Y238419D01*
X97803Y238267D01*
X97887Y238113D01*
X97904Y238093D01*
X97917Y238070D01*
X98132Y237817D01*
X102689Y233260D01*
X102709Y233243D01*
X102727Y233222D01*
X102864Y233116D01*
X103000Y233005D01*
X103024Y232992D01*
X103045Y232976D01*
X103201Y232898D01*
X103356Y232816D01*
X103382Y232808D01*
X103406Y232796D01*
X103574Y232751D01*
X103742Y232701D01*
X103768Y232699D01*
X103794Y232692D01*
X104125Y232665D01*
X184959Y232665D01*
X186452Y232046D01*
X187882Y230617D01*
X195414Y223085D01*
X195427Y223073D01*
X195439Y223060D01*
X195583Y222946D01*
X195725Y222830D01*
X195741Y222821D01*
X195755Y222810D01*
X195919Y222727D01*
X196081Y222641D01*
X196098Y222636D01*
X196114Y222628D01*
X196291Y222578D01*
X196467Y222526D01*
X196485Y222525D01*
X196502Y222520D01*
X196685Y222506D01*
X196868Y222490D01*
X196886Y222492D01*
G37*
G36*
X177672Y10163D02*
X177672Y10163D01*
X177690Y10161D01*
X177872Y10182D01*
X178055Y10201D01*
X178072Y10206D01*
X178089Y10208D01*
X178264Y10265D01*
X178440Y10319D01*
X178455Y10327D01*
X178472Y10333D01*
X178632Y10423D01*
X178794Y10511D01*
X178807Y10522D01*
X178823Y10531D01*
X178962Y10651D01*
X179103Y10768D01*
X179114Y10782D01*
X179128Y10794D01*
X179240Y10939D01*
X179355Y11082D01*
X179363Y11098D01*
X179374Y11112D01*
X179456Y11277D01*
X179541Y11439D01*
X179546Y11456D01*
X179554Y11472D01*
X179601Y11651D01*
X179652Y11826D01*
X179654Y11844D01*
X179658Y11861D01*
X179685Y12192D01*
X179685Y16864D01*
X185786Y22965D01*
X194414Y22965D01*
X200515Y16864D01*
X200515Y12192D01*
X200517Y12174D01*
X200515Y12156D01*
X200536Y11974D01*
X200555Y11791D01*
X200560Y11774D01*
X200562Y11757D01*
X200619Y11582D01*
X200673Y11406D01*
X200681Y11391D01*
X200687Y11374D01*
X200777Y11214D01*
X200865Y11052D01*
X200876Y11039D01*
X200885Y11023D01*
X201005Y10884D01*
X201122Y10743D01*
X201136Y10732D01*
X201148Y10718D01*
X201293Y10606D01*
X201436Y10491D01*
X201452Y10483D01*
X201466Y10472D01*
X201631Y10390D01*
X201793Y10305D01*
X201810Y10300D01*
X201826Y10292D01*
X202005Y10245D01*
X202180Y10194D01*
X202198Y10192D01*
X202215Y10188D01*
X202546Y10161D01*
X318540Y10161D01*
X318632Y10170D01*
X318726Y10169D01*
X318832Y10190D01*
X318940Y10201D01*
X319029Y10228D01*
X319121Y10246D01*
X319221Y10287D01*
X319325Y10319D01*
X319407Y10363D01*
X319493Y10399D01*
X319584Y10459D01*
X319679Y10511D01*
X319751Y10570D01*
X319828Y10622D01*
X319905Y10699D01*
X319988Y10768D01*
X320047Y10841D01*
X320113Y10907D01*
X320173Y10997D01*
X320241Y11082D01*
X320284Y11165D01*
X320335Y11243D01*
X320376Y11343D01*
X320426Y11439D01*
X320452Y11529D01*
X320487Y11615D01*
X320508Y11722D01*
X320538Y11826D01*
X320545Y11919D01*
X320563Y12011D01*
X320562Y12119D01*
X320571Y12228D01*
X320560Y12320D01*
X320559Y12413D01*
X320536Y12520D01*
X320524Y12627D01*
X320495Y12716D01*
X320475Y12807D01*
X320425Y12931D01*
X320399Y13010D01*
X320374Y13053D01*
X320349Y13114D01*
X320200Y13408D01*
X319747Y14801D01*
X329482Y14801D01*
X329500Y14802D01*
X329517Y14801D01*
X329700Y14822D01*
X329882Y14841D01*
X329899Y14846D01*
X329917Y14848D01*
X330092Y14905D01*
X330192Y14936D01*
X330199Y14932D01*
X330377Y14884D01*
X330552Y14834D01*
X330570Y14832D01*
X330587Y14828D01*
X330918Y14801D01*
X340653Y14801D01*
X340200Y13408D01*
X340051Y13114D01*
X340017Y13027D01*
X339974Y12945D01*
X339944Y12840D01*
X339904Y12739D01*
X339888Y12647D01*
X339862Y12558D01*
X339853Y12449D01*
X339835Y12343D01*
X339837Y12249D01*
X339829Y12156D01*
X339842Y12049D01*
X339845Y11940D01*
X339865Y11849D01*
X339876Y11757D01*
X339910Y11653D01*
X339934Y11548D01*
X339972Y11463D01*
X340001Y11374D01*
X340055Y11279D01*
X340099Y11180D01*
X340153Y11105D01*
X340199Y11023D01*
X340270Y10941D01*
X340333Y10853D01*
X340401Y10789D01*
X340462Y10718D01*
X340548Y10652D01*
X340627Y10578D01*
X340707Y10529D01*
X340780Y10472D01*
X340878Y10423D01*
X340970Y10366D01*
X341057Y10334D01*
X341141Y10292D01*
X341246Y10264D01*
X341348Y10227D01*
X341440Y10212D01*
X341530Y10188D01*
X341664Y10177D01*
X341745Y10164D01*
X341795Y10166D01*
X341860Y10161D01*
X368808Y10161D01*
X368826Y10163D01*
X368844Y10161D01*
X369026Y10182D01*
X369209Y10201D01*
X369226Y10206D01*
X369243Y10208D01*
X369418Y10265D01*
X369594Y10319D01*
X369609Y10327D01*
X369626Y10333D01*
X369786Y10423D01*
X369948Y10511D01*
X369961Y10522D01*
X369977Y10531D01*
X370116Y10651D01*
X370257Y10768D01*
X370268Y10782D01*
X370282Y10794D01*
X370394Y10939D01*
X370509Y11082D01*
X370517Y11098D01*
X370528Y11112D01*
X370610Y11277D01*
X370695Y11439D01*
X370700Y11456D01*
X370708Y11472D01*
X370755Y11651D01*
X370806Y11826D01*
X370808Y11844D01*
X370812Y11861D01*
X370839Y12192D01*
X370839Y167468D01*
X370838Y167481D01*
X370839Y167495D01*
X370818Y167681D01*
X370799Y167869D01*
X370795Y167881D01*
X370794Y167895D01*
X370736Y168074D01*
X370681Y168254D01*
X370675Y168265D01*
X370671Y168278D01*
X370579Y168443D01*
X370489Y168608D01*
X370481Y168618D01*
X370474Y168630D01*
X370352Y168772D01*
X370232Y168917D01*
X370221Y168925D01*
X370213Y168935D01*
X370065Y169051D01*
X369918Y169169D01*
X369906Y169175D01*
X369896Y169184D01*
X369727Y169268D01*
X369561Y169355D01*
X369548Y169358D01*
X369536Y169364D01*
X369355Y169414D01*
X369174Y169466D01*
X369160Y169467D01*
X369147Y169471D01*
X368959Y169484D01*
X368772Y169499D01*
X368759Y169497D01*
X368746Y169498D01*
X368558Y169474D01*
X368373Y169452D01*
X368360Y169448D01*
X368347Y169446D01*
X368031Y169345D01*
X365140Y168147D01*
X346060Y168147D01*
X342512Y169617D01*
X339797Y172332D01*
X338327Y175880D01*
X338327Y179720D01*
X339797Y183268D01*
X342512Y185983D01*
X346060Y187453D01*
X365140Y187453D01*
X368031Y186255D01*
X368044Y186251D01*
X368055Y186245D01*
X368235Y186194D01*
X368416Y186139D01*
X368429Y186138D01*
X368442Y186134D01*
X368630Y186119D01*
X368817Y186101D01*
X368830Y186102D01*
X368844Y186101D01*
X369030Y186123D01*
X369217Y186142D01*
X369230Y186146D01*
X369243Y186148D01*
X369422Y186206D01*
X369602Y186262D01*
X369613Y186269D01*
X369626Y186273D01*
X369791Y186366D01*
X369955Y186456D01*
X369965Y186464D01*
X369977Y186471D01*
X370119Y186594D01*
X370263Y186715D01*
X370271Y186725D01*
X370282Y186734D01*
X370397Y186882D01*
X370514Y187030D01*
X370520Y187041D01*
X370528Y187052D01*
X370612Y187221D01*
X370698Y187388D01*
X370702Y187400D01*
X370708Y187413D01*
X370757Y187595D01*
X370808Y187775D01*
X370809Y187788D01*
X370812Y187801D01*
X370839Y188132D01*
X370839Y192868D01*
X370838Y192881D01*
X370839Y192895D01*
X370818Y193081D01*
X370799Y193269D01*
X370795Y193281D01*
X370794Y193295D01*
X370736Y193474D01*
X370681Y193654D01*
X370675Y193665D01*
X370671Y193678D01*
X370579Y193842D01*
X370489Y194008D01*
X370481Y194018D01*
X370474Y194030D01*
X370352Y194172D01*
X370232Y194317D01*
X370221Y194325D01*
X370213Y194335D01*
X370065Y194451D01*
X369918Y194569D01*
X369906Y194575D01*
X369896Y194584D01*
X369727Y194668D01*
X369561Y194755D01*
X369548Y194758D01*
X369536Y194764D01*
X369355Y194814D01*
X369174Y194866D01*
X369160Y194867D01*
X369147Y194871D01*
X368959Y194884D01*
X368772Y194899D01*
X368759Y194897D01*
X368746Y194898D01*
X368558Y194874D01*
X368373Y194852D01*
X368360Y194848D01*
X368347Y194846D01*
X368031Y194745D01*
X365140Y193547D01*
X346060Y193547D01*
X342512Y195017D01*
X339797Y197732D01*
X338327Y201280D01*
X338327Y205120D01*
X339797Y208668D01*
X342512Y211383D01*
X346060Y212853D01*
X365140Y212853D01*
X368031Y211655D01*
X368044Y211651D01*
X368055Y211645D01*
X368235Y211594D01*
X368416Y211539D01*
X368429Y211538D01*
X368442Y211534D01*
X368630Y211519D01*
X368817Y211501D01*
X368830Y211502D01*
X368844Y211501D01*
X369030Y211523D01*
X369217Y211542D01*
X369230Y211546D01*
X369243Y211548D01*
X369422Y211606D01*
X369602Y211662D01*
X369613Y211669D01*
X369626Y211673D01*
X369791Y211766D01*
X369955Y211856D01*
X369965Y211864D01*
X369977Y211871D01*
X370119Y211994D01*
X370263Y212115D01*
X370271Y212125D01*
X370282Y212134D01*
X370397Y212282D01*
X370514Y212430D01*
X370520Y212441D01*
X370528Y212452D01*
X370612Y212621D01*
X370698Y212788D01*
X370702Y212800D01*
X370708Y212813D01*
X370757Y212995D01*
X370808Y213175D01*
X370809Y213188D01*
X370812Y213201D01*
X370839Y213532D01*
X370839Y218268D01*
X370838Y218281D01*
X370839Y218295D01*
X370818Y218481D01*
X370799Y218669D01*
X370795Y218681D01*
X370794Y218695D01*
X370736Y218874D01*
X370681Y219054D01*
X370675Y219065D01*
X370671Y219078D01*
X370579Y219242D01*
X370489Y219408D01*
X370481Y219418D01*
X370474Y219430D01*
X370352Y219572D01*
X370232Y219717D01*
X370221Y219725D01*
X370213Y219735D01*
X370065Y219851D01*
X369918Y219969D01*
X369906Y219975D01*
X369896Y219984D01*
X369727Y220068D01*
X369561Y220155D01*
X369548Y220158D01*
X369536Y220164D01*
X369355Y220214D01*
X369174Y220266D01*
X369160Y220267D01*
X369147Y220271D01*
X368959Y220284D01*
X368772Y220299D01*
X368759Y220297D01*
X368746Y220298D01*
X368558Y220274D01*
X368373Y220252D01*
X368360Y220248D01*
X368347Y220246D01*
X368031Y220145D01*
X365140Y218947D01*
X346060Y218947D01*
X342319Y220497D01*
X342297Y220503D01*
X342277Y220514D01*
X342105Y220562D01*
X341933Y220613D01*
X341911Y220616D01*
X341890Y220622D01*
X341710Y220635D01*
X341532Y220652D01*
X341510Y220649D01*
X341488Y220651D01*
X341309Y220628D01*
X341132Y220610D01*
X341111Y220603D01*
X341089Y220600D01*
X340918Y220543D01*
X340748Y220490D01*
X340728Y220479D01*
X340707Y220472D01*
X340551Y220383D01*
X340394Y220297D01*
X340377Y220283D01*
X340358Y220271D01*
X340105Y220057D01*
X275352Y155304D01*
X273859Y154685D01*
X180325Y154685D01*
X180298Y154683D01*
X180272Y154685D01*
X180098Y154663D01*
X179924Y154645D01*
X179899Y154638D01*
X179872Y154634D01*
X179707Y154579D01*
X179540Y154527D01*
X179516Y154514D01*
X179491Y154506D01*
X179339Y154419D01*
X179185Y154335D01*
X179165Y154318D01*
X179142Y154305D01*
X178889Y154090D01*
X169760Y144961D01*
X169743Y144941D01*
X169722Y144923D01*
X169615Y144785D01*
X169505Y144650D01*
X169492Y144626D01*
X169476Y144605D01*
X169398Y144448D01*
X169316Y144294D01*
X169308Y144269D01*
X169296Y144244D01*
X169251Y144075D01*
X169201Y143908D01*
X169199Y143882D01*
X169192Y143856D01*
X169165Y143525D01*
X169165Y24055D01*
X169167Y24029D01*
X169165Y24002D01*
X169187Y23828D01*
X169205Y23655D01*
X169212Y23629D01*
X169216Y23602D01*
X169272Y23437D01*
X169323Y23270D01*
X169336Y23246D01*
X169344Y23221D01*
X169431Y23069D01*
X169515Y22916D01*
X169532Y22895D01*
X169545Y22872D01*
X169760Y22619D01*
X175515Y16864D01*
X175515Y12192D01*
X175517Y12174D01*
X175515Y12156D01*
X175536Y11974D01*
X175555Y11791D01*
X175560Y11774D01*
X175562Y11757D01*
X175619Y11582D01*
X175673Y11406D01*
X175681Y11391D01*
X175687Y11374D01*
X175777Y11214D01*
X175865Y11052D01*
X175876Y11039D01*
X175885Y11023D01*
X176005Y10884D01*
X176122Y10743D01*
X176136Y10732D01*
X176148Y10718D01*
X176293Y10606D01*
X176436Y10491D01*
X176452Y10483D01*
X176466Y10472D01*
X176631Y10390D01*
X176793Y10305D01*
X176810Y10300D01*
X176826Y10292D01*
X177005Y10245D01*
X177180Y10194D01*
X177198Y10192D01*
X177215Y10188D01*
X177546Y10161D01*
X177654Y10161D01*
X177672Y10163D01*
G37*
G36*
X39232Y10170D02*
X39232Y10170D01*
X39326Y10169D01*
X39432Y10190D01*
X39540Y10201D01*
X39629Y10228D01*
X39721Y10246D01*
X39821Y10287D01*
X39925Y10319D01*
X40007Y10363D01*
X40093Y10399D01*
X40184Y10459D01*
X40279Y10511D01*
X40351Y10570D01*
X40428Y10622D01*
X40505Y10699D01*
X40588Y10768D01*
X40647Y10841D01*
X40713Y10907D01*
X40773Y10997D01*
X40841Y11082D01*
X40884Y11165D01*
X40935Y11243D01*
X40976Y11343D01*
X41026Y11439D01*
X41052Y11529D01*
X41087Y11615D01*
X41108Y11722D01*
X41138Y11826D01*
X41145Y11919D01*
X41163Y12011D01*
X41162Y12119D01*
X41171Y12228D01*
X41160Y12320D01*
X41159Y12413D01*
X41136Y12520D01*
X41124Y12627D01*
X41095Y12716D01*
X41075Y12807D01*
X41025Y12931D01*
X40999Y13010D01*
X40974Y13053D01*
X40949Y13114D01*
X40800Y13408D01*
X40347Y14801D01*
X50082Y14801D01*
X50100Y14802D01*
X50117Y14801D01*
X50300Y14822D01*
X50482Y14841D01*
X50499Y14846D01*
X50517Y14848D01*
X50692Y14905D01*
X50792Y14936D01*
X50799Y14932D01*
X50977Y14884D01*
X51152Y14834D01*
X51170Y14832D01*
X51187Y14828D01*
X51518Y14801D01*
X61253Y14801D01*
X60800Y13408D01*
X60651Y13114D01*
X60617Y13027D01*
X60574Y12945D01*
X60544Y12840D01*
X60504Y12739D01*
X60488Y12647D01*
X60462Y12558D01*
X60453Y12449D01*
X60435Y12343D01*
X60437Y12249D01*
X60429Y12156D01*
X60442Y12049D01*
X60445Y11940D01*
X60465Y11849D01*
X60476Y11757D01*
X60510Y11653D01*
X60534Y11548D01*
X60572Y11463D01*
X60601Y11374D01*
X60655Y11279D01*
X60699Y11180D01*
X60753Y11105D01*
X60799Y11023D01*
X60870Y10941D01*
X60933Y10853D01*
X61001Y10789D01*
X61062Y10718D01*
X61148Y10652D01*
X61227Y10578D01*
X61307Y10529D01*
X61380Y10472D01*
X61478Y10423D01*
X61570Y10366D01*
X61657Y10334D01*
X61741Y10292D01*
X61846Y10264D01*
X61948Y10227D01*
X62040Y10212D01*
X62130Y10188D01*
X62264Y10177D01*
X62345Y10164D01*
X62395Y10166D01*
X62460Y10161D01*
X139382Y10161D01*
X139400Y10163D01*
X139417Y10161D01*
X139600Y10182D01*
X139782Y10201D01*
X139799Y10206D01*
X139817Y10208D01*
X139992Y10265D01*
X140167Y10319D01*
X140183Y10327D01*
X140200Y10333D01*
X140360Y10423D01*
X140521Y10511D01*
X140535Y10522D01*
X140551Y10531D01*
X140690Y10651D01*
X140831Y10768D01*
X140842Y10782D01*
X140855Y10794D01*
X140968Y10939D01*
X141083Y11082D01*
X141091Y11098D01*
X141102Y11112D01*
X141182Y11273D01*
X141219Y11277D01*
X141236Y11282D01*
X141253Y11284D01*
X141428Y11341D01*
X141604Y11395D01*
X141619Y11403D01*
X141636Y11409D01*
X141796Y11499D01*
X141958Y11587D01*
X141971Y11598D01*
X141987Y11607D01*
X142126Y11727D01*
X142267Y11845D01*
X142278Y11858D01*
X142292Y11870D01*
X142404Y12015D01*
X142519Y12158D01*
X142527Y12174D01*
X142538Y12188D01*
X142620Y12353D01*
X142705Y12516D01*
X142710Y12533D01*
X142718Y12549D01*
X142765Y12727D01*
X142816Y12902D01*
X142818Y12920D01*
X142822Y12937D01*
X142849Y13268D01*
X142849Y23473D01*
X148817Y23473D01*
X149463Y23300D01*
X150042Y22965D01*
X150515Y22492D01*
X150850Y21913D01*
X151023Y21267D01*
X151023Y18105D01*
X151024Y18096D01*
X151023Y18087D01*
X151044Y17894D01*
X151063Y17705D01*
X151065Y17696D01*
X151066Y17687D01*
X151125Y17503D01*
X151181Y17320D01*
X151185Y17312D01*
X151188Y17303D01*
X151281Y17135D01*
X151373Y16966D01*
X151378Y16959D01*
X151383Y16951D01*
X151507Y16804D01*
X151630Y16656D01*
X151637Y16651D01*
X151643Y16644D01*
X151795Y16524D01*
X151944Y16404D01*
X151952Y16400D01*
X151959Y16394D01*
X152132Y16307D01*
X152301Y16219D01*
X152310Y16216D01*
X152318Y16212D01*
X152504Y16160D01*
X152688Y16107D01*
X152697Y16106D01*
X152706Y16104D01*
X152899Y16090D01*
X153090Y16074D01*
X153098Y16075D01*
X153107Y16075D01*
X153300Y16099D01*
X153489Y16121D01*
X153498Y16124D01*
X153507Y16125D01*
X153689Y16186D01*
X153872Y16246D01*
X153880Y16250D01*
X153888Y16253D01*
X154055Y16349D01*
X154223Y16444D01*
X154230Y16450D01*
X154237Y16454D01*
X154490Y16669D01*
X160440Y22619D01*
X160457Y22640D01*
X160478Y22657D01*
X160585Y22795D01*
X160695Y22930D01*
X160708Y22954D01*
X160724Y22975D01*
X160802Y23132D01*
X160884Y23286D01*
X160892Y23312D01*
X160904Y23336D01*
X160949Y23505D01*
X160999Y23672D01*
X161001Y23699D01*
X161008Y23725D01*
X161035Y24055D01*
X161035Y146859D01*
X161654Y148352D01*
X172393Y159092D01*
X172399Y159099D01*
X172406Y159104D01*
X172526Y159254D01*
X172648Y159403D01*
X172653Y159411D01*
X172658Y159418D01*
X172747Y159588D01*
X172837Y159759D01*
X172840Y159768D01*
X172844Y159775D01*
X172897Y159960D01*
X172952Y160145D01*
X172953Y160154D01*
X172955Y160162D01*
X172971Y160354D01*
X172988Y160546D01*
X172987Y160555D01*
X172988Y160564D01*
X172966Y160753D01*
X172945Y160946D01*
X172942Y160955D01*
X172941Y160963D01*
X172882Y161145D01*
X172823Y161330D01*
X172819Y161338D01*
X172816Y161346D01*
X172721Y161515D01*
X172628Y161682D01*
X172623Y161689D01*
X172618Y161697D01*
X172492Y161843D01*
X172368Y161989D01*
X172361Y161995D01*
X172355Y162002D01*
X172204Y162119D01*
X172052Y162239D01*
X172044Y162243D01*
X172037Y162248D01*
X171865Y162334D01*
X171693Y162421D01*
X171685Y162424D01*
X171677Y162428D01*
X171490Y162478D01*
X171305Y162529D01*
X171296Y162530D01*
X171288Y162532D01*
X170957Y162559D01*
X169732Y162559D01*
X166558Y163874D01*
X164128Y166304D01*
X162813Y169478D01*
X162813Y186122D01*
X164128Y189296D01*
X166558Y191726D01*
X169732Y193041D01*
X173168Y193041D01*
X176342Y191726D01*
X178772Y189296D01*
X180087Y186122D01*
X180087Y169478D01*
X178772Y166304D01*
X178751Y166282D01*
X178745Y166275D01*
X178738Y166270D01*
X178619Y166121D01*
X178495Y165971D01*
X178491Y165963D01*
X178486Y165956D01*
X178398Y165787D01*
X178307Y165615D01*
X178304Y165607D01*
X178300Y165599D01*
X178247Y165414D01*
X178192Y165229D01*
X178191Y165220D01*
X178189Y165212D01*
X178173Y165020D01*
X178156Y164828D01*
X178157Y164819D01*
X178156Y164810D01*
X178178Y164620D01*
X178199Y164428D01*
X178202Y164420D01*
X178203Y164411D01*
X178263Y164227D01*
X178320Y164044D01*
X178325Y164036D01*
X178328Y164028D01*
X178422Y163860D01*
X178515Y163692D01*
X178521Y163685D01*
X178525Y163677D01*
X178651Y163532D01*
X178776Y163385D01*
X178783Y163379D01*
X178789Y163372D01*
X178941Y163255D01*
X179092Y163135D01*
X179100Y163131D01*
X179107Y163126D01*
X179279Y163040D01*
X179451Y162953D01*
X179459Y162950D01*
X179467Y162946D01*
X179654Y162896D01*
X179838Y162845D01*
X179847Y162844D01*
X179856Y162842D01*
X180187Y162815D01*
X188113Y162815D01*
X188122Y162816D01*
X188131Y162815D01*
X188322Y162836D01*
X188514Y162855D01*
X188522Y162857D01*
X188531Y162858D01*
X188715Y162916D01*
X188899Y162973D01*
X188907Y162977D01*
X188915Y162980D01*
X189082Y163072D01*
X189253Y163165D01*
X189260Y163170D01*
X189268Y163175D01*
X189415Y163299D01*
X189562Y163422D01*
X189568Y163429D01*
X189575Y163435D01*
X189694Y163587D01*
X189814Y163736D01*
X189819Y163744D01*
X189824Y163751D01*
X189912Y163924D01*
X190000Y164093D01*
X190002Y164102D01*
X190006Y164110D01*
X190058Y164295D01*
X190111Y164480D01*
X190112Y164489D01*
X190114Y164498D01*
X190128Y164690D01*
X190144Y164882D01*
X190143Y164890D01*
X190144Y164899D01*
X190120Y165092D01*
X190097Y165281D01*
X190094Y165290D01*
X190093Y165299D01*
X190032Y165482D01*
X189972Y165664D01*
X189968Y165672D01*
X189965Y165681D01*
X189869Y165847D01*
X189775Y166015D01*
X189769Y166022D01*
X189764Y166029D01*
X189549Y166282D01*
X189528Y166304D01*
X188213Y169478D01*
X188213Y186122D01*
X189528Y189296D01*
X192190Y191958D01*
X192207Y191979D01*
X192228Y191997D01*
X192335Y192135D01*
X192445Y192270D01*
X192458Y192294D01*
X192474Y192315D01*
X192552Y192471D01*
X192634Y192626D01*
X192642Y192651D01*
X192654Y192675D01*
X192699Y192844D01*
X192749Y193012D01*
X192751Y193038D01*
X192758Y193064D01*
X192785Y193395D01*
X192785Y213375D01*
X192783Y213402D01*
X192785Y213428D01*
X192763Y213602D01*
X192745Y213776D01*
X192738Y213801D01*
X192734Y213828D01*
X192679Y213993D01*
X192627Y214160D01*
X192614Y214184D01*
X192606Y214209D01*
X192519Y214361D01*
X192435Y214515D01*
X192418Y214535D01*
X192405Y214558D01*
X192190Y214811D01*
X183061Y223940D01*
X183041Y223957D01*
X183023Y223978D01*
X182885Y224085D01*
X182750Y224195D01*
X182726Y224208D01*
X182705Y224224D01*
X182548Y224302D01*
X182394Y224384D01*
X182369Y224392D01*
X182344Y224404D01*
X182175Y224449D01*
X182008Y224499D01*
X181982Y224501D01*
X181956Y224508D01*
X181625Y224535D01*
X100791Y224535D01*
X99298Y225154D01*
X92383Y232068D01*
X92363Y232085D01*
X92345Y232106D01*
X92207Y232213D01*
X92072Y232323D01*
X92048Y232336D01*
X92027Y232352D01*
X91870Y232430D01*
X91716Y232512D01*
X91691Y232520D01*
X91666Y232532D01*
X91497Y232577D01*
X91330Y232627D01*
X91304Y232629D01*
X91278Y232636D01*
X90947Y232663D01*
X85323Y232663D01*
X80753Y237232D01*
X80740Y237244D01*
X80728Y237257D01*
X80584Y237371D01*
X80442Y237487D01*
X80426Y237496D01*
X80412Y237507D01*
X80248Y237590D01*
X80086Y237676D01*
X80069Y237681D01*
X80053Y237689D01*
X79876Y237739D01*
X79700Y237791D01*
X79683Y237793D01*
X79665Y237797D01*
X79482Y237811D01*
X79299Y237827D01*
X79282Y237825D01*
X79264Y237827D01*
X79082Y237804D01*
X78899Y237784D01*
X78882Y237779D01*
X78864Y237776D01*
X78691Y237718D01*
X78515Y237662D01*
X78500Y237654D01*
X78483Y237648D01*
X78323Y237556D01*
X78163Y237468D01*
X78149Y237456D01*
X78134Y237447D01*
X77881Y237232D01*
X65802Y225154D01*
X64309Y224535D01*
X43142Y224535D01*
X43119Y224533D01*
X43097Y224535D01*
X42920Y224513D01*
X42741Y224495D01*
X42720Y224489D01*
X42697Y224486D01*
X42528Y224430D01*
X42356Y224377D01*
X42336Y224367D01*
X42315Y224360D01*
X42160Y224271D01*
X42002Y224185D01*
X41985Y224171D01*
X41966Y224160D01*
X41831Y224043D01*
X41693Y223928D01*
X41679Y223910D01*
X41662Y223896D01*
X41553Y223754D01*
X41440Y223614D01*
X41430Y223594D01*
X41417Y223576D01*
X41265Y223281D01*
X41203Y223132D01*
X38488Y220417D01*
X35602Y219221D01*
X34940Y218947D01*
X15860Y218947D01*
X12969Y220145D01*
X12956Y220149D01*
X12945Y220155D01*
X12764Y220207D01*
X12584Y220261D01*
X12571Y220262D01*
X12558Y220266D01*
X12369Y220282D01*
X12183Y220299D01*
X12170Y220298D01*
X12156Y220299D01*
X11970Y220277D01*
X11783Y220258D01*
X11770Y220254D01*
X11757Y220252D01*
X11579Y220194D01*
X11398Y220138D01*
X11387Y220131D01*
X11374Y220127D01*
X11210Y220035D01*
X11045Y219945D01*
X11035Y219936D01*
X11023Y219929D01*
X10881Y219806D01*
X10737Y219685D01*
X10729Y219675D01*
X10718Y219666D01*
X10604Y219518D01*
X10486Y219371D01*
X10480Y219359D01*
X10472Y219348D01*
X10388Y219180D01*
X10302Y219012D01*
X10298Y219000D01*
X10292Y218988D01*
X10243Y218805D01*
X10192Y218625D01*
X10191Y218612D01*
X10188Y218599D01*
X10161Y218268D01*
X10161Y213532D01*
X10162Y213519D01*
X10161Y213505D01*
X10182Y213319D01*
X10201Y213131D01*
X10205Y213119D01*
X10206Y213105D01*
X10263Y212927D01*
X10319Y212746D01*
X10325Y212735D01*
X10329Y212722D01*
X10421Y212558D01*
X10511Y212392D01*
X10519Y212382D01*
X10526Y212370D01*
X10649Y212227D01*
X10768Y212083D01*
X10779Y212075D01*
X10787Y212065D01*
X10936Y211948D01*
X11082Y211831D01*
X11094Y211825D01*
X11104Y211816D01*
X11274Y211731D01*
X11439Y211645D01*
X11452Y211642D01*
X11464Y211636D01*
X11646Y211586D01*
X11826Y211534D01*
X11840Y211533D01*
X11853Y211529D01*
X12039Y211516D01*
X12228Y211501D01*
X12241Y211503D01*
X12254Y211502D01*
X12441Y211526D01*
X12627Y211548D01*
X12640Y211552D01*
X12653Y211554D01*
X12969Y211655D01*
X15860Y212853D01*
X34940Y212853D01*
X38488Y211383D01*
X41203Y208668D01*
X41265Y208519D01*
X41275Y208499D01*
X41282Y208478D01*
X41371Y208322D01*
X41455Y208164D01*
X41469Y208147D01*
X41480Y208127D01*
X41597Y207992D01*
X41712Y207853D01*
X41729Y207839D01*
X41743Y207822D01*
X41885Y207713D01*
X42024Y207600D01*
X42044Y207589D01*
X42062Y207576D01*
X42222Y207496D01*
X42381Y207413D01*
X42402Y207406D01*
X42422Y207396D01*
X42595Y207350D01*
X42767Y207300D01*
X42789Y207298D01*
X42811Y207292D01*
X43142Y207265D01*
X128350Y207265D01*
X128377Y207267D01*
X128403Y207265D01*
X128577Y207287D01*
X128751Y207305D01*
X128776Y207312D01*
X128803Y207316D01*
X128968Y207371D01*
X129136Y207423D01*
X129159Y207436D01*
X129185Y207444D01*
X129336Y207531D01*
X129490Y207615D01*
X129510Y207632D01*
X129533Y207645D01*
X129786Y207860D01*
X130056Y208130D01*
X132193Y209015D01*
X134507Y209015D01*
X136644Y208130D01*
X138280Y206494D01*
X139165Y204357D01*
X139165Y202043D01*
X138280Y199906D01*
X136644Y198270D01*
X134507Y197385D01*
X132193Y197385D01*
X130056Y198270D01*
X129786Y198540D01*
X129766Y198557D01*
X129748Y198578D01*
X129610Y198685D01*
X129475Y198795D01*
X129451Y198808D01*
X129430Y198824D01*
X129273Y198902D01*
X129119Y198984D01*
X129094Y198992D01*
X129070Y199004D01*
X128900Y199049D01*
X128733Y199099D01*
X128707Y199101D01*
X128681Y199108D01*
X128350Y199135D01*
X98101Y199135D01*
X98092Y199134D01*
X98083Y199135D01*
X97892Y199114D01*
X97701Y199095D01*
X97692Y199093D01*
X97683Y199092D01*
X97501Y199034D01*
X97316Y198977D01*
X97308Y198973D01*
X97299Y198970D01*
X97131Y198877D01*
X96962Y198785D01*
X96955Y198780D01*
X96947Y198775D01*
X96799Y198650D01*
X96652Y198528D01*
X96647Y198521D01*
X96640Y198515D01*
X96520Y198363D01*
X96400Y198214D01*
X96396Y198206D01*
X96390Y198199D01*
X96302Y198026D01*
X96215Y197857D01*
X96212Y197848D01*
X96208Y197840D01*
X96156Y197654D01*
X96103Y197470D01*
X96102Y197461D01*
X96100Y197452D01*
X96086Y197260D01*
X96070Y197068D01*
X96071Y197060D01*
X96071Y197051D01*
X96095Y196858D01*
X96117Y196669D01*
X96120Y196660D01*
X96121Y196651D01*
X96182Y196468D01*
X96242Y196286D01*
X96246Y196278D01*
X96249Y196270D01*
X96345Y196104D01*
X96440Y195935D01*
X96446Y195928D01*
X96450Y195921D01*
X96665Y195668D01*
X98045Y194288D01*
X98045Y192531D01*
X88900Y192531D01*
X79755Y192531D01*
X79755Y194288D01*
X81135Y195668D01*
X81141Y195675D01*
X81148Y195680D01*
X81268Y195830D01*
X81390Y195979D01*
X81394Y195987D01*
X81400Y195994D01*
X81488Y196164D01*
X81579Y196335D01*
X81581Y196343D01*
X81585Y196351D01*
X81639Y196536D01*
X81694Y196721D01*
X81694Y196730D01*
X81697Y196738D01*
X81713Y196929D01*
X81730Y197122D01*
X81729Y197131D01*
X81730Y197140D01*
X81708Y197329D01*
X81687Y197522D01*
X81684Y197531D01*
X81683Y197539D01*
X81623Y197721D01*
X81565Y197906D01*
X81561Y197914D01*
X81558Y197922D01*
X81464Y198089D01*
X81370Y198258D01*
X81364Y198265D01*
X81360Y198273D01*
X81235Y198418D01*
X81110Y198565D01*
X81103Y198571D01*
X81097Y198578D01*
X80946Y198694D01*
X80794Y198815D01*
X80786Y198819D01*
X80779Y198824D01*
X80607Y198910D01*
X80435Y198997D01*
X80426Y199000D01*
X80418Y199004D01*
X80232Y199054D01*
X80047Y199105D01*
X80038Y199106D01*
X80030Y199108D01*
X79699Y199135D01*
X43142Y199135D01*
X43119Y199133D01*
X43097Y199135D01*
X42920Y199113D01*
X42741Y199095D01*
X42720Y199089D01*
X42697Y199086D01*
X42528Y199030D01*
X42356Y198977D01*
X42336Y198967D01*
X42315Y198960D01*
X42160Y198871D01*
X42002Y198785D01*
X41985Y198771D01*
X41966Y198760D01*
X41831Y198643D01*
X41693Y198528D01*
X41679Y198510D01*
X41662Y198496D01*
X41553Y198354D01*
X41440Y198214D01*
X41430Y198194D01*
X41417Y198176D01*
X41265Y197881D01*
X41203Y197732D01*
X38488Y195017D01*
X38077Y194846D01*
X34940Y193547D01*
X15860Y193547D01*
X12969Y194745D01*
X12956Y194749D01*
X12945Y194755D01*
X12764Y194807D01*
X12584Y194861D01*
X12571Y194862D01*
X12558Y194866D01*
X12369Y194882D01*
X12183Y194899D01*
X12170Y194898D01*
X12156Y194899D01*
X11970Y194877D01*
X11783Y194858D01*
X11770Y194854D01*
X11757Y194852D01*
X11579Y194794D01*
X11398Y194738D01*
X11387Y194731D01*
X11374Y194727D01*
X11210Y194635D01*
X11045Y194545D01*
X11035Y194536D01*
X11023Y194529D01*
X10881Y194406D01*
X10737Y194285D01*
X10729Y194275D01*
X10718Y194266D01*
X10604Y194118D01*
X10486Y193971D01*
X10480Y193959D01*
X10472Y193948D01*
X10388Y193780D01*
X10302Y193612D01*
X10298Y193600D01*
X10292Y193588D01*
X10243Y193405D01*
X10192Y193225D01*
X10191Y193212D01*
X10188Y193199D01*
X10161Y192868D01*
X10161Y188132D01*
X10162Y188119D01*
X10161Y188105D01*
X10182Y187919D01*
X10201Y187731D01*
X10205Y187719D01*
X10206Y187705D01*
X10263Y187527D01*
X10319Y187346D01*
X10325Y187335D01*
X10329Y187322D01*
X10421Y187158D01*
X10511Y186992D01*
X10519Y186982D01*
X10526Y186970D01*
X10649Y186827D01*
X10768Y186683D01*
X10779Y186675D01*
X10787Y186665D01*
X10936Y186548D01*
X11082Y186431D01*
X11094Y186425D01*
X11104Y186416D01*
X11274Y186331D01*
X11439Y186245D01*
X11452Y186242D01*
X11464Y186236D01*
X11646Y186186D01*
X11826Y186134D01*
X11840Y186133D01*
X11853Y186129D01*
X12039Y186116D01*
X12228Y186101D01*
X12241Y186103D01*
X12254Y186102D01*
X12441Y186126D01*
X12627Y186148D01*
X12640Y186152D01*
X12653Y186154D01*
X12969Y186255D01*
X15860Y187453D01*
X34940Y187453D01*
X38488Y185983D01*
X41203Y183268D01*
X42673Y179720D01*
X42673Y175880D01*
X41203Y172332D01*
X38488Y169617D01*
X34940Y168147D01*
X15860Y168147D01*
X12969Y169345D01*
X12956Y169349D01*
X12945Y169355D01*
X12764Y169407D01*
X12584Y169461D01*
X12571Y169462D01*
X12558Y169466D01*
X12369Y169482D01*
X12183Y169499D01*
X12170Y169498D01*
X12156Y169499D01*
X11970Y169477D01*
X11783Y169458D01*
X11770Y169454D01*
X11757Y169452D01*
X11579Y169394D01*
X11398Y169338D01*
X11387Y169331D01*
X11374Y169327D01*
X11210Y169235D01*
X11045Y169145D01*
X11035Y169136D01*
X11023Y169129D01*
X10881Y169006D01*
X10737Y168885D01*
X10729Y168875D01*
X10718Y168866D01*
X10604Y168718D01*
X10486Y168571D01*
X10480Y168559D01*
X10472Y168548D01*
X10388Y168380D01*
X10302Y168212D01*
X10298Y168200D01*
X10292Y168188D01*
X10243Y168005D01*
X10192Y167825D01*
X10191Y167812D01*
X10188Y167799D01*
X10161Y167468D01*
X10161Y12192D01*
X10163Y12174D01*
X10161Y12156D01*
X10182Y11974D01*
X10201Y11791D01*
X10206Y11774D01*
X10208Y11757D01*
X10265Y11582D01*
X10319Y11406D01*
X10327Y11391D01*
X10333Y11374D01*
X10423Y11214D01*
X10511Y11052D01*
X10522Y11039D01*
X10531Y11023D01*
X10651Y10884D01*
X10768Y10743D01*
X10782Y10732D01*
X10794Y10718D01*
X10939Y10606D01*
X11082Y10491D01*
X11098Y10483D01*
X11112Y10472D01*
X11277Y10390D01*
X11439Y10305D01*
X11456Y10300D01*
X11472Y10292D01*
X11651Y10245D01*
X11826Y10194D01*
X11844Y10192D01*
X11861Y10188D01*
X12192Y10161D01*
X39140Y10161D01*
X39232Y10170D01*
G37*
%LPC*%
G36*
X185786Y427585D02*
X185786Y427585D01*
X179685Y433686D01*
X179685Y442314D01*
X181875Y444504D01*
X181886Y444518D01*
X181900Y444529D01*
X182014Y444673D01*
X182130Y444815D01*
X182139Y444831D01*
X182150Y444845D01*
X182233Y445009D01*
X182319Y445171D01*
X182324Y445188D01*
X182332Y445204D01*
X182381Y445381D01*
X182434Y445557D01*
X182435Y445575D01*
X182440Y445592D01*
X182453Y445775D01*
X182470Y445958D01*
X182468Y445976D01*
X182469Y445993D01*
X182446Y446175D01*
X182427Y446358D01*
X182421Y446375D01*
X182419Y446393D01*
X182361Y446566D01*
X182305Y446742D01*
X182296Y446758D01*
X182291Y446775D01*
X182199Y446934D01*
X182110Y447094D01*
X182099Y447108D01*
X182090Y447123D01*
X181875Y447376D01*
X161654Y467598D01*
X161035Y469091D01*
X161035Y505475D01*
X161033Y505502D01*
X161035Y505528D01*
X161013Y505702D01*
X160995Y505876D01*
X160988Y505901D01*
X160984Y505928D01*
X160929Y506093D01*
X160877Y506260D01*
X160864Y506284D01*
X160856Y506309D01*
X160769Y506461D01*
X160685Y506615D01*
X160668Y506635D01*
X160655Y506658D01*
X160440Y506911D01*
X141180Y526171D01*
X141173Y526177D01*
X141168Y526184D01*
X141018Y526304D01*
X140869Y526426D01*
X140861Y526431D01*
X140854Y526436D01*
X140684Y526525D01*
X140513Y526615D01*
X140504Y526618D01*
X140497Y526622D01*
X140312Y526675D01*
X140127Y526730D01*
X140118Y526731D01*
X140110Y526733D01*
X139918Y526749D01*
X139726Y526766D01*
X139717Y526765D01*
X139708Y526766D01*
X139519Y526744D01*
X139326Y526723D01*
X139317Y526720D01*
X139309Y526719D01*
X139127Y526660D01*
X138942Y526601D01*
X138934Y526597D01*
X138926Y526594D01*
X138757Y526499D01*
X138590Y526406D01*
X138583Y526401D01*
X138575Y526396D01*
X138429Y526270D01*
X138283Y526146D01*
X138277Y526139D01*
X138270Y526133D01*
X138153Y525982D01*
X138033Y525830D01*
X138029Y525822D01*
X138024Y525815D01*
X137938Y525642D01*
X137851Y525471D01*
X137848Y525463D01*
X137844Y525455D01*
X137794Y525268D01*
X137743Y525083D01*
X137742Y525074D01*
X137740Y525066D01*
X137713Y524735D01*
X137713Y491578D01*
X136522Y490387D01*
X103678Y490387D01*
X102487Y491578D01*
X102487Y524422D01*
X103678Y525613D01*
X136835Y525613D01*
X136844Y525614D01*
X136853Y525613D01*
X137046Y525634D01*
X137236Y525653D01*
X137244Y525655D01*
X137253Y525656D01*
X137438Y525715D01*
X137621Y525771D01*
X137628Y525775D01*
X137637Y525778D01*
X137805Y525871D01*
X137975Y525963D01*
X137981Y525968D01*
X137989Y525973D01*
X138136Y526097D01*
X138284Y526220D01*
X138289Y526227D01*
X138296Y526233D01*
X138416Y526385D01*
X138536Y526534D01*
X138540Y526542D01*
X138546Y526549D01*
X138634Y526722D01*
X138722Y526891D01*
X138724Y526900D01*
X138728Y526908D01*
X138780Y527094D01*
X138833Y527278D01*
X138834Y527287D01*
X138836Y527296D01*
X138850Y527489D01*
X138866Y527680D01*
X138865Y527688D01*
X138866Y527697D01*
X138841Y527890D01*
X138819Y528079D01*
X138816Y528088D01*
X138815Y528097D01*
X138755Y528277D01*
X138694Y528462D01*
X138690Y528470D01*
X138687Y528478D01*
X138591Y528645D01*
X138496Y528813D01*
X138491Y528820D01*
X138486Y528827D01*
X138271Y529080D01*
X113211Y554140D01*
X113191Y554157D01*
X113173Y554178D01*
X113035Y554285D01*
X112900Y554395D01*
X112876Y554408D01*
X112855Y554424D01*
X112698Y554502D01*
X112544Y554584D01*
X112519Y554592D01*
X112494Y554604D01*
X112325Y554649D01*
X112158Y554699D01*
X112132Y554701D01*
X112106Y554708D01*
X111775Y554735D01*
X61935Y554735D01*
X61913Y554733D01*
X61890Y554735D01*
X61713Y554713D01*
X61534Y554695D01*
X61513Y554689D01*
X61491Y554686D01*
X61321Y554630D01*
X61149Y554577D01*
X61130Y554567D01*
X61109Y554560D01*
X60953Y554471D01*
X60795Y554385D01*
X60778Y554371D01*
X60759Y554360D01*
X60623Y554242D01*
X60486Y554128D01*
X60472Y554110D01*
X60455Y554096D01*
X60346Y553954D01*
X60234Y553814D01*
X60223Y553794D01*
X60210Y553776D01*
X60058Y553481D01*
X59517Y552175D01*
X56625Y549283D01*
X52845Y547717D01*
X48755Y547717D01*
X44975Y549283D01*
X42083Y552175D01*
X40517Y555955D01*
X40517Y560045D01*
X42083Y563825D01*
X44975Y566717D01*
X48755Y568283D01*
X52845Y568283D01*
X56625Y566717D01*
X59606Y563736D01*
X59611Y563727D01*
X59728Y563592D01*
X59842Y563454D01*
X59859Y563440D01*
X59874Y563422D01*
X60015Y563313D01*
X60154Y563200D01*
X60174Y563189D01*
X60192Y563176D01*
X60352Y563096D01*
X60511Y563013D01*
X60532Y563006D01*
X60553Y562996D01*
X60726Y562950D01*
X60897Y562900D01*
X60920Y562898D01*
X60941Y562892D01*
X61272Y562865D01*
X115109Y562865D01*
X116602Y562246D01*
X118032Y560817D01*
X135470Y543379D01*
X135477Y543373D01*
X135482Y543366D01*
X135632Y543246D01*
X135781Y543124D01*
X135789Y543119D01*
X135796Y543114D01*
X135966Y543025D01*
X136137Y542935D01*
X136146Y542932D01*
X136153Y542928D01*
X136338Y542875D01*
X136523Y542820D01*
X136532Y542819D01*
X136540Y542817D01*
X136732Y542801D01*
X136924Y542784D01*
X136933Y542785D01*
X136942Y542784D01*
X137131Y542806D01*
X137324Y542827D01*
X137333Y542830D01*
X137341Y542831D01*
X137523Y542890D01*
X137708Y542949D01*
X137716Y542953D01*
X137724Y542956D01*
X137893Y543051D01*
X138060Y543144D01*
X138067Y543149D01*
X138075Y543154D01*
X138221Y543280D01*
X138367Y543404D01*
X138373Y543411D01*
X138380Y543417D01*
X138497Y543568D01*
X138617Y543720D01*
X138621Y543728D01*
X138626Y543735D01*
X138712Y543907D01*
X138799Y544079D01*
X138802Y544087D01*
X138806Y544095D01*
X138856Y544282D01*
X138907Y544467D01*
X138908Y544476D01*
X138910Y544484D01*
X138937Y544815D01*
X138937Y547515D01*
X140020Y550129D01*
X142021Y552130D01*
X143307Y552662D01*
X143307Y552663D01*
X144635Y553213D01*
X147465Y553213D01*
X150079Y552130D01*
X151449Y550760D01*
X151470Y550743D01*
X151487Y550722D01*
X151626Y550615D01*
X151761Y550505D01*
X151784Y550492D01*
X151806Y550476D01*
X151962Y550398D01*
X152116Y550316D01*
X152142Y550308D01*
X152166Y550296D01*
X152335Y550251D01*
X152502Y550201D01*
X152529Y550199D01*
X152555Y550192D01*
X152886Y550165D01*
X257455Y550165D01*
X257482Y550167D01*
X257508Y550165D01*
X257682Y550187D01*
X257856Y550205D01*
X257881Y550212D01*
X257908Y550216D01*
X258074Y550271D01*
X258241Y550323D01*
X258264Y550336D01*
X258290Y550344D01*
X258441Y550431D01*
X258595Y550515D01*
X258615Y550532D01*
X258638Y550545D01*
X258891Y550760D01*
X261554Y553422D01*
X264728Y554737D01*
X281372Y554737D01*
X284546Y553422D01*
X286976Y550992D01*
X288291Y547818D01*
X288291Y544382D01*
X286976Y541208D01*
X286700Y540932D01*
X286695Y540925D01*
X286688Y540920D01*
X286567Y540770D01*
X286445Y540621D01*
X286441Y540613D01*
X286436Y540606D01*
X286347Y540436D01*
X286257Y540265D01*
X286254Y540256D01*
X286250Y540249D01*
X286197Y540065D01*
X286142Y539879D01*
X286141Y539870D01*
X286139Y539862D01*
X286123Y539671D01*
X286106Y539478D01*
X286107Y539469D01*
X286106Y539460D01*
X286128Y539271D01*
X286149Y539078D01*
X286152Y539069D01*
X286153Y539061D01*
X286212Y538878D01*
X286270Y538694D01*
X286275Y538686D01*
X286278Y538678D01*
X286373Y538509D01*
X286465Y538342D01*
X286471Y538335D01*
X286475Y538327D01*
X286602Y538181D01*
X286726Y538035D01*
X286733Y538029D01*
X286739Y538022D01*
X286890Y537905D01*
X287042Y537785D01*
X287050Y537781D01*
X287057Y537776D01*
X287229Y537690D01*
X287401Y537603D01*
X287409Y537600D01*
X287417Y537596D01*
X287605Y537546D01*
X287788Y537495D01*
X287797Y537494D01*
X287806Y537492D01*
X288137Y537465D01*
X314975Y537465D01*
X315002Y537467D01*
X315028Y537465D01*
X315202Y537487D01*
X315376Y537505D01*
X315401Y537512D01*
X315428Y537516D01*
X315593Y537571D01*
X315760Y537623D01*
X315784Y537636D01*
X315809Y537644D01*
X315961Y537731D01*
X316115Y537815D01*
X316135Y537832D01*
X316158Y537845D01*
X316411Y538060D01*
X327898Y549546D01*
X329391Y550165D01*
X333655Y550165D01*
X333682Y550167D01*
X333709Y550165D01*
X333882Y550187D01*
X334056Y550205D01*
X334081Y550212D01*
X334108Y550216D01*
X334274Y550272D01*
X334441Y550323D01*
X334464Y550336D01*
X334490Y550344D01*
X334641Y550431D01*
X334795Y550515D01*
X334815Y550532D01*
X334839Y550545D01*
X335092Y550760D01*
X337754Y553422D01*
X340928Y554737D01*
X357572Y554737D01*
X360746Y553422D01*
X363176Y550992D01*
X364491Y547818D01*
X364491Y544382D01*
X363176Y541208D01*
X360746Y538778D01*
X357572Y537463D01*
X340928Y537463D01*
X337754Y538778D01*
X335092Y541440D01*
X335071Y541457D01*
X335053Y541478D01*
X334915Y541585D01*
X334780Y541695D01*
X334756Y541708D01*
X334735Y541724D01*
X334579Y541802D01*
X334424Y541884D01*
X334399Y541892D01*
X334375Y541904D01*
X334206Y541949D01*
X334038Y541999D01*
X334012Y542001D01*
X333986Y542008D01*
X333655Y542035D01*
X332725Y542035D01*
X332698Y542033D01*
X332672Y542035D01*
X332498Y542013D01*
X332324Y541995D01*
X332299Y541988D01*
X332272Y541984D01*
X332107Y541929D01*
X331940Y541877D01*
X331916Y541864D01*
X331891Y541856D01*
X331739Y541769D01*
X331585Y541685D01*
X331565Y541668D01*
X331542Y541655D01*
X331289Y541440D01*
X321129Y531280D01*
X321123Y531273D01*
X321116Y531268D01*
X320996Y531118D01*
X320874Y530969D01*
X320869Y530961D01*
X320864Y530954D01*
X320775Y530784D01*
X320685Y530613D01*
X320682Y530604D01*
X320678Y530597D01*
X320625Y530412D01*
X320570Y530227D01*
X320569Y530218D01*
X320567Y530210D01*
X320551Y530018D01*
X320534Y529826D01*
X320535Y529817D01*
X320534Y529808D01*
X320556Y529619D01*
X320577Y529426D01*
X320580Y529417D01*
X320581Y529409D01*
X320640Y529227D01*
X320699Y529042D01*
X320703Y529034D01*
X320706Y529026D01*
X320801Y528857D01*
X320894Y528690D01*
X320899Y528683D01*
X320904Y528675D01*
X321030Y528529D01*
X321154Y528383D01*
X321161Y528377D01*
X321167Y528370D01*
X321318Y528253D01*
X321470Y528133D01*
X321478Y528129D01*
X321485Y528124D01*
X321657Y528038D01*
X321829Y527951D01*
X321837Y527948D01*
X321845Y527944D01*
X322032Y527894D01*
X322217Y527843D01*
X322226Y527842D01*
X322234Y527840D01*
X322565Y527813D01*
X325265Y527813D01*
X327879Y526730D01*
X329249Y525360D01*
X329270Y525343D01*
X329287Y525322D01*
X329425Y525215D01*
X329561Y525105D01*
X329584Y525092D01*
X329606Y525076D01*
X329762Y524998D01*
X329916Y524916D01*
X329942Y524908D01*
X329966Y524896D01*
X330135Y524851D01*
X330302Y524801D01*
X330329Y524799D01*
X330355Y524792D01*
X330686Y524765D01*
X333655Y524765D01*
X333682Y524767D01*
X333708Y524765D01*
X333882Y524787D01*
X334056Y524805D01*
X334081Y524812D01*
X334108Y524816D01*
X334274Y524871D01*
X334441Y524923D01*
X334464Y524936D01*
X334490Y524944D01*
X334641Y525031D01*
X334795Y525115D01*
X334815Y525132D01*
X334838Y525145D01*
X335091Y525360D01*
X337754Y528022D01*
X338395Y528287D01*
X338395Y528288D01*
X340928Y529337D01*
X357572Y529337D01*
X360746Y528022D01*
X363176Y525592D01*
X364491Y522418D01*
X364491Y518982D01*
X363176Y515808D01*
X360746Y513378D01*
X357572Y512063D01*
X340928Y512063D01*
X337754Y513378D01*
X335091Y516040D01*
X335071Y516057D01*
X335053Y516078D01*
X334915Y516185D01*
X334780Y516295D01*
X334756Y516308D01*
X334735Y516324D01*
X334578Y516402D01*
X334424Y516484D01*
X334399Y516492D01*
X334375Y516504D01*
X334205Y516549D01*
X334038Y516599D01*
X334012Y516601D01*
X333986Y516608D01*
X333655Y516635D01*
X330686Y516635D01*
X330659Y516633D01*
X330632Y516635D01*
X330458Y516613D01*
X330285Y516595D01*
X330259Y516588D01*
X330233Y516584D01*
X330067Y516529D01*
X329900Y516477D01*
X329876Y516464D01*
X329851Y516456D01*
X329699Y516369D01*
X329546Y516285D01*
X329526Y516268D01*
X329502Y516255D01*
X329249Y516040D01*
X327879Y514670D01*
X325265Y513587D01*
X322435Y513587D01*
X319821Y514670D01*
X318451Y516040D01*
X318430Y516057D01*
X318413Y516078D01*
X318275Y516185D01*
X318139Y516295D01*
X318116Y516308D01*
X318094Y516324D01*
X317938Y516402D01*
X317784Y516484D01*
X317758Y516492D01*
X317734Y516504D01*
X317565Y516549D01*
X317398Y516599D01*
X317371Y516601D01*
X317345Y516608D01*
X317014Y516635D01*
X288645Y516635D01*
X288618Y516633D01*
X288592Y516635D01*
X288418Y516613D01*
X288244Y516595D01*
X288219Y516588D01*
X288192Y516584D01*
X288026Y516529D01*
X287859Y516477D01*
X287836Y516464D01*
X287810Y516456D01*
X287659Y516369D01*
X287505Y516285D01*
X287485Y516268D01*
X287462Y516255D01*
X287209Y516040D01*
X284546Y513378D01*
X281372Y512063D01*
X264728Y512063D01*
X261554Y513378D01*
X259124Y515808D01*
X257809Y518982D01*
X257809Y522418D01*
X259124Y525592D01*
X259400Y525868D01*
X259405Y525875D01*
X259412Y525880D01*
X259533Y526030D01*
X259655Y526179D01*
X259659Y526187D01*
X259664Y526194D01*
X259753Y526364D01*
X259843Y526535D01*
X259846Y526544D01*
X259850Y526551D01*
X259902Y526733D01*
X259958Y526921D01*
X259959Y526930D01*
X259961Y526938D01*
X259977Y527129D01*
X259994Y527322D01*
X259993Y527331D01*
X259994Y527340D01*
X259972Y527529D01*
X259951Y527722D01*
X259948Y527731D01*
X259947Y527739D01*
X259888Y527921D01*
X259830Y528106D01*
X259825Y528114D01*
X259822Y528122D01*
X259727Y528291D01*
X259635Y528458D01*
X259629Y528465D01*
X259625Y528473D01*
X259499Y528618D01*
X259374Y528765D01*
X259367Y528771D01*
X259361Y528778D01*
X259210Y528895D01*
X259058Y529015D01*
X259050Y529019D01*
X259043Y529024D01*
X258871Y529110D01*
X258699Y529197D01*
X258691Y529200D01*
X258683Y529204D01*
X258495Y529254D01*
X258312Y529305D01*
X258303Y529306D01*
X258294Y529308D01*
X257963Y529335D01*
X249783Y529335D01*
X249774Y529334D01*
X249765Y529335D01*
X249573Y529314D01*
X249382Y529295D01*
X249374Y529293D01*
X249365Y529292D01*
X249182Y529234D01*
X248997Y529177D01*
X248989Y529173D01*
X248981Y529170D01*
X248812Y529077D01*
X248643Y528985D01*
X248636Y528980D01*
X248629Y528975D01*
X248481Y528850D01*
X248334Y528728D01*
X248328Y528721D01*
X248322Y528715D01*
X248202Y528563D01*
X248082Y528414D01*
X248078Y528406D01*
X248072Y528399D01*
X247985Y528227D01*
X247896Y528057D01*
X247894Y528048D01*
X247890Y528040D01*
X247838Y527854D01*
X247785Y527670D01*
X247784Y527661D01*
X247782Y527652D01*
X247767Y527460D01*
X247752Y527268D01*
X247753Y527260D01*
X247752Y527251D01*
X247777Y527058D01*
X247799Y526869D01*
X247801Y526860D01*
X247803Y526851D01*
X247864Y526668D01*
X247924Y526486D01*
X247928Y526478D01*
X247931Y526470D01*
X248027Y526302D01*
X248121Y526135D01*
X248127Y526128D01*
X248132Y526121D01*
X248346Y525868D01*
X249937Y524277D01*
X249937Y517123D01*
X244877Y512063D01*
X237723Y512063D01*
X232663Y517123D01*
X232663Y524277D01*
X234254Y525868D01*
X234259Y525875D01*
X234266Y525880D01*
X234386Y526030D01*
X234509Y526179D01*
X234513Y526187D01*
X234518Y526194D01*
X234607Y526364D01*
X234697Y526535D01*
X234700Y526544D01*
X234704Y526551D01*
X234757Y526736D01*
X234812Y526921D01*
X234813Y526930D01*
X234815Y526938D01*
X234831Y527129D01*
X234848Y527322D01*
X234847Y527331D01*
X234848Y527340D01*
X234826Y527529D01*
X234805Y527722D01*
X234802Y527731D01*
X234801Y527739D01*
X234742Y527921D01*
X234684Y528106D01*
X234679Y528114D01*
X234676Y528122D01*
X234581Y528291D01*
X234489Y528458D01*
X234483Y528465D01*
X234479Y528473D01*
X234353Y528619D01*
X234228Y528765D01*
X234221Y528771D01*
X234215Y528778D01*
X234064Y528895D01*
X233912Y529015D01*
X233904Y529019D01*
X233897Y529024D01*
X233725Y529110D01*
X233553Y529197D01*
X233545Y529200D01*
X233537Y529204D01*
X233351Y529254D01*
X233165Y529305D01*
X233157Y529306D01*
X233148Y529308D01*
X232817Y529335D01*
X227703Y529335D01*
X227694Y529334D01*
X227686Y529335D01*
X227494Y529314D01*
X227303Y529295D01*
X227294Y529293D01*
X227285Y529292D01*
X227103Y529234D01*
X226918Y529177D01*
X226910Y529173D01*
X226901Y529170D01*
X226733Y529077D01*
X226564Y528985D01*
X226557Y528980D01*
X226549Y528975D01*
X226401Y528850D01*
X226254Y528728D01*
X226249Y528721D01*
X226242Y528715D01*
X226122Y528563D01*
X226002Y528414D01*
X225998Y528406D01*
X225992Y528399D01*
X225905Y528227D01*
X225817Y528057D01*
X225814Y528048D01*
X225810Y528040D01*
X225758Y527854D01*
X225705Y527670D01*
X225705Y527661D01*
X225702Y527652D01*
X225688Y527460D01*
X225672Y527268D01*
X225673Y527260D01*
X225673Y527251D01*
X225697Y527058D01*
X225719Y526869D01*
X225722Y526860D01*
X225723Y526851D01*
X225785Y526668D01*
X225844Y526486D01*
X225849Y526478D01*
X225851Y526470D01*
X225948Y526302D01*
X226042Y526135D01*
X226048Y526128D01*
X226052Y526121D01*
X226267Y525868D01*
X227713Y524422D01*
X227713Y491578D01*
X226522Y490387D01*
X193678Y490387D01*
X192487Y491578D01*
X192487Y524422D01*
X193933Y525868D01*
X193939Y525875D01*
X193946Y525880D01*
X194066Y526030D01*
X194188Y526179D01*
X194192Y526187D01*
X194198Y526194D01*
X194286Y526364D01*
X194377Y526535D01*
X194379Y526544D01*
X194383Y526551D01*
X194436Y526736D01*
X194491Y526921D01*
X194492Y526930D01*
X194495Y526938D01*
X194510Y527129D01*
X194528Y527322D01*
X194527Y527331D01*
X194528Y527340D01*
X194505Y527529D01*
X194484Y527722D01*
X194482Y527731D01*
X194481Y527739D01*
X194422Y527921D01*
X194363Y528106D01*
X194359Y528114D01*
X194356Y528122D01*
X194263Y528288D01*
X194168Y528458D01*
X194162Y528465D01*
X194158Y528473D01*
X194033Y528618D01*
X193908Y528765D01*
X193901Y528771D01*
X193895Y528778D01*
X193744Y528894D01*
X193592Y529015D01*
X193584Y529019D01*
X193577Y529024D01*
X193405Y529110D01*
X193233Y529197D01*
X193224Y529200D01*
X193216Y529204D01*
X193030Y529254D01*
X192845Y529305D01*
X192836Y529306D01*
X192827Y529308D01*
X192497Y529335D01*
X165586Y529335D01*
X165559Y529333D01*
X165532Y529335D01*
X165358Y529313D01*
X165185Y529295D01*
X165159Y529288D01*
X165133Y529284D01*
X164967Y529229D01*
X164800Y529177D01*
X164776Y529164D01*
X164751Y529156D01*
X164599Y529069D01*
X164446Y528985D01*
X164426Y528968D01*
X164402Y528955D01*
X164149Y528740D01*
X162779Y527370D01*
X160165Y526287D01*
X157465Y526287D01*
X157456Y526286D01*
X157447Y526287D01*
X157254Y526266D01*
X157064Y526247D01*
X157056Y526245D01*
X157047Y526244D01*
X156862Y526185D01*
X156679Y526129D01*
X156672Y526125D01*
X156663Y526122D01*
X156495Y526029D01*
X156325Y525937D01*
X156319Y525932D01*
X156311Y525927D01*
X156164Y525803D01*
X156016Y525680D01*
X156011Y525673D01*
X156004Y525667D01*
X155884Y525515D01*
X155764Y525366D01*
X155760Y525358D01*
X155754Y525351D01*
X155666Y525177D01*
X155578Y525009D01*
X155576Y525000D01*
X155572Y524992D01*
X155520Y524806D01*
X155467Y524622D01*
X155466Y524613D01*
X155464Y524604D01*
X155450Y524411D01*
X155434Y524220D01*
X155435Y524212D01*
X155434Y524203D01*
X155459Y524010D01*
X155481Y523821D01*
X155484Y523812D01*
X155485Y523803D01*
X155546Y523621D01*
X155606Y523438D01*
X155610Y523430D01*
X155613Y523422D01*
X155709Y523255D01*
X155804Y523087D01*
X155809Y523080D01*
X155814Y523073D01*
X156029Y522820D01*
X167117Y511732D01*
X167117Y511731D01*
X168546Y510302D01*
X169165Y508809D01*
X169165Y472425D01*
X169167Y472398D01*
X169165Y472372D01*
X169187Y472198D01*
X169205Y472024D01*
X169212Y471999D01*
X169216Y471972D01*
X169272Y471806D01*
X169323Y471640D01*
X169336Y471616D01*
X169344Y471591D01*
X169431Y471439D01*
X169515Y471285D01*
X169532Y471265D01*
X169545Y471242D01*
X169760Y470989D01*
X191739Y449010D01*
X191759Y448993D01*
X191777Y448972D01*
X191915Y448865D01*
X192050Y448755D01*
X192074Y448742D01*
X192095Y448726D01*
X192252Y448648D01*
X192406Y448566D01*
X192431Y448558D01*
X192456Y448546D01*
X192625Y448501D01*
X192792Y448451D01*
X192818Y448449D01*
X192844Y448442D01*
X193175Y448415D01*
X194414Y448415D01*
X200515Y442314D01*
X200515Y433686D01*
X194414Y427585D01*
X185786Y427585D01*
G37*
%LPD*%
G36*
X270552Y162817D02*
X270552Y162817D01*
X270578Y162815D01*
X270752Y162837D01*
X270926Y162855D01*
X270951Y162862D01*
X270978Y162866D01*
X271143Y162921D01*
X271310Y162973D01*
X271334Y162986D01*
X271359Y162994D01*
X271511Y163081D01*
X271665Y163165D01*
X271685Y163182D01*
X271708Y163195D01*
X271961Y163410D01*
X320221Y211670D01*
X320227Y211677D01*
X320234Y211682D01*
X320353Y211831D01*
X320476Y211981D01*
X320481Y211989D01*
X320486Y211996D01*
X320575Y212167D01*
X320665Y212337D01*
X320668Y212345D01*
X320672Y212353D01*
X320725Y212539D01*
X320780Y212723D01*
X320781Y212732D01*
X320783Y212740D01*
X320799Y212932D01*
X320816Y213124D01*
X320815Y213133D01*
X320816Y213142D01*
X320794Y213331D01*
X320773Y213524D01*
X320770Y213533D01*
X320769Y213541D01*
X320710Y213721D01*
X320651Y213908D01*
X320647Y213916D01*
X320644Y213924D01*
X320549Y214093D01*
X320456Y214260D01*
X320451Y214267D01*
X320446Y214275D01*
X320320Y214421D01*
X320196Y214567D01*
X320189Y214573D01*
X320183Y214580D01*
X320032Y214697D01*
X319880Y214817D01*
X319872Y214821D01*
X319865Y214826D01*
X319693Y214912D01*
X319521Y214999D01*
X319513Y215002D01*
X319505Y215006D01*
X319318Y215056D01*
X319133Y215107D01*
X319124Y215108D01*
X319116Y215110D01*
X318785Y215137D01*
X316085Y215137D01*
X313471Y216220D01*
X312101Y217590D01*
X312080Y217607D01*
X312063Y217628D01*
X311925Y217735D01*
X311789Y217845D01*
X311766Y217858D01*
X311744Y217874D01*
X311588Y217952D01*
X311434Y218034D01*
X311408Y218042D01*
X311384Y218054D01*
X311215Y218099D01*
X311048Y218149D01*
X311021Y218151D01*
X310995Y218158D01*
X310664Y218185D01*
X269341Y218185D01*
X269314Y218183D01*
X269287Y218185D01*
X269114Y218163D01*
X268940Y218145D01*
X268915Y218138D01*
X268888Y218134D01*
X268722Y218078D01*
X268555Y218027D01*
X268532Y218014D01*
X268506Y218006D01*
X268355Y217919D01*
X268201Y217835D01*
X268181Y217818D01*
X268157Y217805D01*
X267904Y217590D01*
X263927Y213613D01*
X256773Y213613D01*
X251713Y218673D01*
X251713Y225827D01*
X256773Y230887D01*
X263927Y230887D01*
X267904Y226910D01*
X267925Y226893D01*
X267943Y226872D01*
X268081Y226765D01*
X268216Y226655D01*
X268240Y226642D01*
X268261Y226626D01*
X268417Y226548D01*
X268572Y226466D01*
X268597Y226458D01*
X268621Y226446D01*
X268791Y226401D01*
X268958Y226351D01*
X268984Y226349D01*
X269010Y226342D01*
X269341Y226315D01*
X310664Y226315D01*
X310691Y226317D01*
X310718Y226315D01*
X310892Y226337D01*
X311065Y226355D01*
X311091Y226362D01*
X311117Y226366D01*
X311283Y226422D01*
X311450Y226473D01*
X311474Y226486D01*
X311499Y226494D01*
X311650Y226581D01*
X311804Y226665D01*
X311825Y226682D01*
X311848Y226695D01*
X312101Y226910D01*
X313471Y228280D01*
X316085Y229363D01*
X318915Y229363D01*
X321529Y228280D01*
X323530Y226279D01*
X324613Y223665D01*
X324613Y220965D01*
X324614Y220956D01*
X324613Y220947D01*
X324634Y220754D01*
X324653Y220564D01*
X324655Y220556D01*
X324656Y220547D01*
X324714Y220363D01*
X324771Y220179D01*
X324775Y220172D01*
X324778Y220163D01*
X324870Y219995D01*
X324963Y219825D01*
X324968Y219819D01*
X324973Y219811D01*
X325097Y219664D01*
X325220Y219516D01*
X325227Y219511D01*
X325233Y219504D01*
X325385Y219384D01*
X325534Y219264D01*
X325542Y219260D01*
X325549Y219254D01*
X325722Y219166D01*
X325891Y219078D01*
X325900Y219076D01*
X325908Y219072D01*
X326094Y219020D01*
X326278Y218967D01*
X326287Y218966D01*
X326296Y218964D01*
X326489Y218950D01*
X326680Y218934D01*
X326688Y218935D01*
X326697Y218934D01*
X326890Y218959D01*
X327079Y218981D01*
X327088Y218984D01*
X327097Y218985D01*
X327280Y219046D01*
X327462Y219106D01*
X327470Y219110D01*
X327478Y219113D01*
X327645Y219209D01*
X327813Y219304D01*
X327820Y219309D01*
X327827Y219314D01*
X328080Y219529D01*
X337732Y229181D01*
X337749Y229201D01*
X337770Y229219D01*
X337877Y229357D01*
X337987Y229492D01*
X338000Y229516D01*
X338016Y229537D01*
X338094Y229694D01*
X338176Y229848D01*
X338184Y229873D01*
X338196Y229898D01*
X338241Y230067D01*
X338291Y230234D01*
X338293Y230260D01*
X338300Y230286D01*
X338317Y230496D01*
X339797Y234068D01*
X342512Y236783D01*
X345012Y237819D01*
X346060Y238253D01*
X365140Y238253D01*
X368031Y237055D01*
X368044Y237051D01*
X368055Y237045D01*
X368235Y236994D01*
X368416Y236939D01*
X368429Y236938D01*
X368442Y236934D01*
X368630Y236919D01*
X368817Y236901D01*
X368830Y236902D01*
X368844Y236901D01*
X369030Y236923D01*
X369217Y236942D01*
X369230Y236946D01*
X369243Y236948D01*
X369422Y237006D01*
X369602Y237062D01*
X369613Y237069D01*
X369626Y237073D01*
X369791Y237166D01*
X369955Y237256D01*
X369965Y237264D01*
X369977Y237271D01*
X370119Y237394D01*
X370263Y237515D01*
X370271Y237525D01*
X370282Y237534D01*
X370397Y237682D01*
X370514Y237830D01*
X370520Y237841D01*
X370528Y237852D01*
X370612Y238021D01*
X370698Y238188D01*
X370702Y238200D01*
X370708Y238213D01*
X370757Y238395D01*
X370808Y238575D01*
X370809Y238588D01*
X370812Y238601D01*
X370839Y238932D01*
X370839Y243668D01*
X370838Y243681D01*
X370839Y243695D01*
X370818Y243881D01*
X370799Y244069D01*
X370795Y244081D01*
X370794Y244095D01*
X370736Y244274D01*
X370681Y244454D01*
X370675Y244465D01*
X370671Y244478D01*
X370579Y244643D01*
X370489Y244808D01*
X370481Y244818D01*
X370474Y244830D01*
X370352Y244972D01*
X370232Y245117D01*
X370221Y245125D01*
X370213Y245135D01*
X370065Y245251D01*
X369918Y245369D01*
X369906Y245375D01*
X369896Y245384D01*
X369727Y245468D01*
X369561Y245555D01*
X369548Y245558D01*
X369536Y245564D01*
X369355Y245614D01*
X369174Y245666D01*
X369160Y245667D01*
X369147Y245671D01*
X368959Y245684D01*
X368772Y245699D01*
X368759Y245697D01*
X368746Y245698D01*
X368558Y245674D01*
X368373Y245652D01*
X368360Y245648D01*
X368347Y245646D01*
X368031Y245545D01*
X365140Y244347D01*
X346060Y244347D01*
X342512Y245817D01*
X339797Y248532D01*
X338327Y252080D01*
X338327Y255920D01*
X339797Y259468D01*
X342512Y262183D01*
X342538Y262194D01*
X346060Y263653D01*
X365140Y263653D01*
X368031Y262455D01*
X368044Y262451D01*
X368055Y262445D01*
X368235Y262394D01*
X368416Y262339D01*
X368429Y262338D01*
X368442Y262334D01*
X368630Y262319D01*
X368817Y262301D01*
X368830Y262302D01*
X368844Y262301D01*
X369030Y262323D01*
X369217Y262342D01*
X369230Y262346D01*
X369243Y262348D01*
X369422Y262406D01*
X369602Y262462D01*
X369613Y262469D01*
X369626Y262473D01*
X369791Y262566D01*
X369955Y262656D01*
X369965Y262664D01*
X369977Y262671D01*
X370119Y262794D01*
X370263Y262915D01*
X370271Y262925D01*
X370282Y262934D01*
X370397Y263082D01*
X370514Y263230D01*
X370520Y263241D01*
X370528Y263252D01*
X370612Y263421D01*
X370698Y263588D01*
X370702Y263600D01*
X370708Y263613D01*
X370757Y263795D01*
X370808Y263975D01*
X370809Y263988D01*
X370812Y264001D01*
X370839Y264332D01*
X370839Y269068D01*
X370838Y269081D01*
X370839Y269095D01*
X370818Y269281D01*
X370799Y269469D01*
X370795Y269481D01*
X370794Y269495D01*
X370736Y269674D01*
X370681Y269854D01*
X370675Y269865D01*
X370671Y269878D01*
X370579Y270043D01*
X370489Y270208D01*
X370481Y270218D01*
X370474Y270230D01*
X370352Y270372D01*
X370232Y270517D01*
X370221Y270525D01*
X370213Y270535D01*
X370065Y270651D01*
X369918Y270769D01*
X369906Y270775D01*
X369896Y270784D01*
X369727Y270868D01*
X369561Y270955D01*
X369548Y270958D01*
X369536Y270964D01*
X369355Y271014D01*
X369174Y271066D01*
X369160Y271067D01*
X369147Y271071D01*
X368959Y271084D01*
X368772Y271099D01*
X368759Y271097D01*
X368746Y271098D01*
X368558Y271074D01*
X368373Y271052D01*
X368360Y271048D01*
X368347Y271046D01*
X368031Y270945D01*
X365140Y269747D01*
X346060Y269747D01*
X342512Y271217D01*
X339750Y273979D01*
X339736Y273990D01*
X339725Y274004D01*
X339580Y274118D01*
X339439Y274234D01*
X339423Y274242D01*
X339409Y274253D01*
X339245Y274337D01*
X339083Y274423D01*
X339066Y274428D01*
X339050Y274436D01*
X338873Y274485D01*
X338697Y274537D01*
X338679Y274539D01*
X338662Y274544D01*
X338479Y274557D01*
X338296Y274574D01*
X338278Y274572D01*
X338260Y274573D01*
X338078Y274550D01*
X337896Y274530D01*
X337879Y274525D01*
X337861Y274523D01*
X337687Y274465D01*
X337512Y274409D01*
X337496Y274400D01*
X337479Y274395D01*
X337320Y274303D01*
X337159Y274214D01*
X337146Y274203D01*
X337130Y274194D01*
X336877Y273979D01*
X326152Y263254D01*
X324659Y262635D01*
X311128Y262635D01*
X311119Y262634D01*
X311110Y262635D01*
X310918Y262614D01*
X310727Y262595D01*
X310718Y262593D01*
X310709Y262592D01*
X310527Y262534D01*
X310342Y262477D01*
X310334Y262473D01*
X310326Y262470D01*
X310157Y262377D01*
X309988Y262285D01*
X309981Y262280D01*
X309973Y262275D01*
X309825Y262150D01*
X309679Y262028D01*
X309673Y262021D01*
X309666Y262015D01*
X309547Y261864D01*
X309426Y261714D01*
X309422Y261706D01*
X309417Y261699D01*
X309330Y261528D01*
X309241Y261357D01*
X309238Y261348D01*
X309234Y261340D01*
X309183Y261154D01*
X309129Y260970D01*
X309129Y260961D01*
X309126Y260952D01*
X309112Y260757D01*
X309097Y260568D01*
X309098Y260560D01*
X309097Y260551D01*
X309121Y260358D01*
X309143Y260169D01*
X309146Y260160D01*
X309147Y260151D01*
X309209Y259968D01*
X309268Y259786D01*
X309273Y259778D01*
X309276Y259770D01*
X309371Y259604D01*
X309466Y259435D01*
X309472Y259428D01*
X309477Y259421D01*
X309691Y259168D01*
X310830Y258029D01*
X311913Y255415D01*
X311913Y252585D01*
X310830Y249971D01*
X308829Y247970D01*
X306215Y246887D01*
X303385Y246887D01*
X300771Y247970D01*
X299401Y249340D01*
X299380Y249357D01*
X299363Y249378D01*
X299225Y249485D01*
X299089Y249595D01*
X299066Y249608D01*
X299044Y249624D01*
X298888Y249702D01*
X298734Y249784D01*
X298708Y249792D01*
X298684Y249804D01*
X298515Y249849D01*
X298348Y249899D01*
X298321Y249901D01*
X298295Y249908D01*
X297964Y249935D01*
X247628Y249935D01*
X247619Y249934D01*
X247610Y249935D01*
X247418Y249914D01*
X247227Y249895D01*
X247218Y249893D01*
X247209Y249892D01*
X247027Y249834D01*
X246842Y249777D01*
X246834Y249773D01*
X246826Y249770D01*
X246657Y249677D01*
X246488Y249585D01*
X246481Y249580D01*
X246473Y249575D01*
X246325Y249450D01*
X246179Y249328D01*
X246173Y249321D01*
X246166Y249315D01*
X246047Y249164D01*
X245926Y249014D01*
X245922Y249006D01*
X245917Y248999D01*
X245830Y248828D01*
X245741Y248657D01*
X245738Y248648D01*
X245734Y248640D01*
X245683Y248454D01*
X245629Y248270D01*
X245629Y248261D01*
X245626Y248252D01*
X245612Y248060D01*
X245597Y247868D01*
X245598Y247860D01*
X245597Y247851D01*
X245621Y247658D01*
X245643Y247469D01*
X245646Y247460D01*
X245647Y247451D01*
X245709Y247268D01*
X245768Y247086D01*
X245773Y247078D01*
X245776Y247070D01*
X245872Y246902D01*
X245966Y246735D01*
X245972Y246728D01*
X245977Y246721D01*
X246191Y246468D01*
X247330Y245329D01*
X248413Y242715D01*
X248413Y239885D01*
X247330Y237271D01*
X245329Y235270D01*
X242715Y234187D01*
X239885Y234187D01*
X237271Y235270D01*
X235901Y236640D01*
X235880Y236657D01*
X235863Y236678D01*
X235725Y236785D01*
X235589Y236895D01*
X235566Y236908D01*
X235544Y236924D01*
X235388Y237002D01*
X235234Y237084D01*
X235208Y237092D01*
X235184Y237104D01*
X235015Y237149D01*
X234848Y237199D01*
X234821Y237201D01*
X234795Y237208D01*
X234464Y237235D01*
X224775Y237235D01*
X224748Y237233D01*
X224722Y237235D01*
X224548Y237213D01*
X224374Y237195D01*
X224349Y237188D01*
X224322Y237184D01*
X224157Y237129D01*
X223990Y237077D01*
X223966Y237064D01*
X223941Y237056D01*
X223789Y236969D01*
X223635Y236885D01*
X223615Y236868D01*
X223592Y236855D01*
X223339Y236640D01*
X201510Y214811D01*
X201493Y214791D01*
X201472Y214773D01*
X201365Y214635D01*
X201255Y214500D01*
X201242Y214476D01*
X201226Y214455D01*
X201148Y214298D01*
X201066Y214144D01*
X201058Y214119D01*
X201046Y214094D01*
X201001Y213924D01*
X200951Y213758D01*
X200949Y213732D01*
X200942Y213706D01*
X200915Y213375D01*
X200915Y193395D01*
X200917Y193368D01*
X200915Y193341D01*
X200937Y193167D01*
X200955Y192994D01*
X200962Y192969D01*
X200966Y192942D01*
X201022Y192776D01*
X201073Y192609D01*
X201086Y192586D01*
X201094Y192560D01*
X201181Y192409D01*
X201265Y192255D01*
X201282Y192235D01*
X201295Y192211D01*
X201510Y191958D01*
X204172Y189296D01*
X205487Y186122D01*
X205487Y169478D01*
X204172Y166304D01*
X204151Y166282D01*
X204145Y166275D01*
X204138Y166270D01*
X204019Y166121D01*
X203895Y165971D01*
X203891Y165963D01*
X203886Y165956D01*
X203798Y165787D01*
X203707Y165615D01*
X203704Y165607D01*
X203700Y165599D01*
X203647Y165414D01*
X203592Y165229D01*
X203591Y165220D01*
X203589Y165212D01*
X203573Y165020D01*
X203556Y164828D01*
X203557Y164819D01*
X203556Y164810D01*
X203578Y164620D01*
X203599Y164428D01*
X203602Y164420D01*
X203603Y164411D01*
X203663Y164227D01*
X203720Y164044D01*
X203725Y164036D01*
X203728Y164028D01*
X203822Y163860D01*
X203915Y163692D01*
X203921Y163685D01*
X203925Y163677D01*
X204051Y163532D01*
X204176Y163385D01*
X204183Y163379D01*
X204189Y163372D01*
X204341Y163255D01*
X204492Y163135D01*
X204500Y163131D01*
X204507Y163126D01*
X204679Y163040D01*
X204851Y162953D01*
X204859Y162950D01*
X204867Y162946D01*
X205054Y162896D01*
X205238Y162845D01*
X205247Y162844D01*
X205256Y162842D01*
X205587Y162815D01*
X270525Y162815D01*
X270552Y162817D01*
G37*
%LPC*%
G36*
X264728Y410463D02*
X264728Y410463D01*
X261554Y411778D01*
X259124Y414208D01*
X257809Y417382D01*
X257809Y420818D01*
X259124Y423992D01*
X259400Y424268D01*
X259405Y424275D01*
X259412Y424280D01*
X259533Y424430D01*
X259655Y424579D01*
X259659Y424587D01*
X259664Y424594D01*
X259753Y424764D01*
X259843Y424935D01*
X259846Y424944D01*
X259850Y424951D01*
X259903Y425135D01*
X259958Y425321D01*
X259959Y425330D01*
X259961Y425338D01*
X259977Y425529D01*
X259994Y425722D01*
X259993Y425731D01*
X259994Y425740D01*
X259972Y425929D01*
X259951Y426122D01*
X259948Y426131D01*
X259947Y426139D01*
X259888Y426321D01*
X259830Y426506D01*
X259825Y426514D01*
X259822Y426522D01*
X259727Y426691D01*
X259635Y426858D01*
X259629Y426865D01*
X259625Y426873D01*
X259499Y427018D01*
X259374Y427165D01*
X259367Y427171D01*
X259361Y427178D01*
X259210Y427295D01*
X259058Y427415D01*
X259050Y427419D01*
X259043Y427424D01*
X258871Y427510D01*
X258699Y427597D01*
X258691Y427600D01*
X258683Y427604D01*
X258495Y427654D01*
X258312Y427705D01*
X258303Y427706D01*
X258294Y427708D01*
X257963Y427735D01*
X224775Y427735D01*
X224748Y427733D01*
X224722Y427735D01*
X224548Y427713D01*
X224374Y427695D01*
X224349Y427688D01*
X224322Y427684D01*
X224157Y427629D01*
X223990Y427577D01*
X223966Y427564D01*
X223941Y427556D01*
X223789Y427469D01*
X223635Y427385D01*
X223615Y427368D01*
X223592Y427355D01*
X223339Y427140D01*
X211852Y415654D01*
X210359Y415035D01*
X152886Y415035D01*
X152859Y415033D01*
X152832Y415035D01*
X152658Y415013D01*
X152485Y414995D01*
X152459Y414988D01*
X152433Y414984D01*
X152267Y414929D01*
X152100Y414877D01*
X152076Y414864D01*
X152051Y414856D01*
X151899Y414769D01*
X151746Y414685D01*
X151726Y414668D01*
X151702Y414655D01*
X151449Y414440D01*
X150079Y413070D01*
X147465Y411987D01*
X144635Y411987D01*
X142021Y413070D01*
X140020Y415071D01*
X138937Y417685D01*
X138937Y420515D01*
X140020Y423129D01*
X140501Y423610D01*
X140506Y423617D01*
X140513Y423622D01*
X140633Y423771D01*
X140756Y423921D01*
X140760Y423929D01*
X140766Y423936D01*
X140853Y424105D01*
X140944Y424277D01*
X140947Y424286D01*
X140951Y424293D01*
X141004Y424477D01*
X141059Y424663D01*
X141060Y424672D01*
X141063Y424680D01*
X141078Y424870D01*
X141096Y425064D01*
X141095Y425073D01*
X141095Y425082D01*
X141073Y425271D01*
X141052Y425464D01*
X141050Y425473D01*
X141049Y425481D01*
X140989Y425664D01*
X140931Y425848D01*
X140926Y425856D01*
X140924Y425864D01*
X140829Y426033D01*
X140736Y426200D01*
X140730Y426207D01*
X140726Y426215D01*
X140600Y426360D01*
X140475Y426507D01*
X140468Y426513D01*
X140463Y426520D01*
X140311Y426637D01*
X140160Y426757D01*
X140152Y426761D01*
X140145Y426766D01*
X139971Y426853D01*
X139801Y426939D01*
X139792Y426942D01*
X139784Y426946D01*
X139596Y426996D01*
X139413Y427047D01*
X139404Y427048D01*
X139395Y427050D01*
X139064Y427077D01*
X131383Y427077D01*
X130737Y427250D01*
X130158Y427585D01*
X129685Y428058D01*
X129350Y428637D01*
X129177Y429283D01*
X129177Y435251D01*
X139382Y435251D01*
X139400Y435252D01*
X139417Y435251D01*
X139600Y435272D01*
X139782Y435291D01*
X139799Y435296D01*
X139817Y435298D01*
X139992Y435355D01*
X140167Y435409D01*
X140183Y435417D01*
X140200Y435423D01*
X140360Y435513D01*
X140521Y435600D01*
X140535Y435612D01*
X140551Y435621D01*
X140690Y435741D01*
X140831Y435858D01*
X140842Y435872D01*
X140855Y435884D01*
X140968Y436029D01*
X141083Y436172D01*
X141091Y436188D01*
X141102Y436202D01*
X141184Y436367D01*
X141268Y436529D01*
X141273Y436546D01*
X141281Y436562D01*
X141329Y436741D01*
X141335Y436761D01*
X141428Y436791D01*
X141604Y436845D01*
X141619Y436853D01*
X141636Y436859D01*
X141796Y436949D01*
X141958Y437037D01*
X141971Y437048D01*
X141987Y437057D01*
X142126Y437177D01*
X142267Y437295D01*
X142278Y437308D01*
X142292Y437320D01*
X142404Y437465D01*
X142519Y437608D01*
X142527Y437624D01*
X142538Y437638D01*
X142620Y437803D01*
X142705Y437966D01*
X142710Y437983D01*
X142718Y437999D01*
X142765Y438177D01*
X142816Y438352D01*
X142818Y438370D01*
X142822Y438387D01*
X142849Y438718D01*
X142849Y448923D01*
X148817Y448923D01*
X149463Y448750D01*
X150042Y448415D01*
X150515Y447942D01*
X150850Y447363D01*
X151023Y446717D01*
X151023Y443555D01*
X151024Y443546D01*
X151023Y443537D01*
X151044Y443344D01*
X151063Y443155D01*
X151065Y443146D01*
X151066Y443137D01*
X151124Y442953D01*
X151181Y442770D01*
X151185Y442762D01*
X151188Y442753D01*
X151281Y442585D01*
X151373Y442416D01*
X151378Y442409D01*
X151383Y442401D01*
X151507Y442254D01*
X151630Y442106D01*
X151637Y442101D01*
X151643Y442094D01*
X151794Y441975D01*
X151944Y441854D01*
X151952Y441850D01*
X151959Y441844D01*
X152132Y441757D01*
X152301Y441669D01*
X152310Y441666D01*
X152318Y441662D01*
X152504Y441610D01*
X152688Y441557D01*
X152697Y441556D01*
X152706Y441554D01*
X152899Y441540D01*
X153090Y441524D01*
X153098Y441525D01*
X153107Y441525D01*
X153300Y441549D01*
X153489Y441571D01*
X153498Y441574D01*
X153507Y441575D01*
X153690Y441636D01*
X153872Y441696D01*
X153880Y441700D01*
X153888Y441703D01*
X154055Y441799D01*
X154223Y441894D01*
X154230Y441900D01*
X154237Y441904D01*
X154490Y442119D01*
X160786Y448415D01*
X169414Y448415D01*
X175515Y442314D01*
X175515Y433686D01*
X169414Y427585D01*
X160786Y427585D01*
X154490Y433881D01*
X154483Y433887D01*
X154478Y433894D01*
X154328Y434014D01*
X154179Y434136D01*
X154171Y434140D01*
X154164Y434146D01*
X153994Y434234D01*
X153823Y434325D01*
X153814Y434327D01*
X153807Y434331D01*
X153622Y434385D01*
X153437Y434440D01*
X153428Y434440D01*
X153420Y434443D01*
X153228Y434458D01*
X153036Y434476D01*
X153027Y434475D01*
X153018Y434476D01*
X152829Y434454D01*
X152636Y434433D01*
X152627Y434430D01*
X152619Y434429D01*
X152437Y434369D01*
X152252Y434311D01*
X152244Y434307D01*
X152236Y434304D01*
X152067Y434209D01*
X151900Y434116D01*
X151893Y434110D01*
X151885Y434106D01*
X151739Y433980D01*
X151593Y433856D01*
X151587Y433849D01*
X151580Y433843D01*
X151463Y433691D01*
X151343Y433540D01*
X151339Y433532D01*
X151334Y433525D01*
X151248Y433353D01*
X151161Y433181D01*
X151158Y433172D01*
X151154Y433164D01*
X151104Y432978D01*
X151053Y432793D01*
X151052Y432784D01*
X151050Y432775D01*
X151023Y432445D01*
X151023Y429283D01*
X150850Y428637D01*
X150515Y428058D01*
X150269Y427812D01*
X150258Y427798D01*
X150244Y427787D01*
X150131Y427643D01*
X150014Y427501D01*
X150006Y427485D01*
X149995Y427471D01*
X149912Y427308D01*
X149826Y427145D01*
X149821Y427128D01*
X149812Y427112D01*
X149763Y426935D01*
X149711Y426759D01*
X149709Y426741D01*
X149704Y426724D01*
X149691Y426541D01*
X149674Y426358D01*
X149676Y426340D01*
X149675Y426323D01*
X149698Y426139D01*
X149718Y425958D01*
X149723Y425941D01*
X149725Y425923D01*
X149784Y425748D01*
X149839Y425574D01*
X149848Y425558D01*
X149854Y425541D01*
X149945Y425382D01*
X150034Y425222D01*
X150046Y425208D01*
X150055Y425193D01*
X150269Y424940D01*
X151449Y423760D01*
X151470Y423743D01*
X151487Y423722D01*
X151625Y423616D01*
X151761Y423505D01*
X151784Y423492D01*
X151806Y423476D01*
X151962Y423398D01*
X152116Y423316D01*
X152142Y423308D01*
X152166Y423296D01*
X152335Y423251D01*
X152502Y423201D01*
X152529Y423199D01*
X152555Y423192D01*
X152886Y423165D01*
X207025Y423165D01*
X207052Y423167D01*
X207078Y423165D01*
X207252Y423187D01*
X207426Y423205D01*
X207451Y423212D01*
X207478Y423216D01*
X207643Y423271D01*
X207810Y423323D01*
X207834Y423336D01*
X207859Y423344D01*
X208011Y423431D01*
X208165Y423515D01*
X208185Y423532D01*
X208208Y423545D01*
X208461Y423760D01*
X219948Y435246D01*
X221441Y435865D01*
X257963Y435865D01*
X257972Y435866D01*
X257981Y435865D01*
X258172Y435885D01*
X258364Y435905D01*
X258372Y435907D01*
X258381Y435908D01*
X258565Y435966D01*
X258749Y436023D01*
X258757Y436027D01*
X258765Y436030D01*
X258934Y436123D01*
X259103Y436215D01*
X259110Y436220D01*
X259118Y436225D01*
X259264Y436349D01*
X259412Y436472D01*
X259418Y436479D01*
X259424Y436485D01*
X259544Y436636D01*
X259664Y436786D01*
X259668Y436794D01*
X259674Y436801D01*
X259762Y436974D01*
X259850Y437143D01*
X259852Y437152D01*
X259856Y437160D01*
X259908Y437347D01*
X259961Y437530D01*
X259962Y437539D01*
X259964Y437548D01*
X259978Y437740D01*
X259994Y437932D01*
X259993Y437940D01*
X259994Y437949D01*
X259970Y438141D01*
X259947Y438331D01*
X259944Y438340D01*
X259943Y438349D01*
X259882Y438531D01*
X259822Y438714D01*
X259818Y438722D01*
X259815Y438730D01*
X259719Y438898D01*
X259625Y439065D01*
X259619Y439072D01*
X259614Y439079D01*
X259400Y439332D01*
X259124Y439608D01*
X257809Y442782D01*
X257809Y446218D01*
X259124Y449392D01*
X259400Y449668D01*
X259405Y449675D01*
X259412Y449680D01*
X259533Y449830D01*
X259655Y449979D01*
X259659Y449987D01*
X259664Y449994D01*
X259753Y450164D01*
X259843Y450335D01*
X259846Y450344D01*
X259850Y450351D01*
X259903Y450535D01*
X259958Y450721D01*
X259959Y450730D01*
X259961Y450738D01*
X259977Y450929D01*
X259994Y451122D01*
X259993Y451131D01*
X259994Y451140D01*
X259972Y451329D01*
X259951Y451522D01*
X259948Y451531D01*
X259947Y451539D01*
X259888Y451722D01*
X259830Y451906D01*
X259825Y451914D01*
X259822Y451922D01*
X259727Y452091D01*
X259635Y452258D01*
X259629Y452265D01*
X259625Y452273D01*
X259499Y452418D01*
X259374Y452565D01*
X259367Y452571D01*
X259361Y452578D01*
X259210Y452695D01*
X259058Y452815D01*
X259050Y452819D01*
X259043Y452824D01*
X258871Y452910D01*
X258699Y452997D01*
X258691Y453000D01*
X258683Y453004D01*
X258495Y453054D01*
X258312Y453105D01*
X258303Y453106D01*
X258294Y453108D01*
X257963Y453135D01*
X248136Y453135D01*
X248109Y453133D01*
X248082Y453135D01*
X247908Y453113D01*
X247735Y453095D01*
X247709Y453088D01*
X247683Y453084D01*
X247517Y453029D01*
X247350Y452977D01*
X247326Y452964D01*
X247301Y452956D01*
X247149Y452869D01*
X246996Y452785D01*
X246976Y452768D01*
X246952Y452755D01*
X246699Y452540D01*
X245329Y451170D01*
X242715Y450087D01*
X239885Y450087D01*
X237271Y451170D01*
X235270Y453171D01*
X234187Y455785D01*
X234187Y458615D01*
X235270Y461229D01*
X237271Y463230D01*
X237410Y463287D01*
X237410Y463288D01*
X239885Y464313D01*
X242715Y464313D01*
X245329Y463230D01*
X246699Y461860D01*
X246720Y461843D01*
X246737Y461822D01*
X246875Y461715D01*
X247011Y461605D01*
X247034Y461592D01*
X247056Y461576D01*
X247212Y461498D01*
X247366Y461416D01*
X247392Y461408D01*
X247416Y461396D01*
X247585Y461351D01*
X247752Y461301D01*
X247779Y461299D01*
X247805Y461292D01*
X248136Y461265D01*
X257430Y461265D01*
X257481Y461270D01*
X257532Y461267D01*
X257681Y461290D01*
X257830Y461305D01*
X257879Y461320D01*
X257930Y461327D01*
X258072Y461379D01*
X258215Y461423D01*
X258260Y461447D01*
X258308Y461465D01*
X258437Y461543D01*
X258569Y461615D01*
X258609Y461647D01*
X258652Y461674D01*
X258763Y461776D01*
X258879Y461872D01*
X258911Y461912D01*
X258948Y461947D01*
X259037Y462069D01*
X259131Y462186D01*
X259154Y462231D01*
X259185Y462273D01*
X259247Y462410D01*
X259316Y462543D01*
X259331Y462592D01*
X259352Y462639D01*
X259386Y462786D01*
X259428Y462930D01*
X259432Y462981D01*
X259444Y463031D01*
X259448Y463181D01*
X259461Y463332D01*
X259455Y463382D01*
X259456Y463433D01*
X259431Y463582D01*
X259414Y463731D01*
X259398Y463780D01*
X259390Y463830D01*
X259336Y463971D01*
X259289Y464114D01*
X259264Y464159D01*
X259246Y464206D01*
X259126Y464404D01*
X259091Y464465D01*
X259082Y464475D01*
X259073Y464490D01*
X258625Y465107D01*
X257971Y466390D01*
X257526Y467759D01*
X257509Y467869D01*
X273050Y467869D01*
X288591Y467869D01*
X288574Y467759D01*
X288129Y466390D01*
X287475Y465107D01*
X287027Y464490D01*
X287001Y464446D01*
X286969Y464406D01*
X286900Y464272D01*
X286824Y464142D01*
X286807Y464094D01*
X286783Y464049D01*
X286742Y463904D01*
X286693Y463762D01*
X286686Y463711D01*
X286672Y463662D01*
X286660Y463512D01*
X286640Y463362D01*
X286643Y463311D01*
X286639Y463260D01*
X286657Y463111D01*
X286667Y462961D01*
X286680Y462911D01*
X286686Y462861D01*
X286733Y462717D01*
X286772Y462572D01*
X286795Y462526D01*
X286811Y462478D01*
X286885Y462347D01*
X286952Y462212D01*
X286984Y462172D01*
X287009Y462127D01*
X287107Y462013D01*
X287200Y461895D01*
X287239Y461861D01*
X287272Y461822D01*
X287391Y461730D01*
X287505Y461632D01*
X287550Y461607D01*
X287590Y461576D01*
X287725Y461509D01*
X287856Y461435D01*
X287905Y461419D01*
X287951Y461396D01*
X288096Y461357D01*
X288239Y461311D01*
X288290Y461305D01*
X288339Y461292D01*
X288570Y461273D01*
X288639Y461265D01*
X288653Y461266D01*
X288670Y461265D01*
X302275Y461265D01*
X302302Y461267D01*
X302328Y461265D01*
X302502Y461287D01*
X302676Y461305D01*
X302701Y461312D01*
X302728Y461316D01*
X302893Y461371D01*
X303060Y461423D01*
X303084Y461436D01*
X303109Y461444D01*
X303261Y461531D01*
X303415Y461615D01*
X303435Y461632D01*
X303458Y461645D01*
X303711Y461860D01*
X315198Y473346D01*
X316691Y473965D01*
X333655Y473965D01*
X333682Y473967D01*
X333709Y473965D01*
X333882Y473987D01*
X334056Y474005D01*
X334081Y474012D01*
X334108Y474016D01*
X334274Y474072D01*
X334441Y474123D01*
X334464Y474136D01*
X334490Y474144D01*
X334641Y474231D01*
X334795Y474315D01*
X334815Y474332D01*
X334839Y474345D01*
X335092Y474560D01*
X337754Y477222D01*
X340928Y478537D01*
X357572Y478537D01*
X360746Y477222D01*
X363176Y474792D01*
X364491Y471618D01*
X364491Y468182D01*
X363176Y465008D01*
X360746Y462578D01*
X357572Y461263D01*
X340928Y461263D01*
X337754Y462578D01*
X335092Y465240D01*
X335071Y465257D01*
X335053Y465278D01*
X334915Y465385D01*
X334780Y465495D01*
X334756Y465508D01*
X334735Y465524D01*
X334579Y465602D01*
X334424Y465684D01*
X334399Y465692D01*
X334375Y465704D01*
X334206Y465749D01*
X334038Y465799D01*
X334012Y465801D01*
X333986Y465808D01*
X333655Y465835D01*
X320025Y465835D01*
X319998Y465833D01*
X319972Y465835D01*
X319798Y465813D01*
X319624Y465795D01*
X319599Y465788D01*
X319572Y465784D01*
X319407Y465729D01*
X319240Y465677D01*
X319216Y465664D01*
X319191Y465656D01*
X319039Y465569D01*
X318885Y465485D01*
X318865Y465468D01*
X318842Y465455D01*
X318589Y465240D01*
X307102Y453754D01*
X305609Y453135D01*
X288137Y453135D01*
X288128Y453134D01*
X288119Y453135D01*
X287928Y453115D01*
X287736Y453095D01*
X287728Y453093D01*
X287719Y453092D01*
X287535Y453034D01*
X287351Y452977D01*
X287343Y452973D01*
X287335Y452970D01*
X287166Y452877D01*
X286997Y452785D01*
X286990Y452780D01*
X286982Y452775D01*
X286836Y452651D01*
X286688Y452528D01*
X286682Y452521D01*
X286676Y452515D01*
X286556Y452364D01*
X286436Y452214D01*
X286432Y452206D01*
X286426Y452199D01*
X286338Y452026D01*
X286250Y451857D01*
X286248Y451848D01*
X286244Y451840D01*
X286192Y451653D01*
X286139Y451470D01*
X286138Y451461D01*
X286136Y451452D01*
X286122Y451260D01*
X286106Y451068D01*
X286107Y451060D01*
X286106Y451051D01*
X286131Y450858D01*
X286153Y450669D01*
X286156Y450660D01*
X286157Y450651D01*
X286218Y450469D01*
X286278Y450286D01*
X286282Y450278D01*
X286285Y450270D01*
X286381Y450102D01*
X286475Y449935D01*
X286481Y449928D01*
X286486Y449921D01*
X286700Y449668D01*
X286976Y449392D01*
X288291Y446218D01*
X288291Y442782D01*
X286976Y439608D01*
X286700Y439332D01*
X286695Y439325D01*
X286688Y439320D01*
X286567Y439170D01*
X286445Y439021D01*
X286441Y439013D01*
X286436Y439006D01*
X286347Y438836D01*
X286257Y438665D01*
X286254Y438656D01*
X286250Y438649D01*
X286197Y438465D01*
X286142Y438279D01*
X286141Y438270D01*
X286139Y438262D01*
X286123Y438071D01*
X286106Y437878D01*
X286107Y437869D01*
X286106Y437860D01*
X286128Y437671D01*
X286149Y437478D01*
X286152Y437469D01*
X286153Y437461D01*
X286212Y437278D01*
X286270Y437094D01*
X286275Y437086D01*
X286278Y437078D01*
X286373Y436909D01*
X286465Y436742D01*
X286471Y436735D01*
X286475Y436727D01*
X286602Y436581D01*
X286726Y436435D01*
X286733Y436429D01*
X286739Y436422D01*
X286890Y436305D01*
X287042Y436185D01*
X287050Y436181D01*
X287057Y436176D01*
X287229Y436090D01*
X287401Y436003D01*
X287409Y436000D01*
X287417Y435996D01*
X287605Y435946D01*
X287788Y435895D01*
X287797Y435894D01*
X287806Y435892D01*
X288137Y435865D01*
X329596Y435865D01*
X329631Y435868D01*
X329665Y435866D01*
X329995Y435904D01*
X330196Y435944D01*
X330403Y435903D01*
X330435Y435900D01*
X330467Y435892D01*
X330797Y435865D01*
X331008Y435865D01*
X331198Y435786D01*
X331231Y435776D01*
X331262Y435761D01*
X331581Y435670D01*
X331782Y435631D01*
X331958Y435513D01*
X331986Y435498D01*
X332012Y435478D01*
X332307Y435327D01*
X332502Y435246D01*
X332647Y435101D01*
X332674Y435079D01*
X332697Y435053D01*
X332957Y434847D01*
X343111Y428078D01*
X343136Y428065D01*
X343158Y428048D01*
X343313Y427970D01*
X343466Y427889D01*
X343493Y427881D01*
X343518Y427868D01*
X343686Y427823D01*
X343852Y427774D01*
X343880Y427771D01*
X343907Y427764D01*
X344238Y427737D01*
X357572Y427737D01*
X360746Y426422D01*
X363176Y423992D01*
X364491Y420818D01*
X364491Y417382D01*
X363176Y414208D01*
X360746Y411778D01*
X357572Y410463D01*
X340928Y410463D01*
X337754Y411778D01*
X335324Y414208D01*
X334009Y417382D01*
X334009Y420818D01*
X334525Y422064D01*
X334531Y422084D01*
X334541Y422103D01*
X334589Y422276D01*
X334642Y422449D01*
X334644Y422470D01*
X334649Y422491D01*
X334663Y422671D01*
X334680Y422850D01*
X334678Y422871D01*
X334679Y422892D01*
X334657Y423072D01*
X334638Y423250D01*
X334632Y423271D01*
X334629Y423292D01*
X334572Y423463D01*
X334518Y423635D01*
X334508Y423653D01*
X334502Y423673D01*
X334411Y423830D01*
X334325Y423988D01*
X334312Y424004D01*
X334301Y424023D01*
X334182Y424158D01*
X334066Y424296D01*
X334050Y424309D01*
X334036Y424325D01*
X333775Y424531D01*
X329481Y427394D01*
X329456Y427407D01*
X329434Y427424D01*
X329278Y427502D01*
X329126Y427583D01*
X329099Y427591D01*
X329074Y427604D01*
X328906Y427649D01*
X328740Y427698D01*
X328712Y427701D01*
X328685Y427708D01*
X328354Y427735D01*
X288137Y427735D01*
X288128Y427734D01*
X288119Y427735D01*
X287928Y427715D01*
X287736Y427695D01*
X287728Y427693D01*
X287719Y427692D01*
X287535Y427634D01*
X287351Y427577D01*
X287343Y427573D01*
X287335Y427570D01*
X287166Y427477D01*
X286997Y427385D01*
X286990Y427380D01*
X286982Y427375D01*
X286836Y427251D01*
X286688Y427128D01*
X286682Y427121D01*
X286676Y427115D01*
X286556Y426964D01*
X286436Y426814D01*
X286432Y426806D01*
X286426Y426799D01*
X286338Y426626D01*
X286250Y426457D01*
X286248Y426448D01*
X286244Y426440D01*
X286192Y426253D01*
X286139Y426070D01*
X286138Y426061D01*
X286136Y426052D01*
X286122Y425860D01*
X286106Y425668D01*
X286107Y425660D01*
X286106Y425651D01*
X286131Y425457D01*
X286153Y425269D01*
X286156Y425260D01*
X286157Y425251D01*
X286218Y425069D01*
X286278Y424886D01*
X286282Y424878D01*
X286285Y424870D01*
X286381Y424702D01*
X286475Y424535D01*
X286481Y424528D01*
X286486Y424521D01*
X286700Y424268D01*
X286976Y423992D01*
X288291Y420818D01*
X288291Y417382D01*
X286976Y414208D01*
X284546Y411778D01*
X281372Y410463D01*
X264728Y410463D01*
G37*
%LPD*%
%LPC*%
G36*
X132541Y561085D02*
X132541Y561085D01*
X131048Y561704D01*
X91804Y600948D01*
X91185Y602441D01*
X91185Y689625D01*
X91183Y689652D01*
X91185Y689678D01*
X91163Y689852D01*
X91145Y690026D01*
X91138Y690051D01*
X91134Y690078D01*
X91079Y690243D01*
X91027Y690410D01*
X91014Y690434D01*
X91006Y690459D01*
X90919Y690611D01*
X90835Y690765D01*
X90818Y690785D01*
X90805Y690808D01*
X90590Y691061D01*
X75111Y706540D01*
X75091Y706557D01*
X75073Y706578D01*
X74935Y706685D01*
X74800Y706795D01*
X74776Y706808D01*
X74755Y706824D01*
X74598Y706902D01*
X74444Y706984D01*
X74419Y706992D01*
X74394Y707004D01*
X74225Y707049D01*
X74058Y707099D01*
X74032Y707101D01*
X74006Y707108D01*
X73675Y707135D01*
X61935Y707135D01*
X61913Y707133D01*
X61890Y707135D01*
X61713Y707113D01*
X61534Y707095D01*
X61513Y707089D01*
X61491Y707086D01*
X61321Y707030D01*
X61149Y706977D01*
X61130Y706967D01*
X61109Y706960D01*
X60953Y706871D01*
X60795Y706785D01*
X60778Y706771D01*
X60759Y706760D01*
X60623Y706642D01*
X60486Y706528D01*
X60472Y706510D01*
X60455Y706496D01*
X60346Y706354D01*
X60234Y706214D01*
X60223Y706194D01*
X60210Y706176D01*
X60058Y705881D01*
X59517Y704575D01*
X56625Y701683D01*
X52845Y700117D01*
X48755Y700117D01*
X44975Y701683D01*
X42083Y704575D01*
X40517Y708355D01*
X40517Y712445D01*
X42083Y716225D01*
X44975Y719117D01*
X45235Y719225D01*
X48755Y720683D01*
X52845Y720683D01*
X56625Y719117D01*
X59606Y716136D01*
X59611Y716127D01*
X59728Y715992D01*
X59842Y715854D01*
X59859Y715840D01*
X59874Y715822D01*
X60015Y715713D01*
X60154Y715600D01*
X60174Y715589D01*
X60192Y715576D01*
X60352Y715496D01*
X60511Y715413D01*
X60532Y715406D01*
X60553Y715396D01*
X60726Y715350D01*
X60897Y715300D01*
X60920Y715298D01*
X60941Y715292D01*
X61272Y715265D01*
X77009Y715265D01*
X78502Y714646D01*
X98696Y694452D01*
X99315Y692959D01*
X99315Y678553D01*
X99316Y678544D01*
X99315Y678536D01*
X99336Y678344D01*
X99355Y678153D01*
X99357Y678144D01*
X99358Y678135D01*
X99417Y677951D01*
X99473Y677768D01*
X99477Y677760D01*
X99480Y677751D01*
X99573Y677583D01*
X99665Y677414D01*
X99670Y677407D01*
X99675Y677399D01*
X99800Y677251D01*
X99922Y677104D01*
X99929Y677099D01*
X99935Y677092D01*
X100087Y676972D01*
X100236Y676852D01*
X100244Y676848D01*
X100251Y676842D01*
X100423Y676755D01*
X100593Y676667D01*
X100602Y676664D01*
X100610Y676660D01*
X100796Y676608D01*
X100980Y676555D01*
X100989Y676555D01*
X100998Y676552D01*
X101190Y676538D01*
X101382Y676522D01*
X101390Y676523D01*
X101399Y676523D01*
X101592Y676547D01*
X101781Y676569D01*
X101790Y676572D01*
X101799Y676573D01*
X101982Y676635D01*
X102164Y676694D01*
X102172Y676699D01*
X102180Y676701D01*
X102346Y676797D01*
X102515Y676892D01*
X102522Y676898D01*
X102529Y676902D01*
X102782Y677117D01*
X103678Y678013D01*
X136522Y678013D01*
X137713Y676822D01*
X137713Y643978D01*
X136522Y642787D01*
X103678Y642787D01*
X102782Y643683D01*
X102775Y643689D01*
X102770Y643696D01*
X102619Y643817D01*
X102471Y643938D01*
X102463Y643942D01*
X102456Y643948D01*
X102286Y644036D01*
X102115Y644127D01*
X102106Y644129D01*
X102099Y644133D01*
X101914Y644186D01*
X101729Y644241D01*
X101720Y644242D01*
X101712Y644245D01*
X101521Y644260D01*
X101328Y644278D01*
X101319Y644277D01*
X101310Y644278D01*
X101121Y644255D01*
X100928Y644234D01*
X100919Y644232D01*
X100911Y644231D01*
X100729Y644171D01*
X100544Y644113D01*
X100536Y644109D01*
X100528Y644106D01*
X100361Y644012D01*
X100192Y643918D01*
X100185Y643912D01*
X100177Y643908D01*
X100032Y643783D01*
X99885Y643658D01*
X99879Y643651D01*
X99872Y643645D01*
X99756Y643494D01*
X99635Y643342D01*
X99631Y643334D01*
X99626Y643327D01*
X99541Y643156D01*
X99453Y642983D01*
X99450Y642974D01*
X99446Y642966D01*
X99397Y642781D01*
X99345Y642595D01*
X99344Y642586D01*
X99342Y642577D01*
X99315Y642247D01*
X99315Y605775D01*
X99317Y605748D01*
X99315Y605722D01*
X99337Y605548D01*
X99355Y605374D01*
X99362Y605349D01*
X99366Y605322D01*
X99422Y605156D01*
X99473Y604990D01*
X99486Y604966D01*
X99494Y604941D01*
X99581Y604789D01*
X99665Y604635D01*
X99682Y604615D01*
X99695Y604592D01*
X99910Y604339D01*
X134439Y569810D01*
X134459Y569793D01*
X134477Y569772D01*
X134615Y569665D01*
X134750Y569555D01*
X134774Y569542D01*
X134795Y569526D01*
X134952Y569448D01*
X135106Y569366D01*
X135131Y569358D01*
X135156Y569346D01*
X135325Y569301D01*
X135492Y569251D01*
X135518Y569249D01*
X135544Y569242D01*
X135875Y569215D01*
X175275Y569215D01*
X175302Y569217D01*
X175328Y569215D01*
X175502Y569237D01*
X175676Y569255D01*
X175701Y569262D01*
X175728Y569266D01*
X175893Y569321D01*
X176060Y569373D01*
X176084Y569386D01*
X176109Y569394D01*
X176261Y569481D01*
X176415Y569565D01*
X176435Y569582D01*
X176458Y569595D01*
X176711Y569810D01*
X184900Y577999D01*
X184911Y578012D01*
X184925Y578024D01*
X185039Y578168D01*
X185155Y578310D01*
X185164Y578326D01*
X185175Y578340D01*
X185258Y578504D01*
X185344Y578666D01*
X185349Y578683D01*
X185357Y578699D01*
X185406Y578875D01*
X185459Y579052D01*
X185460Y579069D01*
X185465Y579087D01*
X185478Y579270D01*
X185495Y579453D01*
X185493Y579470D01*
X185494Y579488D01*
X185471Y579670D01*
X185452Y579853D01*
X185446Y579870D01*
X185444Y579888D01*
X185386Y580061D01*
X185330Y580237D01*
X185321Y580252D01*
X185316Y580269D01*
X185224Y580429D01*
X185135Y580589D01*
X185124Y580603D01*
X185115Y580618D01*
X184900Y580871D01*
X179685Y586086D01*
X179685Y594714D01*
X185786Y600815D01*
X194414Y600815D01*
X200515Y594714D01*
X200515Y586086D01*
X195092Y580663D01*
X195077Y580646D01*
X195060Y580631D01*
X194950Y580490D01*
X194837Y580352D01*
X194826Y580332D01*
X194812Y580314D01*
X194732Y580154D01*
X194648Y579996D01*
X194642Y579974D01*
X194632Y579954D01*
X194584Y579782D01*
X194533Y579610D01*
X194531Y579588D01*
X194525Y579566D01*
X194513Y579388D01*
X194497Y579209D01*
X194499Y579187D01*
X194498Y579164D01*
X194521Y578988D01*
X194540Y578809D01*
X194547Y578787D01*
X194550Y578765D01*
X194565Y578719D01*
X194565Y577041D01*
X193946Y575548D01*
X181532Y563133D01*
X181531Y563133D01*
X180102Y561704D01*
X178609Y561085D01*
X132541Y561085D01*
G37*
%LPD*%
G36*
X42722Y258828D02*
X42722Y258828D01*
X42740Y258827D01*
X42922Y258850D01*
X43104Y258870D01*
X43121Y258875D01*
X43139Y258877D01*
X43313Y258935D01*
X43488Y258991D01*
X43504Y259000D01*
X43521Y259005D01*
X43680Y259097D01*
X43841Y259186D01*
X43854Y259197D01*
X43870Y259206D01*
X44123Y259421D01*
X58840Y274139D01*
X58857Y274159D01*
X58878Y274177D01*
X58985Y274315D01*
X59095Y274450D01*
X59108Y274474D01*
X59124Y274495D01*
X59202Y274651D01*
X59284Y274806D01*
X59292Y274831D01*
X59304Y274856D01*
X59349Y275025D01*
X59399Y275192D01*
X59401Y275218D01*
X59408Y275244D01*
X59435Y275575D01*
X59435Y292909D01*
X60054Y294402D01*
X84240Y318589D01*
X84257Y318609D01*
X84278Y318627D01*
X84385Y318765D01*
X84495Y318900D01*
X84508Y318924D01*
X84524Y318945D01*
X84602Y319102D01*
X84684Y319256D01*
X84692Y319281D01*
X84704Y319306D01*
X84749Y319475D01*
X84799Y319642D01*
X84801Y319668D01*
X84808Y319694D01*
X84835Y320025D01*
X84835Y419909D01*
X85454Y421402D01*
X97971Y433920D01*
X97977Y433927D01*
X97984Y433932D01*
X98104Y434082D01*
X98226Y434231D01*
X98231Y434239D01*
X98236Y434246D01*
X98325Y434416D01*
X98415Y434587D01*
X98418Y434596D01*
X98422Y434603D01*
X98475Y434788D01*
X98530Y434973D01*
X98531Y434982D01*
X98533Y434990D01*
X98549Y435182D01*
X98566Y435374D01*
X98565Y435383D01*
X98566Y435392D01*
X98544Y435581D01*
X98523Y435774D01*
X98520Y435783D01*
X98519Y435791D01*
X98460Y435973D01*
X98401Y436158D01*
X98397Y436166D01*
X98394Y436174D01*
X98299Y436343D01*
X98206Y436510D01*
X98201Y436517D01*
X98196Y436525D01*
X98070Y436671D01*
X97946Y436817D01*
X97939Y436823D01*
X97933Y436830D01*
X97782Y436947D01*
X97630Y437067D01*
X97622Y437071D01*
X97615Y437076D01*
X97443Y437162D01*
X97271Y437249D01*
X97263Y437252D01*
X97255Y437256D01*
X97068Y437306D01*
X96883Y437357D01*
X96874Y437358D01*
X96866Y437360D01*
X96535Y437387D01*
X94727Y437387D01*
X94700Y437385D01*
X94674Y437387D01*
X94500Y437365D01*
X94326Y437347D01*
X94301Y437340D01*
X94274Y437336D01*
X94109Y437281D01*
X93941Y437229D01*
X93918Y437216D01*
X93893Y437208D01*
X93741Y437121D01*
X93587Y437037D01*
X93567Y437020D01*
X93544Y437007D01*
X93291Y436792D01*
X55460Y398961D01*
X55443Y398941D01*
X55422Y398923D01*
X55315Y398785D01*
X55205Y398650D01*
X55192Y398626D01*
X55176Y398605D01*
X55098Y398448D01*
X55016Y398294D01*
X55008Y398269D01*
X54996Y398244D01*
X54951Y398075D01*
X54901Y397908D01*
X54899Y397882D01*
X54892Y397856D01*
X54865Y397525D01*
X54865Y291291D01*
X54246Y289798D01*
X52817Y288368D01*
X43268Y278819D01*
X43251Y278799D01*
X43230Y278781D01*
X43123Y278643D01*
X43013Y278508D01*
X43000Y278484D01*
X42984Y278463D01*
X42906Y278306D01*
X42824Y278152D01*
X42816Y278127D01*
X42804Y278102D01*
X42759Y277933D01*
X42709Y277766D01*
X42707Y277740D01*
X42700Y277714D01*
X42683Y277504D01*
X41203Y273932D01*
X38488Y271217D01*
X34940Y269747D01*
X15860Y269747D01*
X12969Y270945D01*
X12956Y270949D01*
X12945Y270955D01*
X12765Y271006D01*
X12584Y271061D01*
X12571Y271062D01*
X12558Y271066D01*
X12370Y271081D01*
X12183Y271099D01*
X12170Y271098D01*
X12156Y271099D01*
X11970Y271077D01*
X11783Y271058D01*
X11770Y271054D01*
X11757Y271052D01*
X11578Y270994D01*
X11398Y270938D01*
X11387Y270931D01*
X11374Y270927D01*
X11209Y270834D01*
X11045Y270744D01*
X11035Y270736D01*
X11023Y270729D01*
X10881Y270606D01*
X10737Y270485D01*
X10729Y270475D01*
X10718Y270466D01*
X10603Y270318D01*
X10486Y270170D01*
X10480Y270159D01*
X10472Y270148D01*
X10388Y269979D01*
X10302Y269812D01*
X10298Y269800D01*
X10292Y269787D01*
X10243Y269605D01*
X10192Y269425D01*
X10191Y269412D01*
X10188Y269399D01*
X10161Y269068D01*
X10161Y264332D01*
X10162Y264319D01*
X10161Y264305D01*
X10182Y264119D01*
X10201Y263931D01*
X10205Y263919D01*
X10206Y263905D01*
X10264Y263726D01*
X10319Y263546D01*
X10325Y263535D01*
X10329Y263522D01*
X10421Y263357D01*
X10511Y263192D01*
X10519Y263182D01*
X10526Y263170D01*
X10648Y263028D01*
X10768Y262883D01*
X10779Y262875D01*
X10787Y262865D01*
X10935Y262749D01*
X11082Y262631D01*
X11094Y262625D01*
X11104Y262616D01*
X11273Y262532D01*
X11439Y262445D01*
X11452Y262442D01*
X11464Y262436D01*
X11645Y262386D01*
X11826Y262334D01*
X11840Y262333D01*
X11853Y262329D01*
X12041Y262316D01*
X12228Y262301D01*
X12241Y262303D01*
X12254Y262302D01*
X12442Y262326D01*
X12627Y262348D01*
X12640Y262352D01*
X12653Y262354D01*
X12969Y262455D01*
X15860Y263653D01*
X34940Y263653D01*
X38488Y262183D01*
X41250Y259421D01*
X41264Y259410D01*
X41275Y259396D01*
X41420Y259282D01*
X41561Y259166D01*
X41577Y259158D01*
X41591Y259147D01*
X41755Y259063D01*
X41917Y258977D01*
X41934Y258972D01*
X41950Y258964D01*
X42127Y258915D01*
X42303Y258863D01*
X42321Y258861D01*
X42338Y258856D01*
X42521Y258843D01*
X42704Y258826D01*
X42722Y258828D01*
G37*
%LPC*%
G36*
X328155Y37267D02*
X328155Y37267D01*
X324375Y38833D01*
X321483Y41725D01*
X319917Y45505D01*
X319917Y49595D01*
X320806Y51741D01*
X320810Y51754D01*
X320816Y51765D01*
X320868Y51945D01*
X320922Y52126D01*
X320924Y52139D01*
X320927Y52152D01*
X320943Y52340D01*
X320960Y52527D01*
X320959Y52540D01*
X320960Y52554D01*
X320938Y52740D01*
X320919Y52927D01*
X320915Y52940D01*
X320913Y52953D01*
X320855Y53132D01*
X320799Y53312D01*
X320793Y53323D01*
X320788Y53336D01*
X320696Y53501D01*
X320606Y53665D01*
X320597Y53675D01*
X320591Y53687D01*
X320468Y53829D01*
X320347Y53973D01*
X320336Y53981D01*
X320327Y53992D01*
X320180Y54106D01*
X320032Y54224D01*
X320020Y54230D01*
X320009Y54238D01*
X319841Y54322D01*
X319674Y54408D01*
X319661Y54412D01*
X319649Y54418D01*
X319466Y54467D01*
X319286Y54518D01*
X319273Y54519D01*
X319260Y54522D01*
X318929Y54549D01*
X302200Y54549D01*
X302199Y54550D01*
X302199Y110550D01*
X302200Y110551D01*
X358200Y110551D01*
X358201Y110550D01*
X358201Y54550D01*
X358200Y54549D01*
X341471Y54549D01*
X341457Y54548D01*
X341444Y54549D01*
X341258Y54528D01*
X341070Y54509D01*
X341057Y54505D01*
X341044Y54504D01*
X340865Y54446D01*
X340685Y54391D01*
X340673Y54385D01*
X340661Y54381D01*
X340496Y54289D01*
X340331Y54199D01*
X340321Y54191D01*
X340309Y54184D01*
X340166Y54062D01*
X340022Y53942D01*
X340014Y53931D01*
X340003Y53923D01*
X339887Y53774D01*
X339770Y53628D01*
X339763Y53616D01*
X339755Y53606D01*
X339671Y53437D01*
X339584Y53271D01*
X339580Y53258D01*
X339574Y53246D01*
X339525Y53065D01*
X339473Y52884D01*
X339472Y52870D01*
X339468Y52857D01*
X339455Y52669D01*
X339440Y52482D01*
X339441Y52469D01*
X339440Y52456D01*
X339465Y52268D01*
X339487Y52083D01*
X339491Y52070D01*
X339493Y52057D01*
X339594Y51741D01*
X340483Y49595D01*
X340483Y45505D01*
X338917Y41725D01*
X336025Y38833D01*
X332245Y37267D01*
X328155Y37267D01*
G37*
%LPD*%
%LPC*%
G36*
X48755Y37267D02*
X48755Y37267D01*
X44975Y38833D01*
X42083Y41725D01*
X40517Y45505D01*
X40517Y49595D01*
X41406Y51741D01*
X41410Y51754D01*
X41416Y51765D01*
X41468Y51945D01*
X41522Y52126D01*
X41524Y52139D01*
X41527Y52152D01*
X41543Y52340D01*
X41560Y52527D01*
X41559Y52540D01*
X41560Y52554D01*
X41538Y52740D01*
X41519Y52927D01*
X41515Y52940D01*
X41513Y52953D01*
X41455Y53132D01*
X41399Y53312D01*
X41393Y53323D01*
X41388Y53336D01*
X41296Y53501D01*
X41206Y53665D01*
X41197Y53675D01*
X41191Y53687D01*
X41068Y53829D01*
X40947Y53973D01*
X40936Y53981D01*
X40927Y53992D01*
X40780Y54106D01*
X40632Y54224D01*
X40620Y54230D01*
X40609Y54238D01*
X40441Y54322D01*
X40274Y54408D01*
X40261Y54412D01*
X40249Y54418D01*
X40066Y54467D01*
X39886Y54518D01*
X39873Y54519D01*
X39860Y54522D01*
X39529Y54549D01*
X22800Y54549D01*
X22799Y54550D01*
X22799Y110550D01*
X22800Y110551D01*
X78800Y110551D01*
X78801Y110550D01*
X78801Y54550D01*
X78800Y54549D01*
X62071Y54549D01*
X62057Y54548D01*
X62044Y54549D01*
X61858Y54528D01*
X61670Y54509D01*
X61657Y54505D01*
X61644Y54504D01*
X61465Y54446D01*
X61285Y54391D01*
X61273Y54385D01*
X61261Y54381D01*
X61096Y54289D01*
X60931Y54199D01*
X60921Y54191D01*
X60909Y54184D01*
X60766Y54062D01*
X60622Y53942D01*
X60614Y53931D01*
X60603Y53923D01*
X60487Y53774D01*
X60370Y53628D01*
X60363Y53616D01*
X60355Y53606D01*
X60271Y53437D01*
X60184Y53271D01*
X60180Y53258D01*
X60174Y53246D01*
X60125Y53065D01*
X60073Y52884D01*
X60072Y52870D01*
X60068Y52857D01*
X60055Y52669D01*
X60040Y52482D01*
X60041Y52469D01*
X60040Y52456D01*
X60065Y52268D01*
X60087Y52083D01*
X60091Y52070D01*
X60093Y52057D01*
X60194Y51741D01*
X61083Y49595D01*
X61083Y45505D01*
X59517Y41725D01*
X56625Y38833D01*
X52845Y37267D01*
X48755Y37267D01*
G37*
%LPD*%
%LPC*%
G36*
X48755Y615117D02*
X48755Y615117D01*
X44975Y616683D01*
X42083Y619575D01*
X40517Y623355D01*
X40517Y627445D01*
X41406Y629591D01*
X41410Y629604D01*
X41416Y629615D01*
X41468Y629795D01*
X41522Y629976D01*
X41524Y629989D01*
X41527Y630002D01*
X41543Y630190D01*
X41560Y630377D01*
X41559Y630390D01*
X41560Y630404D01*
X41538Y630590D01*
X41519Y630777D01*
X41515Y630790D01*
X41513Y630803D01*
X41455Y630982D01*
X41399Y631162D01*
X41393Y631173D01*
X41388Y631186D01*
X41296Y631351D01*
X41206Y631515D01*
X41197Y631525D01*
X41191Y631537D01*
X41068Y631679D01*
X40947Y631823D01*
X40936Y631831D01*
X40927Y631842D01*
X40780Y631956D01*
X40632Y632074D01*
X40620Y632080D01*
X40609Y632088D01*
X40441Y632172D01*
X40274Y632258D01*
X40261Y632262D01*
X40249Y632268D01*
X40066Y632317D01*
X39886Y632368D01*
X39873Y632369D01*
X39860Y632372D01*
X39529Y632399D01*
X22800Y632399D01*
X22799Y632400D01*
X22799Y688400D01*
X22800Y688401D01*
X78800Y688401D01*
X78801Y688400D01*
X78801Y632400D01*
X78800Y632399D01*
X62071Y632399D01*
X62057Y632398D01*
X62044Y632399D01*
X61858Y632378D01*
X61670Y632359D01*
X61657Y632355D01*
X61644Y632354D01*
X61465Y632296D01*
X61285Y632241D01*
X61273Y632235D01*
X61261Y632231D01*
X61096Y632139D01*
X60931Y632049D01*
X60921Y632041D01*
X60909Y632034D01*
X60766Y631912D01*
X60622Y631792D01*
X60614Y631781D01*
X60603Y631773D01*
X60487Y631624D01*
X60370Y631478D01*
X60363Y631466D01*
X60355Y631456D01*
X60271Y631287D01*
X60184Y631121D01*
X60180Y631108D01*
X60174Y631096D01*
X60125Y630915D01*
X60073Y630734D01*
X60072Y630720D01*
X60068Y630707D01*
X60055Y630519D01*
X60040Y630332D01*
X60041Y630319D01*
X60040Y630306D01*
X60065Y630118D01*
X60087Y629933D01*
X60091Y629920D01*
X60093Y629907D01*
X60194Y629591D01*
X61083Y627445D01*
X61083Y623355D01*
X59517Y619575D01*
X56625Y616683D01*
X52845Y615117D01*
X48755Y615117D01*
G37*
%LPD*%
%LPC*%
G36*
X48755Y462717D02*
X48755Y462717D01*
X44975Y464283D01*
X42083Y467175D01*
X40517Y470955D01*
X40517Y475045D01*
X41406Y477191D01*
X41410Y477204D01*
X41416Y477215D01*
X41468Y477395D01*
X41522Y477576D01*
X41524Y477589D01*
X41527Y477602D01*
X41543Y477790D01*
X41560Y477977D01*
X41559Y477990D01*
X41560Y478004D01*
X41538Y478190D01*
X41519Y478377D01*
X41515Y478390D01*
X41513Y478403D01*
X41455Y478582D01*
X41399Y478762D01*
X41393Y478773D01*
X41388Y478786D01*
X41296Y478951D01*
X41206Y479115D01*
X41197Y479125D01*
X41191Y479137D01*
X41068Y479279D01*
X40947Y479423D01*
X40936Y479431D01*
X40927Y479442D01*
X40780Y479556D01*
X40632Y479674D01*
X40620Y479680D01*
X40609Y479688D01*
X40441Y479772D01*
X40274Y479858D01*
X40261Y479862D01*
X40249Y479868D01*
X40066Y479917D01*
X39886Y479968D01*
X39873Y479969D01*
X39860Y479972D01*
X39529Y479999D01*
X22800Y479999D01*
X22799Y480000D01*
X22799Y536000D01*
X22800Y536001D01*
X78800Y536001D01*
X78801Y536000D01*
X78801Y480000D01*
X78800Y479999D01*
X62071Y479999D01*
X62057Y479998D01*
X62044Y479999D01*
X61858Y479978D01*
X61670Y479959D01*
X61657Y479955D01*
X61644Y479954D01*
X61465Y479896D01*
X61285Y479841D01*
X61273Y479835D01*
X61261Y479831D01*
X61096Y479739D01*
X60931Y479649D01*
X60921Y479641D01*
X60909Y479634D01*
X60766Y479512D01*
X60622Y479392D01*
X60614Y479381D01*
X60603Y479373D01*
X60487Y479224D01*
X60370Y479078D01*
X60363Y479066D01*
X60355Y479056D01*
X60271Y478887D01*
X60184Y478721D01*
X60180Y478708D01*
X60174Y478696D01*
X60125Y478515D01*
X60073Y478334D01*
X60072Y478320D01*
X60068Y478307D01*
X60055Y478119D01*
X60040Y477932D01*
X60041Y477919D01*
X60040Y477906D01*
X60065Y477718D01*
X60087Y477533D01*
X60091Y477520D01*
X60093Y477507D01*
X60194Y477191D01*
X61083Y475045D01*
X61083Y470955D01*
X59517Y467175D01*
X56625Y464283D01*
X53459Y462971D01*
X52845Y462717D01*
X48755Y462717D01*
G37*
%LPD*%
%LPC*%
G36*
X48755Y767517D02*
X48755Y767517D01*
X44975Y769083D01*
X42083Y771975D01*
X40517Y775755D01*
X40517Y779845D01*
X41406Y781991D01*
X41410Y782004D01*
X41416Y782015D01*
X41468Y782195D01*
X41522Y782376D01*
X41524Y782389D01*
X41527Y782402D01*
X41543Y782590D01*
X41560Y782777D01*
X41559Y782790D01*
X41560Y782804D01*
X41538Y782990D01*
X41519Y783177D01*
X41515Y783190D01*
X41513Y783203D01*
X41455Y783382D01*
X41399Y783562D01*
X41393Y783573D01*
X41388Y783586D01*
X41296Y783751D01*
X41206Y783915D01*
X41197Y783925D01*
X41191Y783937D01*
X41068Y784079D01*
X40947Y784223D01*
X40936Y784231D01*
X40927Y784242D01*
X40780Y784356D01*
X40632Y784474D01*
X40620Y784480D01*
X40609Y784488D01*
X40441Y784572D01*
X40274Y784658D01*
X40261Y784662D01*
X40249Y784668D01*
X40066Y784717D01*
X39886Y784768D01*
X39873Y784769D01*
X39860Y784772D01*
X39529Y784799D01*
X22800Y784799D01*
X22799Y784800D01*
X22799Y840800D01*
X22800Y840801D01*
X78800Y840801D01*
X78801Y840800D01*
X78801Y784800D01*
X78800Y784799D01*
X62071Y784799D01*
X62057Y784798D01*
X62044Y784799D01*
X61858Y784778D01*
X61670Y784759D01*
X61657Y784755D01*
X61644Y784754D01*
X61465Y784696D01*
X61285Y784641D01*
X61273Y784635D01*
X61261Y784631D01*
X61096Y784539D01*
X60931Y784449D01*
X60921Y784441D01*
X60909Y784434D01*
X60766Y784312D01*
X60622Y784192D01*
X60614Y784181D01*
X60603Y784173D01*
X60487Y784024D01*
X60370Y783878D01*
X60363Y783866D01*
X60355Y783856D01*
X60271Y783687D01*
X60184Y783521D01*
X60180Y783508D01*
X60174Y783496D01*
X60125Y783314D01*
X60073Y783134D01*
X60072Y783120D01*
X60068Y783107D01*
X60055Y782919D01*
X60040Y782732D01*
X60041Y782719D01*
X60040Y782706D01*
X60065Y782518D01*
X60087Y782333D01*
X60091Y782320D01*
X60093Y782307D01*
X60194Y781991D01*
X61083Y779845D01*
X61083Y775755D01*
X59517Y771975D01*
X56625Y769083D01*
X53188Y767659D01*
X53187Y767659D01*
X52845Y767517D01*
X48755Y767517D01*
G37*
%LPD*%
%LPC*%
G36*
X286787Y590422D02*
X286787Y590422D01*
X279272Y597937D01*
X279272Y608563D01*
X287128Y616419D01*
X287144Y616428D01*
X287157Y616439D01*
X287173Y616448D01*
X287312Y616568D01*
X287453Y616685D01*
X287464Y616699D01*
X287478Y616711D01*
X287590Y616856D01*
X287705Y616999D01*
X287713Y617015D01*
X287724Y617029D01*
X287806Y617194D01*
X287891Y617356D01*
X287896Y617373D01*
X287904Y617389D01*
X287951Y617568D01*
X288002Y617743D01*
X288004Y617761D01*
X288008Y617778D01*
X288035Y618109D01*
X288035Y654304D01*
X288033Y654322D01*
X288035Y654340D01*
X288014Y654522D01*
X287995Y654705D01*
X287990Y654722D01*
X287988Y654739D01*
X287931Y654914D01*
X287877Y655090D01*
X287869Y655105D01*
X287863Y655122D01*
X287773Y655282D01*
X287685Y655444D01*
X287674Y655457D01*
X287665Y655473D01*
X287545Y655612D01*
X287428Y655753D01*
X287414Y655764D01*
X287402Y655778D01*
X287257Y655890D01*
X287114Y656005D01*
X287098Y656013D01*
X287084Y656024D01*
X286919Y656106D01*
X286757Y656191D01*
X286740Y656196D01*
X286724Y656204D01*
X286545Y656251D01*
X286370Y656302D01*
X286352Y656304D01*
X286335Y656308D01*
X286004Y656335D01*
X262875Y656335D01*
X262848Y656333D01*
X262822Y656335D01*
X262648Y656313D01*
X262474Y656295D01*
X262449Y656288D01*
X262422Y656284D01*
X262257Y656229D01*
X262090Y656177D01*
X262066Y656164D01*
X262041Y656156D01*
X261889Y656069D01*
X261735Y655985D01*
X261715Y655968D01*
X261692Y655955D01*
X261439Y655740D01*
X211852Y606154D01*
X210359Y605535D01*
X133836Y605535D01*
X133809Y605533D01*
X133782Y605535D01*
X133609Y605513D01*
X133435Y605495D01*
X133409Y605488D01*
X133383Y605484D01*
X133217Y605429D01*
X133050Y605377D01*
X133027Y605365D01*
X133001Y605356D01*
X132850Y605269D01*
X132696Y605185D01*
X132676Y605168D01*
X132652Y605155D01*
X132399Y604940D01*
X132249Y604790D01*
X132244Y604783D01*
X132237Y604778D01*
X132117Y604628D01*
X131994Y604479D01*
X131990Y604471D01*
X131984Y604464D01*
X131897Y604295D01*
X131806Y604123D01*
X131803Y604115D01*
X131799Y604107D01*
X131746Y603923D01*
X131691Y603737D01*
X131690Y603728D01*
X131687Y603720D01*
X131672Y603527D01*
X131654Y603336D01*
X131655Y603327D01*
X131655Y603318D01*
X131677Y603128D01*
X131698Y602936D01*
X131700Y602927D01*
X131701Y602919D01*
X131761Y602735D01*
X131819Y602552D01*
X131824Y602544D01*
X131826Y602536D01*
X131921Y602367D01*
X132014Y602200D01*
X132020Y602193D01*
X132024Y602185D01*
X132150Y602040D01*
X132274Y601893D01*
X132282Y601887D01*
X132287Y601880D01*
X132439Y601763D01*
X132590Y601643D01*
X132598Y601639D01*
X132605Y601634D01*
X132779Y601547D01*
X132949Y601461D01*
X132958Y601459D01*
X132966Y601454D01*
X133153Y601404D01*
X133337Y601353D01*
X133346Y601352D01*
X133355Y601350D01*
X133686Y601323D01*
X137351Y601323D01*
X137351Y593149D01*
X129177Y593149D01*
X129177Y599116D01*
X129395Y599930D01*
X129409Y600011D01*
X129431Y600090D01*
X129441Y600210D01*
X129460Y600328D01*
X129458Y600410D01*
X129464Y600492D01*
X129450Y600610D01*
X129446Y600730D01*
X129427Y600810D01*
X129417Y600891D01*
X129380Y601005D01*
X129352Y601122D01*
X129318Y601196D01*
X129292Y601274D01*
X129234Y601378D01*
X129183Y601487D01*
X129135Y601553D01*
X129095Y601625D01*
X129016Y601715D01*
X128946Y601812D01*
X128885Y601867D01*
X128831Y601930D01*
X128737Y602003D01*
X128649Y602084D01*
X128578Y602126D01*
X128513Y602176D01*
X128406Y602230D01*
X128304Y602291D01*
X128226Y602319D01*
X128153Y602356D01*
X128037Y602387D01*
X127925Y602427D01*
X127843Y602439D01*
X127764Y602460D01*
X127612Y602473D01*
X127526Y602485D01*
X127486Y602483D01*
X127433Y602487D01*
X125585Y602487D01*
X122971Y603570D01*
X120970Y605571D01*
X119887Y608185D01*
X119887Y611015D01*
X120970Y613629D01*
X122971Y615630D01*
X125585Y616713D01*
X128415Y616713D01*
X131029Y615630D01*
X132399Y614260D01*
X132420Y614243D01*
X132437Y614222D01*
X132575Y614115D01*
X132711Y614005D01*
X132734Y613992D01*
X132756Y613976D01*
X132912Y613898D01*
X133066Y613816D01*
X133092Y613808D01*
X133116Y613796D01*
X133285Y613751D01*
X133452Y613701D01*
X133479Y613699D01*
X133505Y613692D01*
X133836Y613665D01*
X207025Y613665D01*
X207052Y613667D01*
X207078Y613665D01*
X207252Y613687D01*
X207426Y613705D01*
X207451Y613712D01*
X207478Y613716D01*
X207643Y613771D01*
X207810Y613823D01*
X207834Y613836D01*
X207859Y613844D01*
X208011Y613931D01*
X208165Y614015D01*
X208185Y614032D01*
X208208Y614045D01*
X208461Y614260D01*
X258048Y663846D01*
X259541Y664465D01*
X286004Y664465D01*
X286022Y664467D01*
X286040Y664465D01*
X286222Y664486D01*
X286405Y664505D01*
X286422Y664510D01*
X286439Y664512D01*
X286614Y664569D01*
X286790Y664623D01*
X286805Y664631D01*
X286822Y664637D01*
X286982Y664727D01*
X287144Y664815D01*
X287157Y664826D01*
X287173Y664835D01*
X287312Y664955D01*
X287453Y665072D01*
X287464Y665086D01*
X287478Y665098D01*
X287590Y665243D01*
X287705Y665386D01*
X287713Y665402D01*
X287724Y665416D01*
X287806Y665581D01*
X287891Y665743D01*
X287896Y665760D01*
X287904Y665776D01*
X287951Y665955D01*
X288002Y666130D01*
X288004Y666148D01*
X288008Y666165D01*
X288035Y666496D01*
X288035Y680495D01*
X288034Y680503D01*
X288035Y680509D01*
X288033Y680526D01*
X288035Y680548D01*
X288013Y680722D01*
X287995Y680895D01*
X287988Y680921D01*
X287984Y680947D01*
X287929Y681113D01*
X287877Y681280D01*
X287864Y681304D01*
X287856Y681329D01*
X287769Y681480D01*
X287685Y681634D01*
X287668Y681655D01*
X287655Y681678D01*
X287440Y681931D01*
X281685Y687686D01*
X281685Y696314D01*
X287786Y702415D01*
X296414Y702415D01*
X302804Y696024D01*
X302818Y696013D01*
X302830Y695999D01*
X302974Y695886D01*
X303116Y695769D01*
X303132Y695761D01*
X303146Y695750D01*
X303310Y695666D01*
X303472Y695580D01*
X303489Y695575D01*
X303505Y695567D01*
X303682Y695518D01*
X303858Y695466D01*
X303875Y695464D01*
X303893Y695459D01*
X304076Y695446D01*
X304259Y695429D01*
X304276Y695431D01*
X304294Y695430D01*
X304476Y695453D01*
X304659Y695473D01*
X304676Y695478D01*
X304694Y695480D01*
X304867Y695539D01*
X305043Y695594D01*
X305058Y695603D01*
X305075Y695609D01*
X305235Y695700D01*
X305395Y695789D01*
X305409Y695800D01*
X305424Y695809D01*
X305677Y696024D01*
X312576Y702923D01*
X314351Y702923D01*
X314351Y692718D01*
X314352Y692700D01*
X314351Y692683D01*
X314372Y692500D01*
X314391Y692318D01*
X314396Y692301D01*
X314398Y692283D01*
X314455Y692108D01*
X314486Y692008D01*
X314482Y692001D01*
X314434Y691823D01*
X314384Y691648D01*
X314382Y691630D01*
X314378Y691613D01*
X314351Y691282D01*
X314351Y681077D01*
X312576Y681077D01*
X305677Y687976D01*
X305663Y687987D01*
X305652Y688001D01*
X305508Y688114D01*
X305366Y688231D01*
X305350Y688239D01*
X305336Y688250D01*
X305172Y688334D01*
X305010Y688420D01*
X304993Y688425D01*
X304977Y688433D01*
X304800Y688482D01*
X304624Y688534D01*
X304606Y688536D01*
X304589Y688541D01*
X304406Y688554D01*
X304223Y688571D01*
X304205Y688569D01*
X304187Y688570D01*
X304005Y688547D01*
X303823Y688527D01*
X303806Y688522D01*
X303788Y688520D01*
X303614Y688461D01*
X303439Y688406D01*
X303423Y688397D01*
X303406Y688391D01*
X303247Y688300D01*
X303087Y688211D01*
X303073Y688200D01*
X303057Y688191D01*
X302804Y687976D01*
X296760Y681931D01*
X296743Y681910D01*
X296722Y681893D01*
X296615Y681755D01*
X296505Y681620D01*
X296492Y681596D01*
X296476Y681575D01*
X296398Y681418D01*
X296316Y681264D01*
X296308Y681238D01*
X296296Y681214D01*
X296251Y681045D01*
X296201Y680878D01*
X296199Y680851D01*
X296192Y680825D01*
X296165Y680495D01*
X296165Y618109D01*
X296167Y618091D01*
X296165Y618073D01*
X296186Y617891D01*
X296205Y617708D01*
X296210Y617691D01*
X296212Y617674D01*
X296269Y617499D01*
X296323Y617323D01*
X296331Y617308D01*
X296337Y617291D01*
X296427Y617131D01*
X296515Y616969D01*
X296526Y616956D01*
X296535Y616940D01*
X296655Y616801D01*
X296772Y616660D01*
X296786Y616649D01*
X296798Y616635D01*
X296943Y616523D01*
X297072Y616419D01*
X304928Y608563D01*
X304928Y597937D01*
X297413Y590422D01*
X286787Y590422D01*
G37*
%LPD*%
G36*
X61002Y232667D02*
X61002Y232667D01*
X61028Y232665D01*
X61202Y232687D01*
X61376Y232705D01*
X61401Y232712D01*
X61428Y232716D01*
X61593Y232771D01*
X61760Y232823D01*
X61784Y232836D01*
X61809Y232844D01*
X61961Y232931D01*
X62115Y233015D01*
X62135Y233032D01*
X62158Y233045D01*
X62411Y233260D01*
X71540Y242389D01*
X71557Y242409D01*
X71578Y242427D01*
X71685Y242565D01*
X71795Y242700D01*
X71808Y242724D01*
X71824Y242745D01*
X71902Y242902D01*
X71984Y243056D01*
X71992Y243081D01*
X72004Y243106D01*
X72049Y243275D01*
X72099Y243442D01*
X72101Y243468D01*
X72108Y243494D01*
X72135Y243825D01*
X72135Y280209D01*
X72754Y281702D01*
X96940Y305889D01*
X96957Y305909D01*
X96978Y305927D01*
X97085Y306065D01*
X97195Y306200D01*
X97208Y306224D01*
X97224Y306245D01*
X97302Y306401D01*
X97384Y306556D01*
X97392Y306581D01*
X97404Y306606D01*
X97449Y306775D01*
X97499Y306942D01*
X97501Y306968D01*
X97508Y306994D01*
X97535Y307325D01*
X97535Y413559D01*
X98154Y415052D01*
X115990Y432889D01*
X116007Y432909D01*
X116028Y432927D01*
X116135Y433065D01*
X116245Y433200D01*
X116258Y433224D01*
X116274Y433245D01*
X116352Y433401D01*
X116434Y433556D01*
X116442Y433581D01*
X116454Y433606D01*
X116499Y433775D01*
X116549Y433942D01*
X116551Y433968D01*
X116558Y433994D01*
X116585Y434325D01*
X116585Y456714D01*
X116583Y456741D01*
X116585Y456768D01*
X116563Y456941D01*
X116545Y457115D01*
X116538Y457141D01*
X116534Y457167D01*
X116479Y457332D01*
X116427Y457500D01*
X116414Y457524D01*
X116406Y457549D01*
X116319Y457700D01*
X116235Y457854D01*
X116218Y457874D01*
X116205Y457898D01*
X115990Y458151D01*
X115482Y458659D01*
X115475Y458664D01*
X115470Y458671D01*
X115320Y458792D01*
X115171Y458914D01*
X115163Y458918D01*
X115156Y458924D01*
X114986Y459012D01*
X114815Y459102D01*
X114806Y459105D01*
X114799Y459109D01*
X114615Y459162D01*
X114429Y459217D01*
X114420Y459218D01*
X114412Y459221D01*
X114221Y459236D01*
X114028Y459254D01*
X114019Y459253D01*
X114010Y459253D01*
X113821Y459231D01*
X113628Y459210D01*
X113619Y459208D01*
X113611Y459207D01*
X113427Y459147D01*
X113244Y459089D01*
X113236Y459084D01*
X113228Y459082D01*
X113059Y458987D01*
X112892Y458894D01*
X112885Y458888D01*
X112877Y458884D01*
X112732Y458758D01*
X112585Y458633D01*
X112579Y458626D01*
X112572Y458621D01*
X112455Y458470D01*
X112335Y458318D01*
X112331Y458310D01*
X112326Y458303D01*
X112240Y458130D01*
X112153Y457959D01*
X112150Y457950D01*
X112146Y457942D01*
X112096Y457754D01*
X112045Y457571D01*
X112044Y457562D01*
X112042Y457553D01*
X112015Y457222D01*
X112015Y437341D01*
X111396Y435848D01*
X93560Y418011D01*
X93543Y417991D01*
X93522Y417973D01*
X93415Y417835D01*
X93305Y417700D01*
X93292Y417676D01*
X93276Y417655D01*
X93198Y417498D01*
X93116Y417344D01*
X93108Y417319D01*
X93096Y417294D01*
X93051Y417125D01*
X93001Y416958D01*
X92999Y416932D01*
X92992Y416906D01*
X92965Y416575D01*
X92965Y316691D01*
X92346Y315198D01*
X68160Y291011D01*
X68143Y290991D01*
X68122Y290973D01*
X68015Y290835D01*
X67905Y290700D01*
X67892Y290676D01*
X67876Y290655D01*
X67798Y290498D01*
X67716Y290344D01*
X67708Y290319D01*
X67696Y290294D01*
X67651Y290125D01*
X67601Y289958D01*
X67599Y289932D01*
X67592Y289906D01*
X67565Y289575D01*
X67565Y272241D01*
X66946Y270748D01*
X46752Y250554D01*
X45259Y249935D01*
X43142Y249935D01*
X43119Y249933D01*
X43097Y249935D01*
X42920Y249913D01*
X42741Y249895D01*
X42720Y249889D01*
X42697Y249886D01*
X42528Y249830D01*
X42356Y249777D01*
X42336Y249767D01*
X42315Y249760D01*
X42160Y249671D01*
X42002Y249585D01*
X41985Y249571D01*
X41966Y249560D01*
X41831Y249443D01*
X41693Y249328D01*
X41679Y249310D01*
X41662Y249296D01*
X41553Y249154D01*
X41440Y249014D01*
X41430Y248994D01*
X41417Y248976D01*
X41265Y248681D01*
X41203Y248532D01*
X38488Y245817D01*
X34940Y244347D01*
X15860Y244347D01*
X12969Y245545D01*
X12956Y245549D01*
X12945Y245555D01*
X12765Y245606D01*
X12584Y245661D01*
X12571Y245662D01*
X12558Y245666D01*
X12370Y245681D01*
X12183Y245699D01*
X12170Y245698D01*
X12156Y245699D01*
X11970Y245677D01*
X11783Y245658D01*
X11770Y245654D01*
X11757Y245652D01*
X11578Y245594D01*
X11398Y245538D01*
X11387Y245531D01*
X11374Y245527D01*
X11209Y245434D01*
X11045Y245344D01*
X11035Y245336D01*
X11023Y245329D01*
X10881Y245206D01*
X10737Y245085D01*
X10729Y245075D01*
X10718Y245066D01*
X10603Y244918D01*
X10486Y244770D01*
X10480Y244759D01*
X10472Y244748D01*
X10388Y244579D01*
X10302Y244412D01*
X10298Y244400D01*
X10292Y244387D01*
X10243Y244205D01*
X10192Y244025D01*
X10191Y244012D01*
X10188Y243999D01*
X10161Y243668D01*
X10161Y238932D01*
X10162Y238919D01*
X10161Y238905D01*
X10182Y238719D01*
X10201Y238531D01*
X10205Y238519D01*
X10206Y238505D01*
X10263Y238327D01*
X10319Y238146D01*
X10325Y238135D01*
X10329Y238122D01*
X10421Y237958D01*
X10511Y237792D01*
X10519Y237782D01*
X10526Y237770D01*
X10649Y237627D01*
X10768Y237483D01*
X10779Y237475D01*
X10787Y237465D01*
X10936Y237348D01*
X11082Y237231D01*
X11094Y237225D01*
X11104Y237216D01*
X11274Y237131D01*
X11439Y237045D01*
X11452Y237042D01*
X11464Y237036D01*
X11646Y236986D01*
X11826Y236934D01*
X11840Y236933D01*
X11853Y236929D01*
X12039Y236916D01*
X12228Y236901D01*
X12241Y236903D01*
X12254Y236902D01*
X12441Y236926D01*
X12627Y236948D01*
X12640Y236952D01*
X12653Y236954D01*
X12969Y237055D01*
X15860Y238253D01*
X34940Y238253D01*
X38488Y236783D01*
X41203Y234068D01*
X41265Y233919D01*
X41275Y233899D01*
X41282Y233878D01*
X41371Y233722D01*
X41455Y233564D01*
X41469Y233547D01*
X41480Y233527D01*
X41597Y233392D01*
X41712Y233253D01*
X41729Y233239D01*
X41743Y233222D01*
X41885Y233113D01*
X42024Y233000D01*
X42044Y232989D01*
X42062Y232976D01*
X42222Y232896D01*
X42381Y232813D01*
X42402Y232806D01*
X42422Y232796D01*
X42595Y232750D01*
X42767Y232700D01*
X42789Y232698D01*
X42811Y232692D01*
X43142Y232665D01*
X60975Y232665D01*
X61002Y232667D01*
G37*
%LPC*%
G36*
X125585Y621537D02*
X125585Y621537D01*
X122971Y622620D01*
X120970Y624621D01*
X119887Y627235D01*
X119887Y630065D01*
X120970Y632679D01*
X122971Y634680D01*
X125585Y635763D01*
X128415Y635763D01*
X131029Y634680D01*
X132399Y633310D01*
X132420Y633293D01*
X132437Y633272D01*
X132575Y633165D01*
X132711Y633055D01*
X132734Y633042D01*
X132756Y633026D01*
X132912Y632948D01*
X133066Y632866D01*
X133092Y632858D01*
X133116Y632846D01*
X133285Y632801D01*
X133452Y632751D01*
X133479Y632749D01*
X133505Y632742D01*
X133836Y632715D01*
X137175Y632715D01*
X137202Y632717D01*
X137228Y632715D01*
X137402Y632737D01*
X137576Y632755D01*
X137601Y632762D01*
X137628Y632766D01*
X137793Y632821D01*
X137960Y632873D01*
X137984Y632886D01*
X138009Y632894D01*
X138161Y632981D01*
X138315Y633065D01*
X138335Y633082D01*
X138358Y633095D01*
X138611Y633310D01*
X147740Y642439D01*
X147757Y642459D01*
X147778Y642477D01*
X147885Y642615D01*
X147995Y642750D01*
X148008Y642774D01*
X148024Y642795D01*
X148102Y642952D01*
X148184Y643106D01*
X148192Y643131D01*
X148204Y643156D01*
X148249Y643325D01*
X148299Y643492D01*
X148301Y643518D01*
X148308Y643544D01*
X148335Y643875D01*
X148335Y680259D01*
X148954Y681752D01*
X169148Y701946D01*
X170641Y702565D01*
X234464Y702565D01*
X234491Y702567D01*
X234518Y702565D01*
X234692Y702587D01*
X234865Y702605D01*
X234891Y702612D01*
X234917Y702616D01*
X235083Y702671D01*
X235250Y702723D01*
X235274Y702736D01*
X235299Y702744D01*
X235451Y702831D01*
X235604Y702915D01*
X235624Y702932D01*
X235648Y702945D01*
X235901Y703160D01*
X237271Y704530D01*
X239885Y705613D01*
X242715Y705613D01*
X245329Y704530D01*
X246699Y703160D01*
X246720Y703143D01*
X246737Y703122D01*
X246876Y703015D01*
X247011Y702905D01*
X247034Y702892D01*
X247056Y702876D01*
X247212Y702798D01*
X247366Y702716D01*
X247392Y702708D01*
X247416Y702696D01*
X247585Y702651D01*
X247752Y702601D01*
X247779Y702599D01*
X247805Y702592D01*
X248136Y702565D01*
X260293Y702565D01*
X260310Y702566D01*
X260331Y702565D01*
X261122Y702580D01*
X261147Y702569D01*
X261177Y702560D01*
X261205Y702546D01*
X261370Y702502D01*
X261533Y702453D01*
X261564Y702450D01*
X261594Y702442D01*
X261925Y702415D01*
X276324Y702415D01*
X277515Y701224D01*
X277515Y682776D01*
X276324Y681585D01*
X257876Y681585D01*
X256685Y682776D01*
X256685Y692404D01*
X256683Y692422D01*
X256685Y692440D01*
X256664Y692622D01*
X256645Y692805D01*
X256640Y692822D01*
X256638Y692839D01*
X256581Y693014D01*
X256527Y693190D01*
X256519Y693205D01*
X256513Y693222D01*
X256423Y693382D01*
X256335Y693544D01*
X256324Y693557D01*
X256315Y693573D01*
X256195Y693712D01*
X256078Y693853D01*
X256064Y693864D01*
X256052Y693878D01*
X255907Y693990D01*
X255764Y694105D01*
X255748Y694113D01*
X255734Y694124D01*
X255569Y694206D01*
X255407Y694291D01*
X255390Y694296D01*
X255374Y694304D01*
X255195Y694351D01*
X255020Y694402D01*
X255002Y694404D01*
X254985Y694408D01*
X254654Y694435D01*
X248136Y694435D01*
X248109Y694433D01*
X248082Y694435D01*
X247908Y694413D01*
X247735Y694395D01*
X247709Y694388D01*
X247683Y694384D01*
X247517Y694329D01*
X247350Y694277D01*
X247326Y694264D01*
X247301Y694256D01*
X247149Y694169D01*
X246996Y694085D01*
X246976Y694068D01*
X246952Y694055D01*
X246699Y693840D01*
X245329Y692470D01*
X242715Y691387D01*
X239885Y691387D01*
X237271Y692470D01*
X235901Y693840D01*
X235880Y693857D01*
X235863Y693878D01*
X235725Y693985D01*
X235589Y694095D01*
X235566Y694108D01*
X235544Y694124D01*
X235388Y694202D01*
X235234Y694284D01*
X235208Y694292D01*
X235184Y694304D01*
X235015Y694349D01*
X234848Y694399D01*
X234821Y694401D01*
X234795Y694408D01*
X234464Y694435D01*
X173975Y694435D01*
X173948Y694433D01*
X173922Y694435D01*
X173748Y694413D01*
X173574Y694395D01*
X173549Y694388D01*
X173522Y694384D01*
X173357Y694329D01*
X173190Y694277D01*
X173166Y694264D01*
X173141Y694256D01*
X172989Y694169D01*
X172835Y694085D01*
X172815Y694068D01*
X172792Y694055D01*
X172539Y693840D01*
X157060Y678361D01*
X157043Y678341D01*
X157022Y678323D01*
X156915Y678185D01*
X156805Y678050D01*
X156792Y678026D01*
X156776Y678005D01*
X156698Y677848D01*
X156616Y677694D01*
X156608Y677669D01*
X156596Y677644D01*
X156551Y677475D01*
X156501Y677308D01*
X156499Y677282D01*
X156492Y677256D01*
X156465Y676925D01*
X156465Y640541D01*
X155846Y639048D01*
X142002Y625204D01*
X140509Y624585D01*
X133836Y624585D01*
X133809Y624583D01*
X133782Y624585D01*
X133608Y624563D01*
X133435Y624545D01*
X133409Y624538D01*
X133383Y624534D01*
X133217Y624478D01*
X133050Y624427D01*
X133026Y624414D01*
X133001Y624406D01*
X132850Y624319D01*
X132696Y624235D01*
X132675Y624218D01*
X132652Y624205D01*
X132399Y623990D01*
X131029Y622620D01*
X128415Y621537D01*
X125585Y621537D01*
G37*
%LPD*%
%LPC*%
G36*
X320678Y744387D02*
X320678Y744387D01*
X319487Y745578D01*
X319487Y778422D01*
X320678Y779613D01*
X353522Y779613D01*
X354713Y778422D01*
X354713Y745578D01*
X353522Y744387D01*
X320678Y744387D01*
G37*
%LPD*%
%LPC*%
G36*
X103678Y64937D02*
X103678Y64937D01*
X102487Y66128D01*
X102487Y98972D01*
X103678Y100163D01*
X136522Y100163D01*
X137713Y98972D01*
X137713Y66128D01*
X136522Y64937D01*
X103678Y64937D01*
G37*
%LPD*%
%LPC*%
G36*
X193678Y642787D02*
X193678Y642787D01*
X192487Y643978D01*
X192487Y676822D01*
X193678Y678013D01*
X226522Y678013D01*
X227713Y676822D01*
X227713Y643978D01*
X226522Y642787D01*
X193678Y642787D01*
G37*
%LPD*%
%LPC*%
G36*
X230678Y744387D02*
X230678Y744387D01*
X229487Y745578D01*
X229487Y778422D01*
X230678Y779613D01*
X263522Y779613D01*
X264713Y778422D01*
X264713Y745578D01*
X263522Y744387D01*
X230678Y744387D01*
G37*
%LPD*%
%LPC*%
G36*
X193678Y64937D02*
X193678Y64937D01*
X192487Y66128D01*
X192487Y98972D01*
X193678Y100163D01*
X226522Y100163D01*
X227713Y98972D01*
X227713Y66128D01*
X226522Y64937D01*
X193678Y64937D01*
G37*
%LPD*%
%LPC*%
G36*
X129773Y823213D02*
X129773Y823213D01*
X124713Y828273D01*
X124713Y835427D01*
X129773Y840487D01*
X136927Y840487D01*
X140905Y836510D01*
X140925Y836493D01*
X140943Y836472D01*
X141081Y836365D01*
X141216Y836255D01*
X141240Y836242D01*
X141261Y836226D01*
X141418Y836148D01*
X141572Y836066D01*
X141597Y836058D01*
X141621Y836046D01*
X141791Y836001D01*
X141958Y835951D01*
X141984Y835949D01*
X142010Y835942D01*
X142341Y835915D01*
X149759Y835915D01*
X149786Y835917D01*
X149812Y835915D01*
X149986Y835937D01*
X150160Y835955D01*
X150185Y835962D01*
X150212Y835966D01*
X150378Y836021D01*
X150545Y836073D01*
X150568Y836086D01*
X150594Y836094D01*
X150745Y836181D01*
X150899Y836265D01*
X150919Y836282D01*
X150942Y836295D01*
X151195Y836510D01*
X155173Y840487D01*
X162327Y840487D01*
X166305Y836510D01*
X166325Y836493D01*
X166343Y836472D01*
X166481Y836365D01*
X166616Y836255D01*
X166640Y836242D01*
X166661Y836226D01*
X166818Y836148D01*
X166972Y836066D01*
X166997Y836058D01*
X167021Y836046D01*
X167191Y836001D01*
X167358Y835951D01*
X167384Y835949D01*
X167410Y835942D01*
X167741Y835915D01*
X175159Y835915D01*
X175186Y835917D01*
X175212Y835915D01*
X175386Y835937D01*
X175560Y835955D01*
X175585Y835962D01*
X175612Y835966D01*
X175778Y836021D01*
X175945Y836073D01*
X175968Y836086D01*
X175994Y836094D01*
X176145Y836181D01*
X176299Y836265D01*
X176319Y836282D01*
X176342Y836295D01*
X176595Y836510D01*
X180573Y840487D01*
X187727Y840487D01*
X191705Y836510D01*
X191725Y836493D01*
X191743Y836472D01*
X191881Y836365D01*
X192016Y836255D01*
X192040Y836242D01*
X192061Y836226D01*
X192218Y836148D01*
X192372Y836066D01*
X192397Y836058D01*
X192421Y836046D01*
X192591Y836001D01*
X192758Y835951D01*
X192784Y835949D01*
X192810Y835942D01*
X193141Y835915D01*
X200559Y835915D01*
X200586Y835917D01*
X200612Y835915D01*
X200786Y835937D01*
X200960Y835955D01*
X200985Y835962D01*
X201012Y835966D01*
X201178Y836021D01*
X201345Y836073D01*
X201368Y836086D01*
X201394Y836094D01*
X201545Y836181D01*
X201699Y836265D01*
X201719Y836282D01*
X201742Y836295D01*
X201995Y836510D01*
X205973Y840487D01*
X213127Y840487D01*
X218187Y835427D01*
X218187Y828273D01*
X213127Y823213D01*
X205973Y823213D01*
X201995Y827190D01*
X201975Y827207D01*
X201957Y827228D01*
X201819Y827335D01*
X201684Y827445D01*
X201660Y827458D01*
X201639Y827474D01*
X201482Y827552D01*
X201328Y827634D01*
X201303Y827642D01*
X201279Y827654D01*
X201109Y827699D01*
X200942Y827749D01*
X200916Y827751D01*
X200890Y827758D01*
X200559Y827785D01*
X193141Y827785D01*
X193114Y827783D01*
X193088Y827785D01*
X192914Y827763D01*
X192740Y827745D01*
X192715Y827738D01*
X192688Y827734D01*
X192522Y827679D01*
X192355Y827627D01*
X192332Y827614D01*
X192306Y827606D01*
X192155Y827519D01*
X192001Y827435D01*
X191981Y827418D01*
X191958Y827405D01*
X191705Y827190D01*
X187727Y823213D01*
X180573Y823213D01*
X176595Y827190D01*
X176575Y827207D01*
X176557Y827228D01*
X176419Y827335D01*
X176284Y827445D01*
X176260Y827458D01*
X176239Y827474D01*
X176082Y827552D01*
X175928Y827634D01*
X175903Y827642D01*
X175879Y827654D01*
X175709Y827699D01*
X175542Y827749D01*
X175516Y827751D01*
X175490Y827758D01*
X175159Y827785D01*
X167741Y827785D01*
X167714Y827783D01*
X167688Y827785D01*
X167514Y827763D01*
X167340Y827745D01*
X167315Y827738D01*
X167288Y827734D01*
X167122Y827679D01*
X166955Y827627D01*
X166932Y827614D01*
X166906Y827606D01*
X166755Y827519D01*
X166601Y827435D01*
X166581Y827418D01*
X166558Y827405D01*
X166305Y827190D01*
X162327Y823213D01*
X155173Y823213D01*
X151195Y827190D01*
X151175Y827207D01*
X151157Y827228D01*
X151019Y827335D01*
X150884Y827445D01*
X150860Y827458D01*
X150839Y827474D01*
X150682Y827552D01*
X150528Y827634D01*
X150503Y827642D01*
X150479Y827654D01*
X150309Y827699D01*
X150142Y827749D01*
X150116Y827751D01*
X150090Y827758D01*
X149759Y827785D01*
X142341Y827785D01*
X142314Y827783D01*
X142288Y827785D01*
X142114Y827763D01*
X141940Y827745D01*
X141915Y827738D01*
X141888Y827734D01*
X141722Y827679D01*
X141555Y827627D01*
X141532Y827614D01*
X141506Y827606D01*
X141355Y827519D01*
X141201Y827435D01*
X141181Y827418D01*
X141158Y827405D01*
X140905Y827190D01*
X136927Y823213D01*
X129773Y823213D01*
G37*
%LPD*%
%LPC*%
G36*
X142849Y579477D02*
X142849Y579477D01*
X142849Y589682D01*
X142847Y589700D01*
X142849Y589717D01*
X142828Y589900D01*
X142809Y590082D01*
X142804Y590099D01*
X142802Y590117D01*
X142745Y590292D01*
X142714Y590392D01*
X142718Y590399D01*
X142765Y590577D01*
X142816Y590752D01*
X142818Y590770D01*
X142822Y590787D01*
X142849Y591118D01*
X142849Y601323D01*
X148817Y601323D01*
X149463Y601150D01*
X150042Y600815D01*
X150515Y600342D01*
X150850Y599763D01*
X151023Y599117D01*
X151023Y595955D01*
X151024Y595946D01*
X151023Y595937D01*
X151044Y595744D01*
X151063Y595555D01*
X151065Y595546D01*
X151066Y595537D01*
X151124Y595353D01*
X151181Y595170D01*
X151185Y595162D01*
X151188Y595153D01*
X151281Y594985D01*
X151373Y594816D01*
X151378Y594809D01*
X151383Y594801D01*
X151507Y594654D01*
X151630Y594506D01*
X151637Y594501D01*
X151643Y594494D01*
X151794Y594375D01*
X151944Y594254D01*
X151952Y594250D01*
X151959Y594244D01*
X152132Y594157D01*
X152301Y594069D01*
X152310Y594066D01*
X152318Y594062D01*
X152504Y594010D01*
X152688Y593957D01*
X152697Y593956D01*
X152706Y593954D01*
X152899Y593940D01*
X153090Y593924D01*
X153098Y593925D01*
X153107Y593925D01*
X153300Y593949D01*
X153489Y593971D01*
X153498Y593974D01*
X153507Y593975D01*
X153690Y594036D01*
X153872Y594096D01*
X153880Y594100D01*
X153888Y594103D01*
X154055Y594199D01*
X154223Y594294D01*
X154230Y594300D01*
X154237Y594304D01*
X154490Y594519D01*
X160786Y600815D01*
X169414Y600815D01*
X175515Y594714D01*
X175515Y586086D01*
X169414Y579985D01*
X160786Y579985D01*
X154490Y586281D01*
X154483Y586287D01*
X154478Y586294D01*
X154328Y586414D01*
X154179Y586536D01*
X154171Y586540D01*
X154164Y586546D01*
X153994Y586634D01*
X153823Y586725D01*
X153814Y586727D01*
X153807Y586731D01*
X153622Y586785D01*
X153437Y586840D01*
X153428Y586840D01*
X153420Y586843D01*
X153228Y586858D01*
X153036Y586876D01*
X153027Y586875D01*
X153018Y586876D01*
X152829Y586854D01*
X152636Y586833D01*
X152627Y586830D01*
X152619Y586829D01*
X152437Y586769D01*
X152252Y586711D01*
X152244Y586707D01*
X152236Y586704D01*
X152067Y586609D01*
X151900Y586516D01*
X151893Y586510D01*
X151885Y586506D01*
X151739Y586380D01*
X151593Y586256D01*
X151587Y586249D01*
X151580Y586243D01*
X151463Y586091D01*
X151343Y585940D01*
X151339Y585932D01*
X151334Y585925D01*
X151248Y585753D01*
X151161Y585581D01*
X151158Y585572D01*
X151154Y585564D01*
X151104Y585378D01*
X151053Y585193D01*
X151052Y585184D01*
X151050Y585175D01*
X151023Y584845D01*
X151023Y581683D01*
X150850Y581037D01*
X150515Y580458D01*
X150042Y579985D01*
X149463Y579650D01*
X148817Y579477D01*
X142849Y579477D01*
G37*
%LPD*%
%LPC*%
G36*
X235987Y590422D02*
X235987Y590422D01*
X228472Y597937D01*
X228472Y608563D01*
X235987Y616078D01*
X246613Y616078D01*
X254128Y608563D01*
X254128Y597937D01*
X246613Y590422D01*
X235987Y590422D01*
G37*
%LPD*%
%LPC*%
G36*
X210976Y890627D02*
X210976Y890627D01*
X204077Y897526D01*
X204063Y897537D01*
X204052Y897551D01*
X203908Y897664D01*
X203766Y897781D01*
X203750Y897789D01*
X203736Y897800D01*
X203572Y897884D01*
X203410Y897970D01*
X203393Y897975D01*
X203377Y897983D01*
X203200Y898032D01*
X203024Y898084D01*
X203006Y898086D01*
X202989Y898091D01*
X202806Y898104D01*
X202623Y898121D01*
X202605Y898119D01*
X202587Y898120D01*
X202405Y898097D01*
X202223Y898077D01*
X202206Y898072D01*
X202188Y898070D01*
X202014Y898011D01*
X201839Y897956D01*
X201823Y897947D01*
X201806Y897941D01*
X201647Y897850D01*
X201487Y897761D01*
X201473Y897750D01*
X201457Y897741D01*
X201204Y897526D01*
X194814Y891135D01*
X186186Y891135D01*
X180085Y897236D01*
X180085Y905864D01*
X186186Y911965D01*
X194814Y911965D01*
X201204Y905574D01*
X201218Y905563D01*
X201230Y905549D01*
X201374Y905436D01*
X201516Y905319D01*
X201532Y905311D01*
X201546Y905300D01*
X201710Y905216D01*
X201872Y905130D01*
X201889Y905125D01*
X201905Y905117D01*
X202082Y905068D01*
X202258Y905016D01*
X202275Y905014D01*
X202293Y905009D01*
X202476Y904996D01*
X202659Y904979D01*
X202676Y904981D01*
X202694Y904980D01*
X202876Y905003D01*
X203059Y905023D01*
X203076Y905028D01*
X203094Y905030D01*
X203267Y905089D01*
X203443Y905144D01*
X203458Y905153D01*
X203475Y905159D01*
X203635Y905250D01*
X203795Y905339D01*
X203809Y905350D01*
X203824Y905359D01*
X204077Y905574D01*
X210976Y912473D01*
X212751Y912473D01*
X212751Y902268D01*
X212752Y902250D01*
X212751Y902233D01*
X212772Y902050D01*
X212791Y901868D01*
X212796Y901851D01*
X212798Y901833D01*
X212855Y901658D01*
X212886Y901558D01*
X212882Y901551D01*
X212834Y901373D01*
X212784Y901198D01*
X212782Y901180D01*
X212778Y901163D01*
X212751Y900832D01*
X212751Y890627D01*
X210976Y890627D01*
G37*
%LPD*%
%LPC*%
G36*
X264728Y385063D02*
X264728Y385063D01*
X261554Y386378D01*
X259124Y388808D01*
X257809Y391982D01*
X257809Y395418D01*
X259124Y398592D01*
X261554Y401022D01*
X264728Y402337D01*
X281372Y402337D01*
X284546Y401022D01*
X286976Y398592D01*
X288291Y395418D01*
X288291Y391982D01*
X286976Y388808D01*
X284546Y386378D01*
X281372Y385063D01*
X264728Y385063D01*
G37*
%LPD*%
%LPC*%
G36*
X144332Y162559D02*
X144332Y162559D01*
X141158Y163874D01*
X138728Y166304D01*
X137413Y169478D01*
X137413Y186122D01*
X138728Y189296D01*
X141158Y191726D01*
X144332Y193041D01*
X147768Y193041D01*
X150942Y191726D01*
X153372Y189296D01*
X154687Y186122D01*
X154687Y169478D01*
X153372Y166304D01*
X150942Y163874D01*
X147768Y162559D01*
X144332Y162559D01*
G37*
%LPD*%
%LPC*%
G36*
X118932Y162559D02*
X118932Y162559D01*
X115758Y163874D01*
X113328Y166304D01*
X112013Y169478D01*
X112013Y186122D01*
X113328Y189296D01*
X115758Y191726D01*
X118932Y193041D01*
X122368Y193041D01*
X125542Y191726D01*
X127972Y189296D01*
X129287Y186122D01*
X129287Y169478D01*
X127972Y166304D01*
X125542Y163874D01*
X122368Y162559D01*
X118932Y162559D01*
G37*
%LPD*%
%LPC*%
G36*
X340928Y562863D02*
X340928Y562863D01*
X337754Y564178D01*
X335324Y566608D01*
X334009Y569782D01*
X334009Y573218D01*
X335324Y576392D01*
X337754Y578822D01*
X340928Y580137D01*
X357572Y580137D01*
X360746Y578822D01*
X363176Y576392D01*
X364491Y573218D01*
X364491Y569782D01*
X363176Y566608D01*
X360746Y564178D01*
X357572Y562863D01*
X340928Y562863D01*
G37*
%LPD*%
%LPC*%
G36*
X264728Y562863D02*
X264728Y562863D01*
X261554Y564178D01*
X259124Y566608D01*
X257809Y569782D01*
X257809Y573218D01*
X259124Y576392D01*
X261554Y578822D01*
X264728Y580137D01*
X281372Y580137D01*
X284546Y578822D01*
X286976Y576392D01*
X288291Y573218D01*
X288291Y569782D01*
X286976Y566608D01*
X284546Y564178D01*
X281372Y562863D01*
X264728Y562863D01*
G37*
%LPD*%
%LPC*%
G36*
X340928Y435863D02*
X340928Y435863D01*
X337754Y437178D01*
X335324Y439608D01*
X334009Y442782D01*
X334009Y446218D01*
X335324Y449392D01*
X337754Y451822D01*
X340928Y453137D01*
X357572Y453137D01*
X360746Y451822D01*
X363176Y449392D01*
X364491Y446218D01*
X364491Y442782D01*
X363176Y439608D01*
X360746Y437178D01*
X359267Y436565D01*
X357572Y435863D01*
X340928Y435863D01*
G37*
%LPD*%
%LPC*%
G36*
X144332Y238759D02*
X144332Y238759D01*
X141158Y240074D01*
X138728Y242504D01*
X137413Y245678D01*
X137413Y262322D01*
X138728Y265496D01*
X141158Y267926D01*
X144332Y269241D01*
X147768Y269241D01*
X150942Y267926D01*
X153372Y265496D01*
X154687Y262322D01*
X154687Y245678D01*
X153372Y242504D01*
X150942Y240074D01*
X149638Y239534D01*
X147768Y238759D01*
X144332Y238759D01*
G37*
%LPD*%
%LPC*%
G36*
X340928Y486663D02*
X340928Y486663D01*
X337754Y487978D01*
X335324Y490408D01*
X334009Y493582D01*
X334009Y497018D01*
X335324Y500192D01*
X337754Y502622D01*
X340869Y503912D01*
X340870Y503913D01*
X340928Y503937D01*
X357572Y503937D01*
X360746Y502622D01*
X363176Y500192D01*
X364491Y497018D01*
X364491Y493582D01*
X363176Y490408D01*
X360746Y487978D01*
X357572Y486663D01*
X340928Y486663D01*
G37*
%LPD*%
%LPC*%
G36*
X264728Y486663D02*
X264728Y486663D01*
X261554Y487978D01*
X259124Y490408D01*
X257809Y493582D01*
X257809Y497018D01*
X259124Y500192D01*
X261554Y502622D01*
X264669Y503912D01*
X264670Y503913D01*
X264728Y503937D01*
X281372Y503937D01*
X284546Y502622D01*
X286976Y500192D01*
X288291Y497018D01*
X288291Y493582D01*
X286976Y490408D01*
X284546Y487978D01*
X281372Y486663D01*
X264728Y486663D01*
G37*
%LPD*%
%LPC*%
G36*
X156276Y891135D02*
X156276Y891135D01*
X155085Y892326D01*
X155085Y910774D01*
X156276Y911965D01*
X174724Y911965D01*
X175915Y910774D01*
X175915Y892326D01*
X174724Y891135D01*
X156276Y891135D01*
G37*
%LPD*%
%LPC*%
G36*
X328155Y122267D02*
X328155Y122267D01*
X324375Y123833D01*
X321483Y126725D01*
X319917Y130505D01*
X319917Y134595D01*
X321483Y138375D01*
X324375Y141267D01*
X328155Y142833D01*
X332245Y142833D01*
X336025Y141267D01*
X338917Y138375D01*
X340483Y134595D01*
X340483Y130505D01*
X338917Y126725D01*
X336025Y123833D01*
X332245Y122267D01*
X328155Y122267D01*
G37*
%LPD*%
%LPC*%
G36*
X48755Y122267D02*
X48755Y122267D01*
X44975Y123833D01*
X42083Y126725D01*
X40517Y130505D01*
X40517Y134595D01*
X42083Y138375D01*
X44975Y141267D01*
X48755Y142833D01*
X52845Y142833D01*
X56625Y141267D01*
X59517Y138375D01*
X61083Y134595D01*
X61083Y130505D01*
X59517Y126725D01*
X56625Y123833D01*
X52845Y122267D01*
X48755Y122267D01*
G37*
%LPD*%
%LPC*%
G36*
X48755Y852517D02*
X48755Y852517D01*
X44975Y854083D01*
X42083Y856975D01*
X40517Y860755D01*
X40517Y864845D01*
X42083Y868625D01*
X44975Y871517D01*
X48755Y873083D01*
X52845Y873083D01*
X56625Y871517D01*
X59517Y868625D01*
X61083Y864845D01*
X61083Y860755D01*
X59517Y856975D01*
X56625Y854083D01*
X53942Y852971D01*
X52845Y852517D01*
X48755Y852517D01*
G37*
%LPD*%
%LPC*%
G36*
X118346Y364677D02*
X118346Y364677D01*
X114827Y366135D01*
X112135Y368827D01*
X110677Y372346D01*
X110677Y376154D01*
X112135Y379673D01*
X114827Y382365D01*
X118346Y383823D01*
X122154Y383823D01*
X125673Y382365D01*
X128365Y379673D01*
X129823Y376154D01*
X129823Y372346D01*
X128365Y368827D01*
X125673Y366135D01*
X122154Y364677D01*
X118346Y364677D01*
G37*
%LPD*%
%LPC*%
G36*
X68346Y364677D02*
X68346Y364677D01*
X64827Y366135D01*
X62135Y368827D01*
X60677Y372346D01*
X60677Y376154D01*
X62135Y379673D01*
X64827Y382365D01*
X68346Y383823D01*
X72154Y383823D01*
X75673Y382365D01*
X78365Y379673D01*
X79823Y376154D01*
X79823Y372346D01*
X78365Y368827D01*
X75673Y366135D01*
X72154Y364677D01*
X68346Y364677D01*
G37*
%LPD*%
%LPC*%
G36*
X68346Y314677D02*
X68346Y314677D01*
X64827Y316135D01*
X62135Y318827D01*
X60677Y322346D01*
X60677Y326154D01*
X62135Y329673D01*
X64827Y332365D01*
X67054Y333287D01*
X67054Y333288D01*
X68346Y333823D01*
X72154Y333823D01*
X75673Y332365D01*
X78365Y329673D01*
X79823Y326154D01*
X79823Y322346D01*
X78365Y318827D01*
X75673Y316135D01*
X72154Y314677D01*
X68346Y314677D01*
G37*
%LPD*%
%LPC*%
G36*
X118346Y314677D02*
X118346Y314677D01*
X114827Y316135D01*
X112135Y318827D01*
X110677Y322346D01*
X110677Y326154D01*
X112135Y329673D01*
X114827Y332365D01*
X117054Y333287D01*
X117054Y333288D01*
X118346Y333823D01*
X122154Y333823D01*
X125673Y332365D01*
X128365Y329673D01*
X129823Y326154D01*
X129823Y322346D01*
X128365Y318827D01*
X125673Y316135D01*
X122154Y314677D01*
X118346Y314677D01*
G37*
%LPD*%
%LPC*%
G36*
X237723Y867663D02*
X237723Y867663D01*
X232663Y872723D01*
X232663Y879877D01*
X237723Y884937D01*
X244877Y884937D01*
X249937Y879877D01*
X249937Y872723D01*
X244877Y867663D01*
X237723Y867663D01*
G37*
%LPD*%
%LPC*%
G36*
X275823Y867663D02*
X275823Y867663D01*
X270763Y872723D01*
X270763Y879877D01*
X275823Y884937D01*
X282977Y884937D01*
X288037Y879877D01*
X288037Y872723D01*
X282977Y867663D01*
X275823Y867663D01*
G37*
%LPD*%
%LPC*%
G36*
X212323Y321563D02*
X212323Y321563D01*
X207263Y326623D01*
X207263Y333777D01*
X212323Y338837D01*
X219477Y338837D01*
X224537Y333777D01*
X224537Y326623D01*
X219477Y321563D01*
X212323Y321563D01*
G37*
%LPD*%
%LPC*%
G36*
X193273Y391413D02*
X193273Y391413D01*
X188213Y396473D01*
X188213Y403627D01*
X193273Y408687D01*
X200427Y408687D01*
X205487Y403627D01*
X205487Y396473D01*
X200427Y391413D01*
X193273Y391413D01*
G37*
%LPD*%
%LPC*%
G36*
X205973Y747013D02*
X205973Y747013D01*
X200913Y752073D01*
X200913Y759227D01*
X205973Y764287D01*
X213127Y764287D01*
X218187Y759227D01*
X218187Y752073D01*
X213127Y747013D01*
X205973Y747013D01*
G37*
%LPD*%
%LPC*%
G36*
X155173Y747013D02*
X155173Y747013D01*
X150113Y752073D01*
X150113Y759227D01*
X155173Y764287D01*
X162327Y764287D01*
X167387Y759227D01*
X167387Y752073D01*
X162327Y747013D01*
X155173Y747013D01*
G37*
%LPD*%
%LPC*%
G36*
X180573Y747013D02*
X180573Y747013D01*
X175513Y752073D01*
X175513Y759227D01*
X180573Y764287D01*
X187727Y764287D01*
X192787Y759227D01*
X192787Y752073D01*
X187727Y747013D01*
X180573Y747013D01*
G37*
%LPD*%
%LPC*%
G36*
X161523Y867663D02*
X161523Y867663D01*
X156463Y872723D01*
X156463Y879877D01*
X161523Y884937D01*
X168677Y884937D01*
X173737Y879877D01*
X173737Y872723D01*
X168677Y867663D01*
X161523Y867663D01*
G37*
%LPD*%
%LPC*%
G36*
X288523Y321563D02*
X288523Y321563D01*
X283463Y326623D01*
X283463Y333777D01*
X288523Y338837D01*
X295677Y338837D01*
X300737Y333777D01*
X300737Y326623D01*
X295677Y321563D01*
X288523Y321563D01*
G37*
%LPD*%
%LPC*%
G36*
X129773Y747013D02*
X129773Y747013D01*
X124713Y752073D01*
X124713Y759227D01*
X129773Y764287D01*
X136927Y764287D01*
X141987Y759227D01*
X141987Y752073D01*
X136927Y747013D01*
X129773Y747013D01*
G37*
%LPD*%
%LPC*%
G36*
X256773Y188213D02*
X256773Y188213D01*
X251713Y193273D01*
X251713Y200427D01*
X256773Y205487D01*
X263927Y205487D01*
X268987Y200427D01*
X268987Y193273D01*
X263927Y188213D01*
X256773Y188213D01*
G37*
%LPD*%
%LPC*%
G36*
X212323Y353313D02*
X212323Y353313D01*
X207263Y358373D01*
X207263Y365527D01*
X212323Y370587D01*
X219477Y370587D01*
X224537Y365527D01*
X224537Y358373D01*
X219477Y353313D01*
X212323Y353313D01*
G37*
%LPD*%
%LPC*%
G36*
X193273Y340613D02*
X193273Y340613D01*
X188213Y345673D01*
X188213Y352827D01*
X193273Y357887D01*
X200427Y357887D01*
X205487Y352827D01*
X205487Y345673D01*
X200427Y340613D01*
X193273Y340613D01*
G37*
%LPD*%
%LPC*%
G36*
X338121Y307339D02*
X338121Y307339D01*
X338564Y308700D01*
X339290Y310125D01*
X340230Y311419D01*
X341361Y312550D01*
X342655Y313490D01*
X344080Y314216D01*
X345601Y314711D01*
X347180Y314961D01*
X353061Y314961D01*
X353061Y307339D01*
X338121Y307339D01*
G37*
%LPD*%
%LPC*%
G36*
X347180Y294639D02*
X347180Y294639D01*
X345601Y294889D01*
X344080Y295384D01*
X342655Y296110D01*
X341361Y297050D01*
X340230Y298181D01*
X339290Y299475D01*
X338564Y300900D01*
X338121Y302261D01*
X353061Y302261D01*
X353061Y294639D01*
X347180Y294639D01*
G37*
%LPD*%
%LPC*%
G36*
X345439Y605789D02*
X345439Y605789D01*
X345439Y616586D01*
X348424Y616586D01*
X356236Y608774D01*
X356236Y605789D01*
X345439Y605789D01*
G37*
%LPD*%
%LPC*%
G36*
X345439Y589914D02*
X345439Y589914D01*
X345439Y600711D01*
X356236Y600711D01*
X356236Y597726D01*
X348424Y589914D01*
X345439Y589914D01*
G37*
%LPD*%
%LPC*%
G36*
X329564Y605789D02*
X329564Y605789D01*
X329564Y608774D01*
X337376Y616586D01*
X340361Y616586D01*
X340361Y605789D01*
X329564Y605789D01*
G37*
%LPD*%
%LPC*%
G36*
X337376Y589914D02*
X337376Y589914D01*
X329564Y597726D01*
X329564Y600711D01*
X340361Y600711D01*
X340361Y589914D01*
X337376Y589914D01*
G37*
%LPD*%
%LPC*%
G36*
X122681Y256031D02*
X122681Y256031D01*
X122681Y269541D01*
X122791Y269524D01*
X124160Y269079D01*
X125443Y268425D01*
X126607Y267579D01*
X127625Y266561D01*
X128471Y265397D01*
X129125Y264114D01*
X129570Y262745D01*
X129795Y261324D01*
X129795Y256031D01*
X122681Y256031D01*
G37*
%LPD*%
%LPC*%
G36*
X275081Y471931D02*
X275081Y471931D01*
X275081Y479045D01*
X280374Y479045D01*
X281795Y478820D01*
X283164Y478375D01*
X284447Y477721D01*
X285611Y476875D01*
X286629Y475857D01*
X287475Y474693D01*
X288129Y473410D01*
X288574Y472041D01*
X288591Y471931D01*
X275081Y471931D01*
G37*
%LPD*%
%LPC*%
G36*
X257509Y471931D02*
X257509Y471931D01*
X257526Y472041D01*
X257971Y473410D01*
X258625Y474693D01*
X259471Y475857D01*
X260489Y476875D01*
X261653Y477721D01*
X262936Y478375D01*
X264305Y478820D01*
X265726Y479045D01*
X271019Y479045D01*
X271019Y471931D01*
X257509Y471931D01*
G37*
%LPD*%
%LPC*%
G36*
X122681Y251969D02*
X122681Y251969D01*
X129795Y251969D01*
X129795Y246676D01*
X129570Y245255D01*
X129125Y243886D01*
X128471Y242603D01*
X127625Y241439D01*
X126607Y240421D01*
X125443Y239575D01*
X124160Y238921D01*
X122791Y238476D01*
X122681Y238459D01*
X122681Y251969D01*
G37*
%LPD*%
%LPC*%
G36*
X111505Y256031D02*
X111505Y256031D01*
X111505Y261324D01*
X111730Y262745D01*
X112175Y264114D01*
X112829Y265397D01*
X113675Y266561D01*
X114693Y267579D01*
X115857Y268425D01*
X117140Y269079D01*
X118509Y269524D01*
X118619Y269541D01*
X118619Y256031D01*
X111505Y256031D01*
G37*
%LPD*%
%LPC*%
G36*
X118509Y238476D02*
X118509Y238476D01*
X117140Y238921D01*
X115857Y239575D01*
X114693Y240421D01*
X113675Y241439D01*
X112829Y242603D01*
X112175Y243886D01*
X111730Y245255D01*
X111505Y246676D01*
X111505Y251969D01*
X118619Y251969D01*
X118619Y238459D01*
X118509Y238476D01*
G37*
%LPD*%
%LPC*%
G36*
X129177Y15299D02*
X129177Y15299D01*
X129177Y21267D01*
X129350Y21913D01*
X129685Y22492D01*
X130158Y22965D01*
X130737Y23300D01*
X131383Y23473D01*
X137351Y23473D01*
X137351Y15299D01*
X129177Y15299D01*
G37*
%LPD*%
%LPC*%
G36*
X129177Y440749D02*
X129177Y440749D01*
X129177Y446717D01*
X129350Y447363D01*
X129685Y447942D01*
X130158Y448415D01*
X130737Y448750D01*
X131383Y448923D01*
X137351Y448923D01*
X137351Y440749D01*
X129177Y440749D01*
G37*
%LPD*%
%LPC*%
G36*
X131383Y579477D02*
X131383Y579477D01*
X130737Y579650D01*
X130158Y579985D01*
X129685Y580458D01*
X129350Y581037D01*
X129177Y581683D01*
X129177Y587651D01*
X137351Y587651D01*
X137351Y579477D01*
X131383Y579477D01*
G37*
%LPD*%
%LPC*%
G36*
X319849Y694749D02*
X319849Y694749D01*
X319849Y702923D01*
X321624Y702923D01*
X328023Y696524D01*
X328023Y694749D01*
X319849Y694749D01*
G37*
%LPD*%
%LPC*%
G36*
X218249Y904299D02*
X218249Y904299D01*
X218249Y912473D01*
X220024Y912473D01*
X226423Y906074D01*
X226423Y904299D01*
X218249Y904299D01*
G37*
%LPD*%
%LPC*%
G36*
X319849Y681077D02*
X319849Y681077D01*
X319849Y689251D01*
X328023Y689251D01*
X328023Y687476D01*
X321624Y681077D01*
X319849Y681077D01*
G37*
%LPD*%
%LPC*%
G36*
X218249Y890627D02*
X218249Y890627D01*
X218249Y898801D01*
X226423Y898801D01*
X226423Y897026D01*
X220024Y890627D01*
X218249Y890627D01*
G37*
%LPD*%
%LPC*%
G36*
X53549Y445749D02*
X53549Y445749D01*
X53549Y453453D01*
X54942Y453000D01*
X56456Y452229D01*
X57830Y451231D01*
X59031Y450030D01*
X60029Y448656D01*
X60800Y447142D01*
X61253Y445749D01*
X53549Y445749D01*
G37*
%LPD*%
%LPC*%
G36*
X53549Y20299D02*
X53549Y20299D01*
X53549Y28003D01*
X54942Y27550D01*
X56456Y26779D01*
X57830Y25781D01*
X59031Y24580D01*
X60029Y23206D01*
X60800Y21692D01*
X61253Y20299D01*
X53549Y20299D01*
G37*
%LPD*%
%LPC*%
G36*
X332949Y20299D02*
X332949Y20299D01*
X332949Y28003D01*
X334342Y27550D01*
X335856Y26779D01*
X337230Y25781D01*
X338431Y24580D01*
X339429Y23206D01*
X340200Y21692D01*
X340653Y20299D01*
X332949Y20299D01*
G37*
%LPD*%
%LPC*%
G36*
X53549Y598149D02*
X53549Y598149D01*
X53549Y605853D01*
X54942Y605400D01*
X56456Y604629D01*
X57830Y603631D01*
X59031Y602430D01*
X60029Y601056D01*
X60800Y599542D01*
X61253Y598149D01*
X53549Y598149D01*
G37*
%LPD*%
%LPC*%
G36*
X53549Y750549D02*
X53549Y750549D01*
X53549Y758253D01*
X54942Y757800D01*
X56456Y757029D01*
X57830Y756031D01*
X59031Y754830D01*
X60029Y753456D01*
X60800Y751942D01*
X61253Y750549D01*
X53549Y750549D01*
G37*
%LPD*%
%LPC*%
G36*
X40347Y445749D02*
X40347Y445749D01*
X40800Y447142D01*
X41571Y448656D01*
X42569Y450030D01*
X43770Y451231D01*
X45144Y452229D01*
X46658Y453000D01*
X48051Y453453D01*
X48051Y445749D01*
X40347Y445749D01*
G37*
%LPD*%
%LPC*%
G36*
X53549Y592651D02*
X53549Y592651D01*
X61253Y592651D01*
X60800Y591258D01*
X60029Y589744D01*
X59031Y588370D01*
X57830Y587169D01*
X56456Y586171D01*
X54942Y585400D01*
X53549Y584947D01*
X53549Y592651D01*
G37*
%LPD*%
%LPC*%
G36*
X319747Y20299D02*
X319747Y20299D01*
X320200Y21692D01*
X320971Y23206D01*
X321969Y24580D01*
X323170Y25781D01*
X324544Y26779D01*
X326058Y27550D01*
X327451Y28003D01*
X327451Y20299D01*
X319747Y20299D01*
G37*
%LPD*%
%LPC*%
G36*
X40347Y20299D02*
X40347Y20299D01*
X40800Y21692D01*
X41571Y23206D01*
X42569Y24580D01*
X43770Y25781D01*
X45144Y26779D01*
X46658Y27550D01*
X48051Y28003D01*
X48051Y20299D01*
X40347Y20299D01*
G37*
%LPD*%
%LPC*%
G36*
X40347Y750549D02*
X40347Y750549D01*
X40800Y751942D01*
X41571Y753456D01*
X42569Y754830D01*
X43770Y756031D01*
X45144Y757029D01*
X46658Y757800D01*
X48051Y758253D01*
X48051Y750549D01*
X40347Y750549D01*
G37*
%LPD*%
%LPC*%
G36*
X40347Y598149D02*
X40347Y598149D01*
X40800Y599542D01*
X41571Y601056D01*
X42569Y602430D01*
X43770Y603631D01*
X45144Y604629D01*
X46658Y605400D01*
X48051Y605853D01*
X48051Y598149D01*
X40347Y598149D01*
G37*
%LPD*%
%LPC*%
G36*
X53549Y745051D02*
X53549Y745051D01*
X61253Y745051D01*
X60800Y743658D01*
X60029Y742144D01*
X59031Y740770D01*
X57830Y739569D01*
X56456Y738571D01*
X54942Y737800D01*
X53549Y737347D01*
X53549Y745051D01*
G37*
%LPD*%
%LPC*%
G36*
X46658Y737800D02*
X46658Y737800D01*
X45144Y738571D01*
X43770Y739569D01*
X42569Y740770D01*
X41571Y742144D01*
X40800Y743658D01*
X40347Y745051D01*
X48051Y745051D01*
X48051Y737347D01*
X46658Y737800D01*
G37*
%LPD*%
%LPC*%
G36*
X46658Y433000D02*
X46658Y433000D01*
X45144Y433771D01*
X43770Y434769D01*
X42569Y435970D01*
X41571Y437344D01*
X40800Y438858D01*
X40347Y440251D01*
X48051Y440251D01*
X48051Y432547D01*
X46658Y433000D01*
G37*
%LPD*%
%LPC*%
G36*
X46658Y585400D02*
X46658Y585400D01*
X45144Y586171D01*
X43770Y587169D01*
X42569Y588370D01*
X41571Y589744D01*
X40800Y591258D01*
X40347Y592651D01*
X48051Y592651D01*
X48051Y584947D01*
X46658Y585400D01*
G37*
%LPD*%
%LPC*%
G36*
X243331Y573531D02*
X243331Y573531D01*
X243331Y580645D01*
X245088Y580645D01*
X250445Y575288D01*
X250445Y573531D01*
X243331Y573531D01*
G37*
%LPD*%
%LPC*%
G36*
X173481Y351281D02*
X173481Y351281D01*
X173481Y358395D01*
X175238Y358395D01*
X180595Y353038D01*
X180595Y351281D01*
X173481Y351281D01*
G37*
%LPD*%
%LPC*%
G36*
X243331Y211581D02*
X243331Y211581D01*
X243331Y218695D01*
X245088Y218695D01*
X250445Y213338D01*
X250445Y211581D01*
X243331Y211581D01*
G37*
%LPD*%
%LPC*%
G36*
X173481Y402081D02*
X173481Y402081D01*
X173481Y409195D01*
X175238Y409195D01*
X180595Y403838D01*
X180595Y402081D01*
X173481Y402081D01*
G37*
%LPD*%
%LPC*%
G36*
X21081Y344931D02*
X21081Y344931D01*
X21081Y352045D01*
X22838Y352045D01*
X28195Y346688D01*
X28195Y344931D01*
X21081Y344931D01*
G37*
%LPD*%
%LPC*%
G36*
X281431Y929131D02*
X281431Y929131D01*
X281431Y936245D01*
X283188Y936245D01*
X288545Y930888D01*
X288545Y929131D01*
X281431Y929131D01*
G37*
%LPD*%
%LPC*%
G36*
X162305Y300481D02*
X162305Y300481D01*
X162305Y302238D01*
X167662Y307595D01*
X169419Y307595D01*
X169419Y300481D01*
X162305Y300481D01*
G37*
%LPD*%
%LPC*%
G36*
X162305Y351281D02*
X162305Y351281D01*
X162305Y353038D01*
X167662Y358395D01*
X169419Y358395D01*
X169419Y351281D01*
X162305Y351281D01*
G37*
%LPD*%
%LPC*%
G36*
X162305Y402081D02*
X162305Y402081D01*
X162305Y403838D01*
X167662Y409195D01*
X169419Y409195D01*
X169419Y402081D01*
X162305Y402081D01*
G37*
%LPD*%
%LPC*%
G36*
X173481Y390905D02*
X173481Y390905D01*
X173481Y398019D01*
X180595Y398019D01*
X180595Y396262D01*
X175238Y390905D01*
X173481Y390905D01*
G37*
%LPD*%
%LPC*%
G36*
X281431Y917955D02*
X281431Y917955D01*
X281431Y925069D01*
X288545Y925069D01*
X288545Y923312D01*
X283188Y917955D01*
X281431Y917955D01*
G37*
%LPD*%
%LPC*%
G36*
X232155Y211581D02*
X232155Y211581D01*
X232155Y213338D01*
X237512Y218695D01*
X239269Y218695D01*
X239269Y211581D01*
X232155Y211581D01*
G37*
%LPD*%
%LPC*%
G36*
X243331Y200405D02*
X243331Y200405D01*
X243331Y207519D01*
X250445Y207519D01*
X250445Y205762D01*
X245088Y200405D01*
X243331Y200405D01*
G37*
%LPD*%
%LPC*%
G36*
X90931Y181355D02*
X90931Y181355D01*
X90931Y188469D01*
X98045Y188469D01*
X98045Y186712D01*
X92688Y181355D01*
X90931Y181355D01*
G37*
%LPD*%
%LPC*%
G36*
X243331Y562355D02*
X243331Y562355D01*
X243331Y569469D01*
X250445Y569469D01*
X250445Y567712D01*
X245088Y562355D01*
X243331Y562355D01*
G37*
%LPD*%
%LPC*%
G36*
X173481Y340105D02*
X173481Y340105D01*
X173481Y347219D01*
X180595Y347219D01*
X180595Y345462D01*
X175238Y340105D01*
X173481Y340105D01*
G37*
%LPD*%
%LPC*%
G36*
X21081Y333755D02*
X21081Y333755D01*
X21081Y340869D01*
X28195Y340869D01*
X28195Y339112D01*
X22838Y333755D01*
X21081Y333755D01*
G37*
%LPD*%
%LPC*%
G36*
X232155Y573531D02*
X232155Y573531D01*
X232155Y575288D01*
X237512Y580645D01*
X239269Y580645D01*
X239269Y573531D01*
X232155Y573531D01*
G37*
%LPD*%
%LPC*%
G36*
X270255Y929131D02*
X270255Y929131D01*
X270255Y930888D01*
X275612Y936245D01*
X277369Y936245D01*
X277369Y929131D01*
X270255Y929131D01*
G37*
%LPD*%
%LPC*%
G36*
X237512Y200405D02*
X237512Y200405D01*
X232155Y205762D01*
X232155Y207519D01*
X239269Y207519D01*
X239269Y200405D01*
X237512Y200405D01*
G37*
%LPD*%
%LPC*%
G36*
X275612Y917955D02*
X275612Y917955D01*
X270255Y923312D01*
X270255Y925069D01*
X277369Y925069D01*
X277369Y917955D01*
X275612Y917955D01*
G37*
%LPD*%
%LPC*%
G36*
X85112Y181355D02*
X85112Y181355D01*
X79755Y186712D01*
X79755Y188469D01*
X86869Y188469D01*
X86869Y181355D01*
X85112Y181355D01*
G37*
%LPD*%
%LPC*%
G36*
X237512Y562355D02*
X237512Y562355D01*
X232155Y567712D01*
X232155Y569469D01*
X239269Y569469D01*
X239269Y562355D01*
X237512Y562355D01*
G37*
%LPD*%
%LPC*%
G36*
X167662Y289305D02*
X167662Y289305D01*
X162305Y294662D01*
X162305Y296419D01*
X169419Y296419D01*
X169419Y289305D01*
X167662Y289305D01*
G37*
%LPD*%
%LPC*%
G36*
X167662Y340105D02*
X167662Y340105D01*
X162305Y345462D01*
X162305Y347219D01*
X169419Y347219D01*
X169419Y340105D01*
X167662Y340105D01*
G37*
%LPD*%
%LPC*%
G36*
X167662Y390905D02*
X167662Y390905D01*
X162305Y396262D01*
X162305Y398019D01*
X169419Y398019D01*
X169419Y390905D01*
X167662Y390905D01*
G37*
%LPD*%
D10*
X33020Y177800D02*
X17780Y177800D01*
X17780Y203200D02*
X33020Y203200D01*
X33020Y228600D02*
X17780Y228600D01*
X17780Y254000D02*
X33020Y254000D01*
X33020Y279400D02*
X17780Y279400D01*
X17780Y304800D02*
X33020Y304800D01*
D11*
X50800Y132550D03*
X50800Y47550D03*
X50800Y17550D03*
X50800Y710400D03*
X50800Y625400D03*
X50800Y595400D03*
X50800Y558000D03*
X50800Y473000D03*
X50800Y443000D03*
X50800Y862800D03*
X50800Y777800D03*
X50800Y747800D03*
X330200Y132550D03*
X330200Y47550D03*
X330200Y17550D03*
D12*
X140100Y12550D03*
D13*
X165100Y12550D03*
X190100Y12550D03*
D14*
X210100Y82550D03*
X120100Y82550D03*
D12*
X140100Y590400D03*
D13*
X165100Y590400D03*
X190100Y590400D03*
D14*
X210100Y660400D03*
X120100Y660400D03*
D12*
X140100Y438000D03*
D13*
X165100Y438000D03*
X190100Y438000D03*
D14*
X210100Y508000D03*
X120100Y508000D03*
D12*
X267100Y692000D03*
D13*
X292100Y692000D03*
X317100Y692000D03*
D14*
X337100Y762000D03*
X247100Y762000D03*
D12*
X165500Y901550D03*
D13*
X190500Y901550D03*
X215500Y901550D03*
D14*
X235500Y971550D03*
X145500Y971550D03*
D15*
X158750Y831850D03*
X158750Y755650D03*
X209550Y831850D03*
X209550Y755650D03*
X133350Y831850D03*
X133350Y755650D03*
D16*
X165100Y876300D03*
X241300Y876300D03*
D15*
X184150Y831850D03*
X184150Y755650D03*
D17*
X196850Y260604D02*
X196850Y247396D01*
X171450Y247396D02*
X171450Y260604D01*
X146050Y260604D02*
X146050Y247396D01*
X120650Y247396D02*
X120650Y260604D01*
X120650Y184404D02*
X120650Y171196D01*
X146050Y171196D02*
X146050Y184404D01*
X171450Y184404D02*
X171450Y171196D01*
X196850Y171196D02*
X196850Y184404D01*
D16*
X215900Y361950D03*
X292100Y361950D03*
X215900Y330200D03*
X292100Y330200D03*
X215900Y298450D03*
X292100Y298450D03*
D18*
X196850Y400050D03*
X171450Y400050D03*
X196850Y349250D03*
X171450Y349250D03*
X196850Y298450D03*
X171450Y298450D03*
D15*
X88900Y241300D03*
X88900Y190500D03*
D19*
X70250Y324250D03*
X120250Y324250D03*
X120250Y374250D03*
X70250Y374250D03*
D20*
X19050Y342900D03*
X19050Y419100D03*
X260350Y196850D03*
X241300Y209550D03*
X260350Y222250D03*
X279400Y876300D03*
X279400Y927100D03*
D17*
X279654Y571500D02*
X266446Y571500D01*
X266446Y546100D02*
X279654Y546100D01*
X279654Y419100D02*
X266446Y419100D01*
X266446Y393700D02*
X279654Y393700D01*
X279654Y520700D02*
X266446Y520700D01*
X266446Y495300D02*
X279654Y495300D01*
X279654Y444500D02*
X266446Y444500D01*
X266446Y469900D02*
X279654Y469900D01*
X342646Y393700D02*
X355854Y393700D01*
X355854Y419100D02*
X342646Y419100D01*
X342646Y444500D02*
X355854Y444500D01*
X355854Y469900D02*
X342646Y469900D01*
X342646Y495300D02*
X355854Y495300D01*
X355854Y520700D02*
X342646Y520700D01*
X342646Y546100D02*
X355854Y546100D01*
X355854Y571500D02*
X342646Y571500D01*
D10*
X347980Y304800D02*
X363220Y304800D01*
X363220Y279400D02*
X347980Y279400D01*
X347980Y254000D02*
X363220Y254000D01*
X363220Y228600D02*
X347980Y228600D01*
X347980Y203200D02*
X363220Y203200D01*
X363220Y177800D02*
X347980Y177800D01*
D20*
X241300Y520700D03*
X241300Y571500D03*
D21*
X241300Y603250D03*
X292100Y603250D03*
X342900Y603250D03*
D22*
X342900Y361950D02*
X317500Y361950D01*
X317500Y222250D02*
X260350Y222250D01*
D23*
X342900Y361950D03*
X317500Y361950D03*
X317500Y222250D03*
D24*
X342900Y336550D03*
X247650Y88900D03*
X292100Y279400D03*
X292100Y25400D03*
X114300Y304800D03*
X57150Y241300D03*
X63500Y349250D03*
X311150Y946150D03*
X88900Y933450D03*
X114300Y863600D03*
X146050Y857250D03*
X19050Y590550D03*
X234950Y25400D03*
D22*
X133350Y203200D02*
X25400Y203200D01*
X146050Y419100D02*
X209550Y419100D01*
X222250Y431800D01*
X330200Y431800D01*
X349250Y419100D01*
D23*
X146050Y419100D03*
D25*
X133350Y203200D03*
D22*
X63500Y228600D02*
X25400Y228600D01*
X63500Y228600D02*
X76200Y241300D01*
X76200Y279400D01*
X101600Y304800D01*
X101600Y412750D01*
X120650Y431800D01*
X120650Y463550D01*
X158750Y533400D02*
X317500Y533400D01*
X330200Y546100D01*
X349250Y546100D01*
D23*
X120650Y463550D03*
X158750Y533400D03*
D22*
X44450Y254000D02*
X25400Y254000D01*
X44450Y254000D02*
X63500Y273050D01*
X63500Y292100D01*
X88900Y317500D01*
X88900Y419100D01*
X107950Y438150D01*
X107950Y476250D01*
X146050Y546100D02*
X273050Y546100D01*
D23*
X107950Y476250D03*
X146050Y546100D03*
D22*
X165100Y146050D02*
X165100Y12550D01*
X165100Y146050D02*
X177800Y158750D01*
X273050Y158750D01*
X342900Y228600D01*
X355600Y228600D01*
X190100Y578250D02*
X190100Y590400D01*
X190100Y578250D02*
X190500Y577850D01*
X177800Y565150D01*
X133350Y565150D01*
X76200Y711200D02*
X51600Y711200D01*
X50800Y710400D01*
X95250Y603250D02*
X133350Y565150D01*
X95250Y603250D02*
X95250Y692150D01*
X76200Y711200D01*
X190100Y444900D02*
X190100Y438000D01*
X165100Y508000D02*
X114300Y558800D01*
X51600Y558800D01*
X50800Y558000D01*
X165100Y469900D02*
X190100Y444900D01*
X165100Y469900D02*
X165100Y508000D01*
X158750Y831850D02*
X184150Y831850D01*
X158750Y831850D02*
X133350Y831850D01*
X228600Y266700D02*
X323850Y266700D01*
X336550Y279400D01*
X355600Y279400D01*
D23*
X228600Y266700D03*
D22*
X209550Y831850D02*
X184150Y831850D01*
X260350Y698500D02*
X267100Y692000D01*
X25400Y323850D02*
X25400Y304800D01*
X25400Y323850D02*
X38100Y336550D01*
X38100Y406400D01*
X82550Y450850D01*
X82550Y463550D01*
X127000Y628650D02*
X139700Y628650D01*
X152400Y641350D01*
X152400Y679450D01*
X171450Y698500D01*
X241300Y698500D01*
X260350Y698500D01*
D23*
X241300Y698500D03*
X82550Y463550D03*
X127000Y628650D03*
D22*
X292100Y660400D02*
X292100Y692000D01*
X38100Y279400D02*
X25400Y279400D01*
X38100Y279400D02*
X50800Y292100D01*
X50800Y400050D01*
X95250Y444500D01*
X127000Y609600D02*
X209550Y609600D01*
X260350Y660400D01*
X292100Y660400D01*
X292100Y603250D01*
D23*
X95250Y444500D03*
X127000Y609600D03*
D22*
X196850Y279400D02*
X273050Y279400D01*
D23*
X273050Y279400D03*
X196850Y279400D03*
D22*
X215900Y254000D02*
X304800Y254000D01*
D23*
X215900Y254000D03*
X304800Y254000D03*
D22*
X196850Y215900D02*
X196850Y177800D01*
X196850Y215900D02*
X184150Y228600D01*
X101600Y228600D01*
X88900Y241300D01*
X317500Y469900D02*
X349250Y469900D01*
X222250Y241300D02*
X196850Y215900D01*
X304800Y457200D02*
X317500Y469900D01*
X304800Y457200D02*
X241300Y457200D01*
X241300Y241300D02*
X222250Y241300D01*
D23*
X241300Y457200D03*
X241300Y241300D03*
D22*
X171450Y254000D02*
X171450Y273050D01*
X184150Y285750D01*
X184150Y304800D01*
X190500Y311150D01*
X254000Y311150D01*
X266700Y323850D01*
X292100Y298450D01*
X266700Y323850D02*
X266700Y361950D01*
X279400Y374650D01*
X311150Y374650D01*
X330200Y393700D01*
X349250Y393700D01*
X349250Y520700D02*
X323850Y520700D01*
X273050Y520700D01*
D23*
X323850Y520700D03*
M02*
