G04 EAGLE Gerber RS-274X export*
G75*
%MOMM*%
%FSLAX34Y34*%
%LPD*%
%INTop Copper*%
%IPPOS*%
%AMOC8*
5,1,8,0,0,1.08239X$1,22.5*%
G01*
%ADD10C,1.320800*%
%ADD11P,1.732040X8X292.500000*%
%ADD12C,1.600200*%
%ADD13P,1.732040X8X112.500000*%
%ADD14P,1.539592X8X22.500000*%
%ADD15P,1.429621X8X202.500000*%
%ADD16P,1.429621X8X22.500000*%
%ADD17P,1.732040X8X22.500000*%
%ADD18P,1.429621X8X292.500000*%
%ADD19C,1.524000*%
%ADD20C,0.609600*%
%ADD21C,1.016000*%
%ADD22C,0.756400*%
%ADD23R,1.006400X1.006400*%
%ADD24C,0.406400*%
%ADD25C,1.006400*%

G36*
X368826Y10163D02*
X368826Y10163D01*
X368844Y10161D01*
X369026Y10182D01*
X369209Y10201D01*
X369226Y10206D01*
X369243Y10208D01*
X369418Y10265D01*
X369594Y10319D01*
X369609Y10327D01*
X369626Y10333D01*
X369786Y10423D01*
X369948Y10511D01*
X369961Y10522D01*
X369977Y10531D01*
X370116Y10651D01*
X370257Y10768D01*
X370268Y10782D01*
X370282Y10794D01*
X370394Y10939D01*
X370509Y11082D01*
X370517Y11098D01*
X370528Y11112D01*
X370610Y11277D01*
X370695Y11439D01*
X370700Y11456D01*
X370708Y11472D01*
X370755Y11651D01*
X370806Y11826D01*
X370808Y11844D01*
X370812Y11861D01*
X370839Y12192D01*
X370839Y167468D01*
X370838Y167481D01*
X370839Y167495D01*
X370818Y167681D01*
X370799Y167869D01*
X370795Y167881D01*
X370794Y167895D01*
X370737Y168073D01*
X370681Y168254D01*
X370675Y168265D01*
X370671Y168278D01*
X370579Y168442D01*
X370489Y168608D01*
X370481Y168618D01*
X370474Y168630D01*
X370351Y168773D01*
X370232Y168917D01*
X370221Y168925D01*
X370213Y168935D01*
X370064Y169052D01*
X369918Y169169D01*
X369906Y169175D01*
X369896Y169184D01*
X369726Y169269D01*
X369561Y169355D01*
X369548Y169358D01*
X369536Y169364D01*
X369354Y169414D01*
X369174Y169466D01*
X369160Y169467D01*
X369147Y169471D01*
X368961Y169484D01*
X368772Y169499D01*
X368759Y169497D01*
X368746Y169498D01*
X368559Y169474D01*
X368373Y169452D01*
X368360Y169448D01*
X368347Y169446D01*
X368031Y169345D01*
X365140Y168147D01*
X346060Y168147D01*
X342512Y169617D01*
X339797Y172332D01*
X338327Y175880D01*
X338327Y179720D01*
X339797Y183268D01*
X342512Y185983D01*
X346060Y187453D01*
X365140Y187453D01*
X368031Y186255D01*
X368044Y186251D01*
X368055Y186245D01*
X368236Y186193D01*
X368416Y186139D01*
X368429Y186138D01*
X368442Y186134D01*
X368631Y186118D01*
X368817Y186101D01*
X368830Y186102D01*
X368844Y186101D01*
X369030Y186123D01*
X369217Y186142D01*
X369230Y186146D01*
X369243Y186148D01*
X369421Y186206D01*
X369602Y186262D01*
X369613Y186269D01*
X369626Y186273D01*
X369790Y186365D01*
X369955Y186455D01*
X369965Y186464D01*
X369977Y186471D01*
X370119Y186593D01*
X370263Y186715D01*
X370271Y186725D01*
X370282Y186734D01*
X370396Y186882D01*
X370514Y187029D01*
X370520Y187041D01*
X370528Y187052D01*
X370612Y187220D01*
X370698Y187388D01*
X370702Y187400D01*
X370708Y187412D01*
X370757Y187595D01*
X370808Y187775D01*
X370809Y187788D01*
X370812Y187801D01*
X370839Y188132D01*
X370839Y192868D01*
X370838Y192881D01*
X370839Y192895D01*
X370818Y193081D01*
X370799Y193269D01*
X370795Y193281D01*
X370794Y193295D01*
X370737Y193473D01*
X370681Y193654D01*
X370675Y193665D01*
X370671Y193678D01*
X370579Y193842D01*
X370489Y194008D01*
X370481Y194018D01*
X370474Y194030D01*
X370351Y194173D01*
X370232Y194317D01*
X370221Y194325D01*
X370213Y194335D01*
X370064Y194452D01*
X369918Y194569D01*
X369906Y194575D01*
X369896Y194584D01*
X369726Y194669D01*
X369561Y194755D01*
X369548Y194758D01*
X369536Y194764D01*
X369354Y194814D01*
X369174Y194866D01*
X369160Y194867D01*
X369147Y194871D01*
X368961Y194884D01*
X368772Y194899D01*
X368759Y194897D01*
X368746Y194898D01*
X368559Y194874D01*
X368373Y194852D01*
X368360Y194848D01*
X368347Y194846D01*
X368031Y194745D01*
X365140Y193547D01*
X346060Y193547D01*
X342512Y195017D01*
X339797Y197732D01*
X338327Y201280D01*
X338327Y205120D01*
X339797Y208668D01*
X342512Y211383D01*
X346060Y212853D01*
X365140Y212853D01*
X368031Y211655D01*
X368044Y211651D01*
X368055Y211645D01*
X368236Y211593D01*
X368416Y211539D01*
X368429Y211538D01*
X368442Y211534D01*
X368631Y211518D01*
X368817Y211501D01*
X368830Y211502D01*
X368844Y211501D01*
X369030Y211523D01*
X369217Y211542D01*
X369230Y211546D01*
X369243Y211548D01*
X369421Y211606D01*
X369602Y211662D01*
X369613Y211669D01*
X369626Y211673D01*
X369790Y211765D01*
X369955Y211855D01*
X369965Y211864D01*
X369977Y211871D01*
X370119Y211994D01*
X370263Y212115D01*
X370271Y212125D01*
X370282Y212134D01*
X370396Y212282D01*
X370514Y212429D01*
X370520Y212441D01*
X370528Y212452D01*
X370612Y212620D01*
X370698Y212788D01*
X370702Y212800D01*
X370708Y212812D01*
X370757Y212995D01*
X370808Y213175D01*
X370809Y213188D01*
X370812Y213201D01*
X370839Y213532D01*
X370839Y218268D01*
X370838Y218281D01*
X370839Y218295D01*
X370818Y218481D01*
X370799Y218669D01*
X370795Y218681D01*
X370794Y218695D01*
X370737Y218873D01*
X370681Y219054D01*
X370675Y219065D01*
X370671Y219078D01*
X370579Y219242D01*
X370489Y219408D01*
X370481Y219418D01*
X370474Y219430D01*
X370351Y219573D01*
X370232Y219717D01*
X370221Y219725D01*
X370213Y219735D01*
X370064Y219852D01*
X369918Y219969D01*
X369906Y219975D01*
X369896Y219984D01*
X369726Y220069D01*
X369561Y220155D01*
X369548Y220158D01*
X369536Y220164D01*
X369354Y220214D01*
X369174Y220266D01*
X369160Y220267D01*
X369147Y220271D01*
X368961Y220284D01*
X368772Y220299D01*
X368759Y220297D01*
X368746Y220298D01*
X368559Y220274D01*
X368373Y220252D01*
X368360Y220248D01*
X368347Y220246D01*
X368031Y220145D01*
X365140Y218947D01*
X346060Y218947D01*
X342512Y220417D01*
X339797Y223132D01*
X339735Y223281D01*
X339725Y223301D01*
X339718Y223322D01*
X339629Y223478D01*
X339545Y223636D01*
X339531Y223653D01*
X339520Y223673D01*
X339403Y223808D01*
X339288Y223947D01*
X339271Y223961D01*
X339257Y223978D01*
X339115Y224087D01*
X338976Y224200D01*
X338956Y224211D01*
X338938Y224224D01*
X338778Y224304D01*
X338619Y224387D01*
X338598Y224394D01*
X338578Y224404D01*
X338405Y224450D01*
X338233Y224500D01*
X338211Y224502D01*
X338189Y224508D01*
X337858Y224535D01*
X294625Y224535D01*
X294598Y224533D01*
X294572Y224535D01*
X294398Y224513D01*
X294224Y224495D01*
X294199Y224488D01*
X294172Y224484D01*
X294007Y224429D01*
X293840Y224377D01*
X293816Y224364D01*
X293791Y224356D01*
X293639Y224269D01*
X293485Y224185D01*
X293465Y224168D01*
X293442Y224155D01*
X293189Y223940D01*
X290029Y220780D01*
X290012Y220760D01*
X289991Y220742D01*
X289884Y220604D01*
X289774Y220469D01*
X289761Y220445D01*
X289745Y220424D01*
X289667Y220267D01*
X289585Y220113D01*
X289577Y220088D01*
X289565Y220063D01*
X289520Y219894D01*
X289470Y219727D01*
X289468Y219701D01*
X289461Y219675D01*
X289434Y219344D01*
X289434Y211744D01*
X284060Y206370D01*
X284043Y206349D01*
X284022Y206332D01*
X283915Y206194D01*
X283805Y206058D01*
X283792Y206035D01*
X283776Y206014D01*
X283698Y205857D01*
X283616Y205703D01*
X283608Y205677D01*
X283596Y205653D01*
X283551Y205484D01*
X283501Y205317D01*
X283499Y205290D01*
X283492Y205264D01*
X283465Y204934D01*
X283465Y157941D01*
X282846Y156448D01*
X269002Y142604D01*
X267509Y141985D01*
X237591Y141985D01*
X237564Y141983D01*
X237538Y141985D01*
X237364Y141963D01*
X237190Y141945D01*
X237165Y141938D01*
X237138Y141934D01*
X236972Y141879D01*
X236805Y141827D01*
X236782Y141814D01*
X236756Y141806D01*
X236605Y141719D01*
X236451Y141635D01*
X236431Y141618D01*
X236408Y141605D01*
X236155Y141390D01*
X232177Y137413D01*
X225023Y137413D01*
X219963Y142473D01*
X219963Y149627D01*
X225023Y154687D01*
X232177Y154687D01*
X236155Y150710D01*
X236175Y150693D01*
X236193Y150672D01*
X236331Y150565D01*
X236466Y150455D01*
X236490Y150442D01*
X236511Y150426D01*
X236668Y150348D01*
X236822Y150266D01*
X236847Y150258D01*
X236871Y150246D01*
X237041Y150201D01*
X237208Y150151D01*
X237234Y150149D01*
X237260Y150142D01*
X237591Y150115D01*
X264175Y150115D01*
X264202Y150117D01*
X264228Y150115D01*
X264402Y150137D01*
X264576Y150155D01*
X264601Y150162D01*
X264628Y150166D01*
X264793Y150221D01*
X264960Y150273D01*
X264984Y150286D01*
X265009Y150294D01*
X265161Y150381D01*
X265315Y150465D01*
X265335Y150482D01*
X265358Y150495D01*
X265611Y150710D01*
X274740Y159839D01*
X274757Y159859D01*
X274778Y159877D01*
X274885Y160015D01*
X274995Y160150D01*
X275008Y160174D01*
X275024Y160195D01*
X275102Y160352D01*
X275184Y160506D01*
X275192Y160531D01*
X275204Y160556D01*
X275249Y160725D01*
X275299Y160892D01*
X275301Y160918D01*
X275308Y160944D01*
X275335Y161275D01*
X275335Y204934D01*
X275333Y204960D01*
X275335Y204987D01*
X275313Y205161D01*
X275295Y205334D01*
X275288Y205360D01*
X275284Y205386D01*
X275229Y205552D01*
X275177Y205719D01*
X275164Y205743D01*
X275156Y205768D01*
X275069Y205920D01*
X274985Y206073D01*
X274968Y206094D01*
X274955Y206117D01*
X274740Y206370D01*
X269366Y211744D01*
X269366Y220056D01*
X275244Y225934D01*
X282844Y225934D01*
X282871Y225936D01*
X282897Y225934D01*
X283071Y225956D01*
X283245Y225974D01*
X283270Y225981D01*
X283297Y225985D01*
X283463Y226041D01*
X283630Y226092D01*
X283653Y226105D01*
X283678Y226113D01*
X283830Y226200D01*
X283984Y226284D01*
X284004Y226301D01*
X284027Y226314D01*
X284280Y226529D01*
X289798Y232046D01*
X291291Y232665D01*
X337858Y232665D01*
X337881Y232667D01*
X337903Y232665D01*
X338080Y232687D01*
X338259Y232705D01*
X338280Y232711D01*
X338303Y232714D01*
X338472Y232770D01*
X338644Y232823D01*
X338664Y232833D01*
X338685Y232840D01*
X338840Y232929D01*
X338998Y233015D01*
X339015Y233029D01*
X339034Y233040D01*
X339169Y233157D01*
X339307Y233272D01*
X339321Y233290D01*
X339338Y233304D01*
X339447Y233446D01*
X339560Y233586D01*
X339570Y233606D01*
X339583Y233624D01*
X339735Y233919D01*
X339797Y234068D01*
X342512Y236783D01*
X345012Y237819D01*
X346060Y238253D01*
X365140Y238253D01*
X368031Y237055D01*
X368044Y237051D01*
X368055Y237045D01*
X368236Y236993D01*
X368416Y236939D01*
X368429Y236938D01*
X368442Y236934D01*
X368631Y236918D01*
X368817Y236901D01*
X368830Y236902D01*
X368844Y236901D01*
X369030Y236923D01*
X369217Y236942D01*
X369230Y236946D01*
X369243Y236948D01*
X369421Y237006D01*
X369602Y237062D01*
X369613Y237069D01*
X369626Y237073D01*
X369790Y237165D01*
X369955Y237255D01*
X369965Y237264D01*
X369977Y237271D01*
X370119Y237394D01*
X370263Y237515D01*
X370271Y237525D01*
X370282Y237534D01*
X370396Y237682D01*
X370514Y237829D01*
X370520Y237841D01*
X370528Y237852D01*
X370612Y238020D01*
X370698Y238188D01*
X370702Y238200D01*
X370708Y238212D01*
X370757Y238395D01*
X370808Y238575D01*
X370809Y238588D01*
X370812Y238601D01*
X370839Y238932D01*
X370839Y243668D01*
X370838Y243681D01*
X370839Y243695D01*
X370818Y243881D01*
X370799Y244069D01*
X370795Y244081D01*
X370794Y244095D01*
X370737Y244273D01*
X370681Y244454D01*
X370675Y244465D01*
X370671Y244478D01*
X370579Y244642D01*
X370489Y244808D01*
X370481Y244818D01*
X370474Y244830D01*
X370351Y244973D01*
X370232Y245117D01*
X370221Y245125D01*
X370213Y245135D01*
X370064Y245252D01*
X369918Y245369D01*
X369906Y245375D01*
X369896Y245384D01*
X369726Y245469D01*
X369561Y245555D01*
X369548Y245558D01*
X369536Y245564D01*
X369354Y245614D01*
X369174Y245666D01*
X369160Y245667D01*
X369147Y245671D01*
X368961Y245684D01*
X368772Y245699D01*
X368759Y245697D01*
X368746Y245698D01*
X368559Y245674D01*
X368373Y245652D01*
X368360Y245648D01*
X368347Y245646D01*
X368031Y245545D01*
X365140Y244347D01*
X346060Y244347D01*
X342512Y245817D01*
X339797Y248532D01*
X339735Y248681D01*
X339725Y248701D01*
X339718Y248722D01*
X339629Y248878D01*
X339545Y249036D01*
X339531Y249053D01*
X339520Y249073D01*
X339403Y249208D01*
X339288Y249347D01*
X339271Y249361D01*
X339257Y249378D01*
X339115Y249487D01*
X338976Y249600D01*
X338956Y249611D01*
X338938Y249624D01*
X338778Y249704D01*
X338619Y249787D01*
X338598Y249794D01*
X338578Y249804D01*
X338405Y249850D01*
X338233Y249900D01*
X338211Y249902D01*
X338189Y249908D01*
X337858Y249935D01*
X246841Y249935D01*
X245348Y250554D01*
X208461Y287440D01*
X208441Y287457D01*
X208423Y287478D01*
X208285Y287585D01*
X208150Y287695D01*
X208126Y287708D01*
X208105Y287724D01*
X207948Y287802D01*
X207794Y287884D01*
X207769Y287892D01*
X207744Y287904D01*
X207575Y287949D01*
X207408Y287999D01*
X207382Y288001D01*
X207356Y288008D01*
X207025Y288035D01*
X82968Y288035D01*
X82941Y288033D01*
X82914Y288035D01*
X82740Y288013D01*
X82567Y287995D01*
X82542Y287988D01*
X82515Y287984D01*
X82349Y287929D01*
X82182Y287877D01*
X82159Y287864D01*
X82133Y287856D01*
X81982Y287769D01*
X81828Y287685D01*
X81808Y287668D01*
X81784Y287655D01*
X81531Y287440D01*
X80202Y286111D01*
X77605Y285035D01*
X74795Y285035D01*
X72198Y286111D01*
X70211Y288098D01*
X69135Y290695D01*
X69135Y293505D01*
X70211Y296102D01*
X72198Y298089D01*
X74795Y299165D01*
X77605Y299165D01*
X80202Y298089D01*
X81531Y296760D01*
X81552Y296743D01*
X81570Y296722D01*
X81707Y296615D01*
X81843Y296505D01*
X81867Y296492D01*
X81888Y296476D01*
X82045Y296398D01*
X82199Y296316D01*
X82224Y296308D01*
X82248Y296296D01*
X82418Y296251D01*
X82584Y296201D01*
X82611Y296199D01*
X82637Y296192D01*
X82968Y296165D01*
X210359Y296165D01*
X211852Y295546D01*
X248739Y258660D01*
X248759Y258643D01*
X248777Y258622D01*
X248915Y258515D01*
X249050Y258405D01*
X249074Y258392D01*
X249095Y258376D01*
X249252Y258298D01*
X249406Y258216D01*
X249431Y258208D01*
X249456Y258196D01*
X249625Y258151D01*
X249792Y258101D01*
X249818Y258099D01*
X249844Y258092D01*
X250175Y258065D01*
X337858Y258065D01*
X337881Y258067D01*
X337903Y258065D01*
X338080Y258087D01*
X338259Y258105D01*
X338280Y258111D01*
X338303Y258114D01*
X338472Y258170D01*
X338644Y258223D01*
X338664Y258233D01*
X338685Y258240D01*
X338840Y258329D01*
X338998Y258415D01*
X339015Y258429D01*
X339034Y258440D01*
X339169Y258557D01*
X339307Y258672D01*
X339321Y258690D01*
X339338Y258704D01*
X339447Y258846D01*
X339560Y258986D01*
X339570Y259006D01*
X339583Y259024D01*
X339735Y259319D01*
X339797Y259468D01*
X342512Y262183D01*
X342538Y262194D01*
X346060Y263653D01*
X365140Y263653D01*
X368031Y262455D01*
X368044Y262451D01*
X368055Y262445D01*
X368236Y262393D01*
X368416Y262339D01*
X368429Y262338D01*
X368442Y262334D01*
X368631Y262318D01*
X368817Y262301D01*
X368830Y262302D01*
X368844Y262301D01*
X369030Y262323D01*
X369217Y262342D01*
X369230Y262346D01*
X369243Y262348D01*
X369421Y262406D01*
X369602Y262462D01*
X369613Y262469D01*
X369626Y262473D01*
X369790Y262565D01*
X369955Y262655D01*
X369965Y262664D01*
X369977Y262671D01*
X370119Y262794D01*
X370263Y262915D01*
X370271Y262925D01*
X370282Y262934D01*
X370396Y263082D01*
X370514Y263229D01*
X370520Y263241D01*
X370528Y263252D01*
X370612Y263420D01*
X370698Y263588D01*
X370702Y263600D01*
X370708Y263612D01*
X370757Y263795D01*
X370808Y263975D01*
X370809Y263988D01*
X370812Y264001D01*
X370839Y264332D01*
X370839Y269068D01*
X370838Y269081D01*
X370839Y269095D01*
X370818Y269281D01*
X370799Y269469D01*
X370795Y269481D01*
X370794Y269495D01*
X370736Y269674D01*
X370681Y269854D01*
X370675Y269865D01*
X370671Y269878D01*
X370579Y270043D01*
X370489Y270208D01*
X370481Y270218D01*
X370474Y270230D01*
X370352Y270372D01*
X370232Y270517D01*
X370221Y270525D01*
X370213Y270535D01*
X370065Y270651D01*
X369918Y270769D01*
X369906Y270775D01*
X369896Y270784D01*
X369727Y270868D01*
X369561Y270955D01*
X369548Y270958D01*
X369536Y270964D01*
X369355Y271014D01*
X369174Y271066D01*
X369160Y271067D01*
X369147Y271071D01*
X368959Y271084D01*
X368772Y271099D01*
X368759Y271097D01*
X368746Y271098D01*
X368558Y271074D01*
X368373Y271052D01*
X368360Y271048D01*
X368347Y271046D01*
X368031Y270945D01*
X365140Y269747D01*
X346060Y269747D01*
X342512Y271217D01*
X339797Y273932D01*
X339735Y274081D01*
X339725Y274101D01*
X339718Y274122D01*
X339629Y274278D01*
X339545Y274436D01*
X339531Y274453D01*
X339520Y274473D01*
X339403Y274608D01*
X339288Y274747D01*
X339271Y274761D01*
X339257Y274778D01*
X339115Y274887D01*
X338976Y275000D01*
X338956Y275011D01*
X338938Y275024D01*
X338778Y275104D01*
X338619Y275187D01*
X338598Y275194D01*
X338578Y275204D01*
X338405Y275250D01*
X338233Y275300D01*
X338211Y275302D01*
X338189Y275308D01*
X337858Y275335D01*
X290366Y275335D01*
X290340Y275333D01*
X290313Y275335D01*
X290139Y275313D01*
X289966Y275295D01*
X289940Y275288D01*
X289914Y275284D01*
X289748Y275229D01*
X289581Y275177D01*
X289557Y275164D01*
X289532Y275156D01*
X289380Y275069D01*
X289227Y274985D01*
X289206Y274968D01*
X289183Y274955D01*
X288930Y274740D01*
X283556Y269366D01*
X275244Y269366D01*
X269366Y275244D01*
X269366Y283556D01*
X275244Y289434D01*
X283556Y289434D01*
X288930Y284060D01*
X288951Y284043D01*
X288968Y284022D01*
X289106Y283915D01*
X289242Y283805D01*
X289265Y283792D01*
X289286Y283776D01*
X289443Y283698D01*
X289597Y283616D01*
X289623Y283608D01*
X289647Y283596D01*
X289816Y283551D01*
X289983Y283501D01*
X290010Y283499D01*
X290036Y283492D01*
X290366Y283465D01*
X337858Y283465D01*
X337881Y283467D01*
X337903Y283465D01*
X338080Y283487D01*
X338259Y283505D01*
X338280Y283511D01*
X338303Y283514D01*
X338472Y283570D01*
X338644Y283623D01*
X338664Y283633D01*
X338685Y283640D01*
X338840Y283729D01*
X338998Y283815D01*
X339015Y283829D01*
X339034Y283840D01*
X339169Y283957D01*
X339307Y284072D01*
X339321Y284090D01*
X339338Y284104D01*
X339447Y284246D01*
X339560Y284386D01*
X339570Y284406D01*
X339583Y284424D01*
X339735Y284719D01*
X339797Y284868D01*
X342512Y287583D01*
X346060Y289053D01*
X365140Y289053D01*
X368031Y287855D01*
X368044Y287851D01*
X368055Y287845D01*
X368235Y287794D01*
X368416Y287739D01*
X368429Y287738D01*
X368442Y287734D01*
X368630Y287719D01*
X368817Y287701D01*
X368830Y287702D01*
X368844Y287701D01*
X369030Y287723D01*
X369217Y287742D01*
X369230Y287746D01*
X369243Y287748D01*
X369422Y287806D01*
X369602Y287862D01*
X369613Y287869D01*
X369626Y287873D01*
X369791Y287966D01*
X369955Y288056D01*
X369965Y288064D01*
X369977Y288071D01*
X370119Y288194D01*
X370263Y288315D01*
X370271Y288325D01*
X370282Y288334D01*
X370397Y288482D01*
X370514Y288630D01*
X370520Y288641D01*
X370528Y288652D01*
X370612Y288821D01*
X370698Y288988D01*
X370702Y289000D01*
X370708Y289013D01*
X370757Y289195D01*
X370808Y289375D01*
X370809Y289388D01*
X370812Y289401D01*
X370839Y289732D01*
X370839Y294468D01*
X370838Y294481D01*
X370839Y294495D01*
X370818Y294681D01*
X370799Y294869D01*
X370795Y294881D01*
X370794Y294895D01*
X370736Y295074D01*
X370681Y295254D01*
X370675Y295265D01*
X370671Y295278D01*
X370579Y295443D01*
X370489Y295608D01*
X370481Y295618D01*
X370474Y295630D01*
X370352Y295772D01*
X370232Y295917D01*
X370221Y295925D01*
X370213Y295935D01*
X370065Y296051D01*
X369918Y296169D01*
X369906Y296175D01*
X369896Y296184D01*
X369727Y296268D01*
X369561Y296355D01*
X369548Y296358D01*
X369536Y296364D01*
X369355Y296414D01*
X369174Y296466D01*
X369160Y296467D01*
X369147Y296471D01*
X368959Y296484D01*
X368772Y296499D01*
X368759Y296497D01*
X368746Y296498D01*
X368558Y296474D01*
X368373Y296452D01*
X368360Y296448D01*
X368347Y296446D01*
X368031Y296345D01*
X365140Y295147D01*
X346060Y295147D01*
X342512Y296617D01*
X339797Y299332D01*
X338327Y302880D01*
X338327Y306720D01*
X339797Y310268D01*
X342512Y312983D01*
X346060Y314453D01*
X365140Y314453D01*
X368031Y313255D01*
X368044Y313251D01*
X368055Y313245D01*
X368235Y313194D01*
X368416Y313139D01*
X368429Y313138D01*
X368442Y313134D01*
X368630Y313119D01*
X368817Y313101D01*
X368830Y313102D01*
X368844Y313101D01*
X369030Y313123D01*
X369217Y313142D01*
X369230Y313146D01*
X369243Y313148D01*
X369422Y313206D01*
X369602Y313262D01*
X369613Y313269D01*
X369626Y313273D01*
X369791Y313366D01*
X369955Y313456D01*
X369965Y313464D01*
X369977Y313471D01*
X370119Y313594D01*
X370263Y313715D01*
X370271Y313725D01*
X370282Y313734D01*
X370397Y313882D01*
X370514Y314030D01*
X370520Y314041D01*
X370528Y314052D01*
X370612Y314221D01*
X370698Y314388D01*
X370702Y314400D01*
X370708Y314413D01*
X370757Y314595D01*
X370808Y314775D01*
X370809Y314788D01*
X370812Y314801D01*
X370839Y315132D01*
X370839Y940990D01*
X370832Y941063D01*
X370834Y941136D01*
X370812Y941263D01*
X370799Y941391D01*
X370778Y941461D01*
X370765Y941533D01*
X370719Y941653D01*
X370681Y941776D01*
X370646Y941840D01*
X370620Y941908D01*
X370551Y942017D01*
X370489Y942130D01*
X370443Y942186D01*
X370403Y942248D01*
X370314Y942340D01*
X370232Y942439D01*
X370175Y942485D01*
X370124Y942538D01*
X370018Y942611D01*
X369918Y942691D01*
X369853Y942725D01*
X369793Y942767D01*
X369675Y942818D01*
X369561Y942877D01*
X369490Y942897D01*
X369423Y942926D01*
X369297Y942953D01*
X369174Y942988D01*
X369101Y942994D01*
X369029Y943009D01*
X368901Y943011D01*
X368772Y943021D01*
X368700Y943013D01*
X368626Y943013D01*
X368500Y942989D01*
X368373Y942974D01*
X368303Y942951D01*
X368231Y942938D01*
X368112Y942889D01*
X367990Y942849D01*
X367926Y942813D01*
X367858Y942786D01*
X367751Y942715D01*
X367639Y942651D01*
X367584Y942603D01*
X367523Y942563D01*
X367432Y942472D01*
X367335Y942388D01*
X367290Y942330D01*
X367238Y942279D01*
X367141Y942139D01*
X367088Y942070D01*
X367073Y942041D01*
X367049Y942006D01*
X363834Y936437D01*
X358963Y931566D01*
X352998Y928122D01*
X346344Y926339D01*
X339456Y926339D01*
X332802Y928122D01*
X326837Y931566D01*
X321966Y936437D01*
X318522Y942402D01*
X316739Y949056D01*
X316739Y955944D01*
X318522Y962598D01*
X321966Y968563D01*
X326837Y973434D01*
X332406Y976649D01*
X332465Y976692D01*
X332530Y976727D01*
X332628Y976809D01*
X332733Y976884D01*
X332783Y976937D01*
X332839Y976984D01*
X332919Y977084D01*
X333007Y977179D01*
X333045Y977241D01*
X333091Y977298D01*
X333150Y977412D01*
X333218Y977522D01*
X333243Y977590D01*
X333277Y977655D01*
X333312Y977779D01*
X333357Y977899D01*
X333368Y977972D01*
X333388Y978042D01*
X333399Y978171D01*
X333418Y978297D01*
X333415Y978370D01*
X333421Y978444D01*
X333406Y978571D01*
X333400Y978700D01*
X333383Y978771D01*
X333374Y978843D01*
X333334Y978966D01*
X333303Y979090D01*
X333272Y979156D01*
X333249Y979226D01*
X333186Y979338D01*
X333131Y979454D01*
X333087Y979513D01*
X333051Y979577D01*
X332968Y979674D01*
X332891Y979777D01*
X332836Y979826D01*
X332788Y979882D01*
X332687Y979960D01*
X332591Y980046D01*
X332528Y980083D01*
X332470Y980128D01*
X332355Y980186D01*
X332244Y980251D01*
X332175Y980275D01*
X332110Y980308D01*
X331985Y980341D01*
X331864Y980383D01*
X331792Y980393D01*
X331721Y980412D01*
X331551Y980426D01*
X331465Y980438D01*
X331432Y980436D01*
X331390Y980439D01*
X205079Y980439D01*
X205070Y980438D01*
X205061Y980439D01*
X204869Y980418D01*
X204678Y980399D01*
X204670Y980397D01*
X204661Y980396D01*
X204478Y980338D01*
X204293Y980281D01*
X204285Y980277D01*
X204277Y980274D01*
X204108Y980181D01*
X203939Y980089D01*
X203932Y980084D01*
X203925Y980079D01*
X203777Y979954D01*
X203630Y979832D01*
X203624Y979825D01*
X203618Y979819D01*
X203498Y979667D01*
X203378Y979518D01*
X203374Y979510D01*
X203368Y979503D01*
X203280Y979330D01*
X203192Y979161D01*
X203190Y979152D01*
X203186Y979144D01*
X203134Y978958D01*
X203081Y978774D01*
X203080Y978765D01*
X203078Y978756D01*
X203063Y978564D01*
X203048Y978372D01*
X203049Y978364D01*
X203048Y978355D01*
X203073Y978162D01*
X203095Y977973D01*
X203097Y977964D01*
X203099Y977955D01*
X203160Y977772D01*
X203220Y977590D01*
X203224Y977582D01*
X203227Y977574D01*
X203322Y977408D01*
X203417Y977239D01*
X203423Y977232D01*
X203428Y977225D01*
X203642Y976972D01*
X205487Y975127D01*
X205487Y967973D01*
X200427Y962913D01*
X193273Y962913D01*
X188213Y967973D01*
X188213Y975127D01*
X190058Y976972D01*
X190063Y976979D01*
X190070Y976984D01*
X190190Y977134D01*
X190313Y977283D01*
X190317Y977291D01*
X190322Y977298D01*
X190411Y977468D01*
X190501Y977639D01*
X190504Y977648D01*
X190508Y977655D01*
X190561Y977840D01*
X190616Y978025D01*
X190617Y978034D01*
X190619Y978042D01*
X190635Y978233D01*
X190652Y978426D01*
X190651Y978435D01*
X190652Y978444D01*
X190630Y978633D01*
X190609Y978826D01*
X190606Y978835D01*
X190605Y978843D01*
X190546Y979025D01*
X190488Y979210D01*
X190483Y979218D01*
X190480Y979226D01*
X190385Y979395D01*
X190293Y979562D01*
X190287Y979569D01*
X190283Y979577D01*
X190157Y979723D01*
X190032Y979869D01*
X190025Y979875D01*
X190019Y979882D01*
X189868Y979999D01*
X189716Y980119D01*
X189708Y980123D01*
X189701Y980128D01*
X189529Y980214D01*
X189357Y980301D01*
X189349Y980304D01*
X189341Y980308D01*
X189155Y980358D01*
X188969Y980409D01*
X188961Y980410D01*
X188952Y980412D01*
X188621Y980439D01*
X12192Y980439D01*
X12174Y980437D01*
X12156Y980439D01*
X11974Y980418D01*
X11791Y980399D01*
X11774Y980394D01*
X11757Y980392D01*
X11582Y980335D01*
X11406Y980281D01*
X11391Y980273D01*
X11374Y980267D01*
X11214Y980177D01*
X11052Y980089D01*
X11039Y980078D01*
X11023Y980069D01*
X10884Y979949D01*
X10743Y979832D01*
X10732Y979818D01*
X10718Y979806D01*
X10606Y979661D01*
X10491Y979518D01*
X10483Y979502D01*
X10472Y979488D01*
X10390Y979323D01*
X10305Y979161D01*
X10300Y979144D01*
X10292Y979128D01*
X10245Y978949D01*
X10194Y978774D01*
X10192Y978756D01*
X10188Y978739D01*
X10161Y978408D01*
X10161Y340496D01*
X10161Y340491D01*
X10161Y340487D01*
X10181Y340290D01*
X10201Y340095D01*
X10202Y340091D01*
X10202Y340086D01*
X10263Y339892D01*
X10319Y339710D01*
X10321Y339706D01*
X10322Y339702D01*
X10417Y339528D01*
X10511Y339356D01*
X10513Y339353D01*
X10516Y339349D01*
X10644Y339196D01*
X10768Y339047D01*
X10772Y339044D01*
X10775Y339041D01*
X10929Y338917D01*
X11082Y338795D01*
X11086Y338793D01*
X11090Y338790D01*
X11267Y338699D01*
X11439Y338609D01*
X11444Y338608D01*
X11448Y338606D01*
X11638Y338552D01*
X11826Y338498D01*
X11831Y338497D01*
X11835Y338496D01*
X12029Y338481D01*
X12228Y338465D01*
X12232Y338465D01*
X12237Y338465D01*
X12433Y338489D01*
X12627Y338512D01*
X12632Y338513D01*
X12636Y338514D01*
X12824Y338576D01*
X13010Y338637D01*
X13014Y338639D01*
X13018Y338640D01*
X13189Y338737D01*
X13361Y338834D01*
X13364Y338837D01*
X13368Y338840D01*
X13517Y338970D01*
X13665Y339098D01*
X13668Y339101D01*
X13672Y339104D01*
X13791Y339259D01*
X13912Y339416D01*
X13914Y339420D01*
X13917Y339423D01*
X14069Y339719D01*
X14121Y339844D01*
X15756Y341480D01*
X17893Y342365D01*
X20207Y342365D01*
X22344Y341480D01*
X23980Y339844D01*
X24865Y337707D01*
X24865Y337325D01*
X24867Y337298D01*
X24865Y337272D01*
X24887Y337098D01*
X24905Y336924D01*
X24912Y336899D01*
X24916Y336872D01*
X24972Y336706D01*
X25023Y336540D01*
X25036Y336516D01*
X25044Y336491D01*
X25131Y336339D01*
X25215Y336185D01*
X25232Y336165D01*
X25245Y336142D01*
X25460Y335889D01*
X32839Y328510D01*
X32859Y328493D01*
X32877Y328472D01*
X33015Y328365D01*
X33150Y328255D01*
X33174Y328242D01*
X33195Y328226D01*
X33352Y328148D01*
X33506Y328066D01*
X33531Y328058D01*
X33556Y328046D01*
X33725Y328001D01*
X33892Y327951D01*
X33918Y327949D01*
X33944Y327942D01*
X34275Y327915D01*
X242109Y327915D01*
X243602Y327296D01*
X248739Y322160D01*
X248759Y322143D01*
X248777Y322122D01*
X248915Y322015D01*
X249050Y321905D01*
X249074Y321892D01*
X249095Y321876D01*
X249252Y321798D01*
X249406Y321716D01*
X249431Y321708D01*
X249456Y321696D01*
X249625Y321651D01*
X249792Y321601D01*
X249818Y321599D01*
X249844Y321592D01*
X250175Y321565D01*
X311959Y321565D01*
X313452Y320946D01*
X321939Y312460D01*
X321959Y312443D01*
X321977Y312422D01*
X322115Y312315D01*
X322250Y312205D01*
X322274Y312192D01*
X322295Y312176D01*
X322452Y312098D01*
X322606Y312016D01*
X322631Y312008D01*
X322656Y311996D01*
X322825Y311951D01*
X322992Y311901D01*
X323018Y311899D01*
X323044Y311892D01*
X323375Y311865D01*
X325255Y311865D01*
X327852Y310789D01*
X329839Y308802D01*
X330915Y306205D01*
X330915Y303395D01*
X329839Y300798D01*
X327852Y298811D01*
X325255Y297735D01*
X322445Y297735D01*
X319848Y298811D01*
X317861Y300798D01*
X316785Y303395D01*
X316785Y305275D01*
X316783Y305302D01*
X316785Y305328D01*
X316763Y305502D01*
X316745Y305676D01*
X316738Y305701D01*
X316734Y305728D01*
X316679Y305893D01*
X316627Y306060D01*
X316614Y306084D01*
X316606Y306109D01*
X316519Y306261D01*
X316435Y306415D01*
X316418Y306435D01*
X316405Y306458D01*
X316190Y306711D01*
X310061Y312840D01*
X310041Y312857D01*
X310023Y312878D01*
X309885Y312985D01*
X309750Y313095D01*
X309726Y313108D01*
X309705Y313124D01*
X309548Y313202D01*
X309394Y313284D01*
X309369Y313292D01*
X309344Y313304D01*
X309175Y313349D01*
X309008Y313399D01*
X308982Y313401D01*
X308956Y313408D01*
X308625Y313435D01*
X246841Y313435D01*
X245348Y314054D01*
X240211Y319190D01*
X240191Y319207D01*
X240173Y319228D01*
X240035Y319335D01*
X239900Y319445D01*
X239876Y319458D01*
X239855Y319474D01*
X239698Y319552D01*
X239544Y319634D01*
X239519Y319642D01*
X239494Y319654D01*
X239325Y319699D01*
X239158Y319749D01*
X239132Y319751D01*
X239106Y319758D01*
X238775Y319785D01*
X95160Y319785D01*
X95151Y319784D01*
X95142Y319785D01*
X94951Y319765D01*
X94759Y319745D01*
X94750Y319743D01*
X94742Y319742D01*
X94558Y319684D01*
X94374Y319627D01*
X94366Y319623D01*
X94358Y319620D01*
X94189Y319527D01*
X94020Y319435D01*
X94013Y319430D01*
X94005Y319425D01*
X93858Y319300D01*
X93711Y319178D01*
X93705Y319171D01*
X93698Y319165D01*
X93579Y319014D01*
X93458Y318864D01*
X93454Y318856D01*
X93449Y318849D01*
X93361Y318676D01*
X93273Y318507D01*
X93271Y318498D01*
X93266Y318490D01*
X93214Y318303D01*
X93162Y318120D01*
X93161Y318111D01*
X93158Y318102D01*
X93144Y317910D01*
X93129Y317718D01*
X93130Y317710D01*
X93129Y317701D01*
X93154Y317506D01*
X93176Y317319D01*
X93178Y317310D01*
X93179Y317301D01*
X93241Y317119D01*
X93300Y316936D01*
X93305Y316928D01*
X93308Y316920D01*
X93404Y316752D01*
X93498Y316585D01*
X93504Y316578D01*
X93509Y316571D01*
X93723Y316318D01*
X94231Y315810D01*
X94252Y315793D01*
X94270Y315772D01*
X94408Y315665D01*
X94543Y315555D01*
X94567Y315542D01*
X94588Y315526D01*
X94744Y315448D01*
X94899Y315366D01*
X94924Y315358D01*
X94948Y315346D01*
X95118Y315301D01*
X95285Y315251D01*
X95311Y315249D01*
X95337Y315242D01*
X95668Y315215D01*
X235759Y315215D01*
X237252Y314596D01*
X257446Y294402D01*
X258065Y292909D01*
X258065Y289934D01*
X258067Y289912D01*
X258065Y289890D01*
X258087Y289712D01*
X258105Y289533D01*
X258111Y289512D01*
X258114Y289490D01*
X258170Y289319D01*
X258223Y289148D01*
X258233Y289129D01*
X258240Y289108D01*
X258329Y288952D01*
X258415Y288794D01*
X258429Y288777D01*
X258440Y288758D01*
X258558Y288623D01*
X258672Y288485D01*
X258690Y288471D01*
X258704Y288454D01*
X258846Y288345D01*
X258986Y288233D01*
X259006Y288223D01*
X259023Y288209D01*
X259319Y288057D01*
X259684Y287906D01*
X262506Y285084D01*
X264034Y281396D01*
X264034Y277404D01*
X262506Y273716D01*
X259684Y270894D01*
X255996Y269366D01*
X252004Y269366D01*
X248316Y270894D01*
X245494Y273716D01*
X243966Y277404D01*
X243966Y281396D01*
X245494Y285084D01*
X248316Y287906D01*
X248427Y287952D01*
X248439Y287958D01*
X248452Y287963D01*
X248616Y288053D01*
X248782Y288142D01*
X248793Y288151D01*
X248804Y288157D01*
X248947Y288279D01*
X249093Y288399D01*
X249101Y288409D01*
X249111Y288418D01*
X249228Y288565D01*
X249346Y288711D01*
X249353Y288723D01*
X249361Y288734D01*
X249446Y288901D01*
X249533Y289068D01*
X249537Y289081D01*
X249543Y289093D01*
X249594Y289275D01*
X249647Y289454D01*
X249648Y289468D01*
X249651Y289481D01*
X249665Y289670D01*
X249681Y289855D01*
X249680Y289869D01*
X249681Y289882D01*
X249657Y290070D01*
X249636Y290255D01*
X249632Y290268D01*
X249630Y290282D01*
X249571Y290459D01*
X249513Y290639D01*
X249506Y290651D01*
X249502Y290663D01*
X249408Y290826D01*
X249317Y290990D01*
X249308Y291000D01*
X249301Y291012D01*
X249086Y291265D01*
X233861Y306490D01*
X233841Y306507D01*
X233823Y306528D01*
X233685Y306635D01*
X233550Y306745D01*
X233526Y306758D01*
X233505Y306774D01*
X233348Y306852D01*
X233194Y306934D01*
X233169Y306942D01*
X233144Y306954D01*
X232975Y306999D01*
X232808Y307049D01*
X232782Y307051D01*
X232756Y307058D01*
X232425Y307085D01*
X95668Y307085D01*
X95641Y307083D01*
X95614Y307085D01*
X95440Y307063D01*
X95267Y307045D01*
X95242Y307038D01*
X95215Y307034D01*
X95049Y306979D01*
X94882Y306927D01*
X94859Y306914D01*
X94833Y306906D01*
X94682Y306819D01*
X94528Y306735D01*
X94508Y306718D01*
X94484Y306705D01*
X94231Y306490D01*
X92902Y305161D01*
X90305Y304085D01*
X87495Y304085D01*
X84898Y305161D01*
X82911Y307148D01*
X81835Y309745D01*
X81835Y312555D01*
X82911Y315152D01*
X84077Y316318D01*
X84082Y316325D01*
X84089Y316330D01*
X84210Y316481D01*
X84332Y316629D01*
X84336Y316637D01*
X84342Y316644D01*
X84430Y316814D01*
X84520Y316985D01*
X84523Y316994D01*
X84527Y317001D01*
X84580Y317186D01*
X84635Y317371D01*
X84636Y317380D01*
X84638Y317388D01*
X84654Y317579D01*
X84672Y317772D01*
X84671Y317781D01*
X84671Y317790D01*
X84649Y317979D01*
X84628Y318172D01*
X84625Y318181D01*
X84624Y318189D01*
X84565Y318371D01*
X84507Y318556D01*
X84502Y318564D01*
X84500Y318572D01*
X84405Y318739D01*
X84312Y318908D01*
X84306Y318915D01*
X84302Y318923D01*
X84177Y319068D01*
X84051Y319215D01*
X84044Y319221D01*
X84039Y319228D01*
X83888Y319344D01*
X83735Y319465D01*
X83727Y319469D01*
X83720Y319474D01*
X83550Y319559D01*
X83377Y319647D01*
X83368Y319650D01*
X83360Y319654D01*
X83174Y319703D01*
X82989Y319755D01*
X82980Y319756D01*
X82971Y319758D01*
X82640Y319785D01*
X30941Y319785D01*
X29448Y320404D01*
X19711Y330140D01*
X19691Y330157D01*
X19673Y330178D01*
X19535Y330285D01*
X19400Y330395D01*
X19376Y330408D01*
X19355Y330424D01*
X19198Y330502D01*
X19044Y330584D01*
X19019Y330592D01*
X18994Y330604D01*
X18825Y330649D01*
X18658Y330699D01*
X18632Y330701D01*
X18606Y330708D01*
X18275Y330735D01*
X17893Y330735D01*
X15756Y331620D01*
X14121Y333256D01*
X14069Y333381D01*
X14067Y333385D01*
X14065Y333390D01*
X13973Y333560D01*
X13879Y333736D01*
X13876Y333740D01*
X13873Y333744D01*
X13749Y333893D01*
X13622Y334047D01*
X13619Y334050D01*
X13616Y334053D01*
X13463Y334176D01*
X13309Y334300D01*
X13305Y334303D01*
X13302Y334305D01*
X13129Y334395D01*
X12953Y334488D01*
X12949Y334489D01*
X12945Y334491D01*
X12756Y334545D01*
X12567Y334601D01*
X12562Y334601D01*
X12558Y334602D01*
X12359Y334619D01*
X12165Y334635D01*
X12161Y334635D01*
X12156Y334635D01*
X11959Y334612D01*
X11765Y334590D01*
X11761Y334589D01*
X11757Y334588D01*
X11568Y334527D01*
X11382Y334467D01*
X11378Y334465D01*
X11374Y334463D01*
X11200Y334366D01*
X11031Y334271D01*
X11027Y334268D01*
X11023Y334266D01*
X10874Y334137D01*
X10725Y334009D01*
X10722Y334005D01*
X10718Y334002D01*
X10600Y333849D01*
X10476Y333692D01*
X10474Y333688D01*
X10472Y333684D01*
X10385Y333511D01*
X10296Y333332D01*
X10294Y333328D01*
X10292Y333324D01*
X10241Y333132D01*
X10189Y332944D01*
X10189Y332939D01*
X10188Y332935D01*
X10161Y332604D01*
X10161Y315636D01*
X10170Y315543D01*
X10169Y315450D01*
X10190Y315343D01*
X10201Y315236D01*
X10228Y315146D01*
X10246Y315055D01*
X10287Y314954D01*
X10319Y314851D01*
X10363Y314769D01*
X10399Y314682D01*
X10459Y314592D01*
X10511Y314497D01*
X10570Y314425D01*
X10622Y314347D01*
X10699Y314271D01*
X10768Y314187D01*
X10841Y314129D01*
X10907Y314063D01*
X10998Y314003D01*
X11082Y313935D01*
X11165Y313892D01*
X11242Y313840D01*
X11343Y313799D01*
X11439Y313749D01*
X11529Y313724D01*
X11615Y313688D01*
X11722Y313668D01*
X11826Y313638D01*
X11919Y313630D01*
X12011Y313613D01*
X12119Y313614D01*
X12228Y313605D01*
X12320Y313616D01*
X12413Y313617D01*
X12520Y313639D01*
X12627Y313652D01*
X12716Y313681D01*
X12807Y313700D01*
X12931Y313751D01*
X13010Y313777D01*
X13053Y313801D01*
X13114Y313826D01*
X13880Y314216D01*
X15401Y314711D01*
X16980Y314961D01*
X22861Y314961D01*
X22861Y305308D01*
X22862Y305290D01*
X22861Y305273D01*
X22882Y305090D01*
X22901Y304908D01*
X22906Y304891D01*
X22908Y304873D01*
X22933Y304795D01*
X22894Y304658D01*
X22892Y304640D01*
X22888Y304623D01*
X22861Y304292D01*
X22861Y294639D01*
X16980Y294639D01*
X15401Y294889D01*
X13880Y295384D01*
X13114Y295774D01*
X13027Y295808D01*
X12945Y295851D01*
X12840Y295881D01*
X12739Y295920D01*
X12647Y295936D01*
X12558Y295962D01*
X12449Y295971D01*
X12343Y295990D01*
X12249Y295987D01*
X12156Y295995D01*
X12049Y295982D01*
X11940Y295979D01*
X11849Y295959D01*
X11757Y295948D01*
X11653Y295914D01*
X11547Y295890D01*
X11462Y295852D01*
X11374Y295823D01*
X11279Y295770D01*
X11180Y295725D01*
X11104Y295671D01*
X11023Y295625D01*
X10941Y295554D01*
X10853Y295491D01*
X10789Y295423D01*
X10718Y295362D01*
X10652Y295276D01*
X10578Y295197D01*
X10529Y295117D01*
X10472Y295044D01*
X10423Y294947D01*
X10366Y294854D01*
X10334Y294767D01*
X10292Y294683D01*
X10264Y294578D01*
X10227Y294477D01*
X10212Y294385D01*
X10188Y294295D01*
X10177Y294161D01*
X10164Y294079D01*
X10166Y294029D01*
X10161Y293964D01*
X10161Y289732D01*
X10162Y289719D01*
X10161Y289705D01*
X10182Y289519D01*
X10201Y289331D01*
X10205Y289319D01*
X10206Y289305D01*
X10264Y289126D01*
X10319Y288946D01*
X10325Y288935D01*
X10329Y288922D01*
X10421Y288757D01*
X10511Y288592D01*
X10519Y288582D01*
X10526Y288570D01*
X10648Y288428D01*
X10768Y288283D01*
X10779Y288275D01*
X10787Y288265D01*
X10935Y288149D01*
X11082Y288031D01*
X11094Y288025D01*
X11104Y288016D01*
X11273Y287932D01*
X11439Y287845D01*
X11452Y287842D01*
X11464Y287836D01*
X11645Y287786D01*
X11826Y287734D01*
X11840Y287733D01*
X11853Y287729D01*
X12041Y287716D01*
X12228Y287701D01*
X12241Y287703D01*
X12254Y287702D01*
X12442Y287726D01*
X12627Y287748D01*
X12640Y287752D01*
X12653Y287754D01*
X12969Y287855D01*
X15860Y289053D01*
X34940Y289053D01*
X38488Y287583D01*
X41203Y284868D01*
X42673Y281320D01*
X42673Y277480D01*
X42239Y276433D01*
X42233Y276411D01*
X42222Y276392D01*
X42174Y276218D01*
X42123Y276047D01*
X42120Y276025D01*
X42114Y276004D01*
X42101Y275824D01*
X42084Y275647D01*
X42087Y275625D01*
X42085Y275602D01*
X42108Y275424D01*
X42126Y275246D01*
X42133Y275225D01*
X42135Y275203D01*
X42192Y275033D01*
X42246Y274862D01*
X42257Y274842D01*
X42264Y274821D01*
X42353Y274666D01*
X42439Y274509D01*
X42453Y274492D01*
X42465Y274472D01*
X42679Y274219D01*
X96339Y220560D01*
X96359Y220543D01*
X96377Y220522D01*
X96515Y220415D01*
X96650Y220305D01*
X96674Y220292D01*
X96695Y220276D01*
X96852Y220198D01*
X97006Y220116D01*
X97031Y220108D01*
X97056Y220096D01*
X97225Y220051D01*
X97392Y220001D01*
X97418Y219999D01*
X97444Y219992D01*
X97775Y219965D01*
X183732Y219965D01*
X183759Y219967D01*
X183786Y219965D01*
X183960Y219987D01*
X184133Y220005D01*
X184158Y220012D01*
X184185Y220016D01*
X184351Y220071D01*
X184518Y220123D01*
X184541Y220136D01*
X184567Y220144D01*
X184718Y220231D01*
X184872Y220315D01*
X184892Y220332D01*
X184916Y220345D01*
X185169Y220560D01*
X186498Y221889D01*
X189095Y222965D01*
X191905Y222965D01*
X194502Y221889D01*
X196489Y219902D01*
X197565Y217305D01*
X197565Y214495D01*
X196489Y211898D01*
X194502Y209911D01*
X191905Y208835D01*
X189095Y208835D01*
X186498Y209911D01*
X185169Y211240D01*
X185148Y211257D01*
X185130Y211278D01*
X184993Y211385D01*
X184857Y211495D01*
X184833Y211508D01*
X184812Y211524D01*
X184655Y211602D01*
X184501Y211684D01*
X184476Y211692D01*
X184452Y211704D01*
X184282Y211749D01*
X184116Y211799D01*
X184089Y211801D01*
X184063Y211808D01*
X183732Y211835D01*
X182292Y211835D01*
X182283Y211834D01*
X182274Y211835D01*
X182082Y211814D01*
X181891Y211795D01*
X181883Y211793D01*
X181874Y211792D01*
X181692Y211734D01*
X181506Y211677D01*
X181498Y211673D01*
X181490Y211670D01*
X181322Y211577D01*
X181152Y211485D01*
X181145Y211480D01*
X181138Y211475D01*
X180990Y211350D01*
X180843Y211228D01*
X180837Y211221D01*
X180831Y211215D01*
X180711Y211063D01*
X180591Y210914D01*
X180587Y210906D01*
X180581Y210899D01*
X180494Y210727D01*
X180405Y210557D01*
X180403Y210548D01*
X180399Y210540D01*
X180347Y210354D01*
X180294Y210170D01*
X180293Y210161D01*
X180291Y210152D01*
X180277Y209960D01*
X180261Y209768D01*
X180262Y209760D01*
X180261Y209751D01*
X180286Y209558D01*
X180308Y209369D01*
X180311Y209360D01*
X180312Y209351D01*
X180373Y209168D01*
X180433Y208986D01*
X180437Y208978D01*
X180440Y208970D01*
X180535Y208804D01*
X180631Y208635D01*
X180636Y208628D01*
X180641Y208621D01*
X180856Y208368D01*
X182730Y206494D01*
X183615Y204357D01*
X183615Y202043D01*
X182730Y199906D01*
X181094Y198270D01*
X178957Y197385D01*
X176643Y197385D01*
X175245Y197965D01*
X175215Y197974D01*
X175187Y197988D01*
X175022Y198032D01*
X174859Y198081D01*
X174828Y198084D01*
X174798Y198092D01*
X174467Y198119D01*
X42432Y198119D01*
X42405Y198117D01*
X42378Y198119D01*
X42204Y198097D01*
X42031Y198079D01*
X42006Y198072D01*
X41979Y198068D01*
X41813Y198012D01*
X41646Y197961D01*
X41623Y197948D01*
X41597Y197940D01*
X41446Y197853D01*
X41292Y197769D01*
X41272Y197752D01*
X41248Y197739D01*
X40995Y197524D01*
X38488Y195017D01*
X38077Y194846D01*
X34940Y193547D01*
X15860Y193547D01*
X12969Y194745D01*
X12956Y194749D01*
X12945Y194755D01*
X12765Y194806D01*
X12584Y194861D01*
X12571Y194862D01*
X12558Y194866D01*
X12370Y194881D01*
X12183Y194899D01*
X12170Y194898D01*
X12156Y194899D01*
X11970Y194877D01*
X11783Y194858D01*
X11770Y194854D01*
X11757Y194852D01*
X11578Y194794D01*
X11398Y194738D01*
X11387Y194731D01*
X11374Y194727D01*
X11209Y194634D01*
X11045Y194544D01*
X11035Y194536D01*
X11023Y194529D01*
X10881Y194406D01*
X10737Y194285D01*
X10729Y194275D01*
X10718Y194266D01*
X10603Y194118D01*
X10486Y193970D01*
X10480Y193959D01*
X10472Y193948D01*
X10388Y193779D01*
X10302Y193612D01*
X10298Y193600D01*
X10292Y193587D01*
X10243Y193405D01*
X10192Y193225D01*
X10191Y193212D01*
X10188Y193199D01*
X10161Y192868D01*
X10161Y188132D01*
X10162Y188119D01*
X10161Y188105D01*
X10182Y187919D01*
X10201Y187731D01*
X10205Y187719D01*
X10206Y187705D01*
X10264Y187526D01*
X10319Y187346D01*
X10325Y187335D01*
X10329Y187322D01*
X10421Y187157D01*
X10511Y186992D01*
X10519Y186982D01*
X10526Y186970D01*
X10648Y186828D01*
X10768Y186683D01*
X10779Y186675D01*
X10787Y186665D01*
X10935Y186549D01*
X11082Y186431D01*
X11094Y186425D01*
X11104Y186416D01*
X11273Y186332D01*
X11439Y186245D01*
X11452Y186242D01*
X11464Y186236D01*
X11645Y186186D01*
X11826Y186134D01*
X11840Y186133D01*
X11853Y186129D01*
X12041Y186116D01*
X12228Y186101D01*
X12241Y186103D01*
X12254Y186102D01*
X12442Y186126D01*
X12627Y186148D01*
X12640Y186152D01*
X12653Y186154D01*
X12969Y186255D01*
X15860Y187453D01*
X34940Y187453D01*
X38488Y185983D01*
X40995Y183476D01*
X41016Y183459D01*
X41034Y183438D01*
X41171Y183331D01*
X41307Y183221D01*
X41330Y183208D01*
X41352Y183192D01*
X41508Y183114D01*
X41663Y183032D01*
X41688Y183024D01*
X41712Y183012D01*
X41881Y182967D01*
X42048Y182917D01*
X42075Y182915D01*
X42101Y182908D01*
X42432Y182881D01*
X197380Y182881D01*
X197407Y182883D01*
X197434Y182881D01*
X197608Y182903D01*
X197781Y182921D01*
X197807Y182928D01*
X197833Y182932D01*
X197999Y182987D01*
X198166Y183039D01*
X198190Y183052D01*
X198215Y183060D01*
X198367Y183147D01*
X198520Y183231D01*
X198540Y183248D01*
X198564Y183261D01*
X198817Y183476D01*
X199171Y183830D01*
X201785Y184913D01*
X204615Y184913D01*
X207229Y183830D01*
X209230Y181829D01*
X210313Y179215D01*
X210313Y176385D01*
X209230Y173771D01*
X207229Y171770D01*
X204615Y170687D01*
X201785Y170687D01*
X199171Y171770D01*
X198817Y172124D01*
X198796Y172141D01*
X198779Y172162D01*
X198641Y172269D01*
X198505Y172379D01*
X198482Y172392D01*
X198460Y172408D01*
X198304Y172486D01*
X198150Y172568D01*
X198124Y172576D01*
X198100Y172588D01*
X197931Y172633D01*
X197764Y172683D01*
X197737Y172685D01*
X197711Y172692D01*
X197380Y172719D01*
X42432Y172719D01*
X42405Y172717D01*
X42378Y172719D01*
X42204Y172697D01*
X42031Y172679D01*
X42006Y172672D01*
X41979Y172668D01*
X41813Y172612D01*
X41646Y172561D01*
X41623Y172548D01*
X41597Y172540D01*
X41446Y172453D01*
X41292Y172369D01*
X41272Y172352D01*
X41248Y172339D01*
X40995Y172124D01*
X38488Y169617D01*
X34940Y168147D01*
X15860Y168147D01*
X12969Y169345D01*
X12956Y169349D01*
X12945Y169355D01*
X12765Y169406D01*
X12584Y169461D01*
X12571Y169462D01*
X12558Y169466D01*
X12370Y169481D01*
X12183Y169499D01*
X12170Y169498D01*
X12156Y169499D01*
X11970Y169477D01*
X11783Y169458D01*
X11770Y169454D01*
X11757Y169452D01*
X11578Y169394D01*
X11398Y169338D01*
X11387Y169331D01*
X11374Y169327D01*
X11209Y169234D01*
X11045Y169144D01*
X11035Y169136D01*
X11023Y169129D01*
X10881Y169006D01*
X10737Y168885D01*
X10729Y168875D01*
X10718Y168866D01*
X10603Y168718D01*
X10486Y168570D01*
X10480Y168559D01*
X10472Y168548D01*
X10388Y168379D01*
X10302Y168212D01*
X10298Y168200D01*
X10292Y168187D01*
X10243Y168005D01*
X10192Y167825D01*
X10191Y167812D01*
X10188Y167799D01*
X10161Y167468D01*
X10161Y12192D01*
X10163Y12174D01*
X10161Y12156D01*
X10182Y11974D01*
X10201Y11791D01*
X10206Y11774D01*
X10208Y11757D01*
X10265Y11582D01*
X10319Y11406D01*
X10327Y11391D01*
X10333Y11374D01*
X10423Y11214D01*
X10511Y11052D01*
X10522Y11039D01*
X10531Y11023D01*
X10651Y10884D01*
X10768Y10743D01*
X10782Y10732D01*
X10794Y10718D01*
X10939Y10606D01*
X11082Y10491D01*
X11098Y10483D01*
X11112Y10472D01*
X11277Y10390D01*
X11439Y10305D01*
X11456Y10300D01*
X11472Y10292D01*
X11651Y10245D01*
X11826Y10194D01*
X11844Y10192D01*
X11861Y10188D01*
X12192Y10161D01*
X368808Y10161D01*
X368826Y10163D01*
G37*
%LPC*%
G36*
X98023Y632713D02*
X98023Y632713D01*
X92963Y637773D01*
X92963Y644927D01*
X98296Y650261D01*
X98437Y650337D01*
X98457Y650354D01*
X98480Y650367D01*
X98733Y650582D01*
X137450Y689299D01*
X137551Y689353D01*
X137572Y689370D01*
X137595Y689383D01*
X137727Y689498D01*
X137862Y689609D01*
X137879Y689630D01*
X137899Y689648D01*
X138005Y689786D01*
X138115Y689922D01*
X138128Y689946D01*
X138144Y689967D01*
X138296Y690262D01*
X138474Y690692D01*
X138750Y690968D01*
X138755Y690975D01*
X138762Y690980D01*
X138883Y691130D01*
X139005Y691279D01*
X139009Y691287D01*
X139014Y691294D01*
X139103Y691464D01*
X139193Y691635D01*
X139196Y691644D01*
X139200Y691651D01*
X139253Y691835D01*
X139308Y692021D01*
X139309Y692030D01*
X139311Y692038D01*
X139327Y692229D01*
X139344Y692422D01*
X139343Y692431D01*
X139344Y692440D01*
X139322Y692629D01*
X139301Y692822D01*
X139298Y692831D01*
X139297Y692839D01*
X139238Y693021D01*
X139180Y693206D01*
X139175Y693214D01*
X139172Y693222D01*
X139077Y693391D01*
X138985Y693558D01*
X138979Y693565D01*
X138975Y693573D01*
X138849Y693718D01*
X138724Y693865D01*
X138717Y693871D01*
X138711Y693878D01*
X138560Y693995D01*
X138408Y694115D01*
X138400Y694119D01*
X138393Y694124D01*
X138221Y694210D01*
X138049Y694297D01*
X138041Y694300D01*
X138033Y694304D01*
X137845Y694354D01*
X137662Y694405D01*
X137653Y694406D01*
X137644Y694408D01*
X137313Y694435D01*
X135875Y694435D01*
X135848Y694433D01*
X135822Y694435D01*
X135648Y694413D01*
X135474Y694395D01*
X135449Y694388D01*
X135422Y694384D01*
X135257Y694329D01*
X135090Y694277D01*
X135066Y694264D01*
X135041Y694256D01*
X134889Y694169D01*
X134735Y694085D01*
X134715Y694068D01*
X134692Y694055D01*
X134439Y693840D01*
X122952Y682354D01*
X121459Y681735D01*
X62691Y681735D01*
X61198Y682354D01*
X54283Y689268D01*
X54263Y689285D01*
X54245Y689306D01*
X54107Y689413D01*
X53972Y689523D01*
X53948Y689536D01*
X53927Y689552D01*
X53770Y689630D01*
X53616Y689712D01*
X53591Y689720D01*
X53566Y689732D01*
X53397Y689777D01*
X53230Y689827D01*
X53204Y689829D01*
X53178Y689836D01*
X52847Y689863D01*
X47223Y689863D01*
X42163Y694923D01*
X42163Y702077D01*
X47223Y707137D01*
X54377Y707137D01*
X59437Y702077D01*
X59437Y696453D01*
X59439Y696426D01*
X59437Y696400D01*
X59459Y696226D01*
X59477Y696052D01*
X59484Y696027D01*
X59488Y696000D01*
X59543Y695835D01*
X59595Y695668D01*
X59608Y695644D01*
X59616Y695619D01*
X59703Y695467D01*
X59787Y695313D01*
X59804Y695293D01*
X59817Y695270D01*
X60032Y695017D01*
X64589Y690460D01*
X64609Y690443D01*
X64627Y690422D01*
X64765Y690315D01*
X64900Y690205D01*
X64924Y690192D01*
X64945Y690176D01*
X65102Y690098D01*
X65256Y690016D01*
X65281Y690008D01*
X65306Y689996D01*
X65475Y689951D01*
X65642Y689901D01*
X65668Y689899D01*
X65694Y689892D01*
X66025Y689865D01*
X93117Y689865D01*
X93126Y689866D01*
X93135Y689865D01*
X93327Y689886D01*
X93518Y689905D01*
X93526Y689907D01*
X93535Y689908D01*
X93718Y689966D01*
X93903Y690023D01*
X93911Y690027D01*
X93919Y690030D01*
X94088Y690123D01*
X94257Y690215D01*
X94264Y690220D01*
X94271Y690225D01*
X94419Y690350D01*
X94566Y690472D01*
X94572Y690479D01*
X94578Y690485D01*
X94698Y690637D01*
X94818Y690786D01*
X94822Y690794D01*
X94828Y690801D01*
X94915Y690973D01*
X95004Y691143D01*
X95006Y691152D01*
X95010Y691160D01*
X95062Y691346D01*
X95115Y691530D01*
X95116Y691539D01*
X95118Y691548D01*
X95133Y691740D01*
X95148Y691932D01*
X95147Y691940D01*
X95148Y691949D01*
X95123Y692142D01*
X95101Y692331D01*
X95099Y692340D01*
X95097Y692349D01*
X95036Y692532D01*
X94976Y692714D01*
X94972Y692722D01*
X94969Y692730D01*
X94874Y692896D01*
X94779Y693065D01*
X94773Y693072D01*
X94768Y693079D01*
X94554Y693332D01*
X92963Y694923D01*
X92963Y702077D01*
X98023Y707137D01*
X105177Y707137D01*
X110237Y702077D01*
X110237Y694923D01*
X108646Y693332D01*
X108641Y693325D01*
X108634Y693320D01*
X108514Y693170D01*
X108391Y693021D01*
X108387Y693013D01*
X108382Y693006D01*
X108293Y692836D01*
X108203Y692665D01*
X108200Y692656D01*
X108196Y692649D01*
X108143Y692464D01*
X108088Y692279D01*
X108087Y692270D01*
X108085Y692262D01*
X108069Y692071D01*
X108052Y691878D01*
X108053Y691869D01*
X108052Y691860D01*
X108074Y691671D01*
X108095Y691478D01*
X108098Y691469D01*
X108099Y691461D01*
X108158Y691279D01*
X108216Y691094D01*
X108221Y691086D01*
X108224Y691078D01*
X108319Y690909D01*
X108411Y690742D01*
X108417Y690735D01*
X108421Y690727D01*
X108547Y690581D01*
X108672Y690435D01*
X108679Y690429D01*
X108685Y690422D01*
X108836Y690305D01*
X108988Y690185D01*
X108996Y690181D01*
X109003Y690176D01*
X109175Y690090D01*
X109347Y690003D01*
X109355Y690000D01*
X109363Y689996D01*
X109549Y689946D01*
X109735Y689895D01*
X109743Y689894D01*
X109752Y689892D01*
X110083Y689865D01*
X118125Y689865D01*
X118152Y689867D01*
X118178Y689865D01*
X118352Y689887D01*
X118526Y689905D01*
X118551Y689912D01*
X118578Y689916D01*
X118743Y689971D01*
X118910Y690023D01*
X118934Y690036D01*
X118959Y690044D01*
X119111Y690131D01*
X119265Y690215D01*
X119285Y690232D01*
X119308Y690245D01*
X119561Y690460D01*
X131048Y701946D01*
X132541Y702565D01*
X137313Y702565D01*
X137322Y702566D01*
X137331Y702565D01*
X137522Y702585D01*
X137714Y702605D01*
X137722Y702607D01*
X137731Y702608D01*
X137915Y702666D01*
X138099Y702723D01*
X138107Y702727D01*
X138115Y702730D01*
X138284Y702823D01*
X138453Y702915D01*
X138460Y702920D01*
X138468Y702925D01*
X138614Y703049D01*
X138762Y703172D01*
X138768Y703179D01*
X138774Y703185D01*
X138894Y703336D01*
X139014Y703486D01*
X139018Y703494D01*
X139024Y703501D01*
X139112Y703674D01*
X139200Y703843D01*
X139202Y703852D01*
X139206Y703860D01*
X139258Y704047D01*
X139311Y704230D01*
X139312Y704239D01*
X139314Y704248D01*
X139328Y704440D01*
X139344Y704632D01*
X139343Y704640D01*
X139344Y704649D01*
X139320Y704841D01*
X139297Y705031D01*
X139294Y705040D01*
X139293Y705049D01*
X139232Y705231D01*
X139172Y705414D01*
X139168Y705422D01*
X139165Y705430D01*
X139069Y705598D01*
X138975Y705765D01*
X138969Y705772D01*
X138964Y705779D01*
X138750Y706032D01*
X138474Y706308D01*
X137159Y709482D01*
X137159Y712918D01*
X138474Y716092D01*
X140904Y718522D01*
X142601Y719225D01*
X144078Y719837D01*
X160722Y719837D01*
X163896Y718522D01*
X166326Y716092D01*
X167641Y712918D01*
X167641Y709482D01*
X166326Y706308D01*
X166050Y706032D01*
X166045Y706025D01*
X166038Y706020D01*
X165917Y705870D01*
X165795Y705721D01*
X165791Y705713D01*
X165786Y705706D01*
X165697Y705536D01*
X165607Y705365D01*
X165604Y705356D01*
X165600Y705349D01*
X165547Y705165D01*
X165492Y704979D01*
X165491Y704970D01*
X165489Y704962D01*
X165473Y704771D01*
X165456Y704578D01*
X165457Y704569D01*
X165456Y704560D01*
X165478Y704370D01*
X165499Y704178D01*
X165502Y704169D01*
X165503Y704161D01*
X165562Y703978D01*
X165620Y703794D01*
X165625Y703786D01*
X165628Y703778D01*
X165723Y703609D01*
X165815Y703442D01*
X165821Y703435D01*
X165825Y703427D01*
X165951Y703282D01*
X166076Y703135D01*
X166083Y703129D01*
X166089Y703122D01*
X166240Y703005D01*
X166392Y702885D01*
X166400Y702881D01*
X166407Y702876D01*
X166579Y702790D01*
X166751Y702703D01*
X166759Y702700D01*
X166767Y702696D01*
X166955Y702646D01*
X167138Y702595D01*
X167147Y702594D01*
X167156Y702592D01*
X167487Y702565D01*
X213513Y702565D01*
X213522Y702566D01*
X213531Y702565D01*
X213722Y702585D01*
X213914Y702605D01*
X213922Y702607D01*
X213931Y702608D01*
X214115Y702666D01*
X214299Y702723D01*
X214307Y702727D01*
X214315Y702730D01*
X214484Y702823D01*
X214653Y702915D01*
X214660Y702920D01*
X214668Y702925D01*
X214814Y703049D01*
X214962Y703172D01*
X214968Y703179D01*
X214974Y703185D01*
X215094Y703336D01*
X215214Y703486D01*
X215218Y703494D01*
X215224Y703501D01*
X215312Y703674D01*
X215400Y703843D01*
X215402Y703852D01*
X215406Y703860D01*
X215458Y704047D01*
X215511Y704230D01*
X215512Y704239D01*
X215514Y704248D01*
X215528Y704440D01*
X215544Y704632D01*
X215543Y704640D01*
X215544Y704649D01*
X215520Y704841D01*
X215497Y705031D01*
X215494Y705040D01*
X215493Y705049D01*
X215432Y705231D01*
X215372Y705414D01*
X215368Y705422D01*
X215365Y705430D01*
X215269Y705598D01*
X215175Y705765D01*
X215169Y705772D01*
X215164Y705779D01*
X214950Y706032D01*
X214674Y706308D01*
X213359Y709482D01*
X213359Y712918D01*
X214674Y716092D01*
X217104Y718522D01*
X218801Y719225D01*
X220278Y719837D01*
X236922Y719837D01*
X240096Y718522D01*
X242526Y716092D01*
X243841Y712918D01*
X243841Y709482D01*
X242526Y706308D01*
X242250Y706032D01*
X242245Y706025D01*
X242238Y706020D01*
X242117Y705870D01*
X241995Y705721D01*
X241991Y705713D01*
X241986Y705706D01*
X241897Y705536D01*
X241807Y705365D01*
X241804Y705356D01*
X241800Y705349D01*
X241747Y705165D01*
X241692Y704979D01*
X241691Y704970D01*
X241689Y704962D01*
X241673Y704771D01*
X241656Y704578D01*
X241657Y704569D01*
X241656Y704560D01*
X241678Y704370D01*
X241699Y704178D01*
X241702Y704169D01*
X241703Y704161D01*
X241762Y703978D01*
X241820Y703794D01*
X241825Y703786D01*
X241828Y703778D01*
X241923Y703609D01*
X242015Y703442D01*
X242021Y703435D01*
X242025Y703427D01*
X242151Y703282D01*
X242276Y703135D01*
X242283Y703129D01*
X242289Y703122D01*
X242440Y703005D01*
X242592Y702885D01*
X242600Y702881D01*
X242607Y702876D01*
X242779Y702790D01*
X242951Y702703D01*
X242959Y702700D01*
X242967Y702696D01*
X243155Y702646D01*
X243338Y702595D01*
X243347Y702594D01*
X243356Y702592D01*
X243687Y702565D01*
X244904Y702565D01*
X244922Y702567D01*
X244940Y702565D01*
X245122Y702586D01*
X245305Y702605D01*
X245322Y702610D01*
X245339Y702612D01*
X245514Y702669D01*
X245690Y702723D01*
X245705Y702731D01*
X245722Y702737D01*
X245882Y702827D01*
X246044Y702915D01*
X246057Y702926D01*
X246073Y702935D01*
X246212Y703055D01*
X246353Y703172D01*
X246364Y703186D01*
X246378Y703198D01*
X246490Y703343D01*
X246605Y703486D01*
X246613Y703502D01*
X246624Y703516D01*
X246706Y703681D01*
X246791Y703843D01*
X246796Y703860D01*
X246804Y703876D01*
X246851Y704055D01*
X246902Y704230D01*
X246904Y704248D01*
X246908Y704265D01*
X246915Y704354D01*
X248126Y705565D01*
X259874Y705565D01*
X261065Y704374D01*
X261065Y692626D01*
X259874Y691435D01*
X248126Y691435D01*
X246911Y692651D01*
X246895Y692805D01*
X246890Y692822D01*
X246888Y692839D01*
X246831Y693014D01*
X246777Y693190D01*
X246769Y693205D01*
X246763Y693222D01*
X246673Y693382D01*
X246585Y693544D01*
X246574Y693557D01*
X246565Y693573D01*
X246445Y693712D01*
X246328Y693853D01*
X246314Y693864D01*
X246302Y693878D01*
X246157Y693990D01*
X246014Y694105D01*
X245998Y694113D01*
X245984Y694124D01*
X245819Y694206D01*
X245657Y694291D01*
X245640Y694296D01*
X245624Y694304D01*
X245445Y694351D01*
X245270Y694402D01*
X245252Y694404D01*
X245235Y694408D01*
X244904Y694435D01*
X243687Y694435D01*
X243678Y694434D01*
X243669Y694435D01*
X243478Y694415D01*
X243286Y694395D01*
X243278Y694393D01*
X243269Y694392D01*
X243085Y694334D01*
X242901Y694277D01*
X242893Y694273D01*
X242885Y694270D01*
X242716Y694177D01*
X242547Y694085D01*
X242540Y694080D01*
X242532Y694075D01*
X242386Y693951D01*
X242238Y693828D01*
X242232Y693821D01*
X242226Y693815D01*
X242105Y693663D01*
X241986Y693514D01*
X241982Y693506D01*
X241976Y693499D01*
X241888Y693326D01*
X241800Y693157D01*
X241798Y693148D01*
X241794Y693140D01*
X241742Y692953D01*
X241689Y692770D01*
X241688Y692761D01*
X241686Y692752D01*
X241672Y692560D01*
X241656Y692368D01*
X241657Y692360D01*
X241656Y692351D01*
X241680Y692159D01*
X241703Y691969D01*
X241706Y691960D01*
X241707Y691951D01*
X241768Y691769D01*
X241828Y691586D01*
X241832Y691578D01*
X241835Y691570D01*
X241931Y691402D01*
X242025Y691235D01*
X242031Y691228D01*
X242036Y691221D01*
X242250Y690968D01*
X242526Y690692D01*
X243841Y687518D01*
X243841Y684082D01*
X242526Y680908D01*
X240096Y678478D01*
X236922Y677163D01*
X220278Y677163D01*
X217104Y678478D01*
X214674Y680908D01*
X213359Y684082D01*
X213359Y687518D01*
X214674Y690692D01*
X214950Y690968D01*
X214955Y690975D01*
X214962Y690980D01*
X215083Y691130D01*
X215205Y691279D01*
X215209Y691287D01*
X215214Y691294D01*
X215303Y691464D01*
X215393Y691635D01*
X215396Y691644D01*
X215400Y691651D01*
X215453Y691835D01*
X215508Y692021D01*
X215509Y692030D01*
X215511Y692038D01*
X215527Y692229D01*
X215544Y692422D01*
X215543Y692431D01*
X215544Y692440D01*
X215522Y692629D01*
X215501Y692822D01*
X215498Y692831D01*
X215497Y692839D01*
X215438Y693021D01*
X215380Y693206D01*
X215375Y693214D01*
X215372Y693222D01*
X215277Y693391D01*
X215185Y693558D01*
X215179Y693565D01*
X215175Y693573D01*
X215049Y693718D01*
X214924Y693865D01*
X214917Y693871D01*
X214911Y693878D01*
X214760Y693995D01*
X214608Y694115D01*
X214600Y694119D01*
X214593Y694124D01*
X214421Y694210D01*
X214249Y694297D01*
X214241Y694300D01*
X214233Y694304D01*
X214045Y694354D01*
X213862Y694405D01*
X213853Y694406D01*
X213844Y694408D01*
X213513Y694435D01*
X167487Y694435D01*
X167478Y694434D01*
X167469Y694435D01*
X167278Y694415D01*
X167086Y694395D01*
X167078Y694393D01*
X167069Y694392D01*
X166885Y694334D01*
X166701Y694277D01*
X166693Y694273D01*
X166685Y694270D01*
X166516Y694177D01*
X166347Y694085D01*
X166340Y694080D01*
X166332Y694075D01*
X166186Y693951D01*
X166038Y693828D01*
X166032Y693821D01*
X166026Y693815D01*
X165905Y693663D01*
X165786Y693514D01*
X165782Y693506D01*
X165776Y693499D01*
X165688Y693326D01*
X165600Y693157D01*
X165598Y693148D01*
X165594Y693140D01*
X165542Y692953D01*
X165489Y692770D01*
X165488Y692761D01*
X165486Y692752D01*
X165472Y692560D01*
X165456Y692368D01*
X165457Y692360D01*
X165456Y692351D01*
X165480Y692159D01*
X165503Y691969D01*
X165506Y691960D01*
X165507Y691951D01*
X165568Y691769D01*
X165628Y691586D01*
X165632Y691578D01*
X165635Y691570D01*
X165731Y691402D01*
X165825Y691235D01*
X165831Y691228D01*
X165836Y691221D01*
X166050Y690968D01*
X166326Y690692D01*
X167641Y687518D01*
X167641Y684082D01*
X166326Y680908D01*
X163896Y678478D01*
X160722Y677163D01*
X144078Y677163D01*
X140890Y678484D01*
X140782Y678569D01*
X140640Y678685D01*
X140624Y678694D01*
X140610Y678705D01*
X140446Y678788D01*
X140284Y678874D01*
X140267Y678879D01*
X140251Y678887D01*
X140074Y678937D01*
X139898Y678989D01*
X139881Y678990D01*
X139863Y678995D01*
X139680Y679009D01*
X139497Y679025D01*
X139480Y679023D01*
X139462Y679025D01*
X139279Y679002D01*
X139097Y678982D01*
X139080Y678977D01*
X139062Y678974D01*
X138888Y678916D01*
X138713Y678860D01*
X138698Y678852D01*
X138681Y678846D01*
X138522Y678755D01*
X138361Y678666D01*
X138347Y678654D01*
X138332Y678645D01*
X138079Y678430D01*
X108843Y649194D01*
X108831Y649180D01*
X108818Y649169D01*
X108704Y649025D01*
X108588Y648883D01*
X108579Y648867D01*
X108568Y648853D01*
X108485Y648689D01*
X108399Y648527D01*
X108394Y648510D01*
X108386Y648494D01*
X108336Y648317D01*
X108284Y648141D01*
X108282Y648123D01*
X108278Y648106D01*
X108264Y647923D01*
X108248Y647740D01*
X108250Y647722D01*
X108248Y647705D01*
X108271Y647522D01*
X108291Y647340D01*
X108296Y647323D01*
X108299Y647305D01*
X108357Y647131D01*
X108413Y646956D01*
X108421Y646940D01*
X108427Y646923D01*
X108518Y646765D01*
X108607Y646604D01*
X108619Y646590D01*
X108628Y646575D01*
X108843Y646322D01*
X110237Y644927D01*
X110237Y637773D01*
X105177Y632713D01*
X98023Y632713D01*
G37*
%LPD*%
%LPC*%
G36*
X34523Y499363D02*
X34523Y499363D01*
X29463Y504423D01*
X29463Y511577D01*
X33440Y515554D01*
X33457Y515575D01*
X33478Y515593D01*
X33585Y515731D01*
X33695Y515866D01*
X33708Y515890D01*
X33724Y515911D01*
X33802Y516067D01*
X33884Y516222D01*
X33892Y516247D01*
X33904Y516271D01*
X33949Y516441D01*
X33999Y516608D01*
X34001Y516634D01*
X34008Y516660D01*
X34035Y516991D01*
X34035Y524409D01*
X34033Y524436D01*
X34035Y524463D01*
X34013Y524636D01*
X33995Y524810D01*
X33988Y524835D01*
X33984Y524862D01*
X33928Y525028D01*
X33877Y525195D01*
X33864Y525218D01*
X33856Y525244D01*
X33769Y525395D01*
X33685Y525549D01*
X33668Y525569D01*
X33655Y525593D01*
X33440Y525846D01*
X29463Y529823D01*
X29463Y536977D01*
X34523Y542037D01*
X41677Y542037D01*
X46737Y536977D01*
X46737Y529823D01*
X45146Y528232D01*
X45141Y528225D01*
X45134Y528220D01*
X45014Y528070D01*
X44891Y527921D01*
X44887Y527913D01*
X44882Y527906D01*
X44793Y527736D01*
X44703Y527565D01*
X44700Y527556D01*
X44696Y527549D01*
X44643Y527364D01*
X44588Y527179D01*
X44587Y527170D01*
X44585Y527162D01*
X44569Y526971D01*
X44552Y526778D01*
X44553Y526769D01*
X44552Y526760D01*
X44574Y526571D01*
X44595Y526378D01*
X44598Y526369D01*
X44599Y526361D01*
X44658Y526179D01*
X44716Y525994D01*
X44721Y525986D01*
X44724Y525978D01*
X44819Y525809D01*
X44911Y525642D01*
X44917Y525635D01*
X44921Y525627D01*
X45048Y525481D01*
X45172Y525335D01*
X45179Y525329D01*
X45185Y525322D01*
X45336Y525205D01*
X45488Y525085D01*
X45496Y525081D01*
X45503Y525076D01*
X45675Y524990D01*
X45847Y524903D01*
X45855Y524900D01*
X45863Y524896D01*
X46049Y524846D01*
X46235Y524795D01*
X46243Y524794D01*
X46252Y524792D01*
X46583Y524765D01*
X105817Y524765D01*
X105826Y524766D01*
X105835Y524765D01*
X106027Y524786D01*
X106218Y524805D01*
X106226Y524807D01*
X106235Y524808D01*
X106418Y524866D01*
X106603Y524923D01*
X106611Y524927D01*
X106619Y524930D01*
X106788Y525023D01*
X106957Y525115D01*
X106964Y525120D01*
X106971Y525125D01*
X107119Y525250D01*
X107266Y525372D01*
X107272Y525379D01*
X107278Y525385D01*
X107398Y525537D01*
X107518Y525686D01*
X107522Y525694D01*
X107528Y525701D01*
X107615Y525873D01*
X107704Y526043D01*
X107706Y526052D01*
X107710Y526060D01*
X107762Y526245D01*
X107815Y526430D01*
X107816Y526439D01*
X107818Y526448D01*
X107833Y526640D01*
X107848Y526832D01*
X107847Y526840D01*
X107848Y526849D01*
X107823Y527042D01*
X107801Y527231D01*
X107799Y527240D01*
X107797Y527249D01*
X107736Y527432D01*
X107676Y527614D01*
X107672Y527622D01*
X107669Y527630D01*
X107574Y527796D01*
X107479Y527965D01*
X107473Y527972D01*
X107468Y527979D01*
X107254Y528232D01*
X105663Y529823D01*
X105663Y536977D01*
X110723Y542037D01*
X117877Y542037D01*
X122937Y536977D01*
X122937Y529823D01*
X121346Y528232D01*
X121341Y528225D01*
X121334Y528220D01*
X121214Y528070D01*
X121091Y527921D01*
X121087Y527913D01*
X121082Y527906D01*
X120993Y527736D01*
X120903Y527565D01*
X120900Y527556D01*
X120896Y527549D01*
X120843Y527364D01*
X120788Y527179D01*
X120787Y527170D01*
X120785Y527162D01*
X120769Y526971D01*
X120752Y526778D01*
X120753Y526769D01*
X120752Y526760D01*
X120774Y526571D01*
X120795Y526378D01*
X120798Y526369D01*
X120799Y526361D01*
X120858Y526179D01*
X120916Y525994D01*
X120921Y525986D01*
X120924Y525978D01*
X121019Y525809D01*
X121111Y525642D01*
X121117Y525635D01*
X121121Y525627D01*
X121248Y525481D01*
X121372Y525335D01*
X121379Y525329D01*
X121385Y525322D01*
X121536Y525205D01*
X121688Y525085D01*
X121696Y525081D01*
X121703Y525076D01*
X121875Y524990D01*
X122047Y524903D01*
X122055Y524900D01*
X122063Y524896D01*
X122249Y524846D01*
X122435Y524795D01*
X122443Y524794D01*
X122452Y524792D01*
X122783Y524765D01*
X124475Y524765D01*
X124502Y524767D01*
X124528Y524765D01*
X124702Y524787D01*
X124876Y524805D01*
X124901Y524812D01*
X124928Y524816D01*
X125093Y524871D01*
X125260Y524923D01*
X125284Y524936D01*
X125309Y524944D01*
X125461Y525031D01*
X125615Y525115D01*
X125635Y525132D01*
X125658Y525145D01*
X125911Y525360D01*
X137450Y536899D01*
X137551Y536953D01*
X137572Y536970D01*
X137595Y536983D01*
X137727Y537098D01*
X137862Y537209D01*
X137879Y537230D01*
X137899Y537248D01*
X138005Y537386D01*
X138115Y537522D01*
X138128Y537546D01*
X138144Y537567D01*
X138296Y537862D01*
X138474Y538292D01*
X140904Y540722D01*
X144078Y542037D01*
X160722Y542037D01*
X163896Y540722D01*
X166326Y538292D01*
X167641Y535118D01*
X167641Y531682D01*
X166326Y528508D01*
X163896Y526078D01*
X163563Y525940D01*
X160722Y524763D01*
X144078Y524763D01*
X140890Y526084D01*
X140782Y526169D01*
X140640Y526285D01*
X140624Y526294D01*
X140610Y526305D01*
X140446Y526388D01*
X140284Y526474D01*
X140267Y526479D01*
X140251Y526487D01*
X140074Y526537D01*
X139898Y526589D01*
X139881Y526590D01*
X139863Y526595D01*
X139680Y526609D01*
X139497Y526625D01*
X139480Y526623D01*
X139462Y526625D01*
X139279Y526602D01*
X139097Y526582D01*
X139080Y526577D01*
X139062Y526574D01*
X138888Y526516D01*
X138713Y526460D01*
X138698Y526452D01*
X138681Y526446D01*
X138522Y526355D01*
X138361Y526266D01*
X138347Y526254D01*
X138332Y526245D01*
X138079Y526030D01*
X130732Y518683D01*
X129302Y517254D01*
X127809Y516635D01*
X122783Y516635D01*
X122774Y516634D01*
X122765Y516635D01*
X122572Y516614D01*
X122382Y516595D01*
X122374Y516593D01*
X122365Y516592D01*
X122180Y516533D01*
X121997Y516477D01*
X121989Y516473D01*
X121981Y516470D01*
X121813Y516377D01*
X121643Y516285D01*
X121636Y516280D01*
X121629Y516275D01*
X121481Y516151D01*
X121334Y516028D01*
X121328Y516021D01*
X121322Y516015D01*
X121202Y515863D01*
X121082Y515714D01*
X121077Y515706D01*
X121072Y515699D01*
X120984Y515526D01*
X120896Y515357D01*
X120894Y515348D01*
X120890Y515340D01*
X120838Y515154D01*
X120785Y514970D01*
X120784Y514961D01*
X120782Y514952D01*
X120767Y514759D01*
X120752Y514568D01*
X120753Y514560D01*
X120752Y514551D01*
X120776Y514358D01*
X120799Y514169D01*
X120801Y514160D01*
X120803Y514151D01*
X120864Y513969D01*
X120924Y513786D01*
X120928Y513778D01*
X120931Y513770D01*
X121027Y513602D01*
X121121Y513435D01*
X121127Y513428D01*
X121132Y513421D01*
X121346Y513168D01*
X121854Y512660D01*
X121875Y512643D01*
X121893Y512622D01*
X122031Y512515D01*
X122166Y512405D01*
X122190Y512392D01*
X122211Y512376D01*
X122368Y512298D01*
X122522Y512216D01*
X122547Y512208D01*
X122571Y512196D01*
X122741Y512151D01*
X122908Y512101D01*
X122934Y512099D01*
X122960Y512092D01*
X123291Y512065D01*
X136805Y512065D01*
X136832Y512067D01*
X136858Y512065D01*
X137032Y512087D01*
X137206Y512105D01*
X137231Y512112D01*
X137258Y512116D01*
X137424Y512171D01*
X137591Y512223D01*
X137614Y512236D01*
X137640Y512244D01*
X137791Y512331D01*
X137945Y512415D01*
X137965Y512432D01*
X137988Y512445D01*
X138241Y512660D01*
X140904Y515322D01*
X142782Y516100D01*
X144078Y516637D01*
X160722Y516637D01*
X163896Y515322D01*
X166326Y512892D01*
X167641Y509718D01*
X167641Y506282D01*
X166326Y503108D01*
X163896Y500678D01*
X160722Y499363D01*
X144078Y499363D01*
X140904Y500678D01*
X138241Y503340D01*
X138221Y503357D01*
X138203Y503378D01*
X138065Y503485D01*
X137930Y503595D01*
X137906Y503608D01*
X137885Y503624D01*
X137728Y503702D01*
X137574Y503784D01*
X137549Y503792D01*
X137525Y503804D01*
X137355Y503849D01*
X137188Y503899D01*
X137162Y503901D01*
X137136Y503908D01*
X136805Y503935D01*
X123291Y503935D01*
X123264Y503933D01*
X123237Y503935D01*
X123064Y503913D01*
X122890Y503895D01*
X122865Y503888D01*
X122838Y503884D01*
X122672Y503828D01*
X122505Y503777D01*
X122482Y503764D01*
X122456Y503756D01*
X122305Y503669D01*
X122151Y503585D01*
X122131Y503568D01*
X122107Y503555D01*
X121854Y503340D01*
X117877Y499363D01*
X110723Y499363D01*
X105663Y504423D01*
X105663Y511577D01*
X107254Y513168D01*
X107259Y513175D01*
X107266Y513180D01*
X107386Y513330D01*
X107509Y513479D01*
X107513Y513487D01*
X107518Y513494D01*
X107607Y513664D01*
X107697Y513835D01*
X107700Y513844D01*
X107704Y513851D01*
X107757Y514036D01*
X107812Y514221D01*
X107813Y514230D01*
X107815Y514238D01*
X107831Y514426D01*
X107848Y514622D01*
X107847Y514631D01*
X107848Y514640D01*
X107826Y514829D01*
X107805Y515022D01*
X107802Y515031D01*
X107801Y515039D01*
X107742Y515221D01*
X107684Y515406D01*
X107679Y515414D01*
X107676Y515422D01*
X107581Y515591D01*
X107489Y515758D01*
X107483Y515765D01*
X107479Y515773D01*
X107353Y515919D01*
X107228Y516065D01*
X107221Y516071D01*
X107215Y516078D01*
X107064Y516195D01*
X106912Y516315D01*
X106904Y516319D01*
X106897Y516324D01*
X106725Y516410D01*
X106553Y516497D01*
X106545Y516500D01*
X106537Y516504D01*
X106351Y516554D01*
X106165Y516605D01*
X106157Y516606D01*
X106148Y516608D01*
X105817Y516635D01*
X46583Y516635D01*
X46574Y516634D01*
X46565Y516635D01*
X46373Y516614D01*
X46182Y516595D01*
X46174Y516593D01*
X46165Y516592D01*
X45982Y516534D01*
X45797Y516477D01*
X45789Y516473D01*
X45781Y516470D01*
X45612Y516377D01*
X45443Y516285D01*
X45436Y516280D01*
X45429Y516275D01*
X45281Y516150D01*
X45134Y516028D01*
X45128Y516021D01*
X45122Y516015D01*
X45002Y515863D01*
X44882Y515714D01*
X44878Y515706D01*
X44872Y515699D01*
X44785Y515527D01*
X44696Y515357D01*
X44694Y515348D01*
X44690Y515340D01*
X44638Y515154D01*
X44585Y514970D01*
X44584Y514961D01*
X44582Y514952D01*
X44567Y514760D01*
X44552Y514568D01*
X44553Y514560D01*
X44552Y514551D01*
X44577Y514358D01*
X44599Y514169D01*
X44601Y514160D01*
X44603Y514151D01*
X44664Y513968D01*
X44724Y513786D01*
X44728Y513778D01*
X44731Y513770D01*
X44827Y513602D01*
X44921Y513435D01*
X44927Y513428D01*
X44932Y513421D01*
X45146Y513168D01*
X46737Y511577D01*
X46737Y504423D01*
X41677Y499363D01*
X34523Y499363D01*
G37*
%LPD*%
%LPC*%
G36*
X339323Y499363D02*
X339323Y499363D01*
X335345Y503340D01*
X335325Y503357D01*
X335307Y503378D01*
X335169Y503485D01*
X335034Y503595D01*
X335010Y503608D01*
X334989Y503624D01*
X334832Y503702D01*
X334678Y503784D01*
X334653Y503792D01*
X334629Y503804D01*
X334459Y503849D01*
X334292Y503899D01*
X334266Y503901D01*
X334240Y503908D01*
X333909Y503935D01*
X316691Y503935D01*
X315198Y504554D01*
X291011Y528740D01*
X290991Y528757D01*
X290973Y528778D01*
X290835Y528885D01*
X290700Y528995D01*
X290676Y529008D01*
X290655Y529024D01*
X290498Y529102D01*
X290344Y529184D01*
X290319Y529192D01*
X290294Y529204D01*
X290125Y529249D01*
X289958Y529299D01*
X289932Y529301D01*
X289906Y529308D01*
X289575Y529335D01*
X275691Y529335D01*
X275664Y529333D01*
X275638Y529335D01*
X275464Y529313D01*
X275290Y529295D01*
X275265Y529288D01*
X275238Y529284D01*
X275072Y529229D01*
X274905Y529177D01*
X274882Y529164D01*
X274856Y529156D01*
X274705Y529069D01*
X274551Y528985D01*
X274531Y528968D01*
X274508Y528955D01*
X274255Y528740D01*
X270277Y524763D01*
X263123Y524763D01*
X259145Y528740D01*
X259125Y528757D01*
X259107Y528778D01*
X258969Y528885D01*
X258834Y528995D01*
X258810Y529008D01*
X258789Y529024D01*
X258632Y529102D01*
X258478Y529184D01*
X258453Y529192D01*
X258429Y529204D01*
X258259Y529249D01*
X258092Y529299D01*
X258066Y529301D01*
X258040Y529308D01*
X257709Y529335D01*
X244195Y529335D01*
X244168Y529333D01*
X244142Y529335D01*
X243968Y529313D01*
X243794Y529295D01*
X243769Y529288D01*
X243742Y529284D01*
X243576Y529229D01*
X243409Y529177D01*
X243386Y529164D01*
X243360Y529156D01*
X243209Y529069D01*
X243055Y528985D01*
X243035Y528968D01*
X243012Y528955D01*
X242759Y528740D01*
X240096Y526078D01*
X239763Y525940D01*
X236922Y524763D01*
X220278Y524763D01*
X217104Y526078D01*
X214674Y528508D01*
X213359Y531682D01*
X213359Y535118D01*
X214674Y538292D01*
X214950Y538568D01*
X214955Y538575D01*
X214962Y538580D01*
X215083Y538730D01*
X215205Y538879D01*
X215209Y538887D01*
X215214Y538894D01*
X215303Y539064D01*
X215393Y539235D01*
X215396Y539244D01*
X215400Y539251D01*
X215453Y539435D01*
X215508Y539621D01*
X215509Y539630D01*
X215511Y539638D01*
X215527Y539829D01*
X215544Y540022D01*
X215543Y540031D01*
X215544Y540040D01*
X215522Y540229D01*
X215501Y540422D01*
X215498Y540431D01*
X215497Y540439D01*
X215438Y540621D01*
X215380Y540806D01*
X215375Y540814D01*
X215372Y540822D01*
X215277Y540991D01*
X215185Y541158D01*
X215179Y541165D01*
X215175Y541173D01*
X215049Y541318D01*
X214924Y541465D01*
X214917Y541471D01*
X214911Y541478D01*
X214760Y541595D01*
X214608Y541715D01*
X214600Y541719D01*
X214593Y541724D01*
X214421Y541810D01*
X214249Y541897D01*
X214241Y541900D01*
X214233Y541904D01*
X214045Y541954D01*
X213862Y542005D01*
X213853Y542006D01*
X213844Y542008D01*
X213513Y542035D01*
X199596Y542035D01*
X199578Y542033D01*
X199560Y542035D01*
X199378Y542014D01*
X199195Y541995D01*
X199178Y541990D01*
X199161Y541988D01*
X198986Y541931D01*
X198810Y541877D01*
X198795Y541869D01*
X198778Y541863D01*
X198618Y541773D01*
X198456Y541685D01*
X198443Y541674D01*
X198427Y541665D01*
X198288Y541545D01*
X198147Y541428D01*
X198136Y541414D01*
X198122Y541402D01*
X198010Y541257D01*
X197895Y541114D01*
X197887Y541098D01*
X197876Y541084D01*
X197794Y540919D01*
X197709Y540757D01*
X197704Y540740D01*
X197696Y540724D01*
X197649Y540545D01*
X197598Y540370D01*
X197596Y540352D01*
X197592Y540335D01*
X197585Y540246D01*
X196374Y539035D01*
X184626Y539035D01*
X183435Y540226D01*
X183435Y551974D01*
X184626Y553165D01*
X196374Y553165D01*
X197589Y551949D01*
X197605Y551795D01*
X197610Y551778D01*
X197612Y551761D01*
X197669Y551586D01*
X197723Y551410D01*
X197731Y551395D01*
X197737Y551378D01*
X197827Y551218D01*
X197915Y551056D01*
X197926Y551043D01*
X197935Y551027D01*
X198055Y550888D01*
X198172Y550747D01*
X198186Y550736D01*
X198198Y550722D01*
X198343Y550610D01*
X198486Y550495D01*
X198502Y550487D01*
X198516Y550476D01*
X198681Y550394D01*
X198843Y550309D01*
X198860Y550304D01*
X198876Y550296D01*
X199055Y550249D01*
X199230Y550198D01*
X199248Y550196D01*
X199265Y550192D01*
X199596Y550165D01*
X238775Y550165D01*
X238802Y550167D01*
X238828Y550165D01*
X239002Y550187D01*
X239176Y550205D01*
X239201Y550212D01*
X239228Y550216D01*
X239393Y550271D01*
X239560Y550323D01*
X239584Y550336D01*
X239609Y550344D01*
X239761Y550431D01*
X239915Y550515D01*
X239935Y550532D01*
X239958Y550545D01*
X240211Y550760D01*
X257468Y568017D01*
X257485Y568037D01*
X257506Y568055D01*
X257613Y568193D01*
X257723Y568328D01*
X257736Y568352D01*
X257752Y568373D01*
X257830Y568530D01*
X257912Y568684D01*
X257920Y568709D01*
X257932Y568734D01*
X257977Y568903D01*
X258027Y569070D01*
X258029Y569096D01*
X258036Y569122D01*
X258063Y569453D01*
X258063Y575077D01*
X263123Y580137D01*
X270277Y580137D01*
X275337Y575077D01*
X275337Y567923D01*
X270277Y562863D01*
X264653Y562863D01*
X264626Y562861D01*
X264600Y562863D01*
X264426Y562841D01*
X264252Y562823D01*
X264227Y562816D01*
X264200Y562812D01*
X264034Y562756D01*
X263867Y562705D01*
X263844Y562692D01*
X263819Y562684D01*
X263667Y562597D01*
X263513Y562513D01*
X263493Y562496D01*
X263470Y562483D01*
X263217Y562268D01*
X243602Y542654D01*
X242566Y542225D01*
X242554Y542218D01*
X242541Y542214D01*
X242377Y542123D01*
X242211Y542034D01*
X242200Y542026D01*
X242189Y542019D01*
X242046Y541898D01*
X241900Y541778D01*
X241892Y541768D01*
X241882Y541759D01*
X241765Y541611D01*
X241647Y541465D01*
X241640Y541454D01*
X241632Y541443D01*
X241547Y541275D01*
X241460Y541109D01*
X241456Y541096D01*
X241450Y541084D01*
X241399Y540903D01*
X241346Y540722D01*
X241345Y540709D01*
X241342Y540696D01*
X241328Y540508D01*
X241312Y540321D01*
X241313Y540308D01*
X241312Y540295D01*
X241336Y540107D01*
X241357Y539921D01*
X241361Y539908D01*
X241363Y539895D01*
X241422Y539718D01*
X241480Y539538D01*
X241487Y539526D01*
X241491Y539514D01*
X241585Y539351D01*
X241676Y539186D01*
X241685Y539176D01*
X241692Y539165D01*
X241907Y538912D01*
X242759Y538060D01*
X242779Y538043D01*
X242797Y538022D01*
X242935Y537915D01*
X243070Y537805D01*
X243094Y537792D01*
X243115Y537776D01*
X243272Y537698D01*
X243426Y537616D01*
X243451Y537608D01*
X243475Y537596D01*
X243645Y537551D01*
X243812Y537501D01*
X243838Y537499D01*
X243864Y537492D01*
X244195Y537465D01*
X257709Y537465D01*
X257736Y537467D01*
X257762Y537465D01*
X257936Y537487D01*
X258110Y537505D01*
X258135Y537512D01*
X258162Y537516D01*
X258328Y537571D01*
X258495Y537623D01*
X258518Y537636D01*
X258544Y537644D01*
X258695Y537731D01*
X258849Y537815D01*
X258869Y537832D01*
X258892Y537845D01*
X259145Y538060D01*
X263123Y542037D01*
X270277Y542037D01*
X274255Y538060D01*
X274275Y538043D01*
X274293Y538022D01*
X274431Y537915D01*
X274566Y537805D01*
X274590Y537792D01*
X274611Y537776D01*
X274768Y537698D01*
X274922Y537616D01*
X274947Y537608D01*
X274971Y537596D01*
X275141Y537551D01*
X275308Y537501D01*
X275334Y537499D01*
X275360Y537492D01*
X275691Y537465D01*
X292909Y537465D01*
X294402Y536846D01*
X318589Y512660D01*
X318609Y512643D01*
X318627Y512622D01*
X318765Y512515D01*
X318900Y512405D01*
X318924Y512392D01*
X318945Y512376D01*
X319102Y512298D01*
X319256Y512216D01*
X319281Y512208D01*
X319306Y512196D01*
X319475Y512151D01*
X319642Y512101D01*
X319668Y512099D01*
X319694Y512092D01*
X320025Y512065D01*
X333909Y512065D01*
X333936Y512067D01*
X333962Y512065D01*
X334136Y512087D01*
X334310Y512105D01*
X334335Y512112D01*
X334362Y512116D01*
X334528Y512171D01*
X334695Y512223D01*
X334718Y512236D01*
X334744Y512244D01*
X334895Y512331D01*
X335049Y512415D01*
X335069Y512432D01*
X335092Y512445D01*
X335345Y512660D01*
X339323Y516637D01*
X346477Y516637D01*
X351537Y511577D01*
X351537Y504423D01*
X346477Y499363D01*
X339323Y499363D01*
G37*
%LPD*%
%LPC*%
G36*
X252004Y205866D02*
X252004Y205866D01*
X248316Y207394D01*
X245494Y210216D01*
X243966Y213904D01*
X243966Y217896D01*
X244117Y218261D01*
X244124Y218282D01*
X244134Y218302D01*
X244182Y218475D01*
X244234Y218646D01*
X244236Y218668D01*
X244242Y218690D01*
X244255Y218869D01*
X244272Y219047D01*
X244270Y219069D01*
X244271Y219091D01*
X244249Y219270D01*
X244230Y219447D01*
X244224Y219469D01*
X244221Y219491D01*
X244164Y219661D01*
X244111Y219832D01*
X244100Y219851D01*
X244093Y219873D01*
X244003Y220028D01*
X243917Y220185D01*
X243903Y220202D01*
X243892Y220221D01*
X243677Y220474D01*
X221161Y242990D01*
X221141Y243007D01*
X221123Y243028D01*
X220985Y243135D01*
X220850Y243245D01*
X220826Y243258D01*
X220805Y243274D01*
X220648Y243352D01*
X220494Y243434D01*
X220469Y243442D01*
X220444Y243454D01*
X220275Y243499D01*
X220108Y243549D01*
X220082Y243551D01*
X220056Y243558D01*
X219725Y243585D01*
X88091Y243585D01*
X86598Y244204D01*
X85168Y245633D01*
X65411Y265390D01*
X65391Y265407D01*
X65373Y265428D01*
X65235Y265535D01*
X65100Y265645D01*
X65076Y265658D01*
X65055Y265674D01*
X64898Y265752D01*
X64744Y265834D01*
X64719Y265842D01*
X64694Y265854D01*
X64525Y265899D01*
X64358Y265949D01*
X64332Y265951D01*
X64306Y265958D01*
X63975Y265985D01*
X62095Y265985D01*
X59498Y267061D01*
X57511Y269048D01*
X56435Y271645D01*
X56435Y274455D01*
X57511Y277052D01*
X59498Y279039D01*
X62095Y280115D01*
X64905Y280115D01*
X67502Y279039D01*
X69489Y277052D01*
X70565Y274455D01*
X70565Y272575D01*
X70567Y272548D01*
X70565Y272522D01*
X70587Y272348D01*
X70605Y272174D01*
X70612Y272149D01*
X70616Y272122D01*
X70672Y271956D01*
X70723Y271789D01*
X70736Y271766D01*
X70744Y271741D01*
X70831Y271589D01*
X70915Y271435D01*
X70932Y271415D01*
X70945Y271392D01*
X71160Y271139D01*
X89989Y252310D01*
X90009Y252293D01*
X90027Y252272D01*
X90165Y252165D01*
X90300Y252055D01*
X90324Y252042D01*
X90345Y252026D01*
X90502Y251948D01*
X90656Y251866D01*
X90681Y251858D01*
X90706Y251846D01*
X90875Y251801D01*
X91042Y251751D01*
X91068Y251749D01*
X91094Y251742D01*
X91425Y251715D01*
X223059Y251715D01*
X224552Y251096D01*
X249426Y226223D01*
X249443Y226209D01*
X249457Y226192D01*
X249599Y226081D01*
X249737Y225968D01*
X249757Y225957D01*
X249774Y225944D01*
X249935Y225863D01*
X250093Y225779D01*
X250114Y225773D01*
X250134Y225763D01*
X250308Y225715D01*
X250479Y225664D01*
X250501Y225662D01*
X250522Y225656D01*
X250701Y225644D01*
X250880Y225628D01*
X250902Y225630D01*
X250924Y225629D01*
X251102Y225652D01*
X251280Y225671D01*
X251301Y225678D01*
X251323Y225681D01*
X251639Y225783D01*
X252004Y225934D01*
X255996Y225934D01*
X259684Y224406D01*
X262506Y221584D01*
X264034Y217896D01*
X264034Y213904D01*
X262506Y210216D01*
X259684Y207394D01*
X255996Y205866D01*
X252004Y205866D01*
G37*
%LPD*%
%LPC*%
G36*
X125595Y843835D02*
X125595Y843835D01*
X122998Y844911D01*
X121011Y846898D01*
X119935Y849495D01*
X119935Y852305D01*
X121011Y854902D01*
X122340Y856231D01*
X122357Y856252D01*
X122378Y856270D01*
X122485Y856407D01*
X122595Y856543D01*
X122608Y856567D01*
X122624Y856588D01*
X122702Y856745D01*
X122784Y856899D01*
X122792Y856924D01*
X122804Y856948D01*
X122849Y857118D01*
X122899Y857284D01*
X122901Y857311D01*
X122908Y857337D01*
X122935Y857668D01*
X122935Y867817D01*
X122934Y867826D01*
X122935Y867835D01*
X122914Y868027D01*
X122895Y868218D01*
X122893Y868226D01*
X122892Y868235D01*
X122834Y868418D01*
X122777Y868603D01*
X122773Y868611D01*
X122770Y868619D01*
X122677Y868788D01*
X122585Y868957D01*
X122580Y868964D01*
X122575Y868971D01*
X122450Y869119D01*
X122328Y869266D01*
X122321Y869272D01*
X122315Y869278D01*
X122163Y869398D01*
X122014Y869518D01*
X122006Y869522D01*
X121999Y869528D01*
X121827Y869615D01*
X121657Y869704D01*
X121648Y869706D01*
X121640Y869710D01*
X121454Y869762D01*
X121270Y869815D01*
X121261Y869816D01*
X121252Y869818D01*
X121060Y869833D01*
X120868Y869848D01*
X120860Y869847D01*
X120851Y869848D01*
X120658Y869823D01*
X120469Y869801D01*
X120460Y869799D01*
X120451Y869797D01*
X120268Y869736D01*
X120086Y869676D01*
X120078Y869672D01*
X120070Y869669D01*
X119904Y869574D01*
X119735Y869479D01*
X119728Y869473D01*
X119721Y869468D01*
X119468Y869254D01*
X117877Y867663D01*
X110723Y867663D01*
X105663Y872723D01*
X105663Y879877D01*
X110723Y884937D01*
X117877Y884937D01*
X119468Y883346D01*
X119475Y883341D01*
X119480Y883334D01*
X119630Y883214D01*
X119779Y883091D01*
X119787Y883087D01*
X119794Y883082D01*
X119964Y882993D01*
X120135Y882903D01*
X120144Y882900D01*
X120151Y882896D01*
X120336Y882843D01*
X120521Y882788D01*
X120530Y882787D01*
X120538Y882785D01*
X120729Y882769D01*
X120922Y882752D01*
X120931Y882753D01*
X120940Y882752D01*
X121129Y882774D01*
X121322Y882795D01*
X121331Y882798D01*
X121339Y882799D01*
X121521Y882858D01*
X121706Y882916D01*
X121714Y882921D01*
X121722Y882924D01*
X121891Y883019D01*
X122058Y883111D01*
X122065Y883117D01*
X122073Y883121D01*
X122219Y883247D01*
X122365Y883372D01*
X122371Y883379D01*
X122378Y883385D01*
X122495Y883536D01*
X122615Y883688D01*
X122619Y883696D01*
X122624Y883703D01*
X122710Y883875D01*
X122797Y884047D01*
X122800Y884055D01*
X122804Y884063D01*
X122854Y884249D01*
X122905Y884435D01*
X122906Y884443D01*
X122908Y884452D01*
X122935Y884783D01*
X122935Y893217D01*
X122934Y893226D01*
X122935Y893235D01*
X122914Y893427D01*
X122895Y893618D01*
X122893Y893626D01*
X122892Y893635D01*
X122834Y893818D01*
X122777Y894003D01*
X122773Y894011D01*
X122770Y894019D01*
X122677Y894188D01*
X122585Y894357D01*
X122580Y894364D01*
X122575Y894371D01*
X122450Y894519D01*
X122328Y894666D01*
X122321Y894672D01*
X122315Y894678D01*
X122163Y894798D01*
X122014Y894918D01*
X122006Y894922D01*
X121999Y894928D01*
X121827Y895015D01*
X121657Y895104D01*
X121648Y895106D01*
X121640Y895110D01*
X121454Y895162D01*
X121270Y895215D01*
X121261Y895216D01*
X121252Y895218D01*
X121060Y895233D01*
X120868Y895248D01*
X120860Y895247D01*
X120851Y895248D01*
X120658Y895223D01*
X120469Y895201D01*
X120460Y895199D01*
X120451Y895197D01*
X120268Y895136D01*
X120086Y895076D01*
X120078Y895072D01*
X120070Y895069D01*
X119904Y894974D01*
X119735Y894879D01*
X119728Y894873D01*
X119721Y894868D01*
X119468Y894654D01*
X117877Y893063D01*
X110723Y893063D01*
X105663Y898123D01*
X105663Y905277D01*
X110723Y910337D01*
X117877Y910337D01*
X119468Y908746D01*
X119475Y908741D01*
X119480Y908734D01*
X119630Y908614D01*
X119779Y908491D01*
X119787Y908487D01*
X119794Y908482D01*
X119964Y908393D01*
X120135Y908303D01*
X120144Y908300D01*
X120151Y908296D01*
X120336Y908243D01*
X120521Y908188D01*
X120530Y908187D01*
X120538Y908185D01*
X120729Y908169D01*
X120922Y908152D01*
X120931Y908153D01*
X120940Y908152D01*
X121129Y908174D01*
X121322Y908195D01*
X121331Y908198D01*
X121339Y908199D01*
X121521Y908258D01*
X121706Y908316D01*
X121714Y908321D01*
X121722Y908324D01*
X121891Y908419D01*
X122058Y908511D01*
X122065Y908517D01*
X122073Y908521D01*
X122219Y908647D01*
X122365Y908772D01*
X122371Y908779D01*
X122378Y908785D01*
X122495Y908936D01*
X122615Y909088D01*
X122619Y909096D01*
X122624Y909103D01*
X122710Y909275D01*
X122797Y909447D01*
X122800Y909455D01*
X122804Y909463D01*
X122854Y909649D01*
X122905Y909835D01*
X122906Y909843D01*
X122908Y909852D01*
X122935Y910183D01*
X122935Y927909D01*
X123554Y929402D01*
X143748Y949596D01*
X145241Y950215D01*
X162459Y950215D01*
X162486Y950217D01*
X162512Y950215D01*
X162686Y950237D01*
X162860Y950255D01*
X162885Y950262D01*
X162912Y950266D01*
X163078Y950321D01*
X163245Y950373D01*
X163268Y950386D01*
X163294Y950394D01*
X163445Y950481D01*
X163599Y950565D01*
X163619Y950582D01*
X163642Y950595D01*
X163895Y950810D01*
X167873Y954787D01*
X175027Y954787D01*
X180087Y949727D01*
X180087Y942573D01*
X175027Y937513D01*
X167873Y937513D01*
X163895Y941490D01*
X163875Y941507D01*
X163857Y941528D01*
X163719Y941635D01*
X163584Y941745D01*
X163560Y941758D01*
X163539Y941774D01*
X163382Y941852D01*
X163228Y941934D01*
X163203Y941942D01*
X163179Y941954D01*
X163009Y941999D01*
X162842Y942049D01*
X162816Y942051D01*
X162790Y942058D01*
X162459Y942085D01*
X148575Y942085D01*
X148548Y942083D01*
X148522Y942085D01*
X148348Y942063D01*
X148174Y942045D01*
X148149Y942038D01*
X148122Y942034D01*
X147957Y941979D01*
X147790Y941927D01*
X147766Y941914D01*
X147741Y941906D01*
X147589Y941819D01*
X147435Y941735D01*
X147415Y941718D01*
X147392Y941705D01*
X147139Y941490D01*
X131660Y926011D01*
X131643Y925991D01*
X131622Y925973D01*
X131515Y925835D01*
X131405Y925700D01*
X131392Y925676D01*
X131376Y925655D01*
X131298Y925498D01*
X131216Y925344D01*
X131208Y925319D01*
X131196Y925294D01*
X131151Y925125D01*
X131101Y924958D01*
X131099Y924932D01*
X131092Y924906D01*
X131065Y924575D01*
X131065Y857668D01*
X131067Y857641D01*
X131065Y857614D01*
X131087Y857440D01*
X131105Y857267D01*
X131112Y857242D01*
X131116Y857215D01*
X131171Y857049D01*
X131223Y856882D01*
X131236Y856859D01*
X131244Y856833D01*
X131331Y856682D01*
X131415Y856528D01*
X131432Y856508D01*
X131445Y856484D01*
X131660Y856231D01*
X132989Y854902D01*
X134065Y852305D01*
X134065Y849495D01*
X132989Y846898D01*
X131002Y844911D01*
X128405Y843835D01*
X125595Y843835D01*
G37*
%LPD*%
%LPC*%
G36*
X220278Y626363D02*
X220278Y626363D01*
X217104Y627678D01*
X214674Y630108D01*
X213359Y633282D01*
X213359Y636718D01*
X214674Y639892D01*
X217104Y642322D01*
X220278Y643637D01*
X236922Y643637D01*
X240096Y642322D01*
X242758Y639660D01*
X242779Y639643D01*
X242797Y639622D01*
X242935Y639515D01*
X243070Y639405D01*
X243094Y639392D01*
X243115Y639376D01*
X243271Y639298D01*
X243426Y639216D01*
X243451Y639208D01*
X243475Y639196D01*
X243644Y639151D01*
X243812Y639101D01*
X243838Y639099D01*
X243864Y639092D01*
X244195Y639065D01*
X245125Y639065D01*
X245152Y639067D01*
X245178Y639065D01*
X245352Y639087D01*
X245526Y639105D01*
X245551Y639112D01*
X245578Y639116D01*
X245743Y639171D01*
X245910Y639223D01*
X245934Y639236D01*
X245959Y639244D01*
X246111Y639331D01*
X246265Y639415D01*
X246285Y639432D01*
X246308Y639445D01*
X246561Y639660D01*
X272030Y665129D01*
X272042Y665143D01*
X272055Y665154D01*
X272169Y665298D01*
X272285Y665440D01*
X272294Y665456D01*
X272305Y665470D01*
X272388Y665635D01*
X272474Y665796D01*
X272479Y665813D01*
X272487Y665829D01*
X272537Y666007D01*
X272589Y666182D01*
X272591Y666200D01*
X272595Y666217D01*
X272609Y666400D01*
X272625Y666583D01*
X272623Y666601D01*
X272625Y666618D01*
X272602Y666800D01*
X272582Y666983D01*
X272576Y667000D01*
X272574Y667018D01*
X272516Y667191D01*
X272460Y667367D01*
X272452Y667383D01*
X272446Y667400D01*
X272355Y667558D01*
X272266Y667719D01*
X272254Y667733D01*
X272245Y667748D01*
X272030Y668001D01*
X271824Y668208D01*
X270509Y671382D01*
X270509Y674818D01*
X271824Y677992D01*
X274254Y680422D01*
X277428Y681737D01*
X294072Y681737D01*
X297246Y680422D01*
X299676Y677992D01*
X300991Y674818D01*
X300991Y671382D01*
X299676Y668208D01*
X297246Y665778D01*
X294072Y664463D01*
X283703Y664463D01*
X283676Y664461D01*
X283650Y664463D01*
X283476Y664441D01*
X283302Y664423D01*
X283277Y664416D01*
X283250Y664412D01*
X283085Y664357D01*
X282918Y664305D01*
X282894Y664292D01*
X282869Y664284D01*
X282717Y664197D01*
X282563Y664113D01*
X282543Y664096D01*
X282520Y664083D01*
X282267Y663868D01*
X249952Y631554D01*
X248459Y630935D01*
X244195Y630935D01*
X244168Y630933D01*
X244141Y630935D01*
X243968Y630913D01*
X243794Y630895D01*
X243769Y630888D01*
X243742Y630884D01*
X243576Y630828D01*
X243409Y630777D01*
X243386Y630764D01*
X243360Y630756D01*
X243209Y630669D01*
X243055Y630585D01*
X243035Y630568D01*
X243011Y630555D01*
X242758Y630340D01*
X240096Y627678D01*
X239673Y627503D01*
X236922Y626363D01*
X220278Y626363D01*
G37*
%LPD*%
%LPC*%
G36*
X144078Y778763D02*
X144078Y778763D01*
X140904Y780078D01*
X138241Y782740D01*
X138221Y782757D01*
X138203Y782778D01*
X138065Y782885D01*
X137930Y782995D01*
X137906Y783008D01*
X137885Y783024D01*
X137728Y783102D01*
X137574Y783184D01*
X137549Y783192D01*
X137525Y783204D01*
X137355Y783249D01*
X137188Y783299D01*
X137162Y783301D01*
X137136Y783308D01*
X136805Y783335D01*
X126191Y783335D01*
X124698Y783954D01*
X98154Y810498D01*
X97535Y811991D01*
X97535Y829209D01*
X97533Y829236D01*
X97535Y829263D01*
X97513Y829436D01*
X97495Y829610D01*
X97488Y829635D01*
X97484Y829662D01*
X97428Y829828D01*
X97377Y829995D01*
X97364Y830018D01*
X97356Y830044D01*
X97269Y830195D01*
X97185Y830349D01*
X97168Y830369D01*
X97155Y830393D01*
X96940Y830646D01*
X92963Y834623D01*
X92963Y841777D01*
X98023Y846837D01*
X105177Y846837D01*
X110237Y841777D01*
X110237Y834623D01*
X106260Y830646D01*
X106243Y830625D01*
X106222Y830607D01*
X106115Y830469D01*
X106005Y830334D01*
X105992Y830310D01*
X105976Y830289D01*
X105898Y830133D01*
X105816Y829978D01*
X105808Y829953D01*
X105796Y829929D01*
X105751Y829759D01*
X105701Y829592D01*
X105699Y829566D01*
X105692Y829540D01*
X105665Y829209D01*
X105665Y815325D01*
X105667Y815298D01*
X105665Y815272D01*
X105687Y815098D01*
X105705Y814924D01*
X105712Y814899D01*
X105716Y814872D01*
X105771Y814707D01*
X105823Y814540D01*
X105836Y814516D01*
X105844Y814491D01*
X105931Y814339D01*
X106015Y814185D01*
X106032Y814165D01*
X106045Y814142D01*
X106260Y813889D01*
X128089Y792060D01*
X128109Y792043D01*
X128127Y792022D01*
X128265Y791915D01*
X128400Y791805D01*
X128424Y791792D01*
X128445Y791776D01*
X128602Y791698D01*
X128756Y791616D01*
X128781Y791608D01*
X128806Y791596D01*
X128975Y791551D01*
X129142Y791501D01*
X129168Y791499D01*
X129194Y791492D01*
X129525Y791465D01*
X136805Y791465D01*
X136832Y791467D01*
X136858Y791465D01*
X137032Y791487D01*
X137206Y791505D01*
X137231Y791512D01*
X137258Y791516D01*
X137424Y791571D01*
X137591Y791623D01*
X137614Y791636D01*
X137640Y791644D01*
X137791Y791731D01*
X137945Y791815D01*
X137965Y791832D01*
X137988Y791845D01*
X138241Y792060D01*
X140904Y794722D01*
X144078Y796037D01*
X160722Y796037D01*
X163896Y794722D01*
X166326Y792292D01*
X167641Y789118D01*
X167641Y785682D01*
X166326Y782508D01*
X163896Y780078D01*
X160722Y778763D01*
X144078Y778763D01*
G37*
%LPD*%
%LPC*%
G36*
X144078Y753363D02*
X144078Y753363D01*
X140904Y754678D01*
X138242Y757340D01*
X138221Y757357D01*
X138203Y757378D01*
X138065Y757485D01*
X137930Y757595D01*
X137906Y757608D01*
X137885Y757624D01*
X137729Y757702D01*
X137574Y757784D01*
X137549Y757792D01*
X137525Y757804D01*
X137356Y757849D01*
X137188Y757899D01*
X137162Y757901D01*
X137136Y757908D01*
X136805Y757935D01*
X113491Y757935D01*
X111998Y758554D01*
X98154Y772398D01*
X97535Y773891D01*
X97535Y778409D01*
X97533Y778436D01*
X97535Y778462D01*
X97513Y778636D01*
X97495Y778810D01*
X97488Y778835D01*
X97484Y778862D01*
X97429Y779028D01*
X97377Y779195D01*
X97364Y779218D01*
X97356Y779244D01*
X97269Y779395D01*
X97185Y779549D01*
X97168Y779569D01*
X97155Y779592D01*
X96940Y779845D01*
X92963Y783823D01*
X92963Y790977D01*
X98023Y796037D01*
X105177Y796037D01*
X110237Y790977D01*
X110237Y783823D01*
X106260Y779845D01*
X106243Y779825D01*
X106222Y779807D01*
X106115Y779669D01*
X106005Y779534D01*
X105992Y779510D01*
X105976Y779489D01*
X105897Y779332D01*
X105816Y779178D01*
X105808Y779153D01*
X105796Y779129D01*
X105751Y778959D01*
X105701Y778792D01*
X105699Y778766D01*
X105692Y778740D01*
X105665Y778409D01*
X105665Y777225D01*
X105667Y777198D01*
X105665Y777172D01*
X105687Y776998D01*
X105705Y776824D01*
X105712Y776799D01*
X105716Y776772D01*
X105771Y776607D01*
X105823Y776440D01*
X105836Y776416D01*
X105844Y776391D01*
X105931Y776239D01*
X106015Y776085D01*
X106032Y776065D01*
X106045Y776042D01*
X106260Y775789D01*
X115389Y766660D01*
X115409Y766643D01*
X115427Y766622D01*
X115565Y766515D01*
X115700Y766405D01*
X115724Y766392D01*
X115745Y766376D01*
X115902Y766298D01*
X116056Y766216D01*
X116081Y766208D01*
X116106Y766196D01*
X116275Y766151D01*
X116442Y766101D01*
X116468Y766099D01*
X116494Y766092D01*
X116825Y766065D01*
X136805Y766065D01*
X136832Y766067D01*
X136859Y766065D01*
X137032Y766087D01*
X137206Y766105D01*
X137231Y766112D01*
X137258Y766116D01*
X137424Y766172D01*
X137591Y766223D01*
X137614Y766236D01*
X137640Y766244D01*
X137791Y766331D01*
X137945Y766415D01*
X137965Y766432D01*
X137989Y766445D01*
X138242Y766660D01*
X140904Y769322D01*
X144078Y770637D01*
X160722Y770637D01*
X163896Y769322D01*
X166326Y766892D01*
X167641Y763718D01*
X167641Y760282D01*
X166326Y757108D01*
X163896Y754678D01*
X160722Y753363D01*
X144078Y753363D01*
G37*
%LPD*%
%LPC*%
G36*
X110723Y372363D02*
X110723Y372363D01*
X105663Y377423D01*
X105663Y384577D01*
X110723Y389637D01*
X117877Y389637D01*
X121855Y385660D01*
X121875Y385643D01*
X121893Y385622D01*
X122031Y385515D01*
X122166Y385405D01*
X122190Y385392D01*
X122211Y385376D01*
X122368Y385298D01*
X122522Y385216D01*
X122547Y385208D01*
X122571Y385196D01*
X122741Y385151D01*
X122908Y385101D01*
X122934Y385099D01*
X122960Y385092D01*
X123291Y385065D01*
X136805Y385065D01*
X136832Y385067D01*
X136858Y385065D01*
X137032Y385087D01*
X137206Y385105D01*
X137231Y385112D01*
X137258Y385116D01*
X137424Y385171D01*
X137591Y385223D01*
X137614Y385236D01*
X137640Y385244D01*
X137791Y385331D01*
X137945Y385415D01*
X137965Y385432D01*
X137988Y385445D01*
X138241Y385660D01*
X140904Y388322D01*
X144078Y389637D01*
X160722Y389637D01*
X163896Y388322D01*
X166326Y385892D01*
X167641Y382718D01*
X167641Y379282D01*
X166326Y376108D01*
X163896Y373678D01*
X160722Y372363D01*
X144078Y372363D01*
X140904Y373678D01*
X138241Y376340D01*
X138221Y376357D01*
X138203Y376378D01*
X138065Y376485D01*
X137930Y376595D01*
X137906Y376608D01*
X137885Y376624D01*
X137728Y376702D01*
X137574Y376784D01*
X137549Y376792D01*
X137525Y376804D01*
X137355Y376849D01*
X137188Y376899D01*
X137162Y376901D01*
X137136Y376908D01*
X136805Y376935D01*
X123291Y376935D01*
X123264Y376933D01*
X123238Y376935D01*
X123064Y376913D01*
X122890Y376895D01*
X122865Y376888D01*
X122838Y376884D01*
X122672Y376829D01*
X122505Y376777D01*
X122482Y376764D01*
X122456Y376756D01*
X122305Y376669D01*
X122151Y376585D01*
X122131Y376568D01*
X122108Y376555D01*
X121855Y376340D01*
X117877Y372363D01*
X110723Y372363D01*
G37*
%LPD*%
%LPC*%
G36*
X220278Y499363D02*
X220278Y499363D01*
X217104Y500678D01*
X214674Y503108D01*
X213359Y506282D01*
X213359Y509718D01*
X214674Y512892D01*
X217104Y515322D01*
X218982Y516100D01*
X220278Y516637D01*
X236922Y516637D01*
X240096Y515322D01*
X242759Y512660D01*
X242779Y512643D01*
X242797Y512622D01*
X242935Y512515D01*
X243070Y512405D01*
X243094Y512392D01*
X243115Y512376D01*
X243272Y512298D01*
X243426Y512216D01*
X243451Y512208D01*
X243475Y512196D01*
X243645Y512151D01*
X243812Y512101D01*
X243838Y512099D01*
X243864Y512092D01*
X244195Y512065D01*
X257709Y512065D01*
X257736Y512067D01*
X257762Y512065D01*
X257936Y512087D01*
X258110Y512105D01*
X258135Y512112D01*
X258162Y512116D01*
X258328Y512171D01*
X258495Y512223D01*
X258518Y512236D01*
X258544Y512244D01*
X258695Y512331D01*
X258849Y512415D01*
X258869Y512432D01*
X258892Y512445D01*
X259145Y512660D01*
X263123Y516637D01*
X270277Y516637D01*
X275337Y511577D01*
X275337Y504423D01*
X270277Y499363D01*
X263123Y499363D01*
X259145Y503340D01*
X259125Y503357D01*
X259107Y503378D01*
X258969Y503485D01*
X258834Y503595D01*
X258810Y503608D01*
X258789Y503624D01*
X258632Y503702D01*
X258478Y503784D01*
X258453Y503792D01*
X258429Y503804D01*
X258259Y503849D01*
X258092Y503899D01*
X258066Y503901D01*
X258040Y503908D01*
X257709Y503935D01*
X244195Y503935D01*
X244168Y503933D01*
X244142Y503935D01*
X243968Y503913D01*
X243794Y503895D01*
X243769Y503888D01*
X243742Y503884D01*
X243576Y503829D01*
X243409Y503777D01*
X243386Y503764D01*
X243360Y503756D01*
X243209Y503669D01*
X243055Y503585D01*
X243035Y503568D01*
X243012Y503555D01*
X242759Y503340D01*
X240096Y500678D01*
X236922Y499363D01*
X220278Y499363D01*
G37*
%LPD*%
%LPC*%
G36*
X110723Y423163D02*
X110723Y423163D01*
X105663Y428223D01*
X105663Y435377D01*
X110723Y440437D01*
X117877Y440437D01*
X121855Y436460D01*
X121875Y436443D01*
X121893Y436422D01*
X122031Y436315D01*
X122166Y436205D01*
X122190Y436192D01*
X122211Y436176D01*
X122368Y436098D01*
X122522Y436016D01*
X122547Y436008D01*
X122571Y435996D01*
X122741Y435951D01*
X122908Y435901D01*
X122934Y435899D01*
X122960Y435892D01*
X123291Y435865D01*
X136805Y435865D01*
X136832Y435867D01*
X136859Y435865D01*
X137032Y435887D01*
X137206Y435905D01*
X137231Y435912D01*
X137258Y435916D01*
X137424Y435972D01*
X137591Y436023D01*
X137614Y436036D01*
X137640Y436044D01*
X137791Y436131D01*
X137945Y436215D01*
X137965Y436232D01*
X137989Y436245D01*
X138242Y436460D01*
X140904Y439122D01*
X144078Y440437D01*
X160722Y440437D01*
X163896Y439122D01*
X166326Y436692D01*
X167641Y433518D01*
X167641Y430082D01*
X166326Y426908D01*
X163896Y424478D01*
X163654Y424378D01*
X160722Y423163D01*
X144078Y423163D01*
X140904Y424478D01*
X138242Y427140D01*
X138221Y427157D01*
X138203Y427178D01*
X138065Y427285D01*
X137930Y427395D01*
X137906Y427408D01*
X137885Y427424D01*
X137729Y427502D01*
X137574Y427584D01*
X137549Y427592D01*
X137525Y427604D01*
X137356Y427649D01*
X137188Y427699D01*
X137162Y427701D01*
X137136Y427708D01*
X136805Y427735D01*
X123291Y427735D01*
X123264Y427733D01*
X123238Y427735D01*
X123064Y427713D01*
X122890Y427695D01*
X122865Y427688D01*
X122838Y427684D01*
X122672Y427629D01*
X122505Y427577D01*
X122482Y427564D01*
X122456Y427556D01*
X122305Y427469D01*
X122151Y427385D01*
X122131Y427368D01*
X122108Y427355D01*
X121855Y427140D01*
X117877Y423163D01*
X110723Y423163D01*
G37*
%LPD*%
%LPC*%
G36*
X49395Y335835D02*
X49395Y335835D01*
X46798Y336911D01*
X44811Y338898D01*
X43735Y341495D01*
X43735Y344305D01*
X44811Y346902D01*
X46798Y348889D01*
X49395Y349965D01*
X52205Y349965D01*
X54802Y348889D01*
X56131Y347560D01*
X56152Y347543D01*
X56170Y347522D01*
X56307Y347415D01*
X56443Y347305D01*
X56467Y347292D01*
X56488Y347276D01*
X56645Y347198D01*
X56799Y347116D01*
X56824Y347108D01*
X56848Y347096D01*
X57018Y347051D01*
X57184Y347001D01*
X57211Y346999D01*
X57237Y346992D01*
X57568Y346965D01*
X113882Y346965D01*
X113909Y346967D01*
X113936Y346965D01*
X114110Y346987D01*
X114283Y347005D01*
X114308Y347012D01*
X114335Y347016D01*
X114501Y347072D01*
X114668Y347123D01*
X114691Y347136D01*
X114717Y347144D01*
X114868Y347231D01*
X115022Y347315D01*
X115042Y347332D01*
X115066Y347345D01*
X115319Y347560D01*
X116648Y348889D01*
X119245Y349965D01*
X122055Y349965D01*
X124652Y348889D01*
X126639Y346902D01*
X127715Y344305D01*
X127715Y341495D01*
X126639Y338898D01*
X124652Y336911D01*
X122055Y335835D01*
X119245Y335835D01*
X116648Y336911D01*
X115319Y338240D01*
X115298Y338257D01*
X115280Y338278D01*
X115142Y338385D01*
X115007Y338495D01*
X114984Y338508D01*
X114962Y338524D01*
X114806Y338602D01*
X114651Y338684D01*
X114626Y338692D01*
X114602Y338704D01*
X114433Y338749D01*
X114266Y338799D01*
X114239Y338801D01*
X114213Y338808D01*
X113882Y338835D01*
X57568Y338835D01*
X57541Y338833D01*
X57514Y338835D01*
X57340Y338813D01*
X57167Y338795D01*
X57142Y338788D01*
X57115Y338784D01*
X56949Y338729D01*
X56782Y338677D01*
X56759Y338664D01*
X56733Y338656D01*
X56582Y338569D01*
X56428Y338485D01*
X56408Y338468D01*
X56384Y338455D01*
X56131Y338240D01*
X54802Y336911D01*
X52205Y335835D01*
X49395Y335835D01*
G37*
%LPD*%
%LPC*%
G36*
X34523Y423163D02*
X34523Y423163D01*
X29463Y428223D01*
X29463Y435377D01*
X34523Y440437D01*
X41677Y440437D01*
X45655Y436460D01*
X45675Y436443D01*
X45693Y436422D01*
X45831Y436315D01*
X45966Y436205D01*
X45990Y436192D01*
X46011Y436176D01*
X46168Y436098D01*
X46322Y436016D01*
X46347Y436008D01*
X46371Y435996D01*
X46541Y435951D01*
X46708Y435901D01*
X46734Y435899D01*
X46760Y435892D01*
X47091Y435865D01*
X82132Y435865D01*
X82159Y435867D01*
X82186Y435865D01*
X82360Y435887D01*
X82533Y435905D01*
X82558Y435912D01*
X82585Y435916D01*
X82751Y435971D01*
X82918Y436023D01*
X82941Y436036D01*
X82967Y436044D01*
X83118Y436131D01*
X83272Y436215D01*
X83292Y436232D01*
X83316Y436245D01*
X83569Y436460D01*
X84898Y437789D01*
X87495Y438865D01*
X90305Y438865D01*
X92902Y437789D01*
X94889Y435802D01*
X95965Y433205D01*
X95965Y430395D01*
X94889Y427798D01*
X92902Y425811D01*
X90305Y424735D01*
X87495Y424735D01*
X84898Y425811D01*
X83569Y427140D01*
X83548Y427157D01*
X83530Y427178D01*
X83393Y427285D01*
X83257Y427395D01*
X83233Y427408D01*
X83212Y427424D01*
X83055Y427502D01*
X82901Y427584D01*
X82876Y427592D01*
X82852Y427604D01*
X82682Y427649D01*
X82516Y427699D01*
X82489Y427701D01*
X82463Y427708D01*
X82132Y427735D01*
X47091Y427735D01*
X47064Y427733D01*
X47038Y427735D01*
X46864Y427713D01*
X46690Y427695D01*
X46665Y427688D01*
X46638Y427684D01*
X46472Y427629D01*
X46305Y427577D01*
X46282Y427564D01*
X46256Y427556D01*
X46105Y427469D01*
X45951Y427385D01*
X45931Y427368D01*
X45908Y427355D01*
X45655Y427140D01*
X41677Y423163D01*
X34523Y423163D01*
G37*
%LPD*%
%LPC*%
G36*
X339323Y397763D02*
X339323Y397763D01*
X335346Y401740D01*
X335325Y401757D01*
X335307Y401778D01*
X335169Y401885D01*
X335034Y401995D01*
X335010Y402008D01*
X334989Y402024D01*
X334833Y402102D01*
X334678Y402184D01*
X334653Y402192D01*
X334629Y402204D01*
X334459Y402249D01*
X334292Y402299D01*
X334266Y402301D01*
X334240Y402308D01*
X333909Y402335D01*
X298868Y402335D01*
X298841Y402333D01*
X298814Y402335D01*
X298640Y402313D01*
X298467Y402295D01*
X298442Y402288D01*
X298415Y402284D01*
X298249Y402229D01*
X298082Y402177D01*
X298059Y402164D01*
X298033Y402156D01*
X297882Y402069D01*
X297728Y401985D01*
X297708Y401968D01*
X297684Y401955D01*
X297431Y401740D01*
X296102Y400411D01*
X293505Y399335D01*
X290695Y399335D01*
X288098Y400411D01*
X286111Y402398D01*
X285035Y404995D01*
X285035Y407805D01*
X286111Y410402D01*
X288098Y412389D01*
X290695Y413465D01*
X293505Y413465D01*
X296102Y412389D01*
X297431Y411060D01*
X297452Y411043D01*
X297470Y411022D01*
X297607Y410915D01*
X297743Y410805D01*
X297767Y410792D01*
X297788Y410776D01*
X297945Y410698D01*
X298099Y410616D01*
X298124Y410608D01*
X298148Y410596D01*
X298318Y410551D01*
X298484Y410501D01*
X298511Y410499D01*
X298537Y410492D01*
X298868Y410465D01*
X333909Y410465D01*
X333936Y410467D01*
X333963Y410465D01*
X334136Y410487D01*
X334310Y410505D01*
X334335Y410512D01*
X334362Y410516D01*
X334528Y410572D01*
X334695Y410623D01*
X334718Y410636D01*
X334744Y410644D01*
X334895Y410731D01*
X335049Y410815D01*
X335069Y410832D01*
X335093Y410845D01*
X335346Y411060D01*
X339323Y415037D01*
X346477Y415037D01*
X351537Y409977D01*
X351537Y402823D01*
X346477Y397763D01*
X339323Y397763D01*
G37*
%LPD*%
%LPC*%
G36*
X34523Y397763D02*
X34523Y397763D01*
X29463Y402823D01*
X29463Y409977D01*
X34523Y415037D01*
X41677Y415037D01*
X45655Y411060D01*
X45675Y411043D01*
X45693Y411022D01*
X45831Y410915D01*
X45966Y410805D01*
X45990Y410792D01*
X46011Y410776D01*
X46168Y410698D01*
X46322Y410616D01*
X46347Y410608D01*
X46371Y410596D01*
X46541Y410551D01*
X46708Y410501D01*
X46734Y410499D01*
X46760Y410492D01*
X47091Y410465D01*
X69432Y410465D01*
X69459Y410467D01*
X69486Y410465D01*
X69660Y410487D01*
X69833Y410505D01*
X69858Y410512D01*
X69885Y410516D01*
X70051Y410571D01*
X70218Y410623D01*
X70241Y410636D01*
X70267Y410644D01*
X70418Y410731D01*
X70572Y410815D01*
X70592Y410832D01*
X70616Y410845D01*
X70869Y411060D01*
X72198Y412389D01*
X74795Y413465D01*
X77605Y413465D01*
X80202Y412389D01*
X82189Y410402D01*
X83265Y407805D01*
X83265Y404995D01*
X82189Y402398D01*
X80202Y400411D01*
X77605Y399335D01*
X74795Y399335D01*
X72198Y400411D01*
X70869Y401740D01*
X70848Y401757D01*
X70830Y401778D01*
X70693Y401885D01*
X70557Y401995D01*
X70533Y402008D01*
X70512Y402024D01*
X70355Y402102D01*
X70201Y402184D01*
X70176Y402192D01*
X70152Y402204D01*
X69982Y402249D01*
X69816Y402299D01*
X69789Y402301D01*
X69763Y402308D01*
X69432Y402335D01*
X47091Y402335D01*
X47064Y402333D01*
X47038Y402335D01*
X46864Y402313D01*
X46690Y402295D01*
X46665Y402288D01*
X46638Y402284D01*
X46472Y402229D01*
X46305Y402177D01*
X46282Y402164D01*
X46256Y402156D01*
X46105Y402069D01*
X45951Y401985D01*
X45931Y401968D01*
X45908Y401955D01*
X45655Y401740D01*
X41677Y397763D01*
X34523Y397763D01*
G37*
%LPD*%
%LPC*%
G36*
X34523Y372363D02*
X34523Y372363D01*
X29463Y377423D01*
X29463Y384577D01*
X34523Y389637D01*
X41677Y389637D01*
X45655Y385660D01*
X45675Y385643D01*
X45693Y385622D01*
X45831Y385515D01*
X45966Y385405D01*
X45990Y385392D01*
X46011Y385376D01*
X46168Y385298D01*
X46322Y385216D01*
X46347Y385208D01*
X46371Y385196D01*
X46541Y385151D01*
X46708Y385101D01*
X46734Y385099D01*
X46760Y385092D01*
X47091Y385065D01*
X56732Y385065D01*
X56759Y385067D01*
X56786Y385065D01*
X56960Y385087D01*
X57133Y385105D01*
X57158Y385112D01*
X57185Y385116D01*
X57351Y385171D01*
X57518Y385223D01*
X57541Y385236D01*
X57567Y385244D01*
X57718Y385331D01*
X57872Y385415D01*
X57892Y385432D01*
X57916Y385445D01*
X58169Y385660D01*
X59498Y386989D01*
X62095Y388065D01*
X64905Y388065D01*
X67502Y386989D01*
X69489Y385002D01*
X70565Y382405D01*
X70565Y379595D01*
X69489Y376998D01*
X67502Y375011D01*
X64905Y373935D01*
X62095Y373935D01*
X59498Y375011D01*
X58169Y376340D01*
X58148Y376357D01*
X58130Y376378D01*
X57993Y376485D01*
X57857Y376595D01*
X57833Y376608D01*
X57812Y376624D01*
X57655Y376702D01*
X57501Y376784D01*
X57476Y376792D01*
X57452Y376804D01*
X57282Y376849D01*
X57116Y376899D01*
X57089Y376901D01*
X57063Y376908D01*
X56732Y376935D01*
X47091Y376935D01*
X47064Y376933D01*
X47038Y376935D01*
X46864Y376913D01*
X46690Y376895D01*
X46665Y376888D01*
X46638Y376884D01*
X46472Y376829D01*
X46305Y376777D01*
X46282Y376764D01*
X46256Y376756D01*
X46105Y376669D01*
X45951Y376585D01*
X45931Y376568D01*
X45908Y376555D01*
X45655Y376340D01*
X41677Y372363D01*
X34523Y372363D01*
G37*
%LPD*%
%LPC*%
G36*
X144078Y626363D02*
X144078Y626363D01*
X140904Y627678D01*
X138474Y630108D01*
X137159Y633282D01*
X137159Y636718D01*
X138474Y639892D01*
X140904Y642322D01*
X144078Y643637D01*
X160722Y643637D01*
X163896Y642322D01*
X166326Y639892D01*
X167641Y636718D01*
X167641Y633282D01*
X166326Y630108D01*
X163896Y627678D01*
X163473Y627503D01*
X160722Y626363D01*
X144078Y626363D01*
G37*
%LPD*%
%LPC*%
G36*
X220278Y423163D02*
X220278Y423163D01*
X217104Y424478D01*
X214674Y426908D01*
X213359Y430082D01*
X213359Y433518D01*
X214674Y436692D01*
X217104Y439122D01*
X220278Y440437D01*
X236922Y440437D01*
X240096Y439122D01*
X242526Y436692D01*
X243841Y433518D01*
X243841Y430082D01*
X242526Y426908D01*
X240096Y424478D01*
X239854Y424378D01*
X236922Y423163D01*
X220278Y423163D01*
G37*
%LPD*%
%LPC*%
G36*
X144078Y854963D02*
X144078Y854963D01*
X140904Y856278D01*
X138474Y858708D01*
X137159Y861882D01*
X137159Y865318D01*
X138474Y868492D01*
X140904Y870922D01*
X144078Y872237D01*
X160722Y872237D01*
X163896Y870922D01*
X166326Y868492D01*
X167641Y865318D01*
X167641Y861882D01*
X166326Y858708D01*
X163896Y856278D01*
X160722Y854963D01*
X144078Y854963D01*
G37*
%LPD*%
%LPC*%
G36*
X220278Y854963D02*
X220278Y854963D01*
X217104Y856278D01*
X214674Y858708D01*
X213359Y861882D01*
X213359Y865318D01*
X214674Y868492D01*
X217104Y870922D01*
X220278Y872237D01*
X236922Y872237D01*
X240096Y870922D01*
X242526Y868492D01*
X243841Y865318D01*
X243841Y861882D01*
X242526Y858708D01*
X240096Y856278D01*
X236922Y854963D01*
X220278Y854963D01*
G37*
%LPD*%
%LPC*%
G36*
X144078Y448563D02*
X144078Y448563D01*
X140904Y449878D01*
X138474Y452308D01*
X137159Y455482D01*
X137159Y458918D01*
X138474Y462092D01*
X140904Y464522D01*
X144078Y465837D01*
X160722Y465837D01*
X163896Y464522D01*
X166326Y462092D01*
X167641Y458918D01*
X167641Y455482D01*
X166326Y452308D01*
X163896Y449878D01*
X160722Y448563D01*
X144078Y448563D01*
G37*
%LPD*%
%LPC*%
G36*
X220278Y829563D02*
X220278Y829563D01*
X217104Y830878D01*
X214674Y833308D01*
X213359Y836482D01*
X213359Y839918D01*
X214674Y843092D01*
X217104Y845522D01*
X220278Y846837D01*
X236922Y846837D01*
X240096Y845522D01*
X242526Y843092D01*
X243841Y839918D01*
X243841Y836482D01*
X242526Y833308D01*
X240096Y830878D01*
X236922Y829563D01*
X220278Y829563D01*
G37*
%LPD*%
%LPC*%
G36*
X144078Y829563D02*
X144078Y829563D01*
X140904Y830878D01*
X138474Y833308D01*
X137159Y836482D01*
X137159Y839918D01*
X138474Y843092D01*
X140904Y845522D01*
X144078Y846837D01*
X160722Y846837D01*
X163896Y845522D01*
X166326Y843092D01*
X167641Y839918D01*
X167641Y836482D01*
X166326Y833308D01*
X163896Y830878D01*
X160722Y829563D01*
X144078Y829563D01*
G37*
%LPD*%
%LPC*%
G36*
X220278Y651763D02*
X220278Y651763D01*
X217104Y653078D01*
X214674Y655508D01*
X213359Y658682D01*
X213359Y662118D01*
X214674Y665292D01*
X217104Y667722D01*
X220278Y669037D01*
X236922Y669037D01*
X240096Y667722D01*
X242526Y665292D01*
X243841Y662118D01*
X243841Y658682D01*
X242526Y655508D01*
X240096Y653078D01*
X236922Y651763D01*
X220278Y651763D01*
G37*
%LPD*%
%LPC*%
G36*
X144078Y651763D02*
X144078Y651763D01*
X140904Y653078D01*
X138474Y655508D01*
X137159Y658682D01*
X137159Y662118D01*
X138474Y665292D01*
X140904Y667722D01*
X144078Y669037D01*
X160722Y669037D01*
X163896Y667722D01*
X166326Y665292D01*
X167641Y662118D01*
X167641Y658682D01*
X166326Y655508D01*
X163896Y653078D01*
X160722Y651763D01*
X144078Y651763D01*
G37*
%LPD*%
%LPC*%
G36*
X144078Y727963D02*
X144078Y727963D01*
X140904Y729278D01*
X138474Y731708D01*
X137159Y734882D01*
X137159Y738318D01*
X138474Y741492D01*
X140904Y743922D01*
X144078Y745237D01*
X160722Y745237D01*
X163896Y743922D01*
X166326Y741492D01*
X167641Y738318D01*
X167641Y734882D01*
X166326Y731708D01*
X163896Y729278D01*
X160722Y727963D01*
X144078Y727963D01*
G37*
%LPD*%
%LPC*%
G36*
X220278Y727963D02*
X220278Y727963D01*
X217104Y729278D01*
X214674Y731708D01*
X213359Y734882D01*
X213359Y738318D01*
X214674Y741492D01*
X217104Y743922D01*
X220278Y745237D01*
X236922Y745237D01*
X240096Y743922D01*
X242526Y741492D01*
X243841Y738318D01*
X243841Y734882D01*
X242526Y731708D01*
X240096Y729278D01*
X236922Y727963D01*
X220278Y727963D01*
G37*
%LPD*%
%LPC*%
G36*
X220278Y372363D02*
X220278Y372363D01*
X217104Y373678D01*
X214674Y376108D01*
X213359Y379282D01*
X213359Y382718D01*
X214674Y385892D01*
X217104Y388322D01*
X220278Y389637D01*
X236922Y389637D01*
X240096Y388322D01*
X242526Y385892D01*
X243841Y382718D01*
X243841Y379282D01*
X242526Y376108D01*
X240096Y373678D01*
X236922Y372363D01*
X220278Y372363D01*
G37*
%LPD*%
%LPC*%
G36*
X277428Y740663D02*
X277428Y740663D01*
X274254Y741978D01*
X271824Y744408D01*
X270509Y747582D01*
X270509Y751018D01*
X271824Y754192D01*
X274254Y756622D01*
X277428Y757937D01*
X294072Y757937D01*
X297246Y756622D01*
X299676Y754192D01*
X300991Y751018D01*
X300991Y747582D01*
X299676Y744408D01*
X297246Y741978D01*
X294072Y740663D01*
X277428Y740663D01*
G37*
%LPD*%
%LPC*%
G36*
X220278Y753363D02*
X220278Y753363D01*
X217104Y754678D01*
X214674Y757108D01*
X213359Y760282D01*
X213359Y763718D01*
X214674Y766892D01*
X217104Y769322D01*
X220278Y770637D01*
X236922Y770637D01*
X240096Y769322D01*
X242526Y766892D01*
X243841Y763718D01*
X243841Y760282D01*
X242526Y757108D01*
X240096Y754678D01*
X236922Y753363D01*
X220278Y753363D01*
G37*
%LPD*%
%LPC*%
G36*
X220278Y778763D02*
X220278Y778763D01*
X217104Y780078D01*
X214674Y782508D01*
X213359Y785682D01*
X213359Y789118D01*
X214674Y792292D01*
X217104Y794722D01*
X220278Y796037D01*
X236922Y796037D01*
X240096Y794722D01*
X242526Y792292D01*
X243841Y789118D01*
X243841Y785682D01*
X242526Y782508D01*
X240096Y780078D01*
X236922Y778763D01*
X220278Y778763D01*
G37*
%LPD*%
%LPC*%
G36*
X277428Y766063D02*
X277428Y766063D01*
X274254Y767378D01*
X271824Y769808D01*
X270509Y772982D01*
X270509Y776418D01*
X271824Y779592D01*
X274254Y782022D01*
X277428Y783337D01*
X294072Y783337D01*
X297246Y782022D01*
X299676Y779592D01*
X300991Y776418D01*
X300991Y772982D01*
X299676Y769808D01*
X297246Y767378D01*
X294072Y766063D01*
X277428Y766063D01*
G37*
%LPD*%
%LPC*%
G36*
X220278Y448563D02*
X220278Y448563D01*
X217104Y449878D01*
X214674Y452308D01*
X213359Y455482D01*
X213359Y458918D01*
X214674Y462092D01*
X217104Y464522D01*
X220278Y465837D01*
X236922Y465837D01*
X240096Y464522D01*
X242526Y462092D01*
X243841Y458918D01*
X243841Y455482D01*
X242526Y452308D01*
X240096Y449878D01*
X236922Y448563D01*
X220278Y448563D01*
G37*
%LPD*%
%LPC*%
G36*
X277428Y791463D02*
X277428Y791463D01*
X274254Y792778D01*
X271824Y795208D01*
X270509Y798382D01*
X270509Y801818D01*
X271824Y804992D01*
X274254Y807422D01*
X277098Y808600D01*
X277428Y808737D01*
X294072Y808737D01*
X297246Y807422D01*
X299676Y804992D01*
X300991Y801818D01*
X300991Y798382D01*
X299676Y795208D01*
X297246Y792778D01*
X294072Y791463D01*
X277428Y791463D01*
G37*
%LPD*%
%LPC*%
G36*
X220278Y397763D02*
X220278Y397763D01*
X217104Y399078D01*
X214674Y401508D01*
X213359Y404682D01*
X213359Y408118D01*
X214674Y411292D01*
X217104Y413722D01*
X219073Y414537D01*
X219073Y414538D01*
X220278Y415037D01*
X236922Y415037D01*
X240096Y413722D01*
X242526Y411292D01*
X243841Y408118D01*
X243841Y404682D01*
X242526Y401508D01*
X240096Y399078D01*
X236922Y397763D01*
X220278Y397763D01*
G37*
%LPD*%
%LPC*%
G36*
X144078Y397763D02*
X144078Y397763D01*
X140904Y399078D01*
X138474Y401508D01*
X137159Y404682D01*
X137159Y408118D01*
X138474Y411292D01*
X140904Y413722D01*
X142873Y414537D01*
X142873Y414538D01*
X144078Y415037D01*
X160722Y415037D01*
X163896Y413722D01*
X166326Y411292D01*
X167641Y408118D01*
X167641Y404682D01*
X166326Y401508D01*
X163896Y399078D01*
X160722Y397763D01*
X144078Y397763D01*
G37*
%LPD*%
%LPC*%
G36*
X277428Y715263D02*
X277428Y715263D01*
X274254Y716578D01*
X271824Y719008D01*
X270509Y722182D01*
X270509Y725618D01*
X271824Y728792D01*
X274254Y731222D01*
X274714Y731412D01*
X274714Y731413D01*
X277428Y732537D01*
X294072Y732537D01*
X297246Y731222D01*
X299676Y728792D01*
X300991Y725618D01*
X300991Y722182D01*
X299676Y719008D01*
X297246Y716578D01*
X294072Y715263D01*
X277428Y715263D01*
G37*
%LPD*%
%LPC*%
G36*
X144078Y804163D02*
X144078Y804163D01*
X140904Y805478D01*
X138474Y807908D01*
X137159Y811082D01*
X137159Y814518D01*
X138474Y817692D01*
X140904Y820122D01*
X142511Y820787D01*
X142511Y820788D01*
X144078Y821437D01*
X160722Y821437D01*
X163896Y820122D01*
X166326Y817692D01*
X167641Y814518D01*
X167641Y811082D01*
X166326Y807908D01*
X163896Y805478D01*
X160863Y804221D01*
X160862Y804221D01*
X160722Y804163D01*
X144078Y804163D01*
G37*
%LPD*%
%LPC*%
G36*
X220278Y804163D02*
X220278Y804163D01*
X217104Y805478D01*
X214674Y807908D01*
X213359Y811082D01*
X213359Y814518D01*
X214674Y817692D01*
X217104Y820122D01*
X218711Y820787D01*
X218711Y820788D01*
X220278Y821437D01*
X236922Y821437D01*
X240096Y820122D01*
X242526Y817692D01*
X243841Y814518D01*
X243841Y811082D01*
X242526Y807908D01*
X240096Y805478D01*
X237063Y804221D01*
X237062Y804221D01*
X236922Y804163D01*
X220278Y804163D01*
G37*
%LPD*%
%LPC*%
G36*
X141894Y263016D02*
X141894Y263016D01*
X136016Y268894D01*
X136016Y277206D01*
X141894Y283084D01*
X150206Y283084D01*
X156084Y277206D01*
X156084Y268894D01*
X150206Y263016D01*
X141894Y263016D01*
G37*
%LPD*%
%LPC*%
G36*
X338744Y34416D02*
X338744Y34416D01*
X332866Y40294D01*
X332866Y48606D01*
X338744Y54484D01*
X347056Y54484D01*
X352934Y48606D01*
X352934Y40294D01*
X347056Y34416D01*
X338744Y34416D01*
G37*
%LPD*%
%LPC*%
G36*
X313344Y332866D02*
X313344Y332866D01*
X307466Y338744D01*
X307466Y347056D01*
X313344Y352934D01*
X321656Y352934D01*
X327534Y347056D01*
X327534Y338744D01*
X321656Y332866D01*
X313344Y332866D01*
G37*
%LPD*%
%LPC*%
G36*
X275244Y923416D02*
X275244Y923416D01*
X269366Y929294D01*
X269366Y937606D01*
X275244Y943484D01*
X283556Y943484D01*
X289434Y937606D01*
X289434Y929294D01*
X283556Y923416D01*
X275244Y923416D01*
G37*
%LPD*%
%LPC*%
G36*
X72044Y555116D02*
X72044Y555116D01*
X66166Y560994D01*
X66166Y569306D01*
X72044Y575184D01*
X80356Y575184D01*
X86234Y569306D01*
X86234Y560994D01*
X80356Y555116D01*
X72044Y555116D01*
G37*
%LPD*%
%LPC*%
G36*
X36104Y34416D02*
X36104Y34416D01*
X32416Y35944D01*
X29594Y38766D01*
X28066Y42454D01*
X28066Y46446D01*
X29594Y50134D01*
X32416Y52956D01*
X36104Y54484D01*
X40096Y54484D01*
X43784Y52956D01*
X46606Y50134D01*
X48134Y46446D01*
X48134Y42454D01*
X46606Y38766D01*
X43784Y35944D01*
X40096Y34416D01*
X36104Y34416D01*
G37*
%LPD*%
%LPC*%
G36*
X36104Y923416D02*
X36104Y923416D01*
X32416Y924944D01*
X29594Y927766D01*
X28066Y931454D01*
X28066Y935446D01*
X29594Y939134D01*
X32416Y941956D01*
X34121Y942662D01*
X34122Y942663D01*
X36104Y943484D01*
X40096Y943484D01*
X43784Y941956D01*
X46606Y939134D01*
X48134Y935446D01*
X48134Y931454D01*
X46606Y927766D01*
X43784Y924944D01*
X40096Y923416D01*
X36104Y923416D01*
G37*
%LPD*%
%LPC*%
G36*
X118654Y263016D02*
X118654Y263016D01*
X114966Y264544D01*
X112144Y267366D01*
X110616Y271054D01*
X110616Y275046D01*
X112144Y278734D01*
X114966Y281556D01*
X117260Y282506D01*
X118654Y283084D01*
X122646Y283084D01*
X126334Y281556D01*
X129156Y278734D01*
X130684Y275046D01*
X130684Y271054D01*
X129156Y267366D01*
X126334Y264544D01*
X124801Y263909D01*
X122646Y263016D01*
X118654Y263016D01*
G37*
%LPD*%
%LPC*%
G36*
X74204Y580516D02*
X74204Y580516D01*
X70516Y582044D01*
X67694Y584866D01*
X66166Y588554D01*
X66166Y592546D01*
X67694Y596234D01*
X70516Y599056D01*
X74204Y600584D01*
X78196Y600584D01*
X81884Y599056D01*
X84706Y596234D01*
X86234Y592546D01*
X86234Y588554D01*
X84706Y584866D01*
X81884Y582044D01*
X78842Y580784D01*
X78196Y580516D01*
X74204Y580516D01*
G37*
%LPD*%
%LPC*%
G36*
X290104Y332866D02*
X290104Y332866D01*
X286416Y334394D01*
X283594Y337216D01*
X282066Y340904D01*
X282066Y344896D01*
X283594Y348584D01*
X286416Y351406D01*
X286809Y351569D01*
X290104Y352934D01*
X294096Y352934D01*
X297784Y351406D01*
X300606Y348584D01*
X302134Y344896D01*
X302134Y340904D01*
X300606Y337216D01*
X297784Y334394D01*
X294350Y332971D01*
X294096Y332866D01*
X290104Y332866D01*
G37*
%LPD*%
%LPC*%
G36*
X135912Y35305D02*
X135912Y35305D01*
X130555Y40662D01*
X130555Y48238D01*
X135912Y53595D01*
X143488Y53595D01*
X148845Y48238D01*
X148845Y40662D01*
X143488Y35305D01*
X135912Y35305D01*
G37*
%LPD*%
%LPC*%
G36*
X135912Y60705D02*
X135912Y60705D01*
X130555Y66062D01*
X130555Y73638D01*
X135912Y78995D01*
X143488Y78995D01*
X148845Y73638D01*
X148845Y66062D01*
X143488Y60705D01*
X135912Y60705D01*
G37*
%LPD*%
%LPC*%
G36*
X237512Y35305D02*
X237512Y35305D01*
X232155Y40662D01*
X232155Y48238D01*
X237512Y53595D01*
X245088Y53595D01*
X250445Y48238D01*
X250445Y40662D01*
X245088Y35305D01*
X237512Y35305D01*
G37*
%LPD*%
%LPC*%
G36*
X237512Y60705D02*
X237512Y60705D01*
X232155Y66062D01*
X232155Y73638D01*
X237512Y78995D01*
X245088Y78995D01*
X250445Y73638D01*
X250445Y66062D01*
X245088Y60705D01*
X237512Y60705D01*
G37*
%LPD*%
%LPC*%
G36*
X34523Y727963D02*
X34523Y727963D01*
X29463Y733023D01*
X29463Y740177D01*
X34523Y745237D01*
X41677Y745237D01*
X46737Y740177D01*
X46737Y733023D01*
X41677Y727963D01*
X34523Y727963D01*
G37*
%LPD*%
%LPC*%
G36*
X339323Y372363D02*
X339323Y372363D01*
X334263Y377423D01*
X334263Y384577D01*
X339323Y389637D01*
X346477Y389637D01*
X351537Y384577D01*
X351537Y377423D01*
X346477Y372363D01*
X339323Y372363D01*
G37*
%LPD*%
%LPC*%
G36*
X263123Y448563D02*
X263123Y448563D01*
X258063Y453623D01*
X258063Y460777D01*
X263123Y465837D01*
X270277Y465837D01*
X275337Y460777D01*
X275337Y453623D01*
X270277Y448563D01*
X263123Y448563D01*
G37*
%LPD*%
%LPC*%
G36*
X263123Y372363D02*
X263123Y372363D01*
X258063Y377423D01*
X258063Y384577D01*
X263123Y389637D01*
X270277Y389637D01*
X275337Y384577D01*
X275337Y377423D01*
X270277Y372363D01*
X263123Y372363D01*
G37*
%LPD*%
%LPC*%
G36*
X339323Y854963D02*
X339323Y854963D01*
X334263Y860023D01*
X334263Y867177D01*
X339323Y872237D01*
X346477Y872237D01*
X351537Y867177D01*
X351537Y860023D01*
X346477Y854963D01*
X339323Y854963D01*
G37*
%LPD*%
%LPC*%
G36*
X339323Y632713D02*
X339323Y632713D01*
X334263Y637773D01*
X334263Y644927D01*
X339323Y649987D01*
X346477Y649987D01*
X351537Y644927D01*
X351537Y637773D01*
X346477Y632713D01*
X339323Y632713D01*
G37*
%LPD*%
%LPC*%
G36*
X47223Y632713D02*
X47223Y632713D01*
X42163Y637773D01*
X42163Y644927D01*
X47223Y649987D01*
X54377Y649987D01*
X59437Y644927D01*
X59437Y637773D01*
X54377Y632713D01*
X47223Y632713D01*
G37*
%LPD*%
%LPC*%
G36*
X110723Y448563D02*
X110723Y448563D01*
X105663Y453623D01*
X105663Y460777D01*
X110723Y465837D01*
X117877Y465837D01*
X122937Y460777D01*
X122937Y453623D01*
X117877Y448563D01*
X110723Y448563D01*
G37*
%LPD*%
%LPC*%
G36*
X193273Y937513D02*
X193273Y937513D01*
X188213Y942573D01*
X188213Y949727D01*
X193273Y954787D01*
X200427Y954787D01*
X205487Y949727D01*
X205487Y942573D01*
X200427Y937513D01*
X193273Y937513D01*
G37*
%LPD*%
%LPC*%
G36*
X218673Y937513D02*
X218673Y937513D01*
X213613Y942573D01*
X213613Y949727D01*
X218673Y954787D01*
X225827Y954787D01*
X230887Y949727D01*
X230887Y942573D01*
X225827Y937513D01*
X218673Y937513D01*
G37*
%LPD*%
%LPC*%
G36*
X339323Y607313D02*
X339323Y607313D01*
X334263Y612373D01*
X334263Y619527D01*
X339323Y624587D01*
X346477Y624587D01*
X351537Y619527D01*
X351537Y612373D01*
X346477Y607313D01*
X339323Y607313D01*
G37*
%LPD*%
%LPC*%
G36*
X225023Y600963D02*
X225023Y600963D01*
X219963Y606023D01*
X219963Y613177D01*
X225023Y618237D01*
X232177Y618237D01*
X237237Y613177D01*
X237237Y606023D01*
X232177Y600963D01*
X225023Y600963D01*
G37*
%LPD*%
%LPC*%
G36*
X148823Y600963D02*
X148823Y600963D01*
X143763Y606023D01*
X143763Y613177D01*
X148823Y618237D01*
X155977Y618237D01*
X161037Y613177D01*
X161037Y606023D01*
X155977Y600963D01*
X148823Y600963D01*
G37*
%LPD*%
%LPC*%
G36*
X148823Y880363D02*
X148823Y880363D01*
X143763Y885423D01*
X143763Y892577D01*
X148823Y897637D01*
X155977Y897637D01*
X161037Y892577D01*
X161037Y885423D01*
X155977Y880363D01*
X148823Y880363D01*
G37*
%LPD*%
%LPC*%
G36*
X47223Y778763D02*
X47223Y778763D01*
X42163Y783823D01*
X42163Y790977D01*
X47223Y796037D01*
X54377Y796037D01*
X59437Y790977D01*
X59437Y783823D01*
X54377Y778763D01*
X47223Y778763D01*
G37*
%LPD*%
%LPC*%
G36*
X34523Y867663D02*
X34523Y867663D01*
X29463Y872723D01*
X29463Y879877D01*
X34523Y884937D01*
X41677Y884937D01*
X46737Y879877D01*
X46737Y872723D01*
X41677Y867663D01*
X34523Y867663D01*
G37*
%LPD*%
%LPC*%
G36*
X339323Y562863D02*
X339323Y562863D01*
X334263Y567923D01*
X334263Y575077D01*
X339323Y580137D01*
X346477Y580137D01*
X351537Y575077D01*
X351537Y567923D01*
X346477Y562863D01*
X339323Y562863D01*
G37*
%LPD*%
%LPC*%
G36*
X263123Y829563D02*
X263123Y829563D01*
X258063Y834623D01*
X258063Y841777D01*
X263123Y846837D01*
X270277Y846837D01*
X275337Y841777D01*
X275337Y834623D01*
X270277Y829563D01*
X263123Y829563D01*
G37*
%LPD*%
%LPC*%
G36*
X161523Y334263D02*
X161523Y334263D01*
X156463Y339323D01*
X156463Y346477D01*
X161523Y351537D01*
X168677Y351537D01*
X173737Y346477D01*
X173737Y339323D01*
X168677Y334263D01*
X161523Y334263D01*
G37*
%LPD*%
%LPC*%
G36*
X339323Y829563D02*
X339323Y829563D01*
X334263Y834623D01*
X334263Y841777D01*
X339323Y846837D01*
X346477Y846837D01*
X351537Y841777D01*
X351537Y834623D01*
X346477Y829563D01*
X339323Y829563D01*
G37*
%LPD*%
%LPC*%
G36*
X263123Y397763D02*
X263123Y397763D01*
X258063Y402823D01*
X258063Y409977D01*
X263123Y415037D01*
X270277Y415037D01*
X275337Y409977D01*
X275337Y402823D01*
X270277Y397763D01*
X263123Y397763D01*
G37*
%LPD*%
%LPC*%
G36*
X34523Y893063D02*
X34523Y893063D01*
X29463Y898123D01*
X29463Y905277D01*
X34523Y910337D01*
X41677Y910337D01*
X46737Y905277D01*
X46737Y898123D01*
X41677Y893063D01*
X34523Y893063D01*
G37*
%LPD*%
%LPC*%
G36*
X339323Y524763D02*
X339323Y524763D01*
X334263Y529823D01*
X334263Y536977D01*
X339323Y542037D01*
X346477Y542037D01*
X351537Y536977D01*
X351537Y529823D01*
X346477Y524763D01*
X339323Y524763D01*
G37*
%LPD*%
%LPC*%
G36*
X263123Y423163D02*
X263123Y423163D01*
X258063Y428223D01*
X258063Y435377D01*
X263123Y440437D01*
X270277Y440437D01*
X275337Y435377D01*
X275337Y428223D01*
X270277Y423163D01*
X263123Y423163D01*
G37*
%LPD*%
%LPC*%
G36*
X47223Y829563D02*
X47223Y829563D01*
X42163Y834623D01*
X42163Y841777D01*
X47223Y846837D01*
X54377Y846837D01*
X59437Y841777D01*
X59437Y834623D01*
X54377Y829563D01*
X47223Y829563D01*
G37*
%LPD*%
%LPC*%
G36*
X212323Y562863D02*
X212323Y562863D01*
X207263Y567923D01*
X207263Y575077D01*
X212323Y580137D01*
X219477Y580137D01*
X224537Y575077D01*
X224537Y567923D01*
X219477Y562863D01*
X212323Y562863D01*
G37*
%LPD*%
%LPC*%
G36*
X225023Y880363D02*
X225023Y880363D01*
X219963Y885423D01*
X219963Y892577D01*
X225023Y897637D01*
X232177Y897637D01*
X237237Y892577D01*
X237237Y885423D01*
X232177Y880363D01*
X225023Y880363D01*
G37*
%LPD*%
%LPC*%
G36*
X263123Y854963D02*
X263123Y854963D01*
X258063Y860023D01*
X258063Y867177D01*
X263123Y872237D01*
X270277Y872237D01*
X275337Y867177D01*
X275337Y860023D01*
X270277Y854963D01*
X263123Y854963D01*
G37*
%LPD*%
%LPC*%
G36*
X339323Y473963D02*
X339323Y473963D01*
X334263Y479023D01*
X334263Y486177D01*
X339323Y491237D01*
X346477Y491237D01*
X351537Y486177D01*
X351537Y479023D01*
X346477Y473963D01*
X339323Y473963D01*
G37*
%LPD*%
%LPC*%
G36*
X263123Y473963D02*
X263123Y473963D01*
X258063Y479023D01*
X258063Y486177D01*
X263123Y491237D01*
X270277Y491237D01*
X275337Y486177D01*
X275337Y479023D01*
X270277Y473963D01*
X263123Y473963D01*
G37*
%LPD*%
%LPC*%
G36*
X34523Y473963D02*
X34523Y473963D01*
X29463Y479023D01*
X29463Y486177D01*
X34523Y491237D01*
X41677Y491237D01*
X46737Y486177D01*
X46737Y479023D01*
X41677Y473963D01*
X34523Y473963D01*
G37*
%LPD*%
%LPC*%
G36*
X110723Y473963D02*
X110723Y473963D01*
X105663Y479023D01*
X105663Y486177D01*
X110723Y491237D01*
X117877Y491237D01*
X122937Y486177D01*
X122937Y479023D01*
X117877Y473963D01*
X110723Y473963D01*
G37*
%LPD*%
%LPC*%
G36*
X27939Y307339D02*
X27939Y307339D01*
X27939Y314961D01*
X33820Y314961D01*
X35399Y314711D01*
X36920Y314216D01*
X38345Y313490D01*
X39639Y312550D01*
X40770Y311419D01*
X41710Y310125D01*
X42436Y308700D01*
X42879Y307339D01*
X27939Y307339D01*
G37*
%LPD*%
%LPC*%
G36*
X27939Y294639D02*
X27939Y294639D01*
X27939Y302261D01*
X42879Y302261D01*
X42436Y300900D01*
X41710Y299475D01*
X40770Y298181D01*
X39639Y297050D01*
X38345Y296110D01*
X36920Y295384D01*
X35399Y294889D01*
X33820Y294639D01*
X27939Y294639D01*
G37*
%LPD*%
%LPC*%
G36*
X287781Y700531D02*
X287781Y700531D01*
X287781Y707645D01*
X293074Y707645D01*
X294495Y707420D01*
X295864Y706975D01*
X297147Y706321D01*
X298311Y705475D01*
X299329Y704457D01*
X300175Y703293D01*
X300829Y702010D01*
X301274Y700641D01*
X301291Y700531D01*
X287781Y700531D01*
G37*
%LPD*%
%LPC*%
G36*
X154431Y484631D02*
X154431Y484631D01*
X154431Y491745D01*
X159724Y491745D01*
X161145Y491520D01*
X162514Y491075D01*
X163797Y490421D01*
X164961Y489575D01*
X165979Y488557D01*
X166825Y487393D01*
X167479Y486110D01*
X167924Y484741D01*
X167941Y484631D01*
X154431Y484631D01*
G37*
%LPD*%
%LPC*%
G36*
X230631Y484631D02*
X230631Y484631D01*
X230631Y491745D01*
X235924Y491745D01*
X237345Y491520D01*
X238714Y491075D01*
X239997Y490421D01*
X241161Y489575D01*
X242179Y488557D01*
X243025Y487393D01*
X243679Y486110D01*
X244124Y484741D01*
X244141Y484631D01*
X230631Y484631D01*
G37*
%LPD*%
%LPC*%
G36*
X136859Y484631D02*
X136859Y484631D01*
X136876Y484741D01*
X137321Y486110D01*
X137975Y487393D01*
X138821Y488557D01*
X139839Y489575D01*
X141003Y490421D01*
X142286Y491075D01*
X143655Y491520D01*
X145076Y491745D01*
X150369Y491745D01*
X150369Y484631D01*
X136859Y484631D01*
G37*
%LPD*%
%LPC*%
G36*
X270209Y700531D02*
X270209Y700531D01*
X270226Y700641D01*
X270671Y702010D01*
X271325Y703293D01*
X272171Y704457D01*
X273189Y705475D01*
X274353Y706321D01*
X275636Y706975D01*
X277005Y707420D01*
X278426Y707645D01*
X283719Y707645D01*
X283719Y700531D01*
X270209Y700531D01*
G37*
%LPD*%
%LPC*%
G36*
X213059Y484631D02*
X213059Y484631D01*
X213076Y484741D01*
X213521Y486110D01*
X214175Y487393D01*
X215021Y488557D01*
X216039Y489575D01*
X217203Y490421D01*
X218486Y491075D01*
X219855Y491520D01*
X221276Y491745D01*
X226569Y491745D01*
X226569Y484631D01*
X213059Y484631D01*
G37*
%LPD*%
%LPC*%
G36*
X287781Y689355D02*
X287781Y689355D01*
X287781Y696469D01*
X301291Y696469D01*
X301274Y696359D01*
X300829Y694990D01*
X300175Y693707D01*
X299329Y692543D01*
X298311Y691525D01*
X297147Y690679D01*
X295864Y690025D01*
X294495Y689580D01*
X293074Y689355D01*
X287781Y689355D01*
G37*
%LPD*%
%LPC*%
G36*
X230631Y473455D02*
X230631Y473455D01*
X230631Y480569D01*
X244141Y480569D01*
X244124Y480459D01*
X243679Y479090D01*
X243025Y477807D01*
X242179Y476643D01*
X241161Y475625D01*
X239997Y474779D01*
X238714Y474125D01*
X237345Y473680D01*
X235924Y473455D01*
X230631Y473455D01*
G37*
%LPD*%
%LPC*%
G36*
X154431Y473455D02*
X154431Y473455D01*
X154431Y480569D01*
X167941Y480569D01*
X167924Y480459D01*
X167479Y479090D01*
X166825Y477807D01*
X165979Y476643D01*
X164961Y475625D01*
X163797Y474779D01*
X162514Y474125D01*
X161145Y473680D01*
X159724Y473455D01*
X154431Y473455D01*
G37*
%LPD*%
%LPC*%
G36*
X145076Y473455D02*
X145076Y473455D01*
X143655Y473680D01*
X142286Y474125D01*
X141003Y474779D01*
X139839Y475625D01*
X138821Y476643D01*
X137975Y477807D01*
X137321Y479090D01*
X136876Y480459D01*
X136859Y480569D01*
X150369Y480569D01*
X150369Y473455D01*
X145076Y473455D01*
G37*
%LPD*%
%LPC*%
G36*
X278426Y689355D02*
X278426Y689355D01*
X277005Y689580D01*
X275636Y690025D01*
X274353Y690679D01*
X273189Y691525D01*
X272171Y692543D01*
X271325Y693707D01*
X270671Y694990D01*
X270226Y696359D01*
X270209Y696469D01*
X283719Y696469D01*
X283719Y689355D01*
X278426Y689355D01*
G37*
%LPD*%
%LPC*%
G36*
X221276Y473455D02*
X221276Y473455D01*
X219855Y473680D01*
X218486Y474125D01*
X217203Y474779D01*
X216039Y475625D01*
X215021Y476643D01*
X214175Y477807D01*
X213521Y479090D01*
X213076Y480459D01*
X213059Y480569D01*
X226569Y480569D01*
X226569Y473455D01*
X221276Y473455D01*
G37*
%LPD*%
%LPC*%
G36*
X40131Y71881D02*
X40131Y71881D01*
X40131Y80392D01*
X42467Y80392D01*
X48642Y74217D01*
X48642Y71881D01*
X40131Y71881D01*
G37*
%LPD*%
%LPC*%
G36*
X40131Y960881D02*
X40131Y960881D01*
X40131Y969392D01*
X42467Y969392D01*
X48642Y963217D01*
X48642Y960881D01*
X40131Y960881D01*
G37*
%LPD*%
%LPC*%
G36*
X27558Y71881D02*
X27558Y71881D01*
X27558Y74217D01*
X33733Y80392D01*
X36069Y80392D01*
X36069Y71881D01*
X27558Y71881D01*
G37*
%LPD*%
%LPC*%
G36*
X27558Y960881D02*
X27558Y960881D01*
X27558Y963217D01*
X33733Y969392D01*
X36069Y969392D01*
X36069Y960881D01*
X27558Y960881D01*
G37*
%LPD*%
%LPC*%
G36*
X40131Y59308D02*
X40131Y59308D01*
X40131Y67819D01*
X48642Y67819D01*
X48642Y65483D01*
X42467Y59308D01*
X40131Y59308D01*
G37*
%LPD*%
%LPC*%
G36*
X40131Y948308D02*
X40131Y948308D01*
X40131Y956819D01*
X48642Y956819D01*
X48642Y954483D01*
X42467Y948308D01*
X40131Y948308D01*
G37*
%LPD*%
%LPC*%
G36*
X33733Y59308D02*
X33733Y59308D01*
X27558Y65483D01*
X27558Y67819D01*
X36069Y67819D01*
X36069Y59308D01*
X33733Y59308D01*
G37*
%LPD*%
%LPC*%
G36*
X33733Y948308D02*
X33733Y948308D01*
X27558Y954483D01*
X27558Y956819D01*
X36069Y956819D01*
X36069Y948308D01*
X33733Y948308D01*
G37*
%LPD*%
%LPC*%
G36*
X344931Y71881D02*
X344931Y71881D01*
X344931Y80201D01*
X345369Y80132D01*
X346947Y79619D01*
X348425Y78866D01*
X349767Y77891D01*
X350941Y76717D01*
X351916Y75375D01*
X352669Y73897D01*
X353182Y72319D01*
X353251Y71881D01*
X344931Y71881D01*
G37*
%LPD*%
%LPC*%
G36*
X281431Y960881D02*
X281431Y960881D01*
X281431Y969201D01*
X281869Y969132D01*
X283447Y968619D01*
X284925Y967866D01*
X286267Y966891D01*
X287441Y965717D01*
X288416Y964375D01*
X289169Y962897D01*
X289682Y961319D01*
X289751Y960881D01*
X281431Y960881D01*
G37*
%LPD*%
%LPC*%
G36*
X332549Y71881D02*
X332549Y71881D01*
X332618Y72319D01*
X333131Y73897D01*
X333884Y75375D01*
X334859Y76717D01*
X336033Y77891D01*
X337375Y78866D01*
X338853Y79619D01*
X340431Y80132D01*
X340869Y80201D01*
X340869Y71881D01*
X332549Y71881D01*
G37*
%LPD*%
%LPC*%
G36*
X281431Y956819D02*
X281431Y956819D01*
X289751Y956819D01*
X289682Y956381D01*
X289169Y954803D01*
X288416Y953325D01*
X287441Y951983D01*
X286267Y950809D01*
X284925Y949834D01*
X283447Y949081D01*
X281869Y948568D01*
X281431Y948499D01*
X281431Y956819D01*
G37*
%LPD*%
%LPC*%
G36*
X269049Y960881D02*
X269049Y960881D01*
X269118Y961319D01*
X269631Y962897D01*
X270384Y964375D01*
X271359Y965717D01*
X272533Y966891D01*
X273875Y967866D01*
X275353Y968619D01*
X276931Y969132D01*
X277369Y969201D01*
X277369Y960881D01*
X269049Y960881D01*
G37*
%LPD*%
%LPC*%
G36*
X344931Y67819D02*
X344931Y67819D01*
X353251Y67819D01*
X353182Y67381D01*
X352669Y65803D01*
X351916Y64325D01*
X350941Y62983D01*
X349767Y61809D01*
X348425Y60834D01*
X346947Y60081D01*
X345369Y59568D01*
X344931Y59499D01*
X344931Y67819D01*
G37*
%LPD*%
%LPC*%
G36*
X276931Y948568D02*
X276931Y948568D01*
X275353Y949081D01*
X273875Y949834D01*
X272533Y950809D01*
X271359Y951983D01*
X270384Y953325D01*
X269631Y954803D01*
X269118Y956381D01*
X269049Y956819D01*
X277369Y956819D01*
X277369Y948499D01*
X276931Y948568D01*
G37*
%LPD*%
%LPC*%
G36*
X340431Y59568D02*
X340431Y59568D01*
X338853Y60081D01*
X337375Y60834D01*
X336033Y61809D01*
X334859Y62983D01*
X333884Y64325D01*
X333131Y65803D01*
X332618Y67381D01*
X332549Y67819D01*
X340869Y67819D01*
X340869Y59499D01*
X340431Y59568D01*
G37*
%LPD*%
%LPC*%
G36*
X218185Y46735D02*
X218185Y46735D01*
X218185Y54103D01*
X219898Y54103D01*
X225553Y48448D01*
X225553Y46735D01*
X218185Y46735D01*
G37*
%LPD*%
%LPC*%
G36*
X218185Y72135D02*
X218185Y72135D01*
X218185Y79503D01*
X219898Y79503D01*
X225553Y73848D01*
X225553Y72135D01*
X218185Y72135D01*
G37*
%LPD*%
%LPC*%
G36*
X167385Y46735D02*
X167385Y46735D01*
X167385Y54103D01*
X169098Y54103D01*
X174753Y48448D01*
X174753Y46735D01*
X167385Y46735D01*
G37*
%LPD*%
%LPC*%
G36*
X167385Y72135D02*
X167385Y72135D01*
X167385Y79503D01*
X169098Y79503D01*
X174753Y73848D01*
X174753Y72135D01*
X167385Y72135D01*
G37*
%LPD*%
%LPC*%
G36*
X192785Y46735D02*
X192785Y46735D01*
X192785Y54103D01*
X194498Y54103D01*
X200153Y48448D01*
X200153Y46735D01*
X192785Y46735D01*
G37*
%LPD*%
%LPC*%
G36*
X192785Y72135D02*
X192785Y72135D01*
X192785Y79503D01*
X194498Y79503D01*
X200153Y73848D01*
X200153Y72135D01*
X192785Y72135D01*
G37*
%LPD*%
%LPC*%
G36*
X192785Y60197D02*
X192785Y60197D01*
X192785Y67565D01*
X200153Y67565D01*
X200153Y65852D01*
X194498Y60197D01*
X192785Y60197D01*
G37*
%LPD*%
%LPC*%
G36*
X218185Y60197D02*
X218185Y60197D01*
X218185Y67565D01*
X225553Y67565D01*
X225553Y65852D01*
X219898Y60197D01*
X218185Y60197D01*
G37*
%LPD*%
%LPC*%
G36*
X192785Y34797D02*
X192785Y34797D01*
X192785Y42165D01*
X200153Y42165D01*
X200153Y40452D01*
X194498Y34797D01*
X192785Y34797D01*
G37*
%LPD*%
%LPC*%
G36*
X218185Y34797D02*
X218185Y34797D01*
X218185Y42165D01*
X225553Y42165D01*
X225553Y40452D01*
X219898Y34797D01*
X218185Y34797D01*
G37*
%LPD*%
%LPC*%
G36*
X167385Y60197D02*
X167385Y60197D01*
X167385Y67565D01*
X174753Y67565D01*
X174753Y65852D01*
X169098Y60197D01*
X167385Y60197D01*
G37*
%LPD*%
%LPC*%
G36*
X167385Y34797D02*
X167385Y34797D01*
X167385Y42165D01*
X174753Y42165D01*
X174753Y40452D01*
X169098Y34797D01*
X167385Y34797D01*
G37*
%LPD*%
%LPC*%
G36*
X180847Y72135D02*
X180847Y72135D01*
X180847Y73848D01*
X186502Y79503D01*
X188215Y79503D01*
X188215Y72135D01*
X180847Y72135D01*
G37*
%LPD*%
%LPC*%
G36*
X155447Y46735D02*
X155447Y46735D01*
X155447Y48448D01*
X161102Y54103D01*
X162815Y54103D01*
X162815Y46735D01*
X155447Y46735D01*
G37*
%LPD*%
%LPC*%
G36*
X206247Y46735D02*
X206247Y46735D01*
X206247Y48448D01*
X211902Y54103D01*
X213615Y54103D01*
X213615Y46735D01*
X206247Y46735D01*
G37*
%LPD*%
%LPC*%
G36*
X206247Y72135D02*
X206247Y72135D01*
X206247Y73848D01*
X211902Y79503D01*
X213615Y79503D01*
X213615Y72135D01*
X206247Y72135D01*
G37*
%LPD*%
%LPC*%
G36*
X180847Y46735D02*
X180847Y46735D01*
X180847Y48448D01*
X186502Y54103D01*
X188215Y54103D01*
X188215Y46735D01*
X180847Y46735D01*
G37*
%LPD*%
%LPC*%
G36*
X155447Y72135D02*
X155447Y72135D01*
X155447Y73848D01*
X161102Y79503D01*
X162815Y79503D01*
X162815Y72135D01*
X155447Y72135D01*
G37*
%LPD*%
%LPC*%
G36*
X161102Y60197D02*
X161102Y60197D01*
X155447Y65852D01*
X155447Y67565D01*
X162815Y67565D01*
X162815Y60197D01*
X161102Y60197D01*
G37*
%LPD*%
%LPC*%
G36*
X161102Y34797D02*
X161102Y34797D01*
X155447Y40452D01*
X155447Y42165D01*
X162815Y42165D01*
X162815Y34797D01*
X161102Y34797D01*
G37*
%LPD*%
%LPC*%
G36*
X186502Y60197D02*
X186502Y60197D01*
X180847Y65852D01*
X180847Y67565D01*
X188215Y67565D01*
X188215Y60197D01*
X186502Y60197D01*
G37*
%LPD*%
%LPC*%
G36*
X211902Y34797D02*
X211902Y34797D01*
X206247Y40452D01*
X206247Y42165D01*
X213615Y42165D01*
X213615Y34797D01*
X211902Y34797D01*
G37*
%LPD*%
%LPC*%
G36*
X211902Y60197D02*
X211902Y60197D01*
X206247Y65852D01*
X206247Y67565D01*
X213615Y67565D01*
X213615Y60197D01*
X211902Y60197D01*
G37*
%LPD*%
%LPC*%
G36*
X186502Y34797D02*
X186502Y34797D01*
X180847Y40452D01*
X180847Y42165D01*
X188215Y42165D01*
X188215Y34797D01*
X186502Y34797D01*
G37*
%LPD*%
%LPC*%
G36*
X40131Y459231D02*
X40131Y459231D01*
X40131Y466345D01*
X41888Y466345D01*
X47245Y460988D01*
X47245Y459231D01*
X40131Y459231D01*
G37*
%LPD*%
%LPC*%
G36*
X306831Y148081D02*
X306831Y148081D01*
X306831Y155195D01*
X308588Y155195D01*
X313945Y149838D01*
X313945Y148081D01*
X306831Y148081D01*
G37*
%LPD*%
%LPC*%
G36*
X344931Y433831D02*
X344931Y433831D01*
X344931Y440945D01*
X346688Y440945D01*
X352045Y435588D01*
X352045Y433831D01*
X344931Y433831D01*
G37*
%LPD*%
%LPC*%
G36*
X319531Y643381D02*
X319531Y643381D01*
X319531Y650495D01*
X321288Y650495D01*
X326645Y645138D01*
X326645Y643381D01*
X319531Y643381D01*
G37*
%LPD*%
%LPC*%
G36*
X116331Y738631D02*
X116331Y738631D01*
X116331Y745745D01*
X118088Y745745D01*
X123445Y740388D01*
X123445Y738631D01*
X116331Y738631D01*
G37*
%LPD*%
%LPC*%
G36*
X116331Y408431D02*
X116331Y408431D01*
X116331Y415545D01*
X118088Y415545D01*
X123445Y410188D01*
X123445Y408431D01*
X116331Y408431D01*
G37*
%LPD*%
%LPC*%
G36*
X344931Y668781D02*
X344931Y668781D01*
X344931Y675895D01*
X346688Y675895D01*
X352045Y670538D01*
X352045Y668781D01*
X344931Y668781D01*
G37*
%LPD*%
%LPC*%
G36*
X217931Y344931D02*
X217931Y344931D01*
X217931Y352045D01*
X219688Y352045D01*
X225045Y346688D01*
X225045Y344931D01*
X217931Y344931D01*
G37*
%LPD*%
%LPC*%
G36*
X344931Y459231D02*
X344931Y459231D01*
X344931Y466345D01*
X346688Y466345D01*
X352045Y460988D01*
X352045Y459231D01*
X344931Y459231D01*
G37*
%LPD*%
%LPC*%
G36*
X167131Y573531D02*
X167131Y573531D01*
X167131Y580645D01*
X168888Y580645D01*
X174245Y575288D01*
X174245Y573531D01*
X167131Y573531D01*
G37*
%LPD*%
%LPC*%
G36*
X333755Y459231D02*
X333755Y459231D01*
X333755Y460988D01*
X339112Y466345D01*
X340869Y466345D01*
X340869Y459231D01*
X333755Y459231D01*
G37*
%LPD*%
%LPC*%
G36*
X206755Y344931D02*
X206755Y344931D01*
X206755Y346688D01*
X212112Y352045D01*
X213869Y352045D01*
X213869Y344931D01*
X206755Y344931D01*
G37*
%LPD*%
%LPC*%
G36*
X333755Y433831D02*
X333755Y433831D01*
X333755Y435588D01*
X339112Y440945D01*
X340869Y440945D01*
X340869Y433831D01*
X333755Y433831D01*
G37*
%LPD*%
%LPC*%
G36*
X105155Y408431D02*
X105155Y408431D01*
X105155Y410188D01*
X110512Y415545D01*
X112269Y415545D01*
X112269Y408431D01*
X105155Y408431D01*
G37*
%LPD*%
%LPC*%
G36*
X105155Y738631D02*
X105155Y738631D01*
X105155Y740388D01*
X110512Y745745D01*
X112269Y745745D01*
X112269Y738631D01*
X105155Y738631D01*
G37*
%LPD*%
%LPC*%
G36*
X155955Y573531D02*
X155955Y573531D01*
X155955Y575288D01*
X161312Y580645D01*
X163069Y580645D01*
X163069Y573531D01*
X155955Y573531D01*
G37*
%LPD*%
%LPC*%
G36*
X295655Y148081D02*
X295655Y148081D01*
X295655Y149838D01*
X301012Y155195D01*
X302769Y155195D01*
X302769Y148081D01*
X295655Y148081D01*
G37*
%LPD*%
%LPC*%
G36*
X28955Y459231D02*
X28955Y459231D01*
X28955Y460988D01*
X34312Y466345D01*
X36069Y466345D01*
X36069Y459231D01*
X28955Y459231D01*
G37*
%LPD*%
%LPC*%
G36*
X319531Y632205D02*
X319531Y632205D01*
X319531Y639319D01*
X326645Y639319D01*
X326645Y637562D01*
X321288Y632205D01*
X319531Y632205D01*
G37*
%LPD*%
%LPC*%
G36*
X116331Y397255D02*
X116331Y397255D01*
X116331Y404369D01*
X123445Y404369D01*
X123445Y402612D01*
X118088Y397255D01*
X116331Y397255D01*
G37*
%LPD*%
%LPC*%
G36*
X306831Y136905D02*
X306831Y136905D01*
X306831Y144019D01*
X313945Y144019D01*
X313945Y142262D01*
X308588Y136905D01*
X306831Y136905D01*
G37*
%LPD*%
%LPC*%
G36*
X217931Y333755D02*
X217931Y333755D01*
X217931Y340869D01*
X225045Y340869D01*
X225045Y339112D01*
X219688Y333755D01*
X217931Y333755D01*
G37*
%LPD*%
%LPC*%
G36*
X308355Y643381D02*
X308355Y643381D01*
X308355Y645138D01*
X313712Y650495D01*
X315469Y650495D01*
X315469Y643381D01*
X308355Y643381D01*
G37*
%LPD*%
%LPC*%
G36*
X116331Y727455D02*
X116331Y727455D01*
X116331Y734569D01*
X123445Y734569D01*
X123445Y732812D01*
X118088Y727455D01*
X116331Y727455D01*
G37*
%LPD*%
%LPC*%
G36*
X344931Y448055D02*
X344931Y448055D01*
X344931Y455169D01*
X352045Y455169D01*
X352045Y453412D01*
X346688Y448055D01*
X344931Y448055D01*
G37*
%LPD*%
%LPC*%
G36*
X167131Y562355D02*
X167131Y562355D01*
X167131Y569469D01*
X174245Y569469D01*
X174245Y567712D01*
X168888Y562355D01*
X167131Y562355D01*
G37*
%LPD*%
%LPC*%
G36*
X344931Y657605D02*
X344931Y657605D01*
X344931Y664719D01*
X352045Y664719D01*
X352045Y662962D01*
X346688Y657605D01*
X344931Y657605D01*
G37*
%LPD*%
%LPC*%
G36*
X333755Y668781D02*
X333755Y668781D01*
X333755Y670538D01*
X339112Y675895D01*
X340869Y675895D01*
X340869Y668781D01*
X333755Y668781D01*
G37*
%LPD*%
%LPC*%
G36*
X344931Y422655D02*
X344931Y422655D01*
X344931Y429769D01*
X352045Y429769D01*
X352045Y428012D01*
X346688Y422655D01*
X344931Y422655D01*
G37*
%LPD*%
%LPC*%
G36*
X40131Y448055D02*
X40131Y448055D01*
X40131Y455169D01*
X47245Y455169D01*
X47245Y453412D01*
X41888Y448055D01*
X40131Y448055D01*
G37*
%LPD*%
%LPC*%
G36*
X339112Y657605D02*
X339112Y657605D01*
X333755Y662962D01*
X333755Y664719D01*
X340869Y664719D01*
X340869Y657605D01*
X339112Y657605D01*
G37*
%LPD*%
%LPC*%
G36*
X313712Y632205D02*
X313712Y632205D01*
X308355Y637562D01*
X308355Y639319D01*
X315469Y639319D01*
X315469Y632205D01*
X313712Y632205D01*
G37*
%LPD*%
%LPC*%
G36*
X212112Y333755D02*
X212112Y333755D01*
X206755Y339112D01*
X206755Y340869D01*
X213869Y340869D01*
X213869Y333755D01*
X212112Y333755D01*
G37*
%LPD*%
%LPC*%
G36*
X110512Y727455D02*
X110512Y727455D01*
X105155Y732812D01*
X105155Y734569D01*
X112269Y734569D01*
X112269Y727455D01*
X110512Y727455D01*
G37*
%LPD*%
%LPC*%
G36*
X301012Y136905D02*
X301012Y136905D01*
X295655Y142262D01*
X295655Y144019D01*
X302769Y144019D01*
X302769Y136905D01*
X301012Y136905D01*
G37*
%LPD*%
%LPC*%
G36*
X34312Y448055D02*
X34312Y448055D01*
X28955Y453412D01*
X28955Y455169D01*
X36069Y455169D01*
X36069Y448055D01*
X34312Y448055D01*
G37*
%LPD*%
%LPC*%
G36*
X339112Y448055D02*
X339112Y448055D01*
X333755Y453412D01*
X333755Y455169D01*
X340869Y455169D01*
X340869Y448055D01*
X339112Y448055D01*
G37*
%LPD*%
%LPC*%
G36*
X339112Y422655D02*
X339112Y422655D01*
X333755Y428012D01*
X333755Y429769D01*
X340869Y429769D01*
X340869Y422655D01*
X339112Y422655D01*
G37*
%LPD*%
%LPC*%
G36*
X161312Y562355D02*
X161312Y562355D01*
X155955Y567712D01*
X155955Y569469D01*
X163069Y569469D01*
X163069Y562355D01*
X161312Y562355D01*
G37*
%LPD*%
%LPC*%
G36*
X110512Y397255D02*
X110512Y397255D01*
X105155Y402612D01*
X105155Y404369D01*
X112269Y404369D01*
X112269Y397255D01*
X110512Y397255D01*
G37*
%LPD*%
D10*
X145796Y533400D02*
X159004Y533400D01*
X159004Y508000D02*
X145796Y508000D01*
X145796Y381000D02*
X159004Y381000D01*
X221996Y381000D02*
X235204Y381000D01*
X159004Y482600D02*
X145796Y482600D01*
X145796Y457200D02*
X159004Y457200D01*
X159004Y406400D02*
X145796Y406400D01*
X145796Y431800D02*
X159004Y431800D01*
X221996Y406400D02*
X235204Y406400D01*
X235204Y431800D02*
X221996Y431800D01*
X221996Y457200D02*
X235204Y457200D01*
X235204Y482600D02*
X221996Y482600D01*
X221996Y508000D02*
X235204Y508000D01*
X235204Y533400D02*
X221996Y533400D01*
D11*
X342900Y44450D03*
D12*
X342900Y69850D03*
D13*
X38100Y69850D03*
D12*
X38100Y44450D03*
D14*
X139700Y44450D03*
X139700Y69850D03*
X165100Y44450D03*
X165100Y69850D03*
X190500Y44450D03*
X190500Y69850D03*
X215900Y44450D03*
X215900Y69850D03*
X241300Y44450D03*
X241300Y69850D03*
D15*
X114300Y508000D03*
X38100Y508000D03*
X101600Y838200D03*
X50800Y838200D03*
D16*
X38100Y533400D03*
X114300Y533400D03*
X38100Y482600D03*
X114300Y482600D03*
D17*
X146050Y273050D03*
D12*
X120650Y273050D03*
D10*
X279146Y800100D02*
X292354Y800100D01*
X292354Y749300D02*
X279146Y749300D01*
X279146Y774700D02*
X292354Y774700D01*
X292354Y673100D02*
X279146Y673100D01*
X279146Y723900D02*
X292354Y723900D01*
X292354Y698500D02*
X279146Y698500D01*
D15*
X342900Y838200D03*
X266700Y838200D03*
D16*
X266700Y863600D03*
X342900Y863600D03*
D11*
X279400Y933450D03*
D12*
X279400Y958850D03*
D15*
X342900Y571500D03*
X266700Y571500D03*
D18*
X342900Y615950D03*
X342900Y666750D03*
X317500Y641350D03*
X342900Y641350D03*
D10*
X159004Y635000D02*
X145796Y635000D01*
X221996Y635000D02*
X235204Y635000D01*
X235204Y660400D02*
X221996Y660400D01*
X159004Y660400D02*
X145796Y660400D01*
X145796Y685800D02*
X159004Y685800D01*
X221996Y685800D02*
X235204Y685800D01*
X235204Y711200D02*
X221996Y711200D01*
X159004Y711200D02*
X145796Y711200D01*
X145796Y736600D02*
X159004Y736600D01*
X221996Y736600D02*
X235204Y736600D01*
X235204Y762000D02*
X221996Y762000D01*
X159004Y762000D02*
X145796Y762000D01*
X145796Y787400D02*
X159004Y787400D01*
X221996Y787400D02*
X235204Y787400D01*
X235204Y812800D02*
X221996Y812800D01*
X159004Y812800D02*
X145796Y812800D01*
X145796Y838200D02*
X159004Y838200D01*
X221996Y838200D02*
X235204Y838200D01*
X235204Y863600D02*
X221996Y863600D01*
X159004Y863600D02*
X145796Y863600D01*
D15*
X228600Y889000D03*
X152400Y889000D03*
X228600Y609600D03*
X152400Y609600D03*
X171450Y946150D03*
X222250Y946150D03*
X196850Y971550D03*
X196850Y946150D03*
X114300Y901700D03*
X38100Y901700D03*
D16*
X38100Y876300D03*
X114300Y876300D03*
D13*
X38100Y958850D03*
D12*
X38100Y933450D03*
D15*
X101600Y787400D03*
X50800Y787400D03*
X101600Y641350D03*
X50800Y641350D03*
X114300Y736600D03*
X38100Y736600D03*
D17*
X279400Y215900D03*
D12*
X254000Y215900D03*
D15*
X304800Y146050D03*
X228600Y146050D03*
D11*
X76200Y565150D03*
D12*
X76200Y590550D03*
D15*
X114300Y406400D03*
X38100Y406400D03*
X342900Y457200D03*
X266700Y457200D03*
D16*
X266700Y406400D03*
X342900Y406400D03*
D15*
X342900Y431800D03*
X266700Y431800D03*
D17*
X317500Y342900D03*
D12*
X292100Y342900D03*
D15*
X342900Y482600D03*
X266700Y482600D03*
D16*
X266700Y533400D03*
X342900Y533400D03*
X266700Y508000D03*
X342900Y508000D03*
X38100Y457200D03*
X114300Y457200D03*
D15*
X114300Y431800D03*
X38100Y431800D03*
D16*
X266700Y381000D03*
X342900Y381000D03*
D17*
X279400Y279400D03*
D12*
X254000Y279400D03*
D19*
X347980Y304800D02*
X363220Y304800D01*
X363220Y279400D02*
X347980Y279400D01*
X347980Y254000D02*
X363220Y254000D01*
X363220Y228600D02*
X347980Y228600D01*
X347980Y203200D02*
X363220Y203200D01*
X363220Y177800D02*
X347980Y177800D01*
D15*
X215900Y571500D03*
X165100Y571500D03*
D16*
X165100Y342900D03*
X215900Y342900D03*
D15*
X101600Y698500D03*
X50800Y698500D03*
D16*
X38100Y381000D03*
X114300Y381000D03*
D19*
X33020Y177800D02*
X17780Y177800D01*
X17780Y203200D02*
X33020Y203200D01*
X33020Y228600D02*
X17780Y228600D01*
X17780Y254000D02*
X33020Y254000D01*
X33020Y279400D02*
X17780Y279400D01*
X17780Y304800D02*
X33020Y304800D01*
D20*
X25400Y177800D02*
X203200Y177800D01*
D21*
X203200Y177800D03*
D20*
X177800Y203200D02*
X25400Y203200D01*
D22*
X177800Y203200D03*
D23*
X330200Y908050D03*
X254000Y349250D03*
X330200Y107950D03*
X25400Y95250D03*
X133350Y584200D03*
D22*
X63500Y158750D03*
D24*
X50800Y342900D02*
X120650Y342900D01*
D25*
X50800Y342900D03*
X120650Y342900D03*
D24*
X114300Y508000D02*
X152400Y508000D01*
X152400Y533400D02*
X139700Y533400D01*
X127000Y520700D01*
X38100Y520700D01*
X38100Y508000D01*
X38100Y520700D02*
X38100Y533400D01*
X31750Y279400D02*
X95250Y215900D01*
X190500Y215900D01*
X190500Y546100D02*
X241300Y546100D01*
X266700Y571500D01*
D25*
X190500Y215900D03*
D23*
X190500Y546100D03*
D24*
X31750Y279400D02*
X25400Y279400D01*
X228600Y635000D02*
X247650Y635000D01*
X285750Y673100D01*
X152400Y787400D02*
X127000Y787400D01*
X101600Y812800D01*
X101600Y838200D01*
X133350Y698500D02*
X254000Y698500D01*
X133350Y698500D02*
X120650Y685800D01*
X63500Y685800D01*
X50800Y698500D01*
D23*
X254000Y698500D03*
D24*
X101600Y647700D02*
X101600Y641350D01*
X101600Y647700D02*
X139700Y685800D01*
X152400Y685800D01*
X127000Y850900D02*
X127000Y927100D01*
X146050Y946150D01*
X171450Y946150D01*
D25*
X127000Y850900D03*
D24*
X311150Y317500D02*
X323850Y304800D01*
X311150Y317500D02*
X247650Y317500D01*
X241300Y323850D01*
X31750Y323850D01*
X19050Y336550D01*
D25*
X323850Y304800D03*
D22*
X19050Y336550D03*
D24*
X38100Y381000D02*
X63500Y381000D01*
X63500Y273050D02*
X88900Y247650D01*
X222250Y247650D01*
X254000Y215900D01*
D25*
X63500Y381000D03*
X63500Y273050D03*
D24*
X292100Y228600D02*
X355600Y228600D01*
X292100Y228600D02*
X279400Y215900D01*
X279400Y158750D01*
X266700Y146050D01*
X228600Y146050D01*
X76200Y406400D02*
X38100Y406400D01*
X76200Y292100D02*
X209550Y292100D01*
D25*
X76200Y406400D03*
X76200Y292100D03*
D24*
X209550Y292100D02*
X247650Y254000D01*
X355600Y254000D01*
X342900Y406400D02*
X292100Y406400D01*
D25*
X292100Y406400D03*
D24*
X266700Y508000D02*
X228600Y508000D01*
X228600Y533400D02*
X266700Y533400D01*
X292100Y533400D01*
X317500Y508000D01*
X342900Y508000D01*
X152400Y431800D02*
X114300Y431800D01*
X88900Y431800D02*
X38100Y431800D01*
X88900Y311150D02*
X234950Y311150D01*
X254000Y292100D01*
X254000Y279400D01*
D25*
X88900Y431800D03*
X88900Y311150D03*
D24*
X279400Y279400D02*
X355600Y279400D01*
X152400Y762000D02*
X114300Y762000D01*
X101600Y774700D01*
X101600Y787400D01*
X114300Y381000D02*
X152400Y381000D01*
M02*
