G04 EAGLE Gerber RS-274X export*
G75*
%MOMM*%
%FSLAX34Y34*%
%LPD*%
%IN*%
%IPPOS*%
%AMOC8*
5,1,8,0,0,1.08239X$1,22.5*%
G01*
%ADD10C,0.254000*%


D10*
X0Y0D02*
X381000Y0D01*
X381000Y990600D01*
X0Y990600D01*
X0Y0D01*
X358900Y951976D02*
X358832Y950931D01*
X358695Y949892D01*
X358490Y948865D01*
X358219Y947853D01*
X357883Y946861D01*
X357482Y945893D01*
X357018Y944954D01*
X356495Y944046D01*
X355913Y943175D01*
X355275Y942344D01*
X354584Y941557D01*
X353843Y940816D01*
X353056Y940125D01*
X352225Y939488D01*
X351354Y938906D01*
X350446Y938382D01*
X349507Y937918D01*
X348539Y937517D01*
X347547Y937181D01*
X346535Y936910D01*
X345508Y936705D01*
X344469Y936569D01*
X343424Y936500D01*
X342376Y936500D01*
X341331Y936569D01*
X340292Y936705D01*
X339265Y936910D01*
X338253Y937181D01*
X337261Y937517D01*
X336293Y937918D01*
X335354Y938382D01*
X334446Y938906D01*
X333575Y939488D01*
X332744Y940125D01*
X331957Y940816D01*
X331216Y941557D01*
X330525Y942344D01*
X329888Y943175D01*
X329306Y944046D01*
X328782Y944954D01*
X328318Y945893D01*
X327917Y946861D01*
X327581Y947853D01*
X327310Y948865D01*
X327105Y949892D01*
X326969Y950931D01*
X326900Y951976D01*
X326900Y953024D01*
X326969Y954069D01*
X327105Y955108D01*
X327310Y956135D01*
X327581Y957147D01*
X327917Y958139D01*
X328318Y959107D01*
X328782Y960046D01*
X329306Y960954D01*
X329888Y961825D01*
X330525Y962656D01*
X331216Y963443D01*
X331957Y964184D01*
X332744Y964875D01*
X333575Y965513D01*
X334446Y966095D01*
X335354Y966618D01*
X336293Y967082D01*
X337261Y967483D01*
X338253Y967819D01*
X339265Y968090D01*
X340292Y968295D01*
X341331Y968432D01*
X342376Y968500D01*
X343424Y968500D01*
X344469Y968432D01*
X345508Y968295D01*
X346535Y968090D01*
X347547Y967819D01*
X348539Y967483D01*
X349507Y967082D01*
X350446Y966618D01*
X351354Y966095D01*
X352225Y965513D01*
X353056Y964875D01*
X353843Y964184D01*
X354584Y963443D01*
X355275Y962656D01*
X355913Y961825D01*
X356495Y960954D01*
X357018Y960046D01*
X357482Y959107D01*
X357883Y958139D01*
X358219Y957147D01*
X358490Y956135D01*
X358695Y955108D01*
X358832Y954069D01*
X358900Y953024D01*
X358900Y951976D01*
M02*
