G04 EAGLE Gerber RS-274X export*
G75*
%MOMM*%
%FSLAX34Y34*%
%LPD*%
%INBoard Outline*%
%IPPOS*%
%AMOC8*
5,1,8,0,0,1.08239X$1,22.5*%
G01*
%ADD10C,0.000000*%
%ADD11C,0.254000*%


D10*
X381000Y0D02*
X381000Y990600D01*
X0Y990600D01*
X0Y0D01*
X381000Y0D01*
X326900Y952500D02*
X326905Y952893D01*
X326919Y953285D01*
X326943Y953677D01*
X326977Y954068D01*
X327020Y954459D01*
X327073Y954848D01*
X327136Y955235D01*
X327207Y955621D01*
X327289Y956006D01*
X327379Y956388D01*
X327480Y956767D01*
X327589Y957145D01*
X327708Y957519D01*
X327835Y957890D01*
X327972Y958258D01*
X328118Y958623D01*
X328273Y958984D01*
X328436Y959341D01*
X328608Y959694D01*
X328789Y960042D01*
X328979Y960386D01*
X329176Y960726D01*
X329382Y961060D01*
X329596Y961389D01*
X329819Y961713D01*
X330049Y962031D01*
X330286Y962344D01*
X330532Y962650D01*
X330785Y962951D01*
X331045Y963245D01*
X331312Y963533D01*
X331586Y963814D01*
X331867Y964088D01*
X332155Y964355D01*
X332449Y964615D01*
X332750Y964868D01*
X333056Y965114D01*
X333369Y965351D01*
X333687Y965581D01*
X334011Y965804D01*
X334340Y966018D01*
X334674Y966224D01*
X335014Y966421D01*
X335358Y966611D01*
X335706Y966792D01*
X336059Y966964D01*
X336416Y967127D01*
X336777Y967282D01*
X337142Y967428D01*
X337510Y967565D01*
X337881Y967692D01*
X338255Y967811D01*
X338633Y967920D01*
X339012Y968021D01*
X339394Y968111D01*
X339779Y968193D01*
X340165Y968264D01*
X340552Y968327D01*
X340941Y968380D01*
X341332Y968423D01*
X341723Y968457D01*
X342115Y968481D01*
X342507Y968495D01*
X342900Y968500D01*
X343293Y968495D01*
X343685Y968481D01*
X344077Y968457D01*
X344468Y968423D01*
X344859Y968380D01*
X345248Y968327D01*
X345635Y968264D01*
X346021Y968193D01*
X346406Y968111D01*
X346788Y968021D01*
X347167Y967920D01*
X347545Y967811D01*
X347919Y967692D01*
X348290Y967565D01*
X348658Y967428D01*
X349023Y967282D01*
X349384Y967127D01*
X349741Y966964D01*
X350094Y966792D01*
X350442Y966611D01*
X350786Y966421D01*
X351126Y966224D01*
X351460Y966018D01*
X351789Y965804D01*
X352113Y965581D01*
X352431Y965351D01*
X352744Y965114D01*
X353050Y964868D01*
X353351Y964615D01*
X353645Y964355D01*
X353933Y964088D01*
X354214Y963814D01*
X354488Y963533D01*
X354755Y963245D01*
X355015Y962951D01*
X355268Y962650D01*
X355514Y962344D01*
X355751Y962031D01*
X355981Y961713D01*
X356204Y961389D01*
X356418Y961060D01*
X356624Y960726D01*
X356821Y960386D01*
X357011Y960042D01*
X357192Y959694D01*
X357364Y959341D01*
X357527Y958984D01*
X357682Y958623D01*
X357828Y958258D01*
X357965Y957890D01*
X358092Y957519D01*
X358211Y957145D01*
X358320Y956767D01*
X358421Y956388D01*
X358511Y956006D01*
X358593Y955621D01*
X358664Y955235D01*
X358727Y954848D01*
X358780Y954459D01*
X358823Y954068D01*
X358857Y953677D01*
X358881Y953285D01*
X358895Y952893D01*
X358900Y952500D01*
X358895Y952107D01*
X358881Y951715D01*
X358857Y951323D01*
X358823Y950932D01*
X358780Y950541D01*
X358727Y950152D01*
X358664Y949765D01*
X358593Y949379D01*
X358511Y948994D01*
X358421Y948612D01*
X358320Y948233D01*
X358211Y947855D01*
X358092Y947481D01*
X357965Y947110D01*
X357828Y946742D01*
X357682Y946377D01*
X357527Y946016D01*
X357364Y945659D01*
X357192Y945306D01*
X357011Y944958D01*
X356821Y944614D01*
X356624Y944274D01*
X356418Y943940D01*
X356204Y943611D01*
X355981Y943287D01*
X355751Y942969D01*
X355514Y942656D01*
X355268Y942350D01*
X355015Y942049D01*
X354755Y941755D01*
X354488Y941467D01*
X354214Y941186D01*
X353933Y940912D01*
X353645Y940645D01*
X353351Y940385D01*
X353050Y940132D01*
X352744Y939886D01*
X352431Y939649D01*
X352113Y939419D01*
X351789Y939196D01*
X351460Y938982D01*
X351126Y938776D01*
X350786Y938579D01*
X350442Y938389D01*
X350094Y938208D01*
X349741Y938036D01*
X349384Y937873D01*
X349023Y937718D01*
X348658Y937572D01*
X348290Y937435D01*
X347919Y937308D01*
X347545Y937189D01*
X347167Y937080D01*
X346788Y936979D01*
X346406Y936889D01*
X346021Y936807D01*
X345635Y936736D01*
X345248Y936673D01*
X344859Y936620D01*
X344468Y936577D01*
X344077Y936543D01*
X343685Y936519D01*
X343293Y936505D01*
X342900Y936500D01*
X342507Y936505D01*
X342115Y936519D01*
X341723Y936543D01*
X341332Y936577D01*
X340941Y936620D01*
X340552Y936673D01*
X340165Y936736D01*
X339779Y936807D01*
X339394Y936889D01*
X339012Y936979D01*
X338633Y937080D01*
X338255Y937189D01*
X337881Y937308D01*
X337510Y937435D01*
X337142Y937572D01*
X336777Y937718D01*
X336416Y937873D01*
X336059Y938036D01*
X335706Y938208D01*
X335358Y938389D01*
X335014Y938579D01*
X334674Y938776D01*
X334340Y938982D01*
X334011Y939196D01*
X333687Y939419D01*
X333369Y939649D01*
X333056Y939886D01*
X332750Y940132D01*
X332449Y940385D01*
X332155Y940645D01*
X331867Y940912D01*
X331586Y941186D01*
X331312Y941467D01*
X331045Y941755D01*
X330785Y942049D01*
X330532Y942350D01*
X330286Y942656D01*
X330049Y942969D01*
X329819Y943287D01*
X329596Y943611D01*
X329382Y943940D01*
X329176Y944274D01*
X328979Y944614D01*
X328789Y944958D01*
X328608Y945306D01*
X328436Y945659D01*
X328273Y946016D01*
X328118Y946377D01*
X327972Y946742D01*
X327835Y947110D01*
X327708Y947481D01*
X327589Y947855D01*
X327480Y948233D01*
X327379Y948612D01*
X327289Y948994D01*
X327207Y949379D01*
X327136Y949765D01*
X327073Y950152D01*
X327020Y950541D01*
X326977Y950932D01*
X326943Y951323D01*
X326919Y951715D01*
X326905Y952107D01*
X326900Y952500D01*
D11*
X0Y0D02*
X381000Y0D01*
X381000Y990600D01*
X0Y990600D01*
X0Y0D01*
X358900Y951976D02*
X358832Y950931D01*
X358695Y949892D01*
X358490Y948865D01*
X358219Y947853D01*
X357883Y946861D01*
X357482Y945893D01*
X357018Y944954D01*
X356495Y944046D01*
X355913Y943175D01*
X355275Y942344D01*
X354584Y941557D01*
X353843Y940816D01*
X353056Y940125D01*
X352225Y939488D01*
X351354Y938906D01*
X350446Y938382D01*
X349507Y937918D01*
X348539Y937517D01*
X347547Y937181D01*
X346535Y936910D01*
X345508Y936705D01*
X344469Y936569D01*
X343424Y936500D01*
X342376Y936500D01*
X341331Y936569D01*
X340292Y936705D01*
X339265Y936910D01*
X338253Y937181D01*
X337261Y937517D01*
X336293Y937918D01*
X335354Y938382D01*
X334446Y938906D01*
X333575Y939488D01*
X332744Y940125D01*
X331957Y940816D01*
X331216Y941557D01*
X330525Y942344D01*
X329888Y943175D01*
X329306Y944046D01*
X328782Y944954D01*
X328318Y945893D01*
X327917Y946861D01*
X327581Y947853D01*
X327310Y948865D01*
X327105Y949892D01*
X326969Y950931D01*
X326900Y951976D01*
X326900Y953024D01*
X326969Y954069D01*
X327105Y955108D01*
X327310Y956135D01*
X327581Y957147D01*
X327917Y958139D01*
X328318Y959107D01*
X328782Y960046D01*
X329306Y960954D01*
X329888Y961825D01*
X330525Y962656D01*
X331216Y963443D01*
X331957Y964184D01*
X332744Y964875D01*
X333575Y965513D01*
X334446Y966095D01*
X335354Y966618D01*
X336293Y967082D01*
X337261Y967483D01*
X338253Y967819D01*
X339265Y968090D01*
X340292Y968295D01*
X341331Y968432D01*
X342376Y968500D01*
X343424Y968500D01*
X344469Y968432D01*
X345508Y968295D01*
X346535Y968090D01*
X347547Y967819D01*
X348539Y967483D01*
X349507Y967082D01*
X350446Y966618D01*
X351354Y966095D01*
X352225Y965513D01*
X353056Y964875D01*
X353843Y964184D01*
X354584Y963443D01*
X355275Y962656D01*
X355913Y961825D01*
X356495Y960954D01*
X357018Y960046D01*
X357482Y959107D01*
X357883Y958139D01*
X358219Y957147D01*
X358490Y956135D01*
X358695Y955108D01*
X358832Y954069D01*
X358900Y953024D01*
X358900Y951976D01*
M02*
