M48
;GenerationSoftware,Autodesk,EAGLE,9.6.2*%
;CreationDate,2022-05-04T20:48:41Z*%
FMAT,2
ICI,OFF
METRIC,TZ,000.000
T7C0.350
T6C0.600
T5C0.610
T4C0.813
T3C0.914
T2C1.016
T1C3.200
%
G90
M71
T1
X34290Y95250
T2
X2540Y30480
X2540Y27940
X2540Y25400
X2540Y22860
X2540Y20320
X2540Y17780
X35560Y17780
X35560Y20320
X35560Y22860
X35560Y25400
X35560Y27940
X35560Y30480
T3
X24130Y6985
X24130Y4445
X21590Y6985
X21590Y4445
X19050Y6985
X19050Y4445
X16510Y6985
X16510Y4445
X13970Y6985
X13970Y4445
T4
X22860Y68580
X15240Y53340
X15240Y50800
X15240Y38100
X22860Y38100
X15240Y48260
X15240Y45720
X15240Y40640
X15240Y43180
X22860Y40640
X22860Y43180
X22860Y45720
X22860Y48260
X22860Y50800
X22860Y53340
X34290Y4445
X34290Y6985
X3810Y6985
X3810Y4445
X11430Y38100
X3810Y38100
X5080Y69850
X10160Y69850
X21590Y34290
X16510Y34290
X16510Y57150
X21590Y57150
X25400Y27940
X27940Y27940
X11430Y50800
X3810Y50800
X10160Y83820
X5080Y83820
X3810Y53340
X11430Y53340
X3810Y48260
X11430Y48260
X14605Y27305
X12065Y27305
X28575Y80010
X28575Y74930
X28575Y77470
X28575Y67310
X28575Y72390
X28575Y69850
X34290Y83820
X26670Y83820
X26670Y86360
X34290Y86360
X27940Y93345
X27940Y95885
X34290Y57150
X26670Y57150
X34290Y61595
X34290Y66675
X31750Y64135
X34290Y64135
X15240Y63500
X22860Y63500
X22860Y66040
X15240Y66040
X15240Y68580
X34290Y38100
X22860Y71120
X15240Y71120
X15240Y73660
X22860Y73660
X22860Y76200
X15240Y76200
X15240Y78740
X22860Y78740
X22860Y81280
X15240Y81280
X15240Y83820
X22860Y83820
X22860Y86360
X15240Y86360
X22860Y88900
X15240Y88900
X22860Y60960
X15240Y60960
X17145Y94615
X22225Y94615
X19685Y97155
X19685Y94615
X11430Y90170
X3810Y90170
X3810Y87630
X11430Y87630
X3810Y95885
X3810Y93345
X10160Y78740
X5080Y78740
X10160Y64135
X5080Y64135
X11430Y73660
X3810Y73660
X27940Y21590
X25400Y21590
X30480Y14605
X22860Y14605
X7620Y56515
X7620Y59055
X11430Y40640
X3810Y40640
X34290Y45720
X26670Y45720
X26670Y40640
X34290Y40640
X34290Y43180
X26670Y43180
X31750Y34290
X29210Y34290
X34290Y48260
X26670Y48260
X26670Y53340
X34290Y53340
X26670Y50800
X34290Y50800
X3810Y45720
X11430Y45720
X11430Y43180
X3810Y43180
X26670Y38100
T5
X20320Y17780
T6
X8890Y31115
X25400Y69850
X12700Y85090
X19050Y54610
X19050Y21590
X12065Y34290
X5080Y34290
X13335Y58420
X32385Y30480
X6350Y38100
X6350Y27305
X7620Y40640
X7620Y29210
X29210Y40640
X8890Y43180
X2540Y9525
X33020Y10795
X25400Y34925
X33020Y90805
T7
X6350Y15875
X1905Y33655
X17780Y20320
M30